<svg xmlns="http://www.w3.org/2000/svg" xmlns:xlink="http://www.w3.org/1999/xlink" contentStyleType="text/css" height="227px" preserveAspectRatio="none" style="width:299px;height:227px;background:#FFFFFF;" version="1.1" viewBox="0 0 299 227" width="299px" zoomAndPan="magnify"><defs/><g><!--cluster umlparser--><g id="cluster_umlparser"><path d="M8.5,6 L82.5,6 A3.75,3.75 0 0 1 85,8.5 L92,28.4883 L289.5,28.4883 A2.5,2.5 0 0 1 292,30.9883 L292,217.92 A2.5,2.5 0 0 1 289.5,220.42 L8.5,220.42 A2.5,2.5 0 0 1 6,217.92 L6,8.5 A2.5,2.5 0 0 1 8.5,6 " fill="none" style="stroke:#000000;stroke-width:1.5;"/><line style="stroke:#000000;stroke-width:1.5;" x1="6" x2="92" y1="28.4883" y2="28.4883"/><text fill="#000000" font-family="sans-serif" font-size="14" font-weight="bold" lengthAdjust="spacing" textLength="73" x="10" y="21.5352">umlparser</text></g><!--class ExampleClass--><g id="elem_ExampleClass"><rect codeLine="1" fill="#F1F1F1" height="163.418" id="ExampleClass" rx="2.5" ry="2.5" style="stroke:#181818;stroke-width:0.5;" width="253" x="22.5" y="41"/><ellipse cx="97.25" cy="57" fill="#ADD1B2" rx="11" ry="11" style="stroke:#181818;stroke-width:1.0;"/><path d="M99.7231,63.1431 Q99.1421,63.4419 98.5029,63.5913 Q97.8638,63.7407 97.1582,63.7407 Q94.6514,63.7407 93.3315,62.0889 Q92.0117,60.437 92.0117,57.3159 Q92.0117,54.1865 93.3315,52.5347 Q94.6514,50.8828 97.1582,50.8828 Q97.8638,50.8828 98.5112,51.0322 Q99.1587,51.1816 99.7231,51.4805 L99.7231,54.2031 Q99.0923,53.6221 98.4988,53.3523 Q97.9053,53.0825 97.2744,53.0825 Q95.9297,53.0825 95.2449,54.1492 Q94.5601,55.2158 94.5601,57.3159 Q94.5601,59.4077 95.2449,60.4744 Q95.9297,61.541 97.2744,61.541 Q97.9053,61.541 98.4988,61.2712 Q99.0923,61.0015 99.7231,60.4204 Z " fill="#000000"/><text fill="#000000" font-family="sans-serif" font-size="14" lengthAdjust="spacing" textLength="95" x="117.75" y="62.291">ExampleClass</text><line style="stroke:#181818;stroke-width:0.5;" x1="23.5" x2="274.5" y1="73" y2="73"/><rect fill="none" height="6" style="stroke:#C82930;stroke-width:1.0;" width="6" x="30.5" y="83.7441"/><text fill="#000000" font-family="sans-serif" font-size="14" lengthAdjust="spacing" textLength="53" x="42.5" y="90.5352">foo : int</text><rect fill="none" height="6" style="stroke:#C82930;stroke-width:1.0;" width="6" x="30.5" y="100.2324"/><text fill="#000000" font-family="sans-serif" font-size="14" lengthAdjust="spacing" textLength="141" x="42.5" y="107.0234">bar : java.lang.String</text><line style="stroke:#181818;stroke-width:0.5;" x1="23.5" x2="274.5" y1="113.9766" y2="113.9766"/><ellipse cx="33.5" cy="127.7207" fill="#84BE84" rx="3" ry="3" style="stroke:#038048;stroke-width:1.0;"/><text fill="#000000" font-family="sans-serif" font-size="14" lengthAdjust="spacing" textLength="227" x="42.5" y="131.5117">&lt;init&gt;(int, java.lang.String) : void</text><ellipse cx="33.5" cy="144.209" fill="#84BE84" rx="3" ry="3" style="stroke:#038048;stroke-width:1.0;"/><text fill="#000000" font-family="sans-serif" font-size="14" lengthAdjust="spacing" textLength="88" x="42.5" y="148">getFoo() : int</text><ellipse cx="33.5" cy="160.6973" fill="#84BE84" rx="3" ry="3" style="stroke:#038048;stroke-width:1.0;"/><text fill="#000000" font-family="sans-serif" font-size="14" lengthAdjust="spacing" textLength="115" x="42.5" y="164.4883">setFoo(int) : void</text><ellipse cx="33.5" cy="177.1855" fill="#84BE84" rx="3" ry="3" style="stroke:#038048;stroke-width:1.0;"/><text fill="#000000" font-family="sans-serif" font-size="14" lengthAdjust="spacing" textLength="172" x="42.5" y="180.9766">getBar() : java.lang.String</text><ellipse cx="33.5" cy="193.6738" fill="#84BE84" rx="3" ry="3" style="stroke:#038048;stroke-width:1.0;"/><text fill="#000000" font-family="sans-serif" font-size="14" lengthAdjust="spacing" textLength="199" x="42.5" y="197.4648">setBar(java.lang.String) : void</text></g><!--SRC=[Iyv9B2vMACtDAKWiAaujqdEjICmjo4br1WjNSoaew2gavUShM2bavfM0UKc9HK1ULc9PebvEObwwNd19KMPUEb1AMy4cCo-pn4u3g587Gu4cK5DPVcOAM65wQebRVhw69jnOROLYY12GYwxIAR48h1AhbSKGUPosrG80]--></g></svg>