<svg xmlns="http://www.w3.org/2000/svg" xmlns:xlink="http://www.w3.org/1999/xlink" contentStyleType="text/css" data-diagram-type="CLASS" height="375px" preserveAspectRatio="none" style="width:503px;height:375px;background:#FFFFFF;" version="1.1" viewBox="0 0 503 375" width="503px" zoomAndPan="magnify"><defs/><g><!--cluster umlparser--><g id="cluster_umlparser"><path d="M8.5,6 L83.1777,6 A3.75,3.75 0 0 1 85.6777,8.5 L92.6777,28.4883 L493.5,28.4883 A2.5,2.5 0 0 1 496,30.9883 L496,366.31 A2.5,2.5 0 0 1 493.5,368.81 L8.5,368.81 A2.5,2.5 0 0 1 6,366.31 L6,8.5 A2.5,2.5 0 0 1 8.5,6 " fill="transparent" style="stroke:#000000;stroke-width:1.5;"/><line style="stroke:#000000;stroke-width:1.5;" x1="6" x2="92.6777" y1="28.4883" y2="28.4883"/><text fill="#000000" font-family="sans-serif" font-size="14" font-weight="bold" lengthAdjust="spacing" textLength="73.6777" x="10" y="21.5352">umlparser</text></g><!--class ExampleClass--><g id="elem_ExampleClass"><rect codeLine="1" fill="#F1F1F1" height="311.8125" id="ExampleClass" rx="2.5" ry="2.5" style="stroke:#181818;stroke-width:0.5;" width="457.6416" x="22.18" y="41"/><ellipse cx="200.0648" cy="57" fill="#ADD1B2" rx="11" ry="11" style="stroke:#181818;stroke-width:1;"/><path d="M202.5379,63.1431 Q201.9569,63.4419 201.3177,63.5913 Q200.6785,63.7407 199.973,63.7407 Q197.4661,63.7407 196.1463,62.0889 Q194.8265,60.437 194.8265,57.3159 Q194.8265,54.1865 196.1463,52.5347 Q197.4661,50.8828 199.973,50.8828 Q200.6785,50.8828 201.326,51.0322 Q201.9735,51.1816 202.5379,51.4805 L202.5379,54.2031 Q201.9071,53.6221 201.3135,53.3523 Q200.72,53.0825 200.0892,53.0825 Q198.7445,53.0825 198.0596,54.1492 Q197.3748,55.2158 197.3748,57.3159 Q197.3748,59.4077 198.0596,60.4744 Q198.7445,61.541 200.0892,61.541 Q200.72,61.541 201.3135,61.2712 Q201.9071,61.0015 202.5379,60.4204 Z " fill="#000000"/><text fill="#000000" font-family="sans-serif" font-size="14" lengthAdjust="spacing" textLength="93.3721" x="220.5648" y="62.291">ExampleClass</text><line style="stroke:#181818;stroke-width:0.5;" x1="23.18" x2="478.8216" y1="73" y2="73"/><rect fill="transparent" height="6" style="stroke:#C82930;stroke-width:1;" width="6" x="30.18" y="83.7441"/><text fill="#000000" font-family="sans-serif" font-size="14" lengthAdjust="spacing" textLength="155.5723" x="42.18" y="90.5352">name : java.lang.String</text><rect fill="transparent" height="6" style="stroke:#C82930;stroke-width:1;" width="6" x="30.18" y="100.2324"/><text fill="#000000" font-family="sans-serif" font-size="14" lengthAdjust="spacing" textLength="192.9307" x="42.18" y="107.0234">returnType : java.lang.String</text><rect fill="transparent" height="6" style="stroke:#C82930;stroke-width:1;" width="6" x="30.18" y="116.7207"/><text fill="#000000" font-family="sans-serif" font-size="14" lengthAdjust="spacing" textLength="204.5723" x="42.18" y="123.5117">parameterTypes : java.util.List</text><rect fill="transparent" height="6" style="stroke:#C82930;stroke-width:1;" width="6" x="30.18" y="133.209"/><text fill="#000000" font-family="sans-serif" font-size="14" lengthAdjust="spacing" textLength="75.4072" x="42.18" y="140">access : int</text><rect fill="transparent" height="6" style="stroke:#C82930;stroke-width:1;" width="6" x="30.18" y="149.6973"/><text fill="#000000" font-family="sans-serif" font-size="14" lengthAdjust="spacing" textLength="53.6074" x="42.18" y="156.4883">foo : int</text><rect fill="transparent" height="6" style="stroke:#C82930;stroke-width:1;" width="6" x="30.18" y="166.1855"/><text fill="#000000" font-family="sans-serif" font-size="14" lengthAdjust="spacing" textLength="140.5537" x="42.18" y="172.9766">bar : java.lang.String</text><line style="stroke:#181818;stroke-width:0.5;" x1="23.18" x2="478.8216" y1="179.9297" y2="179.9297"/><ellipse cx="33.18" cy="193.6738" fill="#84BE84" rx="3" ry="3" style="stroke:#038048;stroke-width:1;"/><text fill="#000000" font-family="sans-serif" font-size="14" lengthAdjust="spacing" textLength="431.6416" x="42.18" y="197.4648">&lt;init&gt;(java.lang.String, java.lang.String, java.util.List, int) : void</text><ellipse cx="33.18" cy="210.1621" fill="#84BE84" rx="3" ry="3" style="stroke:#038048;stroke-width:1;"/><text fill="#000000" font-family="sans-serif" font-size="14" lengthAdjust="spacing" textLength="188.0977" x="42.18" y="213.9531">getName() : java.lang.String</text><ellipse cx="33.18" cy="226.6504" fill="#84BE84" rx="3" ry="3" style="stroke:#038048;stroke-width:1;"/><text fill="#000000" font-family="sans-serif" font-size="14" lengthAdjust="spacing" textLength="226.9258" x="42.18" y="230.4414">getReturnType() : java.lang.String</text><ellipse cx="33.18" cy="243.1387" fill="#84BE84" rx="3" ry="3" style="stroke:#038048;stroke-width:1;"/><text fill="#000000" font-family="sans-serif" font-size="14" lengthAdjust="spacing" textLength="234.3701" x="42.18" y="246.9297">getParameterTypes() : java.util.List</text><ellipse cx="33.18" cy="259.627" fill="#84BE84" rx="3" ry="3" style="stroke:#038048;stroke-width:1;"/><text fill="#000000" font-family="sans-serif" font-size="14" lengthAdjust="spacing" textLength="108.2061" x="42.18" y="263.418">getAccess() : int</text><ellipse cx="33.18" cy="276.1152" fill="#84BE84" rx="3" ry="3" style="stroke:#038048;stroke-width:1;"/><text fill="#000000" font-family="sans-serif" font-size="14" lengthAdjust="spacing" textLength="227.1992" x="42.18" y="279.9063">&lt;init&gt;(int, java.lang.String) : void</text><ellipse cx="33.18" cy="292.6035" fill="#84BE84" rx="3" ry="3" style="stroke:#038048;stroke-width:1;"/><text fill="#000000" font-family="sans-serif" font-size="14" lengthAdjust="spacing" textLength="86.8369" x="42.18" y="296.3945">getFoo() : int</text><ellipse cx="33.18" cy="309.0918" fill="#84BE84" rx="3" ry="3" style="stroke:#038048;stroke-width:1;"/><text fill="#000000" font-family="sans-serif" font-size="14" lengthAdjust="spacing" textLength="113.9482" x="42.18" y="312.8828">setFoo(int) : void</text><ellipse cx="33.18" cy="325.5801" fill="#84BE84" rx="3" ry="3" style="stroke:#038048;stroke-width:1;"/><text fill="#000000" font-family="sans-serif" font-size="14" lengthAdjust="spacing" textLength="170.666" x="42.18" y="329.3711">getBar() : java.lang.String</text><ellipse cx="33.18" cy="342.0684" fill="#84BE84" rx="3" ry="3" style="stroke:#038048;stroke-width:1;"/><text fill="#000000" font-family="sans-serif" font-size="14" lengthAdjust="spacing" textLength="197.7773" x="42.18" y="345.8594">setBar(java.lang.String) : void</text></g><!--SRC=[VOz12i8m44NtdcAMBTOSG4HGqPM8g1SOQooHD2b9MXJnxgO9rhOsBkV_Dt_cfnorXZBd1IfD5LdVCIyuNJdvEGAOWC2SmXHkM27XA39oD8g9p7cAcbA9qwC84ZRNxXkgQaX_gD8mJhPC6yTWcb9TUqnuuIfbQpgZ6auVmum9PkPHtqiWe3Htapezjh6LP1SNbL6pivz6SUYM1GvDtR_OljFvYxPREt3XYZl0bsqQsV6tHF_VZPITNUsbWMPBLE6FjVU3rrvl]--></g></svg>