<svg xmlns="http://www.w3.org/2000/svg" xmlns:xlink="http://www.w3.org/1999/xlink" contentStyleType="text/css" data-diagram-type="CLASS" height="743px" preserveAspectRatio="none" style="width:1487px;height:743px;background:#FFFFFF;" version="1.1" viewBox="0 0 1487 743" width="1487px" zoomAndPan="magnify"><defs/><g><!--class Beverage--><g id="elem_Beverage"><rect codeLine="2" fill="#F1F1F1" height="118.4375" id="Beverage" rx="2.5" ry="2.5" style="stroke:#181818;stroke-width:0.5;" width="232.9854" x="790.5" y="618"/><ellipse cx="872.7773" cy="634" fill="#A9DCDF" rx="11" ry="11" style="stroke:#181818;stroke-width:1;"/><path d="M874.9648,635.7656 L870.8242,635.7656 L870.4023,636.7969 L870.8242,636.7969 Q871.4336,636.7969 871.6992,637.0313 Q871.9648,637.2656 871.9648,637.6563 Q871.9648,638.0313 871.6992,638.2656 Q871.4336,638.5 870.8242,638.5 L868.5273,638.5 Q867.918,638.5 867.668,638.2656 Q867.4023,638.0313 867.4023,637.6406 Q867.4023,637.2656 867.6836,637.0313 Q867.9492,636.7813 868.5742,636.7969 L871.2461,630.1406 L870.1367,630.1406 Q869.5273,630.1406 869.2617,629.9063 Q868.9961,629.6719 868.9961,629.2813 Q868.9961,628.9063 869.2617,628.6719 Q869.5273,628.4375 870.1367,628.4375 L873.8086,628.4375 L877.1992,636.7969 Q877.793,636.7969 877.9805,636.9375 Q878.3711,637.2031 878.3711,637.6563 Q878.3711,638.0313 878.1055,638.2656 Q877.8555,638.5 877.2461,638.5 L874.9492,638.5 Q874.3398,638.5 874.0742,638.2656 Q873.8086,638.0313 873.8086,637.6406 Q873.8086,637.2656 874.0742,637.0313 Q874.3398,636.7969 874.9492,636.7969 L875.3711,636.7969 L874.9648,635.7656 Z M874.2461,634.0625 L872.8867,630.6875 L871.5117,634.0625 L874.2461,634.0625 Z " fill="#000000"/><text fill="#000000" font-family="sans-serif" font-size="14" font-style="italic" lengthAdjust="spacing" textLength="59.9307" x="893.2773" y="639.7285">Beverage</text><line style="stroke:#181818;stroke-width:0.5;" x1="791.5" x2="1022.4854" y1="650" y2="650"/><polygon fill="transparent" points="801.5,659.3047,805.5,663.3047,801.5,667.3047,797.5,663.3047" style="stroke:#B38D22;stroke-width:1;"/><text fill="#000000" font-family="sans-serif" font-size="14" lengthAdjust="spacing" textLength="175.875" x="810.5" y="668.5332">description : java.lang.String</text><line style="stroke:#181818;stroke-width:0.5;" x1="791.5" x2="1022.4854" y1="675.6094" y2="675.6094"/><ellipse cx="801.5" cy="689.9141" fill="#84BE84" rx="3" ry="3" style="stroke:#038048;stroke-width:1;"/><text fill="#000000" font-family="sans-serif" font-size="14" lengthAdjust="spacing" textLength="80.9238" x="810.5" y="694.1426">&lt;init&gt;() : void</text><ellipse cx="801.5" cy="707.5234" fill="#84BE84" rx="3" ry="3" style="stroke:#038048;stroke-width:1;"/><text fill="#000000" font-family="sans-serif" font-size="14" lengthAdjust="spacing" textLength="206.9854" x="810.5" y="711.752">getDescription() : java.lang.String</text><ellipse cx="801.5" cy="725.1328" fill="#84BE84" rx="3" ry="3" style="stroke:#038048;stroke-width:1;"/><text fill="#000000" font-family="sans-serif" font-size="14" lengthAdjust="spacing" textLength="88.71" x="810.5" y="729.3613">cost() : double</text></g><!--entity CondimentDecoratorLabel--><!--class CondimentDecorator--><g id="elem_CondimentDecorator"><rect codeLine="11" fill="#F1F1F1" height="93.9219" id="CondimentDecorator" rx="2.5" ry="2.5" style="stroke:#181818;stroke-width:0.5;" width="232.9854" x="581.5" y="463"/><ellipse cx="629.1567" cy="484.3516" fill="#A9DCDF" rx="11" ry="11" style="stroke:#181818;stroke-width:1;"/><path d="M631.3442,486.1172 L627.2036,486.1172 L626.7817,487.1484 L627.2036,487.1484 Q627.813,487.1484 628.0786,487.3828 Q628.3442,487.6172 628.3442,488.0078 Q628.3442,488.3828 628.0786,488.6172 Q627.813,488.8516 627.2036,488.8516 L624.9067,488.8516 Q624.2974,488.8516 624.0474,488.6172 Q623.7817,488.3828 623.7817,487.9922 Q623.7817,487.6172 624.063,487.3828 Q624.3286,487.1328 624.9536,487.1484 L627.6255,480.4922 L626.5161,480.4922 Q625.9067,480.4922 625.6411,480.2578 Q625.3755,480.0234 625.3755,479.6328 Q625.3755,479.2578 625.6411,479.0234 Q625.9067,478.7891 626.5161,478.7891 L630.188,478.7891 L633.5786,487.1484 Q634.1724,487.1484 634.3599,487.2891 Q634.7505,487.5547 634.7505,488.0078 Q634.7505,488.3828 634.4849,488.6172 Q634.2349,488.8516 633.6255,488.8516 L631.3286,488.8516 Q630.7192,488.8516 630.4536,488.6172 Q630.188,488.3828 630.188,487.9922 Q630.188,487.6172 630.4536,487.3828 Q630.7192,487.1484 631.3286,487.1484 L631.7505,487.1484 L631.3442,486.1172 Z M630.6255,484.4141 L629.2661,481.0391 L627.8911,484.4141 L630.6255,484.4141 Z " fill="#000000"/><text fill="#000000" font-family="sans-serif" font-size="12" font-style="italic" lengthAdjust="spacing" textLength="66.0352" x="681.2251" y="480.457">&#171;Decorator&#187;</text><text fill="#000000" font-family="sans-serif" font-size="14" font-style="italic" lengthAdjust="spacing" textLength="129.1719" x="649.6567" y="497.627">CondimentDecorator</text><line style="stroke:#181818;stroke-width:0.5;" x1="582.5" x2="813.4854" y1="505.7031" y2="505.7031"/><line style="stroke:#181818;stroke-width:0.5;" x1="582.5" x2="813.4854" y1="513.7031" y2="513.7031"/><ellipse cx="592.5" cy="528.0078" fill="#84BE84" rx="3" ry="3" style="stroke:#038048;stroke-width:1;"/><text fill="#000000" font-family="sans-serif" font-size="14" lengthAdjust="spacing" textLength="80.9238" x="601.5" y="532.2363">&lt;init&gt;() : void</text><ellipse cx="592.5" cy="545.6172" fill="#84BE84" rx="3" ry="3" style="stroke:#038048;stroke-width:1;"/><text fill="#000000" font-family="sans-serif" font-size="14" lengthAdjust="spacing" textLength="206.9854" x="601.5" y="549.8457">getDescription() : java.lang.String</text></g><!--class Espresso--><g id="elem_Espresso"><rect codeLine="16" fill="#F1F1F1" height="83.2188" id="Espresso" rx="2.5" ry="2.5" style="stroke:#181818;stroke-width:0.5;" width="114.71" x="849.5" y="468.5"/><ellipse cx="875.4582" cy="484.5" fill="#ADD1B2" rx="11" ry="11" style="stroke:#181818;stroke-width:1;"/><path d="M878.2238,480.375 Q878.3801,480.1563 878.5676,480.0469 Q878.7551,479.9375 878.9738,479.9375 Q879.3488,479.9375 879.5832,480.2031 Q879.8176,480.4531 879.8176,481.0625 L879.8176,482.5156 Q879.8176,483.125 879.5832,483.3906 Q879.3488,483.6563 878.9738,483.6563 Q878.6301,483.6563 878.427,483.4531 Q878.2238,483.2656 878.1145,482.75 Q878.0676,482.3906 877.8801,482.2031 Q877.552,481.8281 876.9426,481.6094 Q876.3332,481.3906 875.7082,481.3906 Q874.9426,481.3906 874.302,481.7188 Q873.677,482.0469 873.177,482.7969 Q872.6926,483.5469 872.6926,484.5781 L872.6926,485.6719 Q872.6926,486.9063 873.5832,487.7344 Q874.4738,488.5469 876.0676,488.5469 Q877.0051,488.5469 877.6613,488.2969 Q878.052,488.1406 878.4738,487.7031 Q878.7395,487.4375 878.8801,487.3594 Q879.0363,487.2813 879.2395,487.2813 Q879.5676,487.2813 879.8176,487.5469 Q880.0832,487.7969 880.0832,488.1406 Q880.0832,488.4844 879.7395,488.8906 Q879.2395,489.4688 878.4426,489.7969 Q877.3645,490.25 876.0676,490.25 Q874.552,490.25 873.3488,489.625 Q872.3645,489.125 871.677,488.0625 Q870.9895,486.9844 870.9895,485.7031 L870.9895,484.5469 Q870.9895,483.2188 871.5988,482.0781 Q872.2238,480.9219 873.3176,480.3125 Q874.4113,479.6875 875.6457,479.6875 Q876.3801,479.6875 877.0207,479.8594 Q877.677,480.0156 878.2238,480.375 Z " fill="#000000"/><text fill="#000000" font-family="sans-serif" font-size="14" lengthAdjust="spacing" textLength="58.3584" x="891.8934" y="490.2285">Espresso</text><line style="stroke:#181818;stroke-width:0.5;" x1="850.5" x2="963.21" y1="500.5" y2="500.5"/><line style="stroke:#181818;stroke-width:0.5;" x1="850.5" x2="963.21" y1="508.5" y2="508.5"/><ellipse cx="860.5" cy="522.8047" fill="#84BE84" rx="3" ry="3" style="stroke:#038048;stroke-width:1;"/><text fill="#000000" font-family="sans-serif" font-size="14" lengthAdjust="spacing" textLength="80.9238" x="869.5" y="527.0332">&lt;init&gt;() : void</text><ellipse cx="860.5" cy="540.4141" fill="#84BE84" rx="3" ry="3" style="stroke:#038048;stroke-width:1;"/><text fill="#000000" font-family="sans-serif" font-size="14" lengthAdjust="spacing" textLength="88.71" x="869.5" y="544.6426">cost() : double</text></g><!--class HouseBlend--><g id="elem_HouseBlend"><rect codeLine="21" fill="#F1F1F1" height="83.2188" id="HouseBlend" rx="2.5" ry="2.5" style="stroke:#181818;stroke-width:0.5;" width="114.71" x="999.5" y="468.5"/><ellipse cx="1017.3956" cy="484.5" fill="#ADD1B2" rx="11" ry="11" style="stroke:#181818;stroke-width:1;"/><path d="M1020.1612,480.375 Q1020.3174,480.1563 1020.5049,480.0469 Q1020.6924,479.9375 1020.9112,479.9375 Q1021.2862,479.9375 1021.5206,480.2031 Q1021.7549,480.4531 1021.7549,481.0625 L1021.7549,482.5156 Q1021.7549,483.125 1021.5206,483.3906 Q1021.2862,483.6563 1020.9112,483.6563 Q1020.5674,483.6563 1020.3643,483.4531 Q1020.1612,483.2656 1020.0518,482.75 Q1020.0049,482.3906 1019.8174,482.2031 Q1019.4893,481.8281 1018.8799,481.6094 Q1018.2706,481.3906 1017.6456,481.3906 Q1016.8799,481.3906 1016.2393,481.7188 Q1015.6143,482.0469 1015.1143,482.7969 Q1014.6299,483.5469 1014.6299,484.5781 L1014.6299,485.6719 Q1014.6299,486.9063 1015.5206,487.7344 Q1016.4112,488.5469 1018.0049,488.5469 Q1018.9424,488.5469 1019.5987,488.2969 Q1019.9893,488.1406 1020.4112,487.7031 Q1020.6768,487.4375 1020.8174,487.3594 Q1020.9737,487.2813 1021.1768,487.2813 Q1021.5049,487.2813 1021.7549,487.5469 Q1022.0206,487.7969 1022.0206,488.1406 Q1022.0206,488.4844 1021.6768,488.8906 Q1021.1768,489.4688 1020.3799,489.7969 Q1019.3018,490.25 1018.0049,490.25 Q1016.4893,490.25 1015.2862,489.625 Q1014.3018,489.125 1013.6143,488.0625 Q1012.9268,486.9844 1012.9268,485.7031 L1012.9268,484.5469 Q1012.9268,483.2188 1013.5362,482.0781 Q1014.1612,480.9219 1015.2549,480.3125 Q1016.3487,479.6875 1017.5831,479.6875 Q1018.3174,479.6875 1018.9581,479.8594 Q1019.6143,480.0156 1020.1612,480.375 Z " fill="#000000"/><text fill="#000000" font-family="sans-serif" font-size="14" lengthAdjust="spacing" textLength="76.2754" x="1032.039" y="490.2285">HouseBlend</text><line style="stroke:#181818;stroke-width:0.5;" x1="1000.5" x2="1113.21" y1="500.5" y2="500.5"/><line style="stroke:#181818;stroke-width:0.5;" x1="1000.5" x2="1113.21" y1="508.5" y2="508.5"/><ellipse cx="1010.5" cy="522.8047" fill="#84BE84" rx="3" ry="3" style="stroke:#038048;stroke-width:1;"/><text fill="#000000" font-family="sans-serif" font-size="14" lengthAdjust="spacing" textLength="80.9238" x="1019.5" y="527.0332">&lt;init&gt;() : void</text><ellipse cx="1010.5" cy="540.4141" fill="#84BE84" rx="3" ry="3" style="stroke:#038048;stroke-width:1;"/><text fill="#000000" font-family="sans-serif" font-size="14" lengthAdjust="spacing" textLength="88.71" x="1019.5" y="544.6426">cost() : double</text></g><!--class JCUTApplication--><g id="elem_JCUTApplication"><rect codeLine="26" fill="#F1F1F1" height="83.2188" id="JCUTApplication" rx="2.5" ry="2.5" style="stroke:#181818;stroke-width:0.5;" width="207.3027" x="20.5" y="51"/><ellipse cx="67.7705" cy="67" fill="#ADD1B2" rx="11" ry="11" style="stroke:#181818;stroke-width:1;"/><path d="M70.5361,62.875 Q70.6924,62.6563 70.8799,62.5469 Q71.0674,62.4375 71.2861,62.4375 Q71.6611,62.4375 71.8955,62.7031 Q72.1299,62.9531 72.1299,63.5625 L72.1299,65.0156 Q72.1299,65.625 71.8955,65.8906 Q71.6611,66.1563 71.2861,66.1563 Q70.9424,66.1563 70.7393,65.9531 Q70.5361,65.7656 70.4268,65.25 Q70.3799,64.8906 70.1924,64.7031 Q69.8643,64.3281 69.2549,64.1094 Q68.6455,63.8906 68.0205,63.8906 Q67.2549,63.8906 66.6143,64.2188 Q65.9893,64.5469 65.4893,65.2969 Q65.0049,66.0469 65.0049,67.0781 L65.0049,68.1719 Q65.0049,69.4063 65.8955,70.2344 Q66.7861,71.0469 68.3799,71.0469 Q69.3174,71.0469 69.9736,70.7969 Q70.3643,70.6406 70.7861,70.2031 Q71.0518,69.9375 71.1924,69.8594 Q71.3486,69.7813 71.5518,69.7813 Q71.8799,69.7813 72.1299,70.0469 Q72.3955,70.2969 72.3955,70.6406 Q72.3955,70.9844 72.0518,71.3906 Q71.5518,71.9688 70.7549,72.2969 Q69.6768,72.75 68.3799,72.75 Q66.8643,72.75 65.6611,72.125 Q64.6768,71.625 63.9893,70.5625 Q63.3018,69.4844 63.3018,68.2031 L63.3018,67.0469 Q63.3018,65.7188 63.9111,64.5781 Q64.5361,63.4219 65.6299,62.8125 Q66.7236,62.1875 67.958,62.1875 Q68.6924,62.1875 69.333,62.3594 Q69.9893,62.5156 70.5361,62.875 Z " fill="#000000"/><text fill="#000000" font-family="sans-serif" font-size="14" lengthAdjust="spacing" textLength="104.2617" x="88.2705" y="72.7285">JCUTApplication</text><line style="stroke:#181818;stroke-width:0.5;" x1="21.5" x2="226.8027" y1="83" y2="83"/><line style="stroke:#181818;stroke-width:0.5;" x1="21.5" x2="226.8027" y1="91" y2="91"/><ellipse cx="31.5" cy="105.3047" fill="#84BE84" rx="3" ry="3" style="stroke:#038048;stroke-width:1;"/><text fill="#000000" font-family="sans-serif" font-size="14" lengthAdjust="spacing" textLength="80.9238" x="40.5" y="109.5332">&lt;init&gt;() : void</text><ellipse cx="31.5" cy="122.9141" fill="#84BE84" rx="3" ry="3" style="stroke:#038048;stroke-width:1;"/><text fill="#000000" font-family="sans-serif" font-size="14" lengthAdjust="spacing" textLength="181.3027" x="40.5" y="127.1426">main(java.lang.String[]) : void</text></g><!--entity LoggerLabel--><!--class Logger--><g id="elem_Logger"><rect codeLine="33" fill="#F1F1F1" height="129.1406" id="Logger" rx="2.5" ry="2.5" style="stroke:#181818;stroke-width:0.5;" width="229.1025" x="1251.5" y="256"/><ellipse cx="1332.1079" cy="277.3516" fill="#ADD1B2" rx="11" ry="11" style="stroke:#181818;stroke-width:1;"/><path d="M1334.8735,273.2266 Q1335.0298,273.0078 1335.2173,272.8984 Q1335.4048,272.7891 1335.6235,272.7891 Q1335.9985,272.7891 1336.2329,273.0547 Q1336.4673,273.3047 1336.4673,273.9141 L1336.4673,275.3672 Q1336.4673,275.9766 1336.2329,276.2422 Q1335.9985,276.5078 1335.6235,276.5078 Q1335.2798,276.5078 1335.0767,276.3047 Q1334.8735,276.1172 1334.7642,275.6016 Q1334.7173,275.2422 1334.5298,275.0547 Q1334.2017,274.6797 1333.5923,274.4609 Q1332.9829,274.2422 1332.3579,274.2422 Q1331.5923,274.2422 1330.9517,274.5703 Q1330.3267,274.8984 1329.8267,275.6484 Q1329.3423,276.3984 1329.3423,277.4297 L1329.3423,278.5234 Q1329.3423,279.7578 1330.2329,280.5859 Q1331.1235,281.3984 1332.7173,281.3984 Q1333.6548,281.3984 1334.311,281.1484 Q1334.7017,280.9922 1335.1235,280.5547 Q1335.3892,280.2891 1335.5298,280.2109 Q1335.686,280.1328 1335.8892,280.1328 Q1336.2173,280.1328 1336.4673,280.3984 Q1336.7329,280.6484 1336.7329,280.9922 Q1336.7329,281.3359 1336.3892,281.7422 Q1335.8892,282.3203 1335.0923,282.6484 Q1334.0142,283.1016 1332.7173,283.1016 Q1331.2017,283.1016 1329.9985,282.4766 Q1329.0142,281.9766 1328.3267,280.9141 Q1327.6392,279.8359 1327.6392,278.5547 L1327.6392,277.3984 Q1327.6392,276.0703 1328.2485,274.9297 Q1328.8735,273.7734 1329.9673,273.1641 Q1331.061,272.5391 1332.2954,272.5391 Q1333.0298,272.5391 1333.6704,272.7109 Q1334.3267,272.8672 1334.8735,273.2266 Z " fill="#000000"/><text fill="#000000" font-family="sans-serif" font-size="12" font-style="italic" lengthAdjust="spacing" textLength="63.3867" x="1350.6079" y="273.457">&#171;Singleton&#187;</text><text fill="#000000" font-family="sans-serif" font-size="14" lengthAdjust="spacing" textLength="43.5928" x="1360.5049" y="290.627">Logger</text><line style="stroke:#181818;stroke-width:0.5;" x1="1252.5" x2="1479.6025" y1="298.7031" y2="298.7031"/><rect fill="transparent" height="6" style="stroke:#C82930;stroke-width:1;" width="6" x="1259.5" y="310.0078"/><text fill="#000000" font-family="sans-serif" font-size="14" lengthAdjust="spacing" textLength="107.4063" x="1271.5" y="317.2363">instance : Logger</text><line style="stroke:#181818;stroke-width:0.5;" x1="1252.5" x2="1479.6025" y1="324.3125" y2="324.3125"/><rect fill="#F24D5C" height="6" style="stroke:#C82930;stroke-width:1;" width="6" x="1259.5" y="335.6172"/><text fill="#000000" font-family="sans-serif" font-size="14" lengthAdjust="spacing" textLength="80.9238" x="1271.5" y="342.8457">&lt;init&gt;() : void</text><ellipse cx="1262.5" cy="356.2266" fill="#84BE84" rx="3" ry="3" style="stroke:#038048;stroke-width:1;"/><text fill="#000000" font-family="sans-serif" font-size="14" lengthAdjust="spacing" textLength="203.1025" x="1271.5" y="360.4551">getInstance() : umlparser.Logger</text><ellipse cx="1262.5" cy="373.8359" fill="#84BE84" rx="3" ry="3" style="stroke:#038048;stroke-width:1;"/><text fill="#000000" font-family="sans-serif" font-size="14" lengthAdjust="spacing" textLength="161.8613" x="1271.5" y="378.0645">log(java.lang.String) : void</text></g><!--entity MilkLabel--><!--class Milk--><g id="elem_Milk"><rect codeLine="42" fill="#F1F1F1" height="129.1406" id="Milk" rx="2.5" ry="2.5" style="stroke:#181818;stroke-width:0.5;" width="232.9854" x="447.5" y="256"/><ellipse cx="528.7251" cy="277.3516" fill="#ADD1B2" rx="11" ry="11" style="stroke:#181818;stroke-width:1;"/><path d="M531.4907,273.2266 Q531.647,273.0078 531.8345,272.8984 Q532.022,272.7891 532.2407,272.7891 Q532.6157,272.7891 532.8501,273.0547 Q533.0845,273.3047 533.0845,273.9141 L533.0845,275.3672 Q533.0845,275.9766 532.8501,276.2422 Q532.6157,276.5078 532.2407,276.5078 Q531.897,276.5078 531.6938,276.3047 Q531.4907,276.1172 531.3813,275.6016 Q531.3345,275.2422 531.147,275.0547 Q530.8188,274.6797 530.2095,274.4609 Q529.6001,274.2422 528.9751,274.2422 Q528.2095,274.2422 527.5688,274.5703 Q526.9438,274.8984 526.4438,275.6484 Q525.9595,276.3984 525.9595,277.4297 L525.9595,278.5234 Q525.9595,279.7578 526.8501,280.5859 Q527.7407,281.3984 529.3345,281.3984 Q530.272,281.3984 530.9282,281.1484 Q531.3188,280.9922 531.7407,280.5547 Q532.0063,280.2891 532.147,280.2109 Q532.3032,280.1328 532.5063,280.1328 Q532.8345,280.1328 533.0845,280.3984 Q533.3501,280.6484 533.3501,280.9922 Q533.3501,281.3359 533.0063,281.7422 Q532.5063,282.3203 531.7095,282.6484 Q530.6313,283.1016 529.3345,283.1016 Q527.8188,283.1016 526.6157,282.4766 Q525.6313,281.9766 524.9438,280.9141 Q524.2563,279.8359 524.2563,278.5547 L524.2563,277.3984 Q524.2563,276.0703 524.8657,274.9297 Q525.4907,273.7734 526.5845,273.1641 Q527.6782,272.5391 528.9126,272.5391 Q529.647,272.5391 530.2876,272.7109 Q530.9438,272.8672 531.4907,273.2266 Z " fill="#000000"/><text fill="#000000" font-family="sans-serif" font-size="12" font-style="italic" lengthAdjust="spacing" textLength="66.0352" x="547.2251" y="273.457">&#171;Decorator&#187;</text><text fill="#000000" font-family="sans-serif" font-size="14" lengthAdjust="spacing" textLength="24.8828" x="567.8013" y="290.627">Milk</text><line style="stroke:#181818;stroke-width:0.5;" x1="448.5" x2="679.4854" y1="298.7031" y2="298.7031"/><rect fill="transparent" height="6" style="stroke:#C82930;stroke-width:1;" width="6" x="455.5" y="310.0078"/><text fill="#000000" font-family="sans-serif" font-size="14" lengthAdjust="spacing" textLength="129.9785" x="467.5" y="317.2363">beverage : Beverage</text><line style="stroke:#181818;stroke-width:0.5;" x1="448.5" x2="679.4854" y1="324.3125" y2="324.3125"/><ellipse cx="458.5" cy="338.6172" fill="#84BE84" rx="3" ry="3" style="stroke:#038048;stroke-width:1;"/><text fill="#000000" font-family="sans-serif" font-size="14" lengthAdjust="spacing" textLength="206.9854" x="467.5" y="342.8457">&lt;init&gt;(umlparser.Beverage) : void</text><ellipse cx="458.5" cy="356.2266" fill="#84BE84" rx="3" ry="3" style="stroke:#038048;stroke-width:1;"/><text fill="#000000" font-family="sans-serif" font-size="14" lengthAdjust="spacing" textLength="206.9854" x="467.5" y="360.4551">getDescription() : java.lang.String</text><ellipse cx="458.5" cy="373.8359" fill="#84BE84" rx="3" ry="3" style="stroke:#038048;stroke-width:1;"/><text fill="#000000" font-family="sans-serif" font-size="14" lengthAdjust="spacing" textLength="88.71" x="467.5" y="378.0645">cost() : double</text></g><!--entity MochaLabel--><!--class Mocha--><g id="elem_Mocha"><rect codeLine="51" fill="#F1F1F1" height="129.1406" id="Mocha" rx="2.5" ry="2.5" style="stroke:#181818;stroke-width:0.5;" width="232.9854" x="715.5" y="256"/><ellipse cx="796.7251" cy="277.3516" fill="#ADD1B2" rx="11" ry="11" style="stroke:#181818;stroke-width:1;"/><path d="M799.4907,273.2266 Q799.647,273.0078 799.8345,272.8984 Q800.022,272.7891 800.2407,272.7891 Q800.6157,272.7891 800.8501,273.0547 Q801.0845,273.3047 801.0845,273.9141 L801.0845,275.3672 Q801.0845,275.9766 800.8501,276.2422 Q800.6157,276.5078 800.2407,276.5078 Q799.897,276.5078 799.6938,276.3047 Q799.4907,276.1172 799.3813,275.6016 Q799.3345,275.2422 799.147,275.0547 Q798.8188,274.6797 798.2095,274.4609 Q797.6001,274.2422 796.9751,274.2422 Q796.2095,274.2422 795.5688,274.5703 Q794.9438,274.8984 794.4438,275.6484 Q793.9595,276.3984 793.9595,277.4297 L793.9595,278.5234 Q793.9595,279.7578 794.8501,280.5859 Q795.7407,281.3984 797.3345,281.3984 Q798.272,281.3984 798.9282,281.1484 Q799.3188,280.9922 799.7407,280.5547 Q800.0063,280.2891 800.147,280.2109 Q800.3032,280.1328 800.5063,280.1328 Q800.8345,280.1328 801.0845,280.3984 Q801.3501,280.6484 801.3501,280.9922 Q801.3501,281.3359 801.0063,281.7422 Q800.5063,282.3203 799.7095,282.6484 Q798.6313,283.1016 797.3345,283.1016 Q795.8188,283.1016 794.6157,282.4766 Q793.6313,281.9766 792.9438,280.9141 Q792.2563,279.8359 792.2563,278.5547 L792.2563,277.3984 Q792.2563,276.0703 792.8657,274.9297 Q793.4907,273.7734 794.5845,273.1641 Q795.6782,272.5391 796.9126,272.5391 Q797.647,272.5391 798.2876,272.7109 Q798.9438,272.8672 799.4907,273.2266 Z " fill="#000000"/><text fill="#000000" font-family="sans-serif" font-size="12" font-style="italic" lengthAdjust="spacing" textLength="66.0352" x="815.2251" y="273.457">&#171;Decorator&#187;</text><text fill="#000000" font-family="sans-serif" font-size="14" lengthAdjust="spacing" textLength="42.0205" x="827.2324" y="290.627">Mocha</text><line style="stroke:#181818;stroke-width:0.5;" x1="716.5" x2="947.4854" y1="298.7031" y2="298.7031"/><rect fill="transparent" height="6" style="stroke:#C82930;stroke-width:1;" width="6" x="723.5" y="310.0078"/><text fill="#000000" font-family="sans-serif" font-size="14" lengthAdjust="spacing" textLength="129.9785" x="735.5" y="317.2363">beverage : Beverage</text><line style="stroke:#181818;stroke-width:0.5;" x1="716.5" x2="947.4854" y1="324.3125" y2="324.3125"/><ellipse cx="726.5" cy="338.6172" fill="#84BE84" rx="3" ry="3" style="stroke:#038048;stroke-width:1;"/><text fill="#000000" font-family="sans-serif" font-size="14" lengthAdjust="spacing" textLength="206.9854" x="735.5" y="342.8457">&lt;init&gt;(umlparser.Beverage) : void</text><ellipse cx="726.5" cy="356.2266" fill="#84BE84" rx="3" ry="3" style="stroke:#038048;stroke-width:1;"/><text fill="#000000" font-family="sans-serif" font-size="14" lengthAdjust="spacing" textLength="206.9854" x="735.5" y="360.4551">getDescription() : java.lang.String</text><ellipse cx="726.5" cy="373.8359" fill="#84BE84" rx="3" ry="3" style="stroke:#038048;stroke-width:1;"/><text fill="#000000" font-family="sans-serif" font-size="14" lengthAdjust="spacing" textLength="88.71" x="735.5" y="378.0645">cost() : double</text></g><!--class Order--><g id="elem_Order"><rect codeLine="58" fill="#F1F1F1" height="171.2656" id="Order" rx="2.5" ry="2.5" style="stroke:#181818;stroke-width:0.5;" width="255.5508" x="263" y="7"/><ellipse cx="368.6323" cy="23" fill="#ADD1B2" rx="11" ry="11" style="stroke:#181818;stroke-width:1;"/><path d="M371.3979,18.875 Q371.5542,18.6563 371.7417,18.5469 Q371.9292,18.4375 372.1479,18.4375 Q372.5229,18.4375 372.7573,18.7031 Q372.9917,18.9531 372.9917,19.5625 L372.9917,21.0156 Q372.9917,21.625 372.7573,21.8906 Q372.5229,22.1563 372.1479,22.1563 Q371.8042,22.1563 371.6011,21.9531 Q371.3979,21.7656 371.2886,21.25 Q371.2417,20.8906 371.0542,20.7031 Q370.7261,20.3281 370.1167,20.1094 Q369.5073,19.8906 368.8823,19.8906 Q368.1167,19.8906 367.4761,20.2188 Q366.8511,20.5469 366.3511,21.2969 Q365.8667,22.0469 365.8667,23.0781 L365.8667,24.1719 Q365.8667,25.4063 366.7573,26.2344 Q367.6479,27.0469 369.2417,27.0469 Q370.1792,27.0469 370.8354,26.7969 Q371.2261,26.6406 371.6479,26.2031 Q371.9136,25.9375 372.0542,25.8594 Q372.2104,25.7813 372.4136,25.7813 Q372.7417,25.7813 372.9917,26.0469 Q373.2573,26.2969 373.2573,26.6406 Q373.2573,26.9844 372.9136,27.3906 Q372.4136,27.9688 371.6167,28.2969 Q370.5386,28.75 369.2417,28.75 Q367.7261,28.75 366.5229,28.125 Q365.5386,27.625 364.8511,26.5625 Q364.1636,25.4844 364.1636,24.2031 L364.1636,23.0469 Q364.1636,21.7188 364.7729,20.5781 Q365.3979,19.4219 366.4917,18.8125 Q367.5854,18.1875 368.8198,18.1875 Q369.5542,18.1875 370.1948,18.3594 Q370.8511,18.5156 371.3979,18.875 Z " fill="#000000"/><text fill="#000000" font-family="sans-serif" font-size="14" lengthAdjust="spacing" textLength="35.7861" x="389.1323" y="28.7285">Order</text><line style="stroke:#181818;stroke-width:0.5;" x1="264" x2="517.5508" y1="39" y2="39"/><rect fill="transparent" height="6" style="stroke:#C82930;stroke-width:1;" width="6" x="271" y="50.3047"/><text fill="#000000" font-family="sans-serif" font-size="14" lengthAdjust="spacing" textLength="70.8135" x="283" y="57.5332">orderId : int</text><rect fill="transparent" height="6" style="stroke:#C82930;stroke-width:1;" width="6" x="271" y="67.9141"/><text fill="#000000" font-family="sans-serif" font-size="14" lengthAdjust="spacing" textLength="129.9785" x="283" y="75.1426">beverage : Beverage</text><line style="stroke:#181818;stroke-width:0.5;" x1="264" x2="517.5508" y1="82.2188" y2="82.2188"/><ellipse cx="274" cy="96.5234" fill="#84BE84" rx="3" ry="3" style="stroke:#038048;stroke-width:1;"/><text fill="#000000" font-family="sans-serif" font-size="14" lengthAdjust="spacing" textLength="229.5508" x="283" y="100.752">&lt;init&gt;(int, umlparser.Beverage) : void</text><ellipse cx="274" cy="114.1328" fill="#84BE84" rx="3" ry="3" style="stroke:#038048;stroke-width:1;"/><text fill="#000000" font-family="sans-serif" font-size="14" lengthAdjust="spacing" textLength="102.7031" x="283" y="118.3613">getOrderId() : int</text><ellipse cx="274" cy="131.7422" fill="#84BE84" rx="3" ry="3" style="stroke:#038048;stroke-width:1;"/><text fill="#000000" font-family="sans-serif" font-size="14" lengthAdjust="spacing" textLength="226.4473" x="283" y="135.9707">getBeverage() : umlparser.Beverage</text><ellipse cx="274" cy="149.3516" fill="#84BE84" rx="3" ry="3" style="stroke:#038048;stroke-width:1;"/><text fill="#000000" font-family="sans-serif" font-size="14" lengthAdjust="spacing" textLength="111.2822" x="283" y="153.5801">getCost() : double</text><ellipse cx="274" cy="166.9609" fill="#84BE84" rx="3" ry="3" style="stroke:#038048;stroke-width:1;"/><text fill="#000000" font-family="sans-serif" font-size="14" lengthAdjust="spacing" textLength="206.9854" x="283" y="171.1895">getDescription() : java.lang.String</text></g><!--class OrderManager--><g id="elem_OrderManager"><rect codeLine="68" fill="#F1F1F1" height="118.4375" id="OrderManager" rx="2.5" ry="2.5" style="stroke:#181818;stroke-width:0.5;" width="233.7373" x="7" y="261.5"/><ellipse cx="74.0981" cy="277.5" fill="#ADD1B2" rx="11" ry="11" style="stroke:#181818;stroke-width:1;"/><path d="M76.8638,273.375 Q77.02,273.1563 77.2075,273.0469 Q77.395,272.9375 77.6138,272.9375 Q77.9888,272.9375 78.2231,273.2031 Q78.4575,273.4531 78.4575,274.0625 L78.4575,275.5156 Q78.4575,276.125 78.2231,276.3906 Q77.9888,276.6563 77.6138,276.6563 Q77.27,276.6563 77.0669,276.4531 Q76.8638,276.2656 76.7544,275.75 Q76.7075,275.3906 76.52,275.2031 Q76.1919,274.8281 75.5825,274.6094 Q74.9731,274.3906 74.3481,274.3906 Q73.5825,274.3906 72.9419,274.7188 Q72.3169,275.0469 71.8169,275.7969 Q71.3325,276.5469 71.3325,277.5781 L71.3325,278.6719 Q71.3325,279.9063 72.2231,280.7344 Q73.1138,281.5469 74.7075,281.5469 Q75.645,281.5469 76.3013,281.2969 Q76.6919,281.1406 77.1138,280.7031 Q77.3794,280.4375 77.52,280.3594 Q77.6763,280.2813 77.8794,280.2813 Q78.2075,280.2813 78.4575,280.5469 Q78.7231,280.7969 78.7231,281.1406 Q78.7231,281.4844 78.3794,281.8906 Q77.8794,282.4688 77.0825,282.7969 Q76.0044,283.25 74.7075,283.25 Q73.1919,283.25 71.9888,282.625 Q71.0044,282.125 70.3169,281.0625 Q69.6294,279.9844 69.6294,278.7031 L69.6294,277.5469 Q69.6294,276.2188 70.2388,275.0781 Q70.8638,273.9219 71.9575,273.3125 Q73.0513,272.6875 74.2856,272.6875 Q75.02,272.6875 75.6606,272.8594 Q76.3169,273.0156 76.8638,273.375 Z " fill="#000000"/><text fill="#000000" font-family="sans-serif" font-size="14" lengthAdjust="spacing" textLength="91.041" x="94.5981" y="283.2285">OrderManager</text><line style="stroke:#181818;stroke-width:0.5;" x1="8" x2="239.7373" y1="293.5" y2="293.5"/><rect fill="transparent" height="6" style="stroke:#C82930;stroke-width:1;" width="6" x="15" y="304.8047"/><text fill="#000000" font-family="sans-serif" font-size="14" lengthAdjust="spacing" textLength="124.4961" x="27" y="312.0332">orders : java.util.List</text><line style="stroke:#181818;stroke-width:0.5;" x1="8" x2="239.7373" y1="319.1094" y2="319.1094"/><ellipse cx="18" cy="333.4141" fill="#84BE84" rx="3" ry="3" style="stroke:#038048;stroke-width:1;"/><text fill="#000000" font-family="sans-serif" font-size="14" lengthAdjust="spacing" textLength="80.9238" x="27" y="337.6426">&lt;init&gt;() : void</text><ellipse cx="18" cy="351.0234" fill="#84BE84" rx="3" ry="3" style="stroke:#038048;stroke-width:1;"/><text fill="#000000" font-family="sans-serif" font-size="14" lengthAdjust="spacing" textLength="207.7373" x="27" y="355.252">addOrder(umlparser.Order) : void</text><ellipse cx="18" cy="368.6328" fill="#84BE84" rx="3" ry="3" style="stroke:#038048;stroke-width:1;"/><text fill="#000000" font-family="sans-serif" font-size="14" lengthAdjust="spacing" textLength="138.4824" x="27" y="372.8613">processOrders() : void</text></g><!--entity SoyLabel--><!--class Soy--><g id="elem_Soy"><rect codeLine="77" fill="#F1F1F1" height="129.1406" id="Soy" rx="2.5" ry="2.5" style="stroke:#181818;stroke-width:0.5;" width="232.9854" x="983.5" y="256"/><ellipse cx="1064.7251" cy="277.3516" fill="#ADD1B2" rx="11" ry="11" style="stroke:#181818;stroke-width:1;"/><path d="M1067.4907,273.2266 Q1067.647,273.0078 1067.8345,272.8984 Q1068.022,272.7891 1068.2407,272.7891 Q1068.6157,272.7891 1068.8501,273.0547 Q1069.0845,273.3047 1069.0845,273.9141 L1069.0845,275.3672 Q1069.0845,275.9766 1068.8501,276.2422 Q1068.6157,276.5078 1068.2407,276.5078 Q1067.897,276.5078 1067.6938,276.3047 Q1067.4907,276.1172 1067.3813,275.6016 Q1067.3345,275.2422 1067.147,275.0547 Q1066.8188,274.6797 1066.2095,274.4609 Q1065.6001,274.2422 1064.9751,274.2422 Q1064.2095,274.2422 1063.5688,274.5703 Q1062.9438,274.8984 1062.4438,275.6484 Q1061.9595,276.3984 1061.9595,277.4297 L1061.9595,278.5234 Q1061.9595,279.7578 1062.8501,280.5859 Q1063.7407,281.3984 1065.3345,281.3984 Q1066.272,281.3984 1066.9282,281.1484 Q1067.3188,280.9922 1067.7407,280.5547 Q1068.0063,280.2891 1068.147,280.2109 Q1068.3032,280.1328 1068.5063,280.1328 Q1068.8345,280.1328 1069.0845,280.3984 Q1069.3501,280.6484 1069.3501,280.9922 Q1069.3501,281.3359 1069.0063,281.7422 Q1068.5063,282.3203 1067.7095,282.6484 Q1066.6313,283.1016 1065.3345,283.1016 Q1063.8188,283.1016 1062.6157,282.4766 Q1061.6313,281.9766 1060.9438,280.9141 Q1060.2563,279.8359 1060.2563,278.5547 L1060.2563,277.3984 Q1060.2563,276.0703 1060.8657,274.9297 Q1061.4907,273.7734 1062.5845,273.1641 Q1063.6782,272.5391 1064.9126,272.5391 Q1065.647,272.5391 1066.2876,272.7109 Q1066.9438,272.8672 1067.4907,273.2266 Z " fill="#000000"/><text fill="#000000" font-family="sans-serif" font-size="12" font-style="italic" lengthAdjust="spacing" textLength="66.0352" x="1083.2251" y="273.457">&#171;Decorator&#187;</text><text fill="#000000" font-family="sans-serif" font-size="14" lengthAdjust="spacing" textLength="24.124" x="1104.1807" y="290.627">Soy</text><line style="stroke:#181818;stroke-width:0.5;" x1="984.5" x2="1215.4854" y1="298.7031" y2="298.7031"/><rect fill="transparent" height="6" style="stroke:#C82930;stroke-width:1;" width="6" x="991.5" y="310.0078"/><text fill="#000000" font-family="sans-serif" font-size="14" lengthAdjust="spacing" textLength="129.9785" x="1003.5" y="317.2363">beverage : Beverage</text><line style="stroke:#181818;stroke-width:0.5;" x1="984.5" x2="1215.4854" y1="324.3125" y2="324.3125"/><ellipse cx="994.5" cy="338.6172" fill="#84BE84" rx="3" ry="3" style="stroke:#038048;stroke-width:1;"/><text fill="#000000" font-family="sans-serif" font-size="14" lengthAdjust="spacing" textLength="206.9854" x="1003.5" y="342.8457">&lt;init&gt;(umlparser.Beverage) : void</text><ellipse cx="994.5" cy="356.2266" fill="#84BE84" rx="3" ry="3" style="stroke:#038048;stroke-width:1;"/><text fill="#000000" font-family="sans-serif" font-size="14" lengthAdjust="spacing" textLength="206.9854" x="1003.5" y="360.4551">getDescription() : java.lang.String</text><ellipse cx="994.5" cy="373.8359" fill="#84BE84" rx="3" ry="3" style="stroke:#038048;stroke-width:1;"/><text fill="#000000" font-family="sans-serif" font-size="14" lengthAdjust="spacing" textLength="88.71" x="1003.5" y="378.0645">cost() : double</text></g><!--link CondimentDecoratorLabel to CondimentDecorator--><g id="link_CondimentDecoratorLabel_CondimentDecorator"><path codeLine="10" d="M403.92,330.88 C407.13,344.42 414.8,369.53 430,385 C471.31,427.06 523.977,454.2402 575.637,473.7502 " fill="transparent" id="CondimentDecoratorLabel-to-CondimentDecorator" style="stroke:#FF0000;stroke-width:1;"/><polygon fill="#FF0000" points="581.25,475.87,574.2436,468.9482,576.5725,474.1035,571.4172,476.4323,581.25,475.87" style="stroke:#FF0000;stroke-width:1;"/><text fill="#000000" font-family="sans-serif" font-size="13" lengthAdjust="spacing" textLength="57.0781" x="488" y="429.4951">Decorator</text></g><!--link LoggerLabel to Logger--><g id="link_LoggerLabel_Logger"><path codeLine="32" d="M1366,102.64 C1366,128.07 1366,195.38 1366,249.77 " fill="transparent" id="LoggerLabel-to-Logger" style="stroke:#0000FF;stroke-width:1;"/><polygon fill="#0000FF" points="1366,255.77,1370,246.77,1366,250.77,1362,246.77,1366,255.77" style="stroke:#0000FF;stroke-width:1;"/><text fill="#000000" font-family="sans-serif" font-size="13" lengthAdjust="spacing" textLength="54.209" x="1367" y="222.4951">Singleton</text></g><!--link MilkLabel to Milk--><g id="link_MilkLabel_Milk"><path codeLine="41" d="M564,102.64 C564,128.07 564,195.38 564,249.77 " fill="transparent" id="MilkLabel-to-Milk" style="stroke:#FF0000;stroke-width:1;"/><polygon fill="#FF0000" points="564,255.77,568,246.77,564,250.77,560,246.77,564,255.77" style="stroke:#FF0000;stroke-width:1;"/><text fill="#000000" font-family="sans-serif" font-size="13" lengthAdjust="spacing" textLength="57.0781" x="565" y="222.4951">Decorator</text></g><!--link MochaLabel to Mocha--><g id="link_MochaLabel_Mocha"><path codeLine="50" d="M832,102.64 C832,128.07 832,195.38 832,249.77 " fill="transparent" id="MochaLabel-to-Mocha" style="stroke:#FF0000;stroke-width:1;"/><polygon fill="#FF0000" points="832,255.77,836,246.77,832,250.77,828,246.77,832,255.77" style="stroke:#FF0000;stroke-width:1;"/><text fill="#000000" font-family="sans-serif" font-size="13" lengthAdjust="spacing" textLength="57.0781" x="833" y="222.4951">Decorator</text></g><!--link SoyLabel to Soy--><g id="link_SoyLabel_Soy"><path codeLine="76" d="M1100,102.64 C1100,128.07 1100,195.38 1100,249.77 " fill="transparent" id="SoyLabel-to-Soy" style="stroke:#FF0000;stroke-width:1;"/><polygon fill="#FF0000" points="1100,255.77,1104,246.77,1100,250.77,1096,246.77,1100,255.77" style="stroke:#FF0000;stroke-width:1;"/><text fill="#000000" font-family="sans-serif" font-size="13" lengthAdjust="spacing" textLength="57.0781" x="1101" y="222.4951">Decorator</text></g><!--link CondimentDecorator to Beverage--><g id="link_CondimentDecorator_Beverage"><path codeLine="84" d="M756.5,557.18 C780.29,575.96 793.9212,586.7275 819.0812,606.5875 " fill="transparent" id="CondimentDecorator-to-Beverage" style="stroke:#181818;stroke-width:1;"/><polygon fill="transparent" points="833.21,617.74,822.7987,601.8779,815.3637,611.2971,833.21,617.74" style="stroke:#181818;stroke-width:1;"/></g><!--link Espresso to Beverage--><g id="link_Espresso_Beverage"><path codeLine="85" d="M907,551.79 C907,571.73 907,578.09 907,599.94 " fill="transparent" id="Espresso-to-Beverage" style="stroke:#181818;stroke-width:1;"/><polygon fill="transparent" points="907,617.94,913,599.94,901,599.94,907,617.94" style="stroke:#181818;stroke-width:1;"/></g><!--link HouseBlend to Beverage--><g id="link_HouseBlend_Beverage"><path codeLine="86" d="M1019.92,551.79 C1001.79,571.73 991.7469,582.77 971.8869,604.62 " fill="transparent" id="HouseBlend-to-Beverage" style="stroke:#181818;stroke-width:1;"/><polygon fill="transparent" points="959.78,617.94,976.3269,608.6556,967.4469,600.5843,959.78,617.94" style="stroke:#181818;stroke-width:1;"/></g><!--link Milk to CondimentDecorator--><g id="link_Milk_CondimentDecorator"><path codeLine="87" d="M609.55,385.24 C627.76,410.72 637.8624,424.8666 654.5824,448.2566 " fill="transparent" id="Milk-to-CondimentDecorator" style="stroke:#181818;stroke-width:1;"/><polygon fill="transparent" points="665.05,462.9,659.4635,444.7674,649.7013,451.7458,665.05,462.9" style="stroke:#181818;stroke-width:1;"/></g><!--link Mocha to CondimentDecorator--><g id="link_Mocha_CondimentDecorator"><path codeLine="88" d="M786.45,385.24 C768.24,410.72 758.1376,424.8666 741.4176,448.2566 " fill="transparent" id="Mocha-to-CondimentDecorator" style="stroke:#181818;stroke-width:1;"/><polygon fill="transparent" points="730.95,462.9,746.2987,451.7458,736.5365,444.7674,730.95,462.9" style="stroke:#181818;stroke-width:1;"/></g><!--link Soy to CondimentDecorator--><g id="link_Soy_CondimentDecorator"><path codeLine="89" d="M983.46,376.8 C977.56,379.58 971.71,382.33 966,385 C910.52,410.98 864.7852,432.1911 814.3552,455.4511 " fill="transparent" id="Soy-to-CondimentDecorator" style="stroke:#181818;stroke-width:1;"/><polygon fill="transparent" points="798.01,462.99,816.8681,460.8995,811.8422,450.0027,798.01,462.99" style="stroke:#181818;stroke-width:1;"/></g><!--SRC=[pLHDZzCm4BtdLuowbw8b_G6hA19Ra5ZKQW-5qseF4ziA1jUERAU0WF-EFn8tIHC-La9QvJ9vRsOyppDZ549zEVAlNDOPLiPg91PksObfh1bypm2kW393D6yiLn9ku1EUS2DGrfk3rJuCu1eABhajroySVrAS1gnczlKvCd2piKGP6rYgsagmx6UM2QoOW9NxqC1MISgFJBfiH6cqIkyydItWa3zSQKOVyt8cqfsoIZ-hi-8Ppw98Tbc6ctYwJ2U923G6tfX6CsFKR_BDN4UCVQjQmsu5a_GfqU-s7zw_QXh12OP6BgSu8fVhgOI7n-GpxSzErJNhUZAmVHygqJBVY0Zxop-uN89P9LTTNHrL58dfRZi7Ber5IPYBYru1NUZ1NUSSYFOe6jI6wKqAl0QXwWjPYwBsN7oEaf8r62oFJKOfgWd4vUJaKFKhTPEsQzY0Sy4z-rzMQQ_8H-na9NEeouFpmWBph9J5mkurTUCJIr7UlgFEYqlxDyKvjvVmvmhlOzvmVimSuDvzCdAZWvpRTbBwFpyQuVWzIgp7IaqVrLekDZjkxE9E8wKXow0TuN_ar6X5tECK2BDUN8s3-XP7g3S60-IWsV7n-BCQdfa7Fyz_bAc8z52FqC4JFCB3sdlaCcrSj2NItyiyzGi0]--></g></svg>