<svg xmlns="http://www.w3.org/2000/svg" xmlns:xlink="http://www.w3.org/1999/xlink" contentStyleType="text/css" data-diagram-type="CLASS" height="543px" preserveAspectRatio="none" style="width:1718px;height:543px;background:#FFFFFF;" version="1.1" viewBox="0 0 1718 543" width="1718px" zoomAndPan="magnify"><defs/><g><!--class Beverage--><g id="elem_Beverage"><rect codeLine="2" fill="#F1F1F1" height="113.9531" id="Beverage" rx="2.5" ry="2.5" style="stroke:#181818;stroke-width:0.5;" width="252.9053" x="1083.68" y="422.37"/><ellipse cx="1175.4388" cy="438.37" fill="#A9DCDF" rx="11" ry="11" style="stroke:#181818;stroke-width:1;"/><path d="M1175.3021,433.7181 L1174.1483,438.7899 L1176.4642,438.7899 Z M1173.8079,431.4769 L1176.8045,431.4769 L1180.1497,443.87 L1177.701,443.87 L1176.9373,440.807 L1173.6585,440.807 L1172.9114,443.87 L1170.4627,443.87 Z " fill="#000000"/><text fill="#000000" font-family="sans-serif" font-size="14" font-style="italic" lengthAdjust="spacing" textLength="60.8877" x="1195.9388" y="443.661">Beverage</text><line style="stroke:#181818;stroke-width:0.5;" x1="1084.68" x2="1335.5853" y1="454.37" y2="454.37"/><polygon fill="transparent" points="1094.68,463.1141,1098.68,467.1141,1094.68,471.1141,1090.68,467.1141" style="stroke:#B38D22;stroke-width:1;"/><text fill="#000000" font-family="sans-serif" font-size="14" lengthAdjust="spacing" textLength="194.3594" x="1103.68" y="471.9052">description : java.lang.String</text><line style="stroke:#181818;stroke-width:0.5;" x1="1084.68" x2="1335.5853" y1="478.8583" y2="478.8583"/><ellipse cx="1094.68" cy="492.6024" fill="#84BE84" rx="3" ry="3" style="stroke:#038048;stroke-width:1;"/><text fill="#000000" font-family="sans-serif" font-size="14" lengthAdjust="spacing" textLength="95.375" x="1103.68" y="496.3934">&lt;init&gt;() : void</text><ellipse cx="1094.68" cy="509.0907" fill="#84BE84" rx="3" ry="3" style="stroke:#038048;stroke-width:1;"/><text fill="#000000" font-family="sans-serif" font-size="14" lengthAdjust="spacing" textLength="226.9053" x="1103.68" y="512.8817">getDescription() : java.lang.String</text><ellipse cx="1094.68" cy="525.579" fill="#84BE84" rx="3" ry="3" style="stroke:#038048;stroke-width:1;"/><text fill="#000000" font-family="sans-serif" font-size="14" lengthAdjust="spacing" textLength="97.2959" x="1103.68" y="529.37">cost() : double</text></g><!--class Soy--><g id="elem_Soy"><rect codeLine="9" fill="#F1F1F1" height="113.9531" id="Soy" rx="2.5" ry="2.5" style="stroke:#181818;stroke-width:0.5;" width="255.4346" x="569.42" y="7"/><ellipse cx="681.1602" cy="23" fill="#ADD1B2" rx="11" ry="11" style="stroke:#181818;stroke-width:1;"/><path d="M683.6334,29.1431 Q683.0523,29.4419 682.4132,29.5913 Q681.774,29.7407 681.0684,29.7407 Q678.5616,29.7407 677.2418,28.0889 Q675.922,26.437 675.922,23.3159 Q675.922,20.1865 677.2418,18.5347 Q678.5616,16.8828 681.0684,16.8828 Q681.774,16.8828 682.4215,17.0322 Q683.0689,17.1816 683.6334,17.4805 L683.6334,20.2031 Q683.0025,19.6221 682.409,19.3523 Q681.8155,19.0825 681.1846,19.0825 Q679.8399,19.0825 679.1551,20.1492 Q678.4703,21.2158 678.4703,23.3159 Q678.4703,25.4077 679.1551,26.4744 Q679.8399,27.541 681.1846,27.541 Q681.8155,27.541 682.409,27.2712 Q683.0025,27.0015 683.6334,26.4204 Z " fill="#000000"/><text fill="#000000" font-family="sans-serif" font-size="14" lengthAdjust="spacing" textLength="23.4541" x="701.6602" y="28.291">Soy</text><line style="stroke:#181818;stroke-width:0.5;" x1="570.42" x2="823.8546" y1="39" y2="39"/><rect fill="transparent" height="6" style="stroke:#C82930;stroke-width:1;" width="6" x="577.42" y="49.7441"/><text fill="#000000" font-family="sans-serif" font-size="14" lengthAdjust="spacing" textLength="135.8232" x="589.42" y="56.5352">beverage : Beverage</text><line style="stroke:#181818;stroke-width:0.5;" x1="570.42" x2="823.8546" y1="63.4883" y2="63.4883"/><ellipse cx="580.42" cy="77.2324" fill="#84BE84" rx="3" ry="3" style="stroke:#038048;stroke-width:1;"/><text fill="#000000" font-family="sans-serif" font-size="14" lengthAdjust="spacing" textLength="229.4346" x="589.42" y="81.0234">&lt;init&gt;(umlparser.Beverage) : void</text><ellipse cx="580.42" cy="93.7207" fill="#84BE84" rx="3" ry="3" style="stroke:#038048;stroke-width:1;"/><text fill="#000000" font-family="sans-serif" font-size="14" lengthAdjust="spacing" textLength="226.9053" x="589.42" y="97.5117">getDescription() : java.lang.String</text><ellipse cx="580.42" cy="110.209" fill="#84BE84" rx="3" ry="3" style="stroke:#038048;stroke-width:1;"/><text fill="#000000" font-family="sans-serif" font-size="14" lengthAdjust="spacing" textLength="97.2959" x="589.42" y="114">cost() : double</text></g><!--class CondimentDecorator--><g id="elem_CondimentDecorator"><rect codeLine="16" fill="#F1F1F1" height="80.9766" id="CondimentDecorator" rx="2.5" ry="2.5" style="stroke:#181818;stroke-width:0.5;" width="252.9053" x="860.68" y="239.17"/><ellipse cx="912.0281" cy="255.17" fill="#A9DCDF" rx="11" ry="11" style="stroke:#181818;stroke-width:1;"/><path d="M911.8914,250.5181 L910.7376,255.5899 L913.0535,255.5899 Z M910.3973,248.2769 L913.3939,248.2769 L916.7391,260.67 L914.2904,260.67 L913.5267,257.607 L910.2479,257.607 L909.5008,260.67 L907.0521,260.67 Z " fill="#000000"/><text fill="#000000" font-family="sans-serif" font-size="14" font-style="italic" lengthAdjust="spacing" textLength="141.709" x="932.5281" y="260.461">CondimentDecorator</text><line style="stroke:#181818;stroke-width:0.5;" x1="861.68" x2="1112.5853" y1="271.17" y2="271.17"/><line style="stroke:#181818;stroke-width:0.5;" x1="861.68" x2="1112.5853" y1="279.17" y2="279.17"/><ellipse cx="871.68" cy="292.9141" fill="#84BE84" rx="3" ry="3" style="stroke:#038048;stroke-width:1;"/><text fill="#000000" font-family="sans-serif" font-size="14" lengthAdjust="spacing" textLength="95.375" x="880.68" y="296.7052">&lt;init&gt;() : void</text><ellipse cx="871.68" cy="309.4024" fill="#84BE84" rx="3" ry="3" style="stroke:#038048;stroke-width:1;"/><text fill="#000000" font-family="sans-serif" font-size="14" lengthAdjust="spacing" textLength="226.9053" x="880.68" y="313.1934">getDescription() : java.lang.String</text></g><!--class OrderManager--><g id="elem_OrderManager"><rect codeLine="21" fill="#F1F1F1" height="113.9531" id="OrderManager" rx="2.5" ry="2.5" style="stroke:#181818;stroke-width:0.5;" width="253.5137" x="21.38" y="7"/><ellipse cx="95.1808" cy="23" fill="#ADD1B2" rx="11" ry="11" style="stroke:#181818;stroke-width:1;"/><path d="M97.6539,29.1431 Q97.0729,29.4419 96.4337,29.5913 Q95.7946,29.7407 95.089,29.7407 Q92.5821,29.7407 91.2623,28.0889 Q89.9425,26.437 89.9425,23.3159 Q89.9425,20.1865 91.2623,18.5347 Q92.5821,16.8828 95.089,16.8828 Q95.7946,16.8828 96.442,17.0322 Q97.0895,17.1816 97.6539,17.4805 L97.6539,20.2031 Q97.0231,19.6221 96.4296,19.3523 Q95.8361,19.0825 95.2052,19.0825 Q93.8605,19.0825 93.1757,20.1492 Q92.4908,21.2158 92.4908,23.3159 Q92.4908,25.4077 93.1757,26.4744 Q93.8605,27.541 95.2052,27.541 Q95.8361,27.541 96.4296,27.2712 Q97.0231,27.0015 97.6539,26.4204 Z " fill="#000000"/><text fill="#000000" font-family="sans-serif" font-size="14" lengthAdjust="spacing" textLength="97.4121" x="115.6808" y="28.291">OrderManager</text><line style="stroke:#181818;stroke-width:0.5;" x1="22.38" x2="273.8937" y1="39" y2="39"/><rect fill="transparent" height="6" style="stroke:#C82930;stroke-width:1;" width="6" x="29.38" y="49.7441"/><text fill="#000000" font-family="sans-serif" font-size="14" lengthAdjust="spacing" textLength="138.8242" x="41.38" y="56.5352">orders : java.util.List</text><line style="stroke:#181818;stroke-width:0.5;" x1="22.38" x2="273.8937" y1="63.4883" y2="63.4883"/><ellipse cx="32.38" cy="77.2324" fill="#84BE84" rx="3" ry="3" style="stroke:#038048;stroke-width:1;"/><text fill="#000000" font-family="sans-serif" font-size="14" lengthAdjust="spacing" textLength="95.375" x="41.38" y="81.0234">&lt;init&gt;() : void</text><ellipse cx="32.38" cy="93.7207" fill="#84BE84" rx="3" ry="3" style="stroke:#038048;stroke-width:1;"/><text fill="#000000" font-family="sans-serif" font-size="14" lengthAdjust="spacing" textLength="227.5137" x="41.38" y="97.5117">addOrder(umlparser.Order) : void</text><ellipse cx="32.38" cy="110.209" fill="#84BE84" rx="3" ry="3" style="stroke:#038048;stroke-width:1;"/><text fill="#000000" font-family="sans-serif" font-size="14" lengthAdjust="spacing" textLength="149.5635" x="41.38" y="114">processOrders() : void</text></g><!--class JCUTApplication--><g id="elem_JCUTApplication"><rect codeLine="28" fill="#F1F1F1" height="80.9766" id="JCUTApplication" rx="2.5" ry="2.5" style="stroke:#181818;stroke-width:0.5;" width="224.7344" x="309.77" y="23.48"/><ellipse cx="363.1655" cy="39.48" fill="#ADD1B2" rx="11" ry="11" style="stroke:#181818;stroke-width:1;"/><path d="M365.6387,45.6231 Q365.0576,45.9219 364.4184,46.0713 Q363.7793,46.2207 363.0737,46.2207 Q360.5669,46.2207 359.2471,44.5689 Q357.9272,42.917 357.9272,39.7959 Q357.9272,36.6665 359.2471,35.0147 Q360.5669,33.3628 363.0737,33.3628 Q363.7793,33.3628 364.4267,33.5122 Q365.0742,33.6616 365.6387,33.9605 L365.6387,36.6831 Q365.0078,36.1021 364.4143,35.8323 Q363.8208,35.5625 363.1899,35.5625 Q361.8452,35.5625 361.1604,36.6292 Q360.4756,37.6958 360.4756,39.7959 Q360.4756,41.8877 361.1604,42.9544 Q361.8452,44.021 363.1899,44.021 Q363.8208,44.021 364.4143,43.7512 Q365.0078,43.4815 365.6387,42.9004 Z " fill="#000000"/><text fill="#000000" font-family="sans-serif" font-size="14" lengthAdjust="spacing" textLength="109.4434" x="383.6655" y="44.771">JCUTApplication</text><line style="stroke:#181818;stroke-width:0.5;" x1="310.77" x2="533.5044" y1="55.48" y2="55.48"/><line style="stroke:#181818;stroke-width:0.5;" x1="310.77" x2="533.5044" y1="63.48" y2="63.48"/><ellipse cx="320.77" cy="77.2241" fill="#84BE84" rx="3" ry="3" style="stroke:#038048;stroke-width:1;"/><text fill="#000000" font-family="sans-serif" font-size="14" lengthAdjust="spacing" textLength="95.375" x="329.77" y="81.0152">&lt;init&gt;() : void</text><ellipse cx="320.77" cy="93.7124" fill="#84BE84" rx="3" ry="3" style="stroke:#038048;stroke-width:1;"/><text fill="#000000" font-family="sans-serif" font-size="14" lengthAdjust="spacing" textLength="198.7344" x="329.77" y="97.5034">main(java.lang.String[]) : void</text></g><!--entity LoggerLabel--><!--class Logger--><g id="elem_Logger"><rect codeLine="35" fill="#F1F1F1" height="122.5742" id="Logger" rx="2.5" ry="2.5" style="stroke:#181818;stroke-width:0.5;" width="246.8691" x="1464.7" y="218.37"/><ellipse cx="1552.4363" cy="238.6805" fill="#ADD1B2" rx="11" ry="11" style="stroke:#181818;stroke-width:1;"/><path d="M1554.9095,244.8236 Q1554.3284,245.1224 1553.6893,245.2719 Q1553.0501,245.4213 1552.3445,245.4213 Q1549.8377,245.4213 1548.5179,243.7694 Q1547.198,242.1176 1547.198,238.9965 Q1547.198,235.8671 1548.5179,234.2152 Q1549.8377,232.5634 1552.3445,232.5634 Q1553.0501,232.5634 1553.6976,232.7128 Q1554.345,232.8622 1554.9095,233.161 L1554.9095,235.8837 Q1554.2786,235.3026 1553.6851,235.0328 Q1553.0916,234.7631 1552.4607,234.7631 Q1551.116,234.7631 1550.4312,235.8297 Q1549.7464,236.8964 1549.7464,238.9965 Q1549.7464,241.0883 1550.4312,242.1549 Q1551.116,243.2216 1552.4607,243.2216 Q1553.0916,243.2216 1553.6851,242.9518 Q1554.2786,242.682 1554.9095,242.101 Z " fill="#000000"/><text fill="#000000" font-family="sans-serif" font-size="12" font-style="italic" lengthAdjust="spacing" textLength="66.8965" x="1570.9363" y="234.9716">&#171;Singleton&#187;</text><text fill="#000000" font-family="sans-serif" font-size="14" lengthAdjust="spacing" textLength="47.0518" x="1580.8587" y="251.038">Logger</text><line style="stroke:#181818;stroke-width:0.5;" x1="1465.7" x2="1710.5691" y1="258.9911" y2="258.9911"/><rect fill="transparent" height="6" style="stroke:#C82930;stroke-width:1;" width="6" x="1472.7" y="269.7352"/><text fill="#000000" font-family="sans-serif" font-size="14" lengthAdjust="spacing" textLength="116.8398" x="1484.7" y="276.5263">instance : Logger</text><line style="stroke:#181818;stroke-width:0.5;" x1="1465.7" x2="1710.5691" y1="283.4794" y2="283.4794"/><rect fill="#F24D5C" height="6" style="stroke:#C82930;stroke-width:1;" width="6" x="1472.7" y="294.2235"/><text fill="#000000" font-family="sans-serif" font-size="14" lengthAdjust="spacing" textLength="95.375" x="1484.7" y="301.0145">&lt;init&gt;() : void</text><ellipse cx="1475.7" cy="313.7118" fill="#84BE84" rx="3" ry="3" style="stroke:#038048;stroke-width:1;"/><text fill="#000000" font-family="sans-serif" font-size="14" lengthAdjust="spacing" textLength="220.8691" x="1484.7" y="317.5028">getInstance() : umlparser.Logger</text><ellipse cx="1475.7" cy="330.2001" fill="#84BE84" rx="3" ry="3" style="stroke:#038048;stroke-width:1;"/><text fill="#000000" font-family="sans-serif" font-size="14" lengthAdjust="spacing" textLength="177.4678" x="1484.7" y="333.9911">log(java.lang.String) : void</text></g><!--class Order--><g id="elem_Order"><rect codeLine="42" fill="#F1F1F1" height="163.418" id="Order" rx="2.5" ry="2.5" style="stroke:#181818;stroke-width:0.5;" width="282.2656" x="7" y="197.95"/><ellipse cx="124.4106" cy="213.95" fill="#ADD1B2" rx="11" ry="11" style="stroke:#181818;stroke-width:1;"/><path d="M126.8838,220.0931 Q126.3027,220.3919 125.6636,220.5413 Q125.0244,220.6907 124.3188,220.6907 Q121.812,220.6907 120.4922,219.0389 Q119.1724,217.387 119.1724,214.2659 Q119.1724,211.1365 120.4922,209.4847 Q121.812,207.8328 124.3188,207.8328 Q125.0244,207.8328 125.6719,207.9822 Q126.3193,208.1316 126.8838,208.4305 L126.8838,211.1531 Q126.2529,210.5721 125.6594,210.3023 Q125.0659,210.0325 124.4351,210.0325 Q123.0903,210.0325 122.4055,211.0992 Q121.7207,212.1658 121.7207,214.2659 Q121.7207,216.3577 122.4055,217.4244 Q123.0903,218.491 124.4351,218.491 Q125.0659,218.491 125.6594,218.2212 Q126.2529,217.9515 126.8838,217.3704 Z " fill="#000000"/><text fill="#000000" font-family="sans-serif" font-size="14" lengthAdjust="spacing" textLength="38.9443" x="144.9106" y="219.241">Order</text><line style="stroke:#181818;stroke-width:0.5;" x1="8" x2="288.2656" y1="229.95" y2="229.95"/><rect fill="transparent" height="6" style="stroke:#C82930;stroke-width:1;" width="6" x="15" y="240.6941"/><text fill="#000000" font-family="sans-serif" font-size="14" lengthAdjust="spacing" textLength="80.7734" x="27" y="247.4852">orderId : int</text><rect fill="transparent" height="6" style="stroke:#C82930;stroke-width:1;" width="6" x="15" y="257.1824"/><text fill="#000000" font-family="sans-serif" font-size="14" lengthAdjust="spacing" textLength="135.8232" x="27" y="263.9734">beverage : Beverage</text><line style="stroke:#181818;stroke-width:0.5;" x1="8" x2="288.2656" y1="270.9266" y2="270.9266"/><ellipse cx="18" cy="284.6707" fill="#84BE84" rx="3" ry="3" style="stroke:#038048;stroke-width:1;"/><text fill="#000000" font-family="sans-serif" font-size="14" lengthAdjust="spacing" textLength="256.2656" x="27" y="288.4617">&lt;init&gt;(int, umlparser.Beverage) : void</text><ellipse cx="18" cy="301.159" fill="#84BE84" rx="3" ry="3" style="stroke:#038048;stroke-width:1;"/><text fill="#000000" font-family="sans-serif" font-size="14" lengthAdjust="spacing" textLength="113.9209" x="27" y="304.95">getOrderId() : int</text><ellipse cx="18" cy="317.6473" fill="#84BE84" rx="3" ry="3" style="stroke:#038048;stroke-width:1;"/><text fill="#000000" font-family="sans-serif" font-size="14" lengthAdjust="spacing" textLength="239.1074" x="27" y="321.4383">getBeverage() : umlparser.Beverage</text><ellipse cx="18" cy="334.1355" fill="#84BE84" rx="3" ry="3" style="stroke:#038048;stroke-width:1;"/><text fill="#000000" font-family="sans-serif" font-size="14" lengthAdjust="spacing" textLength="121.5771" x="27" y="337.9266">getCost() : double</text><ellipse cx="18" cy="350.6238" fill="#84BE84" rx="3" ry="3" style="stroke:#038048;stroke-width:1;"/><text fill="#000000" font-family="sans-serif" font-size="14" lengthAdjust="spacing" textLength="226.9053" x="27" y="354.4148">getDescription() : java.lang.String</text></g><!--class Milk--><g id="elem_Milk"><rect codeLine="52" fill="#F1F1F1" height="113.9531" id="Milk" rx="2.5" ry="2.5" style="stroke:#181818;stroke-width:0.5;" width="255.4346" x="859.42" y="7"/><ellipse cx="968.7198" cy="23" fill="#ADD1B2" rx="11" ry="11" style="stroke:#181818;stroke-width:1;"/><path d="M971.1929,29.1431 Q970.6119,29.4419 969.9727,29.5913 Q969.3336,29.7407 968.628,29.7407 Q966.1212,29.7407 964.8013,28.0889 Q963.4815,26.437 963.4815,23.3159 Q963.4815,20.1865 964.8013,18.5347 Q966.1212,16.8828 968.628,16.8828 Q969.3336,16.8828 969.981,17.0322 Q970.6285,17.1816 971.1929,17.4805 L971.1929,20.2031 Q970.5621,19.6221 969.9686,19.3523 Q969.3751,19.0825 968.7442,19.0825 Q967.3995,19.0825 966.7147,20.1492 Q966.0299,21.2158 966.0299,23.3159 Q966.0299,25.4077 966.7147,26.4744 Q967.3995,27.541 968.7442,27.541 Q969.3751,27.541 969.9686,27.2712 Q970.5621,27.0015 971.1929,26.4204 Z " fill="#000000"/><text fill="#000000" font-family="sans-serif" font-size="14" lengthAdjust="spacing" textLength="28.335" x="989.2198" y="28.291">Milk</text><line style="stroke:#181818;stroke-width:0.5;" x1="860.42" x2="1113.8546" y1="39" y2="39"/><rect fill="transparent" height="6" style="stroke:#C82930;stroke-width:1;" width="6" x="867.42" y="49.7441"/><text fill="#000000" font-family="sans-serif" font-size="14" lengthAdjust="spacing" textLength="135.8232" x="879.42" y="56.5352">beverage : Beverage</text><line style="stroke:#181818;stroke-width:0.5;" x1="860.42" x2="1113.8546" y1="63.4883" y2="63.4883"/><ellipse cx="870.42" cy="77.2324" fill="#84BE84" rx="3" ry="3" style="stroke:#038048;stroke-width:1;"/><text fill="#000000" font-family="sans-serif" font-size="14" lengthAdjust="spacing" textLength="229.4346" x="879.42" y="81.0234">&lt;init&gt;(umlparser.Beverage) : void</text><ellipse cx="870.42" cy="93.7207" fill="#84BE84" rx="3" ry="3" style="stroke:#038048;stroke-width:1;"/><text fill="#000000" font-family="sans-serif" font-size="14" lengthAdjust="spacing" textLength="226.9053" x="879.42" y="97.5117">getDescription() : java.lang.String</text><ellipse cx="870.42" cy="110.209" fill="#84BE84" rx="3" ry="3" style="stroke:#038048;stroke-width:1;"/><text fill="#000000" font-family="sans-serif" font-size="14" lengthAdjust="spacing" textLength="97.2959" x="879.42" y="114">cost() : double</text></g><!--class Mocha--><g id="elem_Mocha"><rect codeLine="59" fill="#F1F1F1" height="113.9531" id="Mocha" rx="2.5" ry="2.5" style="stroke:#181818;stroke-width:0.5;" width="255.4346" x="1149.42" y="7"/><ellipse cx="1250.7628" cy="23" fill="#ADD1B2" rx="11" ry="11" style="stroke:#181818;stroke-width:1;"/><path d="M1253.2359,29.1431 Q1252.6549,29.4419 1252.0157,29.5913 Q1251.3765,29.7407 1250.671,29.7407 Q1248.1641,29.7407 1246.8443,28.0889 Q1245.5245,26.437 1245.5245,23.3159 Q1245.5245,20.1865 1246.8443,18.5347 Q1248.1641,16.8828 1250.671,16.8828 Q1251.3765,16.8828 1252.024,17.0322 Q1252.6715,17.1816 1253.2359,17.4805 L1253.2359,20.2031 Q1252.6051,19.6221 1252.0116,19.3523 Q1251.418,19.0825 1250.7872,19.0825 Q1249.4425,19.0825 1248.7576,20.1492 Q1248.0728,21.2158 1248.0728,23.3159 Q1248.0728,25.4077 1248.7576,26.4744 Q1249.4425,27.541 1250.7872,27.541 Q1251.418,27.541 1252.0116,27.2712 Q1252.6051,27.0015 1253.2359,26.4204 Z " fill="#000000"/><text fill="#000000" font-family="sans-serif" font-size="14" lengthAdjust="spacing" textLength="44.249" x="1271.2628" y="28.291">Mocha</text><line style="stroke:#181818;stroke-width:0.5;" x1="1150.42" x2="1403.8546" y1="39" y2="39"/><rect fill="transparent" height="6" style="stroke:#C82930;stroke-width:1;" width="6" x="1157.42" y="49.7441"/><text fill="#000000" font-family="sans-serif" font-size="14" lengthAdjust="spacing" textLength="135.8232" x="1169.42" y="56.5352">beverage : Beverage</text><line style="stroke:#181818;stroke-width:0.5;" x1="1150.42" x2="1403.8546" y1="63.4883" y2="63.4883"/><ellipse cx="1160.42" cy="77.2324" fill="#84BE84" rx="3" ry="3" style="stroke:#038048;stroke-width:1;"/><text fill="#000000" font-family="sans-serif" font-size="14" lengthAdjust="spacing" textLength="229.4346" x="1169.42" y="81.0234">&lt;init&gt;(umlparser.Beverage) : void</text><ellipse cx="1160.42" cy="93.7207" fill="#84BE84" rx="3" ry="3" style="stroke:#038048;stroke-width:1;"/><text fill="#000000" font-family="sans-serif" font-size="14" lengthAdjust="spacing" textLength="226.9053" x="1169.42" y="97.5117">getDescription() : java.lang.String</text><ellipse cx="1160.42" cy="110.209" fill="#84BE84" rx="3" ry="3" style="stroke:#038048;stroke-width:1;"/><text fill="#000000" font-family="sans-serif" font-size="14" lengthAdjust="spacing" textLength="97.2959" x="1169.42" y="114">cost() : double</text></g><!--class Espresso--><g id="elem_Espresso"><rect codeLine="66" fill="#F1F1F1" height="80.9766" id="Espresso" rx="2.5" ry="2.5" style="stroke:#181818;stroke-width:0.5;" width="123.2959" x="1148.48" y="239.17"/><ellipse cx="1177.5913" cy="255.17" fill="#ADD1B2" rx="11" ry="11" style="stroke:#181818;stroke-width:1;"/><path d="M1180.0644,261.3131 Q1179.4834,261.6119 1178.8442,261.7613 Q1178.205,261.9107 1177.4995,261.9107 Q1174.9926,261.9107 1173.6728,260.2589 Q1172.353,258.607 1172.353,255.4859 Q1172.353,252.3565 1173.6728,250.7047 Q1174.9926,249.0528 1177.4995,249.0528 Q1178.205,249.0528 1178.8525,249.2022 Q1179.5,249.3516 1180.0644,249.6505 L1180.0644,252.3731 Q1179.4336,251.7921 1178.8401,251.5223 Q1178.2466,251.2525 1177.6157,251.2525 Q1176.271,251.2525 1175.5862,252.3192 Q1174.9013,253.3858 1174.9013,255.4859 Q1174.9013,257.5777 1175.5862,258.6444 Q1176.271,259.711 1177.6157,259.711 Q1178.2466,259.711 1178.8401,259.4412 Q1179.4336,259.1715 1180.0644,258.5904 Z " fill="#000000"/><text fill="#000000" font-family="sans-serif" font-size="14" lengthAdjust="spacing" textLength="59.9375" x="1194.7271" y="260.461">Espresso</text><line style="stroke:#181818;stroke-width:0.5;" x1="1149.48" x2="1270.7759" y1="271.17" y2="271.17"/><line style="stroke:#181818;stroke-width:0.5;" x1="1149.48" x2="1270.7759" y1="279.17" y2="279.17"/><ellipse cx="1159.48" cy="292.9141" fill="#84BE84" rx="3" ry="3" style="stroke:#038048;stroke-width:1;"/><text fill="#000000" font-family="sans-serif" font-size="14" lengthAdjust="spacing" textLength="95.375" x="1168.48" y="296.7052">&lt;init&gt;() : void</text><ellipse cx="1159.48" cy="309.4024" fill="#84BE84" rx="3" ry="3" style="stroke:#038048;stroke-width:1;"/><text fill="#000000" font-family="sans-serif" font-size="14" lengthAdjust="spacing" textLength="97.2959" x="1168.48" y="313.1934">cost() : double</text></g><!--class HouseBlend--><g id="elem_HouseBlend"><rect codeLine="71" fill="#F1F1F1" height="80.9766" id="HouseBlend" rx="2.5" ry="2.5" style="stroke:#181818;stroke-width:0.5;" width="123.2959" x="1306.48" y="239.17"/><ellipse cx="1326.6027" cy="255.17" fill="#ADD1B2" rx="11" ry="11" style="stroke:#181818;stroke-width:1;"/><path d="M1329.0758,261.3131 Q1328.4948,261.6119 1327.8556,261.7613 Q1327.2165,261.9107 1326.5109,261.9107 Q1324.0041,261.9107 1322.6842,260.2589 Q1321.3644,258.607 1321.3644,255.4859 Q1321.3644,252.3565 1322.6842,250.7047 Q1324.0041,249.0528 1326.5109,249.0528 Q1327.2165,249.0528 1327.8639,249.2022 Q1328.5114,249.3516 1329.0758,249.6505 L1329.0758,252.3731 Q1328.445,251.7921 1327.8515,251.5223 Q1327.258,251.2525 1326.6271,251.2525 Q1325.2824,251.2525 1324.5976,252.3192 Q1323.9128,253.3858 1323.9128,255.4859 Q1323.9128,257.5777 1324.5976,258.6444 Q1325.2824,259.711 1326.6271,259.711 Q1327.258,259.711 1327.8515,259.4412 Q1328.445,259.1715 1329.0758,258.5904 Z " fill="#000000"/><text fill="#000000" font-family="sans-serif" font-size="14" lengthAdjust="spacing" textLength="79.9121" x="1341.7411" y="260.461">HouseBlend</text><line style="stroke:#181818;stroke-width:0.5;" x1="1307.48" x2="1428.7759" y1="271.17" y2="271.17"/><line style="stroke:#181818;stroke-width:0.5;" x1="1307.48" x2="1428.7759" y1="279.17" y2="279.17"/><ellipse cx="1317.48" cy="292.9141" fill="#84BE84" rx="3" ry="3" style="stroke:#038048;stroke-width:1;"/><text fill="#000000" font-family="sans-serif" font-size="14" lengthAdjust="spacing" textLength="95.375" x="1326.48" y="296.7052">&lt;init&gt;() : void</text><ellipse cx="1317.48" cy="309.4024" fill="#84BE84" rx="3" ry="3" style="stroke:#038048;stroke-width:1;"/><text fill="#000000" font-family="sans-serif" font-size="14" lengthAdjust="spacing" textLength="97.2959" x="1326.48" y="313.1934">cost() : double</text></g><!--link LoggerLabel to Logger--><g id="link_LoggerLabel_Logger"><path codeLine="34" d="M1588.13,74.43 C1588.13,99.15 1588.13,161.27 1588.13,212.08 " fill="transparent" id="LoggerLabel-to-Logger" style="stroke:#0000FF;stroke-width:1;"/><polygon fill="#0000FF" points="1588.13,218.08,1592.13,209.08,1588.13,213.08,1584.13,209.08,1588.13,218.08" style="stroke:#0000FF;stroke-width:1;"/><text fill="#000000" font-family="sans-serif" font-size="13" lengthAdjust="spacing" textLength="58.8491" x="1589.13" y="164.5184">Singleton</text></g><!--link Soy to CondimentDecorator--><g id="link_Soy_CondimentDecorator"><path codeLine="76" d="M773.71,121.4 C823.88,158.37 873.7498,195.1113 918.6098,228.1713 " fill="transparent" id="Soy-to-CondimentDecorator" style="stroke:#181818;stroke-width:1;"/><polygon fill="transparent" points="933.1,238.85,922.1694,223.3413,915.0502,233.0014,933.1,238.85" style="stroke:#181818;stroke-width:1;"/></g><!--link CondimentDecorator to Beverage--><g id="link_CondimentDecorator_Beverage"><path codeLine="77" d="M1031.99,320.42 C1064.93,349.63 1096.6602,377.7499 1133.2902,410.2199 " fill="transparent" id="CondimentDecorator-to-Beverage" style="stroke:#181818;stroke-width:1;"/><polygon fill="transparent" points="1146.76,422.16,1137.2702,405.73,1129.3102,414.7099,1146.76,422.16" style="stroke:#181818;stroke-width:1;"/></g><!--link Milk to CondimentDecorator--><g id="link_Milk_CondimentDecorator"><path codeLine="78" d="M987.13,121.4 C987.13,158.37 987.13,187.79 987.13,220.85 " fill="transparent" id="Milk-to-CondimentDecorator" style="stroke:#181818;stroke-width:1;"/><polygon fill="transparent" points="987.13,238.85,993.13,220.85,981.13,220.85,987.13,238.85" style="stroke:#181818;stroke-width:1;"/></g><!--link Mocha to CondimentDecorator--><g id="link_Mocha_CondimentDecorator"><path codeLine="79" d="M1200.56,121.4 C1150.38,158.37 1100.5213,195.1129 1055.6513,228.1729 " fill="transparent" id="Mocha-to-CondimentDecorator" style="stroke:#181818;stroke-width:1;"/><polygon fill="transparent" points="1041.16,238.85,1059.2104,233.0033,1052.0923,223.3424,1041.16,238.85" style="stroke:#181818;stroke-width:1;"/></g><!--link Espresso to Beverage--><g id="link_Espresso_Beverage"><path codeLine="80" d="M1210.13,320.19 C1210.13,349.37 1210.13,371.5 1210.13,404.03 " fill="transparent" id="Espresso-to-Beverage" style="stroke:#181818;stroke-width:1;"/><polygon fill="transparent" points="1210.13,422.03,1216.13,404.03,1204.13,404.03,1210.13,422.03" style="stroke:#181818;stroke-width:1;"/></g><!--link HouseBlend to Beverage--><g id="link_HouseBlend_Beverage"><path codeLine="81" d="M1336.54,320.19 C1313.21,349.37 1292.3782,375.4393 1266.3782,407.9693 " fill="transparent" id="HouseBlend-to-Beverage" style="stroke:#181818;stroke-width:1;"/><polygon fill="transparent" points="1255.14,422.03,1271.0651,411.7154,1261.6913,404.2232,1255.14,422.03" style="stroke:#181818;stroke-width:1;"/></g><!--SRC=[pLHDJyCm3BttLrZZCZIw7u2cIcmWCJJ4ON2QTd2Jg0Iok4hI0GB-EsdMTTr6-H8IQ9VEpyzvptQ2Ij73GZvAdKMOMcUGEHYAfJ2O2NYE00w02ykCp9qa3STmXqliAzHPV-fCIGFemK1gwPBkeSUN97c8PSATRfW1UvVBoBg0SYfI9QBNA68AhOKfFGK5CQHhGSUrjkQnnKBbQAmm_JNwMqBgben8SxaGsbTYPD2H2T9-xhnsUMMuC9UelMfJsQKoPDUimadLdqZhMiz3paELHYF2_wsat10JrWR0RlYrZelHpVL9dYl9C4owtTu2fUxk6fhDcoKLfa91n__GmeGoxsrIXgB6DyIpWrGLOXudLOelq9dwMaeuqfrALmKD1ZMI95MVfBOEDIlNOfKLeYqJ6LV90TWqgYRsG56sPsk_Jw61pK6DkS-HsdrbKttQ4No-hbUhka7ggd88hzDtB6mTvDD6EtlyxPMybEh-hszUfOJOBVuFAMSsD_x-q0SNevLxJeKLGoKq_nwxV07Z-2NPVtsYTnwaChFkJ9XX2tVLrHQmzhbLhk6W6Ny3]--></g></svg>