<svg xmlns="http://www.w3.org/2000/svg" xmlns:xlink="http://www.w3.org/1999/xlink" contentStyleType="text/css" data-diagram-type="CLASS" height="709px" preserveAspectRatio="none" style="width:1631px;height:709px;background:#FFFFFF;" version="1.1" viewBox="0 0 1631 709" width="1631px" zoomAndPan="magnify"><defs/><g><!--class Beverage--><g id="elem_Beverage"><rect codeLine="2" fill="#F1F1F1" height="113.9531" id="Beverage" rx="2.5" ry="2.5" style="stroke:#181818;stroke-width:0.5;" width="252.9053" x="913.68" y="588.97"/><ellipse cx="1005.4388" cy="604.97" fill="#A9DCDF" rx="11" ry="11" style="stroke:#181818;stroke-width:1;"/><path d="M1005.3021,600.3181 L1004.1483,605.3899 L1006.4642,605.3899 Z M1003.8079,598.0769 L1006.8045,598.0769 L1010.1497,610.47 L1007.701,610.47 L1006.9373,607.407 L1003.6585,607.407 L1002.9114,610.47 L1000.4627,610.47 Z " fill="#000000"/><text fill="#000000" font-family="sans-serif" font-size="14" font-style="italic" lengthAdjust="spacing" textLength="60.8877" x="1025.9388" y="610.261">Beverage</text><line style="stroke:#181818;stroke-width:0.5;" x1="914.68" x2="1165.5853" y1="620.97" y2="620.97"/><polygon fill="transparent" points="924.68,629.7141,928.68,633.7141,924.68,637.7141,920.68,633.7141" style="stroke:#B38D22;stroke-width:1;"/><text fill="#000000" font-family="sans-serif" font-size="14" lengthAdjust="spacing" textLength="194.3594" x="933.68" y="638.5052">description : java.lang.String</text><line style="stroke:#181818;stroke-width:0.5;" x1="914.68" x2="1165.5853" y1="645.4583" y2="645.4583"/><ellipse cx="924.68" cy="659.2024" fill="#84BE84" rx="3" ry="3" style="stroke:#038048;stroke-width:1;"/><text fill="#000000" font-family="sans-serif" font-size="14" lengthAdjust="spacing" textLength="95.375" x="933.68" y="662.9934">&lt;init&gt;() : void</text><ellipse cx="924.68" cy="675.6907" fill="#84BE84" rx="3" ry="3" style="stroke:#038048;stroke-width:1;"/><text fill="#000000" font-family="sans-serif" font-size="14" lengthAdjust="spacing" textLength="226.9053" x="933.68" y="679.4817">getDescription() : java.lang.String</text><ellipse cx="924.68" cy="692.179" fill="#84BE84" rx="3" ry="3" style="stroke:#038048;stroke-width:1;"/><text fill="#000000" font-family="sans-serif" font-size="14" lengthAdjust="spacing" textLength="97.2959" x="933.68" y="695.97">cost() : double</text></g><!--entity SoyLabel--><!--class Soy--><g id="elem_Soy"><rect codeLine="11" fill="#F1F1F1" height="122.5742" id="Soy" rx="2.5" ry="2.5" style="stroke:#181818;stroke-width:0.5;" width="255.4346" x="451.42" y="218.37"/><ellipse cx="541.8512" cy="238.6805" fill="#ADD1B2" rx="11" ry="11" style="stroke:#181818;stroke-width:1;"/><path d="M544.3243,244.8236 Q543.7432,245.1224 543.1041,245.2719 Q542.4649,245.4213 541.7594,245.4213 Q539.2525,245.4213 537.9327,243.7694 Q536.6129,242.1176 536.6129,238.9965 Q536.6129,235.8671 537.9327,234.2152 Q539.2525,232.5634 541.7594,232.5634 Q542.4649,232.5634 543.1124,232.7128 Q543.7598,232.8622 544.3243,233.161 L544.3243,235.8837 Q543.6934,235.3026 543.0999,235.0328 Q542.5064,234.7631 541.8756,234.7631 Q540.5308,234.7631 539.846,235.8297 Q539.1612,236.8964 539.1612,238.9965 Q539.1612,241.0883 539.846,242.1549 Q540.5308,243.2216 541.8756,243.2216 Q542.5064,243.2216 543.0999,242.9518 Q543.6934,242.682 544.3243,242.101 Z " fill="#000000"/><text fill="#000000" font-family="sans-serif" font-size="12" font-style="italic" lengthAdjust="spacing" textLength="70.0723" x="560.3512" y="234.9716">&#171;Decorator&#187;</text><text fill="#000000" font-family="sans-serif" font-size="14" lengthAdjust="spacing" textLength="23.4541" x="583.6602" y="251.038">Soy</text><line style="stroke:#181818;stroke-width:0.5;" x1="452.42" x2="705.8546" y1="258.9911" y2="258.9911"/><rect fill="transparent" height="6" style="stroke:#C82930;stroke-width:1;" width="6" x="459.42" y="269.7352"/><text fill="#000000" font-family="sans-serif" font-size="14" lengthAdjust="spacing" textLength="135.8232" x="471.42" y="276.5262">beverage : Beverage</text><line style="stroke:#181818;stroke-width:0.5;" x1="452.42" x2="705.8546" y1="283.4794" y2="283.4794"/><ellipse cx="462.42" cy="297.2235" fill="#84BE84" rx="3" ry="3" style="stroke:#038048;stroke-width:1;"/><text fill="#000000" font-family="sans-serif" font-size="14" lengthAdjust="spacing" textLength="229.4346" x="471.42" y="301.0145">&lt;init&gt;(umlparser.Beverage) : void</text><ellipse cx="462.42" cy="313.7118" fill="#84BE84" rx="3" ry="3" style="stroke:#038048;stroke-width:1;"/><text fill="#000000" font-family="sans-serif" font-size="14" lengthAdjust="spacing" textLength="226.9053" x="471.42" y="317.5028">getDescription() : java.lang.String</text><ellipse cx="462.42" cy="330.2001" fill="#84BE84" rx="3" ry="3" style="stroke:#038048;stroke-width:1;"/><text fill="#000000" font-family="sans-serif" font-size="14" lengthAdjust="spacing" textLength="97.2959" x="471.42" y="333.9911">cost() : double</text></g><!--entity CondimentDecoratorLabel--><!--class CondimentDecorator--><g id="elem_CondimentDecorator"><rect codeLine="20" fill="#F1F1F1" height="89.5977" id="CondimentDecorator" rx="2.5" ry="2.5" style="stroke:#181818;stroke-width:0.5;" width="252.9053" x="690.68" y="438.37"/><ellipse cx="742.0281" cy="458.6805" fill="#A9DCDF" rx="11" ry="11" style="stroke:#181818;stroke-width:1;"/><path d="M741.8914,454.0287 L740.7376,459.1005 L743.0535,459.1005 Z M740.3973,451.7875 L743.3939,451.7875 L746.7391,464.1805 L744.2904,464.1805 L743.5267,461.1176 L740.2479,461.1176 L739.5008,464.1805 L737.0521,464.1805 Z " fill="#000000"/><text fill="#000000" font-family="sans-serif" font-size="12" font-style="italic" lengthAdjust="spacing" textLength="70.0723" x="798.3465" y="454.9716">&#171;Decorator&#187;</text><text fill="#000000" font-family="sans-serif" font-size="14" font-style="italic" lengthAdjust="spacing" textLength="141.709" x="762.5281" y="471.038">CondimentDecorator</text><line style="stroke:#181818;stroke-width:0.5;" x1="691.68" x2="942.5853" y1="478.9911" y2="478.9911"/><line style="stroke:#181818;stroke-width:0.5;" x1="691.68" x2="942.5853" y1="486.9911" y2="486.9911"/><ellipse cx="701.68" cy="500.7352" fill="#84BE84" rx="3" ry="3" style="stroke:#038048;stroke-width:1;"/><text fill="#000000" font-family="sans-serif" font-size="14" lengthAdjust="spacing" textLength="95.375" x="710.68" y="504.5262">&lt;init&gt;() : void</text><ellipse cx="701.68" cy="517.2235" fill="#84BE84" rx="3" ry="3" style="stroke:#038048;stroke-width:1;"/><text fill="#000000" font-family="sans-serif" font-size="14" lengthAdjust="spacing" textLength="226.9053" x="710.68" y="521.0145">getDescription() : java.lang.String</text></g><!--class OrderManager--><g id="elem_OrderManager"><rect codeLine="25" fill="#F1F1F1" height="113.9531" id="OrderManager" rx="2.5" ry="2.5" style="stroke:#181818;stroke-width:0.5;" width="253.5137" x="21.38" y="7"/><ellipse cx="95.1808" cy="23" fill="#ADD1B2" rx="11" ry="11" style="stroke:#181818;stroke-width:1;"/><path d="M97.6539,29.1431 Q97.0729,29.4419 96.4337,29.5913 Q95.7946,29.7407 95.089,29.7407 Q92.5821,29.7407 91.2623,28.0889 Q89.9425,26.437 89.9425,23.3159 Q89.9425,20.1865 91.2623,18.5347 Q92.5821,16.8828 95.089,16.8828 Q95.7946,16.8828 96.442,17.0322 Q97.0895,17.1816 97.6539,17.4805 L97.6539,20.2031 Q97.0231,19.6221 96.4296,19.3523 Q95.8361,19.0825 95.2052,19.0825 Q93.8605,19.0825 93.1757,20.1492 Q92.4908,21.2158 92.4908,23.3159 Q92.4908,25.4077 93.1757,26.4744 Q93.8605,27.541 95.2052,27.541 Q95.8361,27.541 96.4296,27.2712 Q97.0231,27.0015 97.6539,26.4204 Z " fill="#000000"/><text fill="#000000" font-family="sans-serif" font-size="14" lengthAdjust="spacing" textLength="97.4121" x="115.6808" y="28.291">OrderManager</text><line style="stroke:#181818;stroke-width:0.5;" x1="22.38" x2="273.8937" y1="39" y2="39"/><rect fill="transparent" height="6" style="stroke:#C82930;stroke-width:1;" width="6" x="29.38" y="49.7441"/><text fill="#000000" font-family="sans-serif" font-size="14" lengthAdjust="spacing" textLength="138.8242" x="41.38" y="56.5352">orders : java.util.List</text><line style="stroke:#181818;stroke-width:0.5;" x1="22.38" x2="273.8937" y1="63.4883" y2="63.4883"/><ellipse cx="32.38" cy="77.2324" fill="#84BE84" rx="3" ry="3" style="stroke:#038048;stroke-width:1;"/><text fill="#000000" font-family="sans-serif" font-size="14" lengthAdjust="spacing" textLength="95.375" x="41.38" y="81.0234">&lt;init&gt;() : void</text><ellipse cx="32.38" cy="93.7207" fill="#84BE84" rx="3" ry="3" style="stroke:#038048;stroke-width:1;"/><text fill="#000000" font-family="sans-serif" font-size="14" lengthAdjust="spacing" textLength="227.5137" x="41.38" y="97.5117">addOrder(umlparser.Order) : void</text><ellipse cx="32.38" cy="110.209" fill="#84BE84" rx="3" ry="3" style="stroke:#038048;stroke-width:1;"/><text fill="#000000" font-family="sans-serif" font-size="14" lengthAdjust="spacing" textLength="149.5635" x="41.38" y="114">processOrders() : void</text></g><!--class JCUTApplication--><g id="elem_JCUTApplication"><rect codeLine="32" fill="#F1F1F1" height="80.9766" id="JCUTApplication" rx="2.5" ry="2.5" style="stroke:#181818;stroke-width:0.5;" width="224.7344" x="309.77" y="23.49"/><ellipse cx="363.1655" cy="39.49" fill="#ADD1B2" rx="11" ry="11" style="stroke:#181818;stroke-width:1;"/><path d="M365.6387,45.6331 Q365.0576,45.9319 364.4184,46.0813 Q363.7793,46.2307 363.0737,46.2307 Q360.5669,46.2307 359.2471,44.5789 Q357.9272,42.927 357.9272,39.8059 Q357.9272,36.6765 359.2471,35.0247 Q360.5669,33.3728 363.0737,33.3728 Q363.7793,33.3728 364.4267,33.5222 Q365.0742,33.6716 365.6387,33.9705 L365.6387,36.6931 Q365.0078,36.1121 364.4143,35.8423 Q363.8208,35.5725 363.1899,35.5725 Q361.8452,35.5725 361.1604,36.6392 Q360.4756,37.7058 360.4756,39.8059 Q360.4756,41.8977 361.1604,42.9644 Q361.8452,44.031 363.1899,44.031 Q363.8208,44.031 364.4143,43.7612 Q365.0078,43.4915 365.6387,42.9104 Z " fill="#000000"/><text fill="#000000" font-family="sans-serif" font-size="14" lengthAdjust="spacing" textLength="109.4434" x="383.6655" y="44.781">JCUTApplication</text><line style="stroke:#181818;stroke-width:0.5;" x1="310.77" x2="533.5044" y1="55.49" y2="55.49"/><line style="stroke:#181818;stroke-width:0.5;" x1="310.77" x2="533.5044" y1="63.49" y2="63.49"/><ellipse cx="320.77" cy="77.2341" fill="#84BE84" rx="3" ry="3" style="stroke:#038048;stroke-width:1;"/><text fill="#000000" font-family="sans-serif" font-size="14" lengthAdjust="spacing" textLength="95.375" x="329.77" y="81.0252">&lt;init&gt;() : void</text><ellipse cx="320.77" cy="93.7224" fill="#84BE84" rx="3" ry="3" style="stroke:#038048;stroke-width:1;"/><text fill="#000000" font-family="sans-serif" font-size="14" lengthAdjust="spacing" textLength="198.7344" x="329.77" y="97.5134">main(java.lang.String[]) : void</text></g><!--entity LoggerLabel--><!--class Logger--><g id="elem_Logger"><rect codeLine="39" fill="#F1F1F1" height="122.5742" id="Logger" rx="2.5" ry="2.5" style="stroke:#181818;stroke-width:0.5;" width="246.8691" x="1377.7" y="218.37"/><ellipse cx="1465.4363" cy="238.6805" fill="#ADD1B2" rx="11" ry="11" style="stroke:#181818;stroke-width:1;"/><path d="M1467.9095,244.8236 Q1467.3284,245.1224 1466.6893,245.2719 Q1466.0501,245.4213 1465.3445,245.4213 Q1462.8377,245.4213 1461.5179,243.7694 Q1460.198,242.1176 1460.198,238.9965 Q1460.198,235.8671 1461.5179,234.2152 Q1462.8377,232.5634 1465.3445,232.5634 Q1466.0501,232.5634 1466.6976,232.7128 Q1467.345,232.8622 1467.9095,233.161 L1467.9095,235.8837 Q1467.2786,235.3026 1466.6851,235.0328 Q1466.0916,234.7631 1465.4607,234.7631 Q1464.116,234.7631 1463.4312,235.8297 Q1462.7464,236.8964 1462.7464,238.9965 Q1462.7464,241.0883 1463.4312,242.1549 Q1464.116,243.2216 1465.4607,243.2216 Q1466.0916,243.2216 1466.6851,242.9518 Q1467.2786,242.682 1467.9095,242.101 Z " fill="#000000"/><text fill="#000000" font-family="sans-serif" font-size="12" font-style="italic" lengthAdjust="spacing" textLength="66.8965" x="1483.9363" y="234.9716">&#171;Singleton&#187;</text><text fill="#000000" font-family="sans-serif" font-size="14" lengthAdjust="spacing" textLength="47.0518" x="1493.8587" y="251.038">Logger</text><line style="stroke:#181818;stroke-width:0.5;" x1="1378.7" x2="1623.5691" y1="258.9911" y2="258.9911"/><rect fill="transparent" height="6" style="stroke:#C82930;stroke-width:1;" width="6" x="1385.7" y="269.7352"/><text fill="#000000" font-family="sans-serif" font-size="14" lengthAdjust="spacing" textLength="116.8398" x="1397.7" y="276.5262">instance : Logger</text><line style="stroke:#181818;stroke-width:0.5;" x1="1378.7" x2="1623.5691" y1="283.4794" y2="283.4794"/><rect fill="#F24D5C" height="6" style="stroke:#C82930;stroke-width:1;" width="6" x="1385.7" y="294.2235"/><text fill="#000000" font-family="sans-serif" font-size="14" lengthAdjust="spacing" textLength="95.375" x="1397.7" y="301.0145">&lt;init&gt;() : void</text><ellipse cx="1388.7" cy="313.7118" fill="#84BE84" rx="3" ry="3" style="stroke:#038048;stroke-width:1;"/><text fill="#000000" font-family="sans-serif" font-size="14" lengthAdjust="spacing" textLength="220.8691" x="1397.7" y="317.5028">getInstance() : umlparser.Logger</text><ellipse cx="1388.7" cy="330.2001" fill="#84BE84" rx="3" ry="3" style="stroke:#038048;stroke-width:1;"/><text fill="#000000" font-family="sans-serif" font-size="14" lengthAdjust="spacing" textLength="177.4678" x="1397.7" y="333.9911">log(java.lang.String) : void</text></g><!--class Order--><g id="elem_Order"><rect codeLine="46" fill="#F1F1F1" height="163.418" id="Order" rx="2.5" ry="2.5" style="stroke:#181818;stroke-width:0.5;" width="282.2656" x="7" y="197.95"/><ellipse cx="124.4106" cy="213.95" fill="#ADD1B2" rx="11" ry="11" style="stroke:#181818;stroke-width:1;"/><path d="M126.8838,220.0931 Q126.3027,220.3919 125.6636,220.5413 Q125.0244,220.6907 124.3188,220.6907 Q121.812,220.6907 120.4922,219.0389 Q119.1724,217.387 119.1724,214.2659 Q119.1724,211.1365 120.4922,209.4847 Q121.812,207.8328 124.3188,207.8328 Q125.0244,207.8328 125.6719,207.9822 Q126.3193,208.1316 126.8838,208.4305 L126.8838,211.1531 Q126.2529,210.5721 125.6594,210.3023 Q125.0659,210.0325 124.4351,210.0325 Q123.0903,210.0325 122.4055,211.0992 Q121.7207,212.1658 121.7207,214.2659 Q121.7207,216.3577 122.4055,217.4244 Q123.0903,218.491 124.4351,218.491 Q125.0659,218.491 125.6594,218.2212 Q126.2529,217.9515 126.8838,217.3704 Z " fill="#000000"/><text fill="#000000" font-family="sans-serif" font-size="14" lengthAdjust="spacing" textLength="38.9443" x="144.9106" y="219.241">Order</text><line style="stroke:#181818;stroke-width:0.5;" x1="8" x2="288.2656" y1="229.95" y2="229.95"/><rect fill="transparent" height="6" style="stroke:#C82930;stroke-width:1;" width="6" x="15" y="240.6941"/><text fill="#000000" font-family="sans-serif" font-size="14" lengthAdjust="spacing" textLength="80.7734" x="27" y="247.4852">orderId : int</text><rect fill="transparent" height="6" style="stroke:#C82930;stroke-width:1;" width="6" x="15" y="257.1824"/><text fill="#000000" font-family="sans-serif" font-size="14" lengthAdjust="spacing" textLength="135.8232" x="27" y="263.9734">beverage : Beverage</text><line style="stroke:#181818;stroke-width:0.5;" x1="8" x2="288.2656" y1="270.9266" y2="270.9266"/><ellipse cx="18" cy="284.6707" fill="#84BE84" rx="3" ry="3" style="stroke:#038048;stroke-width:1;"/><text fill="#000000" font-family="sans-serif" font-size="14" lengthAdjust="spacing" textLength="256.2656" x="27" y="288.4617">&lt;init&gt;(int, umlparser.Beverage) : void</text><ellipse cx="18" cy="301.159" fill="#84BE84" rx="3" ry="3" style="stroke:#038048;stroke-width:1;"/><text fill="#000000" font-family="sans-serif" font-size="14" lengthAdjust="spacing" textLength="113.9209" x="27" y="304.95">getOrderId() : int</text><ellipse cx="18" cy="317.6473" fill="#84BE84" rx="3" ry="3" style="stroke:#038048;stroke-width:1;"/><text fill="#000000" font-family="sans-serif" font-size="14" lengthAdjust="spacing" textLength="239.1074" x="27" y="321.4383">getBeverage() : umlparser.Beverage</text><ellipse cx="18" cy="334.1355" fill="#84BE84" rx="3" ry="3" style="stroke:#038048;stroke-width:1;"/><text fill="#000000" font-family="sans-serif" font-size="14" lengthAdjust="spacing" textLength="121.5771" x="27" y="337.9266">getCost() : double</text><ellipse cx="18" cy="350.6238" fill="#84BE84" rx="3" ry="3" style="stroke:#038048;stroke-width:1;"/><text fill="#000000" font-family="sans-serif" font-size="14" lengthAdjust="spacing" textLength="226.9053" x="27" y="354.4148">getDescription() : java.lang.String</text></g><!--entity MilkLabel--><!--class Milk--><g id="elem_Milk"><rect codeLine="58" fill="#F1F1F1" height="122.5742" id="Milk" rx="2.5" ry="2.5" style="stroke:#181818;stroke-width:0.5;" width="255.4346" x="797.42" y="218.37"/><ellipse cx="887.8512" cy="238.6805" fill="#ADD1B2" rx="11" ry="11" style="stroke:#181818;stroke-width:1;"/><path d="M890.3243,244.8236 Q889.7432,245.1224 889.1041,245.2719 Q888.4649,245.4213 887.7594,245.4213 Q885.2525,245.4213 883.9327,243.7694 Q882.6129,242.1176 882.6129,238.9965 Q882.6129,235.8671 883.9327,234.2152 Q885.2525,232.5634 887.7594,232.5634 Q888.4649,232.5634 889.1124,232.7128 Q889.7598,232.8622 890.3243,233.161 L890.3243,235.8837 Q889.6934,235.3026 889.0999,235.0328 Q888.5064,234.7631 887.8756,234.7631 Q886.5308,234.7631 885.846,235.8297 Q885.1612,236.8964 885.1612,238.9965 Q885.1612,241.0883 885.846,242.1549 Q886.5308,243.2216 887.8756,243.2216 Q888.5064,243.2216 889.0999,242.9518 Q889.6934,242.682 890.3243,242.101 Z " fill="#000000"/><text fill="#000000" font-family="sans-serif" font-size="12" font-style="italic" lengthAdjust="spacing" textLength="70.0723" x="906.3512" y="234.9716">&#171;Decorator&#187;</text><text fill="#000000" font-family="sans-serif" font-size="14" lengthAdjust="spacing" textLength="28.335" x="927.2198" y="251.038">Milk</text><line style="stroke:#181818;stroke-width:0.5;" x1="798.42" x2="1051.8546" y1="258.9911" y2="258.9911"/><rect fill="transparent" height="6" style="stroke:#C82930;stroke-width:1;" width="6" x="805.42" y="269.7352"/><text fill="#000000" font-family="sans-serif" font-size="14" lengthAdjust="spacing" textLength="135.8232" x="817.42" y="276.5262">beverage : Beverage</text><line style="stroke:#181818;stroke-width:0.5;" x1="798.42" x2="1051.8546" y1="283.4794" y2="283.4794"/><ellipse cx="808.42" cy="297.2235" fill="#84BE84" rx="3" ry="3" style="stroke:#038048;stroke-width:1;"/><text fill="#000000" font-family="sans-serif" font-size="14" lengthAdjust="spacing" textLength="229.4346" x="817.42" y="301.0145">&lt;init&gt;(umlparser.Beverage) : void</text><ellipse cx="808.42" cy="313.7118" fill="#84BE84" rx="3" ry="3" style="stroke:#038048;stroke-width:1;"/><text fill="#000000" font-family="sans-serif" font-size="14" lengthAdjust="spacing" textLength="226.9053" x="817.42" y="317.5028">getDescription() : java.lang.String</text><ellipse cx="808.42" cy="330.2001" fill="#84BE84" rx="3" ry="3" style="stroke:#038048;stroke-width:1;"/><text fill="#000000" font-family="sans-serif" font-size="14" lengthAdjust="spacing" textLength="97.2959" x="817.42" y="333.9911">cost() : double</text></g><!--entity MochaLabel--><!--class Mocha--><g id="elem_Mocha"><rect codeLine="67" fill="#F1F1F1" height="122.5742" id="Mocha" rx="2.5" ry="2.5" style="stroke:#181818;stroke-width:0.5;" width="255.4346" x="1087.42" y="218.37"/><ellipse cx="1177.8512" cy="238.6805" fill="#ADD1B2" rx="11" ry="11" style="stroke:#181818;stroke-width:1;"/><path d="M1180.3243,244.8236 Q1179.7432,245.1224 1179.1041,245.2719 Q1178.4649,245.4213 1177.7594,245.4213 Q1175.2525,245.4213 1173.9327,243.7694 Q1172.6129,242.1176 1172.6129,238.9965 Q1172.6129,235.8671 1173.9327,234.2152 Q1175.2525,232.5634 1177.7594,232.5634 Q1178.4649,232.5634 1179.1124,232.7128 Q1179.7598,232.8622 1180.3243,233.161 L1180.3243,235.8837 Q1179.6934,235.3026 1179.0999,235.0328 Q1178.5064,234.7631 1177.8756,234.7631 Q1176.5308,234.7631 1175.846,235.8297 Q1175.1612,236.8964 1175.1612,238.9965 Q1175.1612,241.0883 1175.846,242.1549 Q1176.5308,243.2216 1177.8756,243.2216 Q1178.5064,243.2216 1179.0999,242.9518 Q1179.6934,242.682 1180.3243,242.101 Z " fill="#000000"/><text fill="#000000" font-family="sans-serif" font-size="12" font-style="italic" lengthAdjust="spacing" textLength="70.0723" x="1196.3512" y="234.9716">&#171;Decorator&#187;</text><text fill="#000000" font-family="sans-serif" font-size="14" lengthAdjust="spacing" textLength="44.249" x="1209.2628" y="251.038">Mocha</text><line style="stroke:#181818;stroke-width:0.5;" x1="1088.42" x2="1341.8546" y1="258.9911" y2="258.9911"/><rect fill="transparent" height="6" style="stroke:#C82930;stroke-width:1;" width="6" x="1095.42" y="269.7352"/><text fill="#000000" font-family="sans-serif" font-size="14" lengthAdjust="spacing" textLength="135.8232" x="1107.42" y="276.5262">beverage : Beverage</text><line style="stroke:#181818;stroke-width:0.5;" x1="1088.42" x2="1341.8546" y1="283.4794" y2="283.4794"/><ellipse cx="1098.42" cy="297.2235" fill="#84BE84" rx="3" ry="3" style="stroke:#038048;stroke-width:1;"/><text fill="#000000" font-family="sans-serif" font-size="14" lengthAdjust="spacing" textLength="229.4346" x="1107.42" y="301.0145">&lt;init&gt;(umlparser.Beverage) : void</text><ellipse cx="1098.42" cy="313.7118" fill="#84BE84" rx="3" ry="3" style="stroke:#038048;stroke-width:1;"/><text fill="#000000" font-family="sans-serif" font-size="14" lengthAdjust="spacing" textLength="226.9053" x="1107.42" y="317.5028">getDescription() : java.lang.String</text><ellipse cx="1098.42" cy="330.2001" fill="#84BE84" rx="3" ry="3" style="stroke:#038048;stroke-width:1;"/><text fill="#000000" font-family="sans-serif" font-size="14" lengthAdjust="spacing" textLength="97.2959" x="1107.42" y="333.9911">cost() : double</text></g><!--class Espresso--><g id="elem_Espresso"><rect codeLine="74" fill="#F1F1F1" height="80.9766" id="Espresso" rx="2.5" ry="2.5" style="stroke:#181818;stroke-width:0.5;" width="123.2959" x="978.48" y="442.68"/><ellipse cx="1007.5913" cy="458.68" fill="#ADD1B2" rx="11" ry="11" style="stroke:#181818;stroke-width:1;"/><path d="M1010.0644,464.8231 Q1009.4834,465.1219 1008.8442,465.2713 Q1008.205,465.4207 1007.4995,465.4207 Q1004.9926,465.4207 1003.6728,463.7689 Q1002.353,462.117 1002.353,458.9959 Q1002.353,455.8665 1003.6728,454.2147 Q1004.9926,452.5628 1007.4995,452.5628 Q1008.205,452.5628 1008.8525,452.7122 Q1009.5,452.8616 1010.0644,453.1605 L1010.0644,455.8831 Q1009.4336,455.3021 1008.8401,455.0323 Q1008.2466,454.7625 1007.6157,454.7625 Q1006.271,454.7625 1005.5862,455.8292 Q1004.9013,456.8958 1004.9013,458.9959 Q1004.9013,461.0877 1005.5862,462.1544 Q1006.271,463.221 1007.6157,463.221 Q1008.2466,463.221 1008.8401,462.9512 Q1009.4336,462.6815 1010.0644,462.1004 Z " fill="#000000"/><text fill="#000000" font-family="sans-serif" font-size="14" lengthAdjust="spacing" textLength="59.9375" x="1024.7271" y="463.971">Espresso</text><line style="stroke:#181818;stroke-width:0.5;" x1="979.48" x2="1100.7759" y1="474.68" y2="474.68"/><line style="stroke:#181818;stroke-width:0.5;" x1="979.48" x2="1100.7759" y1="482.68" y2="482.68"/><ellipse cx="989.48" cy="496.4241" fill="#84BE84" rx="3" ry="3" style="stroke:#038048;stroke-width:1;"/><text fill="#000000" font-family="sans-serif" font-size="14" lengthAdjust="spacing" textLength="95.375" x="998.48" y="500.2152">&lt;init&gt;() : void</text><ellipse cx="989.48" cy="512.9124" fill="#84BE84" rx="3" ry="3" style="stroke:#038048;stroke-width:1;"/><text fill="#000000" font-family="sans-serif" font-size="14" lengthAdjust="spacing" textLength="97.2959" x="998.48" y="516.7034">cost() : double</text></g><!--class HouseBlend--><g id="elem_HouseBlend"><rect codeLine="79" fill="#F1F1F1" height="80.9766" id="HouseBlend" rx="2.5" ry="2.5" style="stroke:#181818;stroke-width:0.5;" width="123.2959" x="1136.48" y="442.68"/><ellipse cx="1156.6027" cy="458.68" fill="#ADD1B2" rx="11" ry="11" style="stroke:#181818;stroke-width:1;"/><path d="M1159.0758,464.8231 Q1158.4948,465.1219 1157.8556,465.2713 Q1157.2165,465.4207 1156.5109,465.4207 Q1154.0041,465.4207 1152.6842,463.7689 Q1151.3644,462.117 1151.3644,458.9959 Q1151.3644,455.8665 1152.6842,454.2147 Q1154.0041,452.5628 1156.5109,452.5628 Q1157.2165,452.5628 1157.8639,452.7122 Q1158.5114,452.8616 1159.0758,453.1605 L1159.0758,455.8831 Q1158.445,455.3021 1157.8515,455.0323 Q1157.258,454.7625 1156.6271,454.7625 Q1155.2824,454.7625 1154.5976,455.8292 Q1153.9128,456.8958 1153.9128,458.9959 Q1153.9128,461.0877 1154.5976,462.1544 Q1155.2824,463.221 1156.6271,463.221 Q1157.258,463.221 1157.8515,462.9512 Q1158.445,462.6815 1159.0758,462.1004 Z " fill="#000000"/><text fill="#000000" font-family="sans-serif" font-size="14" lengthAdjust="spacing" textLength="79.9121" x="1171.7411" y="463.971">HouseBlend</text><line style="stroke:#181818;stroke-width:0.5;" x1="1137.48" x2="1258.7759" y1="474.68" y2="474.68"/><line style="stroke:#181818;stroke-width:0.5;" x1="1137.48" x2="1258.7759" y1="482.68" y2="482.68"/><ellipse cx="1147.48" cy="496.4241" fill="#84BE84" rx="3" ry="3" style="stroke:#038048;stroke-width:1;"/><text fill="#000000" font-family="sans-serif" font-size="14" lengthAdjust="spacing" textLength="95.375" x="1156.48" y="500.2152">&lt;init&gt;() : void</text><ellipse cx="1147.48" cy="512.9124" fill="#84BE84" rx="3" ry="3" style="stroke:#038048;stroke-width:1;"/><text fill="#000000" font-family="sans-serif" font-size="14" lengthAdjust="spacing" textLength="97.2959" x="1156.48" y="516.7034">cost() : double</text></g><!--link SoyLabel to Soy--><g id="link_SoyLabel_Soy"><path codeLine="10" d="M579.13,74.43 C579.13,99.15 579.13,161.27 579.13,212.09 " fill="transparent" id="SoyLabel-to-Soy" style="stroke:#FF0000;stroke-width:1;"/><polygon fill="#FF0000" points="579.13,218.09,583.13,209.09,579.13,213.09,575.13,209.09,579.13,218.09" style="stroke:#FF0000;stroke-width:1;"/><text fill="#000000" font-family="sans-serif" font-size="13" lengthAdjust="spacing" textLength="62.2896" x="580.13" y="164.5184">Decorator</text></g><!--link CondimentDecoratorLabel to CondimentDecorator--><g id="link_CondimentDecoratorLabel_CondimentDecorator"><path codeLine="19" d="M754.97,289.98 C761.42,311.09 777.73,364.19 792.13,408.37 C795.28,418.02 796.7983,422.6561 800.1083,432.4461 " fill="transparent" id="CondimentDecoratorLabel-to-CondimentDecorator" style="stroke:#FF0000;stroke-width:1;"/><polygon fill="#FF0000" points="802.03,438.13,802.9367,428.323,800.4286,433.3934,795.3581,430.8853,802.03,438.13" style="stroke:#FF0000;stroke-width:1;"/><text fill="#000000" font-family="sans-serif" font-size="13" lengthAdjust="spacing" textLength="62.2896" x="793.13" y="404.9384">Decorator</text></g><!--link LoggerLabel to Logger--><g id="link_LoggerLabel_Logger"><path codeLine="38" d="M1501.13,74.43 C1501.13,99.15 1501.13,161.27 1501.13,212.09 " fill="transparent" id="LoggerLabel-to-Logger" style="stroke:#0000FF;stroke-width:1;"/><polygon fill="#0000FF" points="1501.13,218.09,1505.13,209.09,1501.13,213.09,1497.13,209.09,1501.13,218.09" style="stroke:#0000FF;stroke-width:1;"/><text fill="#000000" font-family="sans-serif" font-size="13" lengthAdjust="spacing" textLength="58.8491" x="1502.13" y="164.5184">Singleton</text></g><!--link MilkLabel to Milk--><g id="link_MilkLabel_Milk"><path codeLine="57" d="M925.13,74.43 C925.13,99.15 925.13,161.27 925.13,212.09 " fill="transparent" id="MilkLabel-to-Milk" style="stroke:#FF0000;stroke-width:1;"/><polygon fill="#FF0000" points="925.13,218.09,929.13,209.09,925.13,213.09,921.13,209.09,925.13,218.09" style="stroke:#FF0000;stroke-width:1;"/><text fill="#000000" font-family="sans-serif" font-size="13" lengthAdjust="spacing" textLength="62.2896" x="926.13" y="164.5184">Decorator</text></g><!--link MochaLabel to Mocha--><g id="link_MochaLabel_Mocha"><path codeLine="66" d="M1215.13,74.43 C1215.13,99.15 1215.13,161.27 1215.13,212.09 " fill="transparent" id="MochaLabel-to-Mocha" style="stroke:#FF0000;stroke-width:1;"/><polygon fill="#FF0000" points="1215.13,218.09,1219.13,209.09,1215.13,213.09,1211.13,209.09,1215.13,218.09" style="stroke:#FF0000;stroke-width:1;"/><text fill="#000000" font-family="sans-serif" font-size="13" lengthAdjust="spacing" textLength="62.2896" x="1216.13" y="164.5184">Decorator</text></g><!--link Soy to CondimentDecorator--><g id="link_Soy_CondimentDecorator"><path codeLine="84" d="M650.86,341.39 C687.54,372.45 717.6443,397.9268 751.0943,426.2568 " fill="transparent" id="Soy-to-CondimentDecorator" style="stroke:#181818;stroke-width:1;"/><polygon fill="transparent" points="764.83,437.89,754.9721,421.6782,747.2166,430.8353,764.83,437.89" style="stroke:#181818;stroke-width:1;"/></g><!--link CondimentDecorator to Beverage--><g id="link_CondimentDecorator_Beverage"><path codeLine="85" d="M878.36,528.31 C904.15,546.91 919.8791,558.2432 947.2591,577.9832 " fill="transparent" id="CondimentDecorator-to-Beverage" style="stroke:#181818;stroke-width:1;"/><polygon fill="transparent" points="961.86,588.51,950.768,573.1163,943.7501,582.8502,961.86,588.51" style="stroke:#181818;stroke-width:1;"/></g><!--link Milk to CondimentDecorator--><g id="link_Milk_CondimentDecorator"><path codeLine="86" d="M895.08,341.44 C884.32,362.75 871.92,386.75 860.13,408.37 C854.88,418 858.0836,412.6494 852.4836,422.3294 " fill="transparent" id="Milk-to-CondimentDecorator" style="stroke:#181818;stroke-width:1;"/><polygon fill="transparent" points="843.47,437.91,857.6771,425.3339,847.29,419.3249,843.47,437.91" style="stroke:#181818;stroke-width:1;"/></g><!--link Mocha to CondimentDecorator--><g id="link_Mocha_CondimentDecorator"><path codeLine="87" d="M1107.85,341.35 C1095.2,348.22 1082.42,355.02 1070.13,361.37 C1018.88,387.83 977.1682,408.0401 929.6382,430.3201 " fill="transparent" id="Mocha-to-CondimentDecorator" style="stroke:#181818;stroke-width:1;"/><polygon fill="transparent" points="913.34,437.96,932.1849,435.7528,927.0916,424.8874,913.34,437.96" style="stroke:#181818;stroke-width:1;"/></g><!--link Espresso to Beverage--><g id="link_Espresso_Beverage"><path codeLine="88" d="M1040.13,523.91 C1040.13,543.44 1040.13,549.31 1040.13,570.67 " fill="transparent" id="Espresso-to-Beverage" style="stroke:#181818;stroke-width:1;"/><polygon fill="transparent" points="1040.13,588.67,1046.13,570.67,1034.13,570.67,1040.13,588.67" style="stroke:#181818;stroke-width:1;"/></g><!--link HouseBlend to Beverage--><g id="link_HouseBlend_Beverage"><path codeLine="89" d="M1159.08,523.91 C1139.89,543.44 1129.0493,554.4744 1108.0493,575.8344 " fill="transparent" id="HouseBlend-to-Beverage" style="stroke:#181818;stroke-width:1;"/><polygon fill="transparent" points="1095.43,588.67,1112.3278,580.0408,1103.7708,571.6279,1095.43,588.67" style="stroke:#181818;stroke-width:1;"/></g><!--SRC=[pLLDQzmm4BtxLuZD9INr_e1W3Cscq8HTSjZs578OMy9LgfMC96zQslxtIgErLbxRQLC815_aUVF6y-P31Y7Kquv_vxB9e39MGst95Tip3GqZFpD2pWXbfjQyjLn9SaaUOGzB0R9PRgtsD48kIC4bj-NvEuVl5QTeQvYzFZ8Hc-JMobX4gUegmRBVMIQWOe8it0E6RDMFjN_F-WF9xyyqemzvwJ57N5opMccmIY-oMe113YcAQ2vBb9AJgbTs6KMc-NSxqO8sJ2zxz5KKhPIaVCUaZGa6WJFsHE_OuqH-xE64vxWW_zyu9obK-avJfZSWNQtqeSZAcqpFwYmNopKtTlPxG2b6ISgFxmEdLgkQ6OE0EV9Z7hUhBvy_jAtWDU2WpilR0PVdfuBk7zAGWswjLUEqXGubPz-LIdJCjoMOVIksBfPWLib-4WzGKKGa3YENneAi_J06BxJETEJcu8p0iL2HU464QaQondN20gQDkg7EXqlxB_lXtDwJlo_9NOYBgOR8QExTJoGCFkJSLYVRyuAH7FHjmyMtqBLuIZR9soQl3WJUxjsnKVLNECYAnrINDquBG-HDAGk9VJIjTgkjdjdPMUudrHbs9PYaBsFx7qIU_oh7r-J4BOoUiJ8u83FSKECPCEeSX4iKfFO_]--></g></svg>