<svg xmlns="http://www.w3.org/2000/svg" xmlns:xlink="http://www.w3.org/1999/xlink" contentStyleType="text/css" data-diagram-type="CLASS" height="682px" preserveAspectRatio="none" style="width:4835px;height:682px;background:#FFFFFF;" version="1.1" viewBox="0 0 4835 682" width="4835px" zoomAndPan="magnify"><defs/><g><!--class AdvancedControllerContact--><g id="elem_AdvancedControllerContact"><rect codeLine="13" fill="#F1F1F1" height="100.8281" id="AdvancedControllerContact" rx="2.5" ry="2.5" style="stroke:#181818;stroke-width:0.5;" width="462.4814" x="7" y="42"/><ellipse cx="148.3877" cy="58" fill="#ADD1B2" rx="11" ry="11" style="stroke:#181818;stroke-width:1;"/><path d="M151.1533,53.875 Q151.3096,53.6563 151.4971,53.5469 Q151.6846,53.4375 151.9033,53.4375 Q152.2783,53.4375 152.5127,53.7031 Q152.7471,53.9531 152.7471,54.5625 L152.7471,56.0156 Q152.7471,56.625 152.5127,56.8906 Q152.2783,57.1563 151.9033,57.1563 Q151.5596,57.1563 151.3564,56.9531 Q151.1533,56.7656 151.0439,56.25 Q150.9971,55.8906 150.8096,55.7031 Q150.4814,55.3281 149.8721,55.1094 Q149.2627,54.8906 148.6377,54.8906 Q147.8721,54.8906 147.2314,55.2188 Q146.6064,55.5469 146.1064,56.2969 Q145.6221,57.0469 145.6221,58.0781 L145.6221,59.1719 Q145.6221,60.4063 146.5127,61.2344 Q147.4033,62.0469 148.9971,62.0469 Q149.9346,62.0469 150.5908,61.7969 Q150.9814,61.6406 151.4033,61.2031 Q151.6689,60.9375 151.8096,60.8594 Q151.9658,60.7813 152.1689,60.7813 Q152.4971,60.7813 152.7471,61.0469 Q153.0127,61.2969 153.0127,61.6406 Q153.0127,61.9844 152.6689,62.3906 Q152.1689,62.9688 151.3721,63.2969 Q150.2939,63.75 148.9971,63.75 Q147.4814,63.75 146.2783,63.125 Q145.2939,62.625 144.6064,61.5625 Q143.9189,60.4844 143.9189,59.2031 L143.9189,58.0469 Q143.9189,56.7188 144.5283,55.5781 Q145.1533,54.4219 146.2471,53.8125 Q147.3408,53.1875 148.5752,53.1875 Q149.3096,53.1875 149.9502,53.3594 Q150.6064,53.5156 151.1533,53.875 Z " fill="#000000"/><text fill="#000000" font-family="sans-serif" font-size="14" lengthAdjust="spacing" textLength="171.2061" x="168.8877" y="63.7285">AdvancedControllerContact</text><line style="stroke:#181818;stroke-width:0.5;" x1="8" x2="468.4814" y1="74" y2="74"/><line style="stroke:#181818;stroke-width:0.5;" x1="8" x2="468.4814" y1="82" y2="82"/><ellipse cx="18" cy="96.3047" fill="#84BE84" rx="3" ry="3" style="stroke:#038048;stroke-width:1;"/><text fill="#000000" font-family="sans-serif" font-size="14" lengthAdjust="spacing" textLength="80.9238" x="27" y="100.5332">&lt;init&gt;() : void</text><ellipse cx="18" cy="113.9141" fill="#84BE84" rx="3" ry="3" style="stroke:#038048;stroke-width:1;"/><text fill="#000000" font-family="sans-serif" font-size="14" lengthAdjust="spacing" textLength="320.5713" x="27" y="118.1426">sendOrder(umlparser.OrderComponent, int) : String</text><rect fill="#F24D5C" height="6" style="stroke:#C82930;stroke-width:1;" width="6" x="15" y="128.5234"/><text fill="#000000" font-family="sans-serif" font-size="14" lengthAdjust="spacing" textLength="436.4814" x="27" y="135.752">createCommandJSON(umlparser.OrderComponent, int) : JSONObject</text></g><!--class AppCommunicator--><g id="elem_AppCommunicator"><rect codeLine="19" fill="#F1F1F1" height="171.2656" id="AppCommunicator" rx="2.5" ry="2.5" style="stroke:#181818;stroke-width:0.5;" width="325.5576" x="1498" y="7"/><ellipse cx="1598.5601" cy="23" fill="#ADD1B2" rx="11" ry="11" style="stroke:#181818;stroke-width:1;"/><path d="M1601.3257,18.875 Q1601.4819,18.6563 1601.6694,18.5469 Q1601.8569,18.4375 1602.0757,18.4375 Q1602.4507,18.4375 1602.6851,18.7031 Q1602.9194,18.9531 1602.9194,19.5625 L1602.9194,21.0156 Q1602.9194,21.625 1602.6851,21.8906 Q1602.4507,22.1563 1602.0757,22.1563 Q1601.7319,22.1563 1601.5288,21.9531 Q1601.3257,21.7656 1601.2163,21.25 Q1601.1694,20.8906 1600.9819,20.7031 Q1600.6538,20.3281 1600.0444,20.1094 Q1599.4351,19.8906 1598.8101,19.8906 Q1598.0444,19.8906 1597.4038,20.2188 Q1596.7788,20.5469 1596.2788,21.2969 Q1595.7944,22.0469 1595.7944,23.0781 L1595.7944,24.1719 Q1595.7944,25.4063 1596.6851,26.2344 Q1597.5757,27.0469 1599.1694,27.0469 Q1600.1069,27.0469 1600.7632,26.7969 Q1601.1538,26.6406 1601.5757,26.2031 Q1601.8413,25.9375 1601.9819,25.8594 Q1602.1382,25.7813 1602.3413,25.7813 Q1602.6694,25.7813 1602.9194,26.0469 Q1603.1851,26.2969 1603.1851,26.6406 Q1603.1851,26.9844 1602.8413,27.3906 Q1602.3413,27.9688 1601.5444,28.2969 Q1600.4663,28.75 1599.1694,28.75 Q1597.6538,28.75 1596.4507,28.125 Q1595.4663,27.625 1594.7788,26.5625 Q1594.0913,25.4844 1594.0913,24.2031 L1594.0913,23.0469 Q1594.0913,21.7188 1594.7007,20.5781 Q1595.3257,19.4219 1596.4194,18.8125 Q1597.5132,18.1875 1598.7476,18.1875 Q1599.4819,18.1875 1600.1226,18.3594 Q1600.7788,18.5156 1601.3257,18.875 Z " fill="#000000"/><text fill="#000000" font-family="sans-serif" font-size="14" lengthAdjust="spacing" textLength="115.9375" x="1619.0601" y="28.7285">AppCommunicator</text><line style="stroke:#181818;stroke-width:0.5;" x1="1499" x2="1822.5576" y1="39" y2="39"/><polygon fill="transparent" points="1509,49.3047,1505,55.3047,1513,55.3047" style="stroke:#1963A0;stroke-width:1;"/><text fill="#000000" font-family="sans-serif" font-size="14" lengthAdjust="spacing" textLength="173.5029" x="1518" y="57.5332">orderCreator : OrderCreator</text><polygon fill="transparent" points="1509,66.9141,1505,72.9141,1513,72.9141" style="stroke:#1963A0;stroke-width:1;"/><text fill="#000000" font-family="sans-serif" font-size="14" lengthAdjust="spacing" textLength="222.5713" x="1518" y="75.1426">orderQueue : Queue&lt;JSONObject&gt;</text><line style="stroke:#181818;stroke-width:0.5;" x1="1499" x2="1822.5576" y1="82.2188" y2="82.2188"/><ellipse cx="1509" cy="96.5234" fill="#84BE84" rx="3" ry="3" style="stroke:#038048;stroke-width:1;"/><text fill="#000000" font-family="sans-serif" font-size="14" lengthAdjust="spacing" textLength="80.9238" x="1518" y="100.752">&lt;init&gt;() : void</text><ellipse cx="1509" cy="114.1328" fill="#84BE84" rx="3" ry="3" style="stroke:#038048;stroke-width:1;"/><text fill="#000000" font-family="sans-serif" font-size="14" lengthAdjust="spacing" textLength="185.999" x="1518" y="118.3613">update(java.lang.String) : void</text><rect fill="#F24D5C" height="6" style="stroke:#C82930;stroke-width:1;" width="6" x="1506" y="128.7422"/><text fill="#000000" font-family="sans-serif" font-size="14" lengthAdjust="spacing" textLength="294.1504" x="1518" y="135.9707">notifyPhoneApp(java.lang.String) : JSONObject</text><ellipse cx="1509" cy="149.3516" fill="#84BE84" rx="3" ry="3" style="stroke:#038048;stroke-width:1;"/><text fill="#000000" font-family="sans-serif" font-size="14" lengthAdjust="spacing" textLength="299.5576" x="1518" y="153.5801">recieveMessageFromPhone(JSONObject) : void</text><ellipse cx="1509" cy="166.9609" fill="#84BE84" rx="3" ry="3" style="stroke:#038048;stroke-width:1;"/><text fill="#000000" font-family="sans-serif" font-size="14" lengthAdjust="spacing" textLength="138.4961" x="1518" y="171.1895">executeOrders() : void</text></g><!--class BaseOrder--><g id="elem_BaseOrder"><rect codeLine="29" fill="#F1F1F1" height="206.4844" id="BaseOrder" rx="2.5" ry="2.5" style="stroke:#181818;stroke-width:0.5;" width="411.9912" x="2348" y="247"/><ellipse cx="2515.8975" cy="263" fill="#ADD1B2" rx="11" ry="11" style="stroke:#181818;stroke-width:1;"/><path d="M2518.6631,258.875 Q2518.8193,258.6563 2519.0068,258.5469 Q2519.1943,258.4375 2519.4131,258.4375 Q2519.7881,258.4375 2520.0225,258.7031 Q2520.2568,258.9531 2520.2568,259.5625 L2520.2568,261.0156 Q2520.2568,261.625 2520.0225,261.8906 Q2519.7881,262.1563 2519.4131,262.1563 Q2519.0693,262.1563 2518.8662,261.9531 Q2518.6631,261.7656 2518.5537,261.25 Q2518.5068,260.8906 2518.3193,260.7031 Q2517.9912,260.3281 2517.3818,260.1094 Q2516.7725,259.8906 2516.1475,259.8906 Q2515.3818,259.8906 2514.7412,260.2188 Q2514.1162,260.5469 2513.6162,261.2969 Q2513.1318,262.0469 2513.1318,263.0781 L2513.1318,264.1719 Q2513.1318,265.4063 2514.0225,266.2344 Q2514.9131,267.0469 2516.5068,267.0469 Q2517.4443,267.0469 2518.1006,266.7969 Q2518.4912,266.6406 2518.9131,266.2031 Q2519.1787,265.9375 2519.3193,265.8594 Q2519.4756,265.7813 2519.6787,265.7813 Q2520.0068,265.7813 2520.2568,266.0469 Q2520.5225,266.2969 2520.5225,266.6406 Q2520.5225,266.9844 2520.1787,267.3906 Q2519.6787,267.9688 2518.8818,268.2969 Q2517.8037,268.75 2516.5068,268.75 Q2514.9912,268.75 2513.7881,268.125 Q2512.8037,267.625 2512.1162,266.5625 Q2511.4287,265.4844 2511.4287,264.2031 L2511.4287,263.0469 Q2511.4287,261.7188 2512.0381,260.5781 Q2512.6631,259.4219 2513.7568,258.8125 Q2514.8506,258.1875 2516.085,258.1875 Q2516.8193,258.1875 2517.46,258.3594 Q2518.1162,258.5156 2518.6631,258.875 Z " fill="#000000"/><text fill="#000000" font-family="sans-serif" font-size="14" lengthAdjust="spacing" textLength="67.6963" x="2536.3975" y="268.7285">BaseOrder</text><line style="stroke:#181818;stroke-width:0.5;" x1="2349" x2="2758.9912" y1="279" y2="279"/><rect fill="transparent" height="6" style="stroke:#C82930;stroke-width:1;" width="6" x="2356" y="290.3047"/><text fill="#000000" font-family="sans-serif" font-size="14" lengthAdjust="spacing" textLength="115.9307" x="2368" y="297.5332">drinkName : String</text><rect fill="transparent" height="6" style="stroke:#C82930;stroke-width:1;" width="6" x="2356" y="307.9141"/><text fill="#000000" font-family="sans-serif" font-size="14" lengthAdjust="spacing" textLength="119.0479" x="2368" y="315.1426">instructions : String</text><rect fill="transparent" height="6" style="stroke:#C82930;stroke-width:1;" width="6" x="2356" y="325.5234"/><text fill="#000000" font-family="sans-serif" font-size="14" lengthAdjust="spacing" textLength="98.0479" x="2368" y="332.752">address : String</text><line style="stroke:#181818;stroke-width:0.5;" x1="2349" x2="2758.9912" y1="339.8281" y2="339.8281"/><ellipse cx="2359" cy="354.1328" fill="#84BE84" rx="3" ry="3" style="stroke:#038048;stroke-width:1;"/><text fill="#000000" font-family="sans-serif" font-size="14" lengthAdjust="spacing" textLength="385.9912" x="2368" y="358.3613">&lt;init&gt;(java.lang.String, java.lang.String, java.lang.String) : void</text><ellipse cx="2359" cy="371.7422" fill="#84BE84" rx="3" ry="3" style="stroke:#038048;stroke-width:1;"/><text fill="#000000" font-family="sans-serif" font-size="14" lengthAdjust="spacing" textLength="187.5234" x="2368" y="375.9707">getIngredients() : JSONObject</text><ellipse cx="2359" cy="389.3516" fill="#84BE84" rx="3" ry="3" style="stroke:#038048;stroke-width:1;"/><text fill="#000000" font-family="sans-serif" font-size="14" lengthAdjust="spacing" textLength="166.5029" x="2368" y="393.5801">getOptions() : JSONObject</text><ellipse cx="2359" cy="406.9609" fill="#84BE84" rx="3" ry="3" style="stroke:#038048;stroke-width:1;"/><text fill="#000000" font-family="sans-serif" font-size="14" lengthAdjust="spacing" textLength="148.6133" x="2368" y="411.1895">getInstructions() : String</text><ellipse cx="2359" cy="424.5703" fill="#84BE84" rx="3" ry="3" style="stroke:#038048;stroke-width:1;"/><text fill="#000000" font-family="sans-serif" font-size="14" lengthAdjust="spacing" textLength="147.041" x="2368" y="428.7988">getDrinkName() : String</text><ellipse cx="2359" cy="442.1797" fill="#84BE84" rx="3" ry="3" style="stroke:#038048;stroke-width:1;"/><text fill="#000000" font-family="sans-serif" font-size="14" lengthAdjust="spacing" textLength="128.3857" x="2368" y="446.4082">getAddress() : String</text></g><!--class ControllerContactBehavior--><g id="elem_ControllerContactBehavior"><rect codeLine="41" fill="#F1F1F1" height="83.2188" id="ControllerContactBehavior" rx="2.5" ry="2.5" style="stroke:#181818;stroke-width:0.5;" width="346.5713" x="561.5" y="308.5"/><ellipse cx="648.4395" cy="324.5" fill="#B4A7E5" rx="11" ry="11" style="stroke:#181818;stroke-width:1;"/><path d="M649.3926,321.1406 L649.3926,327.7969 L651.1113,327.7969 Q651.7207,327.7969 651.9863,328.0313 Q652.252,328.2656 652.252,328.6563 Q652.252,329.0313 651.9863,329.2656 Q651.7207,329.5 651.1113,329.5 L645.9707,329.5 Q645.3613,329.5 645.0957,329.2656 Q644.8301,329.0313 644.8301,328.6406 Q644.8301,328.2656 645.0957,328.0313 Q645.3613,327.7969 645.9707,327.7969 L647.6895,327.7969 L647.6895,321.1406 L645.9707,321.1406 Q645.3613,321.1406 645.0957,320.9063 Q644.8301,320.6719 644.8301,320.2813 Q644.8301,319.9063 645.0957,319.6719 Q645.3613,319.4375 645.9707,319.4375 L651.1113,319.4375 Q651.7207,319.4375 651.9863,319.6719 Q652.252,319.9063 652.252,320.2813 Q652.252,320.6719 651.9863,320.9063 Q651.7207,321.1406 651.1113,321.1406 L649.3926,321.1406 Z " fill="#000000"/><text fill="#000000" font-family="sans-serif" font-size="14" font-style="italic" lengthAdjust="spacing" textLength="164.1924" x="668.9395" y="330.2285">ControllerContactBehavior</text><line style="stroke:#181818;stroke-width:0.5;" x1="562.5" x2="907.0713" y1="340.5" y2="340.5"/><line style="stroke:#181818;stroke-width:0.5;" x1="562.5" x2="907.0713" y1="348.5" y2="348.5"/><polygon fill="#4177AF" points="572.5,358.8047,568.5,364.8047,576.5,364.8047" style="stroke:#1963A0;stroke-width:1;"/><text fill="#000000" font-family="sans-serif" font-size="14" lengthAdjust="spacing" textLength="91.0342" x="581.5" y="367.0332">&lt;clinit&gt;() : void</text><ellipse cx="572.5" cy="380.4141" fill="#84BE84" rx="3" ry="3" style="stroke:#038048;stroke-width:1;"/><text fill="#000000" font-family="sans-serif" font-size="14" lengthAdjust="spacing" textLength="320.5713" x="581.5" y="384.6426">sendOrder(umlparser.OrderComponent, int) : String</text></g><!--class Cream--><g id="elem_Cream"><rect codeLine="46" fill="#F1F1F1" height="100.8281" id="Cream" rx="2.5" ry="2.5" style="stroke:#181818;stroke-width:0.5;" width="303.7852" x="1859" y="42"/><ellipse cx="1985.6392" cy="58" fill="#ADD1B2" rx="11" ry="11" style="stroke:#181818;stroke-width:1;"/><path d="M1988.4048,53.875 Q1988.561,53.6563 1988.7485,53.5469 Q1988.936,53.4375 1989.1548,53.4375 Q1989.5298,53.4375 1989.7642,53.7031 Q1989.9985,53.9531 1989.9985,54.5625 L1989.9985,56.0156 Q1989.9985,56.625 1989.7642,56.8906 Q1989.5298,57.1563 1989.1548,57.1563 Q1988.811,57.1563 1988.6079,56.9531 Q1988.4048,56.7656 1988.2954,56.25 Q1988.2485,55.8906 1988.061,55.7031 Q1987.7329,55.3281 1987.1235,55.1094 Q1986.5142,54.8906 1985.8892,54.8906 Q1985.1235,54.8906 1984.4829,55.2188 Q1983.8579,55.5469 1983.3579,56.2969 Q1982.8735,57.0469 1982.8735,58.0781 L1982.8735,59.1719 Q1982.8735,60.4063 1983.7642,61.2344 Q1984.6548,62.0469 1986.2485,62.0469 Q1987.186,62.0469 1987.8423,61.7969 Q1988.2329,61.6406 1988.6548,61.2031 Q1988.9204,60.9375 1989.061,60.8594 Q1989.2173,60.7813 1989.4204,60.7813 Q1989.7485,60.7813 1989.9985,61.0469 Q1990.2642,61.2969 1990.2642,61.6406 Q1990.2642,61.9844 1989.9204,62.3906 Q1989.4204,62.9688 1988.6235,63.2969 Q1987.5454,63.75 1986.2485,63.75 Q1984.7329,63.75 1983.5298,63.125 Q1982.5454,62.625 1981.8579,61.5625 Q1981.1704,60.4844 1981.1704,59.2031 L1981.1704,58.0469 Q1981.1704,56.7188 1981.7798,55.5781 Q1982.4048,54.4219 1983.4985,53.8125 Q1984.5923,53.1875 1985.8267,53.1875 Q1986.561,53.1875 1987.2017,53.3594 Q1987.8579,53.5156 1988.4048,53.875 Z " fill="#000000"/><text fill="#000000" font-family="sans-serif" font-size="14" lengthAdjust="spacing" textLength="42.0068" x="2006.1392" y="63.7285">Cream</text><line style="stroke:#181818;stroke-width:0.5;" x1="1860" x2="2161.7852" y1="74" y2="74"/><rect fill="transparent" height="6" style="stroke:#C82930;stroke-width:1;" width="6" x="1867" y="85.3047"/><text fill="#000000" font-family="sans-serif" font-size="14" lengthAdjust="spacing" textLength="187.4756" x="1879" y="92.5332">COMPONENT_NAME : String</text><rect fill="transparent" height="6" style="stroke:#C82930;stroke-width:1;" width="6" x="1867" y="102.9141"/><text fill="#000000" font-family="sans-serif" font-size="14" lengthAdjust="spacing" textLength="136.1787" x="1879" y="110.1426">IS_OPTION : boolean</text><line style="stroke:#181818;stroke-width:0.5;" x1="1860" x2="2161.7852" y1="117.2188" y2="117.2188"/><ellipse cx="1870" cy="131.5234" fill="#84BE84" rx="3" ry="3" style="stroke:#038048;stroke-width:1;"/><text fill="#000000" font-family="sans-serif" font-size="14" lengthAdjust="spacing" textLength="277.7852" x="1879" y="135.752">&lt;init&gt;(umlparser.OrderComponent, int) : void</text></g><!--class DarkRoast--><g id="elem_DarkRoast"><rect codeLine="52" fill="#F1F1F1" height="100.8281" id="DarkRoast" rx="2.5" ry="2.5" style="stroke:#181818;stroke-width:0.5;" width="303.7852" x="2198" y="42"/><ellipse cx="2312.5771" cy="58" fill="#ADD1B2" rx="11" ry="11" style="stroke:#181818;stroke-width:1;"/><path d="M2315.3428,53.875 Q2315.499,53.6563 2315.6865,53.5469 Q2315.874,53.4375 2316.0928,53.4375 Q2316.4678,53.4375 2316.7021,53.7031 Q2316.9365,53.9531 2316.9365,54.5625 L2316.9365,56.0156 Q2316.9365,56.625 2316.7021,56.8906 Q2316.4678,57.1563 2316.0928,57.1563 Q2315.749,57.1563 2315.5459,56.9531 Q2315.3428,56.7656 2315.2334,56.25 Q2315.1865,55.8906 2314.999,55.7031 Q2314.6709,55.3281 2314.0615,55.1094 Q2313.4521,54.8906 2312.8271,54.8906 Q2312.0615,54.8906 2311.4209,55.2188 Q2310.7959,55.5469 2310.2959,56.2969 Q2309.8115,57.0469 2309.8115,58.0781 L2309.8115,59.1719 Q2309.8115,60.4063 2310.7021,61.2344 Q2311.5928,62.0469 2313.1865,62.0469 Q2314.124,62.0469 2314.7803,61.7969 Q2315.1709,61.6406 2315.5928,61.2031 Q2315.8584,60.9375 2315.999,60.8594 Q2316.1553,60.7813 2316.3584,60.7813 Q2316.6865,60.7813 2316.9365,61.0469 Q2317.2021,61.2969 2317.2021,61.6406 Q2317.2021,61.9844 2316.8584,62.3906 Q2316.3584,62.9688 2315.5615,63.2969 Q2314.4834,63.75 2313.1865,63.75 Q2311.6709,63.75 2310.4678,63.125 Q2309.4834,62.625 2308.7959,61.5625 Q2308.1084,60.4844 2308.1084,59.2031 L2308.1084,58.0469 Q2308.1084,56.7188 2308.7178,55.5781 Q2309.3428,54.4219 2310.4365,53.8125 Q2311.5303,53.1875 2312.7646,53.1875 Q2313.499,53.1875 2314.1396,53.3594 Q2314.7959,53.5156 2315.3428,53.875 Z " fill="#000000"/><text fill="#000000" font-family="sans-serif" font-size="14" lengthAdjust="spacing" textLength="66.1309" x="2333.0771" y="63.7285">DarkRoast</text><line style="stroke:#181818;stroke-width:0.5;" x1="2199" x2="2500.7852" y1="74" y2="74"/><rect fill="transparent" height="6" style="stroke:#C82930;stroke-width:1;" width="6" x="2206" y="85.3047"/><text fill="#000000" font-family="sans-serif" font-size="14" lengthAdjust="spacing" textLength="187.4756" x="2218" y="92.5332">COMPONENT_NAME : String</text><rect fill="transparent" height="6" style="stroke:#C82930;stroke-width:1;" width="6" x="2206" y="102.9141"/><text fill="#000000" font-family="sans-serif" font-size="14" lengthAdjust="spacing" textLength="136.1787" x="2218" y="110.1426">IS_OPTION : boolean</text><line style="stroke:#181818;stroke-width:0.5;" x1="2199" x2="2500.7852" y1="117.2188" y2="117.2188"/><ellipse cx="2209" cy="131.5234" fill="#84BE84" rx="3" ry="3" style="stroke:#038048;stroke-width:1;"/><text fill="#000000" font-family="sans-serif" font-size="14" lengthAdjust="spacing" textLength="277.7852" x="2218" y="135.752">&lt;init&gt;(umlparser.OrderComponent, int) : void</text></g><!--class DatabaseHandler--><g id="elem_DatabaseHandler"><rect codeLine="58" fill="#F1F1F1" height="171.2656" id="DatabaseHandler" rx="2.5" ry="2.5" style="stroke:#181818;stroke-width:0.5;" width="353.5781" x="4232" y="7"/><ellipse cx="4350.0601" cy="23" fill="#ADD1B2" rx="11" ry="11" style="stroke:#181818;stroke-width:1;"/><path d="M4352.8257,18.875 Q4352.9819,18.6563 4353.1694,18.5469 Q4353.3569,18.4375 4353.5757,18.4375 Q4353.9507,18.4375 4354.1851,18.7031 Q4354.4194,18.9531 4354.4194,19.5625 L4354.4194,21.0156 Q4354.4194,21.625 4354.1851,21.8906 Q4353.9507,22.1563 4353.5757,22.1563 Q4353.2319,22.1563 4353.0288,21.9531 Q4352.8257,21.7656 4352.7163,21.25 Q4352.6694,20.8906 4352.4819,20.7031 Q4352.1538,20.3281 4351.5444,20.1094 Q4350.9351,19.8906 4350.3101,19.8906 Q4349.5444,19.8906 4348.9038,20.2188 Q4348.2788,20.5469 4347.7788,21.2969 Q4347.2944,22.0469 4347.2944,23.0781 L4347.2944,24.1719 Q4347.2944,25.4063 4348.1851,26.2344 Q4349.0757,27.0469 4350.6694,27.0469 Q4351.6069,27.0469 4352.2632,26.7969 Q4352.6538,26.6406 4353.0757,26.2031 Q4353.3413,25.9375 4353.4819,25.8594 Q4353.6382,25.7813 4353.8413,25.7813 Q4354.1694,25.7813 4354.4194,26.0469 Q4354.6851,26.2969 4354.6851,26.6406 Q4354.6851,26.9844 4354.3413,27.3906 Q4353.8413,27.9688 4353.0444,28.2969 Q4351.9663,28.75 4350.6694,28.75 Q4349.1538,28.75 4347.9507,28.125 Q4346.9663,27.625 4346.2788,26.5625 Q4345.5913,25.4844 4345.5913,24.2031 L4345.5913,23.0469 Q4345.5913,21.7188 4346.2007,20.5781 Q4346.8257,19.4219 4347.9194,18.8125 Q4349.0132,18.1875 4350.2476,18.1875 Q4350.9819,18.1875 4351.6226,18.3594 Q4352.2788,18.5156 4352.8257,18.875 Z " fill="#000000"/><text fill="#000000" font-family="sans-serif" font-size="14" lengthAdjust="spacing" textLength="108.958" x="4370.5601" y="28.7285">DatabaseHandler</text><line style="stroke:#181818;stroke-width:0.5;" x1="4233" x2="4584.5781" y1="39" y2="39"/><polygon fill="transparent" points="4243,49.3047,4239,55.3047,4247,55.3047" style="stroke:#1963A0;stroke-width:1;"/><text fill="#000000" font-family="sans-serif" font-size="14" lengthAdjust="spacing" textLength="134.6406" x="4252" y="57.5332">dbConnection : String</text><rect fill="transparent" height="6" style="stroke:#C82930;stroke-width:1;" width="6" x="4240" y="67.9141"/><text fill="#000000" font-family="sans-serif" font-size="14" lengthAdjust="spacing" textLength="77.8066" x="4252" y="75.1426">SIMPLE : int</text><rect fill="transparent" height="6" style="stroke:#C82930;stroke-width:1;" width="6" x="4240" y="85.5234"/><text fill="#000000" font-family="sans-serif" font-size="14" lengthAdjust="spacing" textLength="104.248" x="4252" y="92.752">ADVANCED : int</text><rect fill="transparent" height="6" style="stroke:#C82930;stroke-width:1;" width="6" x="4240" y="103.1328"/><text fill="#000000" font-family="sans-serif" font-size="14" lengthAdjust="spacing" textLength="146.2549" x="4252" y="110.3613">PROGRAMMABLE : int</text><line style="stroke:#181818;stroke-width:0.5;" x1="4233" x2="4584.5781" y1="117.4375" y2="117.4375"/><ellipse cx="4243" cy="131.7422" fill="#84BE84" rx="3" ry="3" style="stroke:#038048;stroke-width:1;"/><text fill="#000000" font-family="sans-serif" font-size="14" lengthAdjust="spacing" textLength="80.9238" x="4252" y="135.9707">&lt;init&gt;() : void</text><ellipse cx="4243" cy="149.3516" fill="#84BE84" rx="3" ry="3" style="stroke:#038048;stroke-width:1;"/><text fill="#000000" font-family="sans-serif" font-size="14" lengthAdjust="spacing" textLength="327.5781" x="4252" y="153.5801">getControllerTypeFromAddress(java.lang.String) : int</text><ellipse cx="4243" cy="166.9609" fill="#84BE84" rx="3" ry="3" style="stroke:#038048;stroke-width:1;"/><text fill="#000000" font-family="sans-serif" font-size="14" lengthAdjust="spacing" textLength="308.1299" x="4252" y="171.1895">getControllerIdFromAddress(java.lang.String) : int</text></g><!--class Main--><g id="elem_Main"><rect codeLine="68" fill="#F1F1F1" height="83.2188" id="Main" rx="2.5" ry="2.5" style="stroke:#181818;stroke-width:0.5;" width="207.3027" x="4621.5" y="51"/><ellipse cx="4705.729" cy="67" fill="#ADD1B2" rx="11" ry="11" style="stroke:#181818;stroke-width:1;"/><path d="M4708.4946,62.875 Q4708.6509,62.6563 4708.8384,62.5469 Q4709.0259,62.4375 4709.2446,62.4375 Q4709.6196,62.4375 4709.854,62.7031 Q4710.0884,62.9531 4710.0884,63.5625 L4710.0884,65.0156 Q4710.0884,65.625 4709.854,65.8906 Q4709.6196,66.1563 4709.2446,66.1563 Q4708.9009,66.1563 4708.6978,65.9531 Q4708.4946,65.7656 4708.3853,65.25 Q4708.3384,64.8906 4708.1509,64.7031 Q4707.8228,64.3281 4707.2134,64.1094 Q4706.604,63.8906 4705.979,63.8906 Q4705.2134,63.8906 4704.5728,64.2188 Q4703.9478,64.5469 4703.4478,65.2969 Q4702.9634,66.0469 4702.9634,67.0781 L4702.9634,68.1719 Q4702.9634,69.4063 4703.854,70.2344 Q4704.7446,71.0469 4706.3384,71.0469 Q4707.2759,71.0469 4707.9321,70.7969 Q4708.3228,70.6406 4708.7446,70.2031 Q4709.0103,69.9375 4709.1509,69.8594 Q4709.3071,69.7813 4709.5103,69.7813 Q4709.8384,69.7813 4710.0884,70.0469 Q4710.354,70.2969 4710.354,70.6406 Q4710.354,70.9844 4710.0103,71.3906 Q4709.5103,71.9688 4708.7134,72.2969 Q4707.6353,72.75 4706.3384,72.75 Q4704.8228,72.75 4703.6196,72.125 Q4702.6353,71.625 4701.9478,70.5625 Q4701.2603,69.4844 4701.2603,68.2031 L4701.2603,67.0469 Q4701.2603,65.7188 4701.8696,64.5781 Q4702.4946,63.4219 4703.5884,62.8125 Q4704.6821,62.1875 4705.9165,62.1875 Q4706.6509,62.1875 4707.2915,62.3594 Q4707.9478,62.5156 4708.4946,62.875 Z " fill="#000000"/><text fill="#000000" font-family="sans-serif" font-size="14" lengthAdjust="spacing" textLength="30.3447" x="4726.229" y="72.7285">Main</text><line style="stroke:#181818;stroke-width:0.5;" x1="4622.5" x2="4827.8027" y1="83" y2="83"/><line style="stroke:#181818;stroke-width:0.5;" x1="4622.5" x2="4827.8027" y1="91" y2="91"/><ellipse cx="4632.5" cy="105.3047" fill="#84BE84" rx="3" ry="3" style="stroke:#038048;stroke-width:1;"/><text fill="#000000" font-family="sans-serif" font-size="14" lengthAdjust="spacing" textLength="80.9238" x="4641.5" y="109.5332">&lt;init&gt;() : void</text><ellipse cx="4632.5" cy="122.9141" fill="#84BE84" rx="3" ry="3" style="stroke:#038048;stroke-width:1;"/><text fill="#000000" font-family="sans-serif" font-size="14" lengthAdjust="spacing" textLength="181.3027" x="4641.5" y="127.1426">main(java.lang.String[]) : void</text></g><!--class Milk--><g id="elem_Milk"><rect codeLine="73" fill="#F1F1F1" height="100.8281" id="Milk" rx="2.5" ry="2.5" style="stroke:#181818;stroke-width:0.5;" width="303.7852" x="2537" y="42"/><ellipse cx="2672.2012" cy="58" fill="#ADD1B2" rx="11" ry="11" style="stroke:#181818;stroke-width:1;"/><path d="M2674.9668,53.875 Q2675.123,53.6563 2675.3105,53.5469 Q2675.498,53.4375 2675.7168,53.4375 Q2676.0918,53.4375 2676.3262,53.7031 Q2676.5605,53.9531 2676.5605,54.5625 L2676.5605,56.0156 Q2676.5605,56.625 2676.3262,56.8906 Q2676.0918,57.1563 2675.7168,57.1563 Q2675.373,57.1563 2675.1699,56.9531 Q2674.9668,56.7656 2674.8574,56.25 Q2674.8105,55.8906 2674.623,55.7031 Q2674.2949,55.3281 2673.6855,55.1094 Q2673.0762,54.8906 2672.4512,54.8906 Q2671.6855,54.8906 2671.0449,55.2188 Q2670.4199,55.5469 2669.9199,56.2969 Q2669.4355,57.0469 2669.4355,58.0781 L2669.4355,59.1719 Q2669.4355,60.4063 2670.3262,61.2344 Q2671.2168,62.0469 2672.8105,62.0469 Q2673.748,62.0469 2674.4043,61.7969 Q2674.7949,61.6406 2675.2168,61.2031 Q2675.4824,60.9375 2675.623,60.8594 Q2675.7793,60.7813 2675.9824,60.7813 Q2676.3105,60.7813 2676.5605,61.0469 Q2676.8262,61.2969 2676.8262,61.6406 Q2676.8262,61.9844 2676.4824,62.3906 Q2675.9824,62.9688 2675.1855,63.2969 Q2674.1074,63.75 2672.8105,63.75 Q2671.2949,63.75 2670.0918,63.125 Q2669.1074,62.625 2668.4199,61.5625 Q2667.7324,60.4844 2667.7324,59.2031 L2667.7324,58.0469 Q2667.7324,56.7188 2668.3418,55.5781 Q2668.9668,54.4219 2670.0605,53.8125 Q2671.1543,53.1875 2672.3887,53.1875 Q2673.123,53.1875 2673.7637,53.3594 Q2674.4199,53.5156 2674.9668,53.875 Z " fill="#000000"/><text fill="#000000" font-family="sans-serif" font-size="14" lengthAdjust="spacing" textLength="24.8828" x="2692.7012" y="63.7285">Milk</text><line style="stroke:#181818;stroke-width:0.5;" x1="2538" x2="2839.7852" y1="74" y2="74"/><rect fill="transparent" height="6" style="stroke:#C82930;stroke-width:1;" width="6" x="2545" y="85.3047"/><text fill="#000000" font-family="sans-serif" font-size="14" lengthAdjust="spacing" textLength="187.4756" x="2557" y="92.5332">COMPONENT_NAME : String</text><rect fill="transparent" height="6" style="stroke:#C82930;stroke-width:1;" width="6" x="2545" y="102.9141"/><text fill="#000000" font-family="sans-serif" font-size="14" lengthAdjust="spacing" textLength="136.1787" x="2557" y="110.1426">IS_OPTION : boolean</text><line style="stroke:#181818;stroke-width:0.5;" x1="2538" x2="2839.7852" y1="117.2188" y2="117.2188"/><ellipse cx="2548" cy="131.5234" fill="#84BE84" rx="3" ry="3" style="stroke:#038048;stroke-width:1;"/><text fill="#000000" font-family="sans-serif" font-size="14" lengthAdjust="spacing" textLength="277.7852" x="2557" y="135.752">&lt;init&gt;(umlparser.OrderComponent, int) : void</text></g><!--class Nutmeg--><g id="elem_Nutmeg"><rect codeLine="79" fill="#F1F1F1" height="100.8281" id="Nutmeg" rx="2.5" ry="2.5" style="stroke:#181818;stroke-width:0.5;" width="303.7852" x="2876" y="42"/><ellipse cx="2999.1323" cy="58" fill="#ADD1B2" rx="11" ry="11" style="stroke:#181818;stroke-width:1;"/><path d="M3001.8979,53.875 Q3002.0542,53.6563 3002.2417,53.5469 Q3002.4292,53.4375 3002.6479,53.4375 Q3003.0229,53.4375 3003.2573,53.7031 Q3003.4917,53.9531 3003.4917,54.5625 L3003.4917,56.0156 Q3003.4917,56.625 3003.2573,56.8906 Q3003.0229,57.1563 3002.6479,57.1563 Q3002.3042,57.1563 3002.1011,56.9531 Q3001.8979,56.7656 3001.7886,56.25 Q3001.7417,55.8906 3001.5542,55.7031 Q3001.2261,55.3281 3000.6167,55.1094 Q3000.0073,54.8906 2999.3823,54.8906 Q2998.6167,54.8906 2997.9761,55.2188 Q2997.3511,55.5469 2996.8511,56.2969 Q2996.3667,57.0469 2996.3667,58.0781 L2996.3667,59.1719 Q2996.3667,60.4063 2997.2573,61.2344 Q2998.1479,62.0469 2999.7417,62.0469 Q3000.6792,62.0469 3001.3354,61.7969 Q3001.7261,61.6406 3002.1479,61.2031 Q3002.4136,60.9375 3002.5542,60.8594 Q3002.7104,60.7813 3002.9136,60.7813 Q3003.2417,60.7813 3003.4917,61.0469 Q3003.7573,61.2969 3003.7573,61.6406 Q3003.7573,61.9844 3003.4136,62.3906 Q3002.9136,62.9688 3002.1167,63.2969 Q3001.0386,63.75 2999.7417,63.75 Q2998.2261,63.75 2997.0229,63.125 Q2996.0386,62.625 2995.3511,61.5625 Q2994.6636,60.4844 2994.6636,59.2031 L2994.6636,58.0469 Q2994.6636,56.7188 2995.2729,55.5781 Q2995.8979,54.4219 2996.9917,53.8125 Q2998.0854,53.1875 2999.3198,53.1875 Q3000.0542,53.1875 3000.6948,53.3594 Q3001.3511,53.5156 3001.8979,53.875 Z " fill="#000000"/><text fill="#000000" font-family="sans-serif" font-size="14" lengthAdjust="spacing" textLength="49.0205" x="3019.6323" y="63.7285">Nutmeg</text><line style="stroke:#181818;stroke-width:0.5;" x1="2877" x2="3178.7852" y1="74" y2="74"/><rect fill="transparent" height="6" style="stroke:#C82930;stroke-width:1;" width="6" x="2884" y="85.3047"/><text fill="#000000" font-family="sans-serif" font-size="14" lengthAdjust="spacing" textLength="187.4756" x="2896" y="92.5332">COMPONENT_NAME : String</text><rect fill="transparent" height="6" style="stroke:#C82930;stroke-width:1;" width="6" x="2884" y="102.9141"/><text fill="#000000" font-family="sans-serif" font-size="14" lengthAdjust="spacing" textLength="136.1787" x="2896" y="110.1426">IS_OPTION : boolean</text><line style="stroke:#181818;stroke-width:0.5;" x1="2877" x2="3178.7852" y1="117.2188" y2="117.2188"/><ellipse cx="2887" cy="131.5234" fill="#84BE84" rx="3" ry="3" style="stroke:#038048;stroke-width:1;"/><text fill="#000000" font-family="sans-serif" font-size="14" lengthAdjust="spacing" textLength="277.7852" x="2896" y="135.752">&lt;init&gt;(umlparser.OrderComponent, int) : void</text></g><!--class NutraSweet--><g id="elem_NutraSweet"><rect codeLine="85" fill="#F1F1F1" height="100.8281" id="NutraSweet" rx="2.5" ry="2.5" style="stroke:#181818;stroke-width:0.5;" width="303.7852" x="3215" y="42"/><ellipse cx="3326.0703" cy="58" fill="#ADD1B2" rx="11" ry="11" style="stroke:#181818;stroke-width:1;"/><path d="M3328.8359,53.875 Q3328.9922,53.6563 3329.1797,53.5469 Q3329.3672,53.4375 3329.5859,53.4375 Q3329.9609,53.4375 3330.1953,53.7031 Q3330.4297,53.9531 3330.4297,54.5625 L3330.4297,56.0156 Q3330.4297,56.625 3330.1953,56.8906 Q3329.9609,57.1563 3329.5859,57.1563 Q3329.2422,57.1563 3329.0391,56.9531 Q3328.8359,56.7656 3328.7266,56.25 Q3328.6797,55.8906 3328.4922,55.7031 Q3328.1641,55.3281 3327.5547,55.1094 Q3326.9453,54.8906 3326.3203,54.8906 Q3325.5547,54.8906 3324.9141,55.2188 Q3324.2891,55.5469 3323.7891,56.2969 Q3323.3047,57.0469 3323.3047,58.0781 L3323.3047,59.1719 Q3323.3047,60.4063 3324.1953,61.2344 Q3325.0859,62.0469 3326.6797,62.0469 Q3327.6172,62.0469 3328.2734,61.7969 Q3328.6641,61.6406 3329.0859,61.2031 Q3329.3516,60.9375 3329.4922,60.8594 Q3329.6484,60.7813 3329.8516,60.7813 Q3330.1797,60.7813 3330.4297,61.0469 Q3330.6953,61.2969 3330.6953,61.6406 Q3330.6953,61.9844 3330.3516,62.3906 Q3329.8516,62.9688 3329.0547,63.2969 Q3327.9766,63.75 3326.6797,63.75 Q3325.1641,63.75 3323.9609,63.125 Q3322.9766,62.625 3322.2891,61.5625 Q3321.6016,60.4844 3321.6016,59.2031 L3321.6016,58.0469 Q3321.6016,56.7188 3322.2109,55.5781 Q3322.8359,54.4219 3323.9297,53.8125 Q3325.0234,53.1875 3326.2578,53.1875 Q3326.9922,53.1875 3327.6328,53.3594 Q3328.2891,53.5156 3328.8359,53.875 Z " fill="#000000"/><text fill="#000000" font-family="sans-serif" font-size="14" lengthAdjust="spacing" textLength="73.1445" x="3346.5703" y="63.7285">NutraSweet</text><line style="stroke:#181818;stroke-width:0.5;" x1="3216" x2="3517.7852" y1="74" y2="74"/><rect fill="transparent" height="6" style="stroke:#C82930;stroke-width:1;" width="6" x="3223" y="85.3047"/><text fill="#000000" font-family="sans-serif" font-size="14" lengthAdjust="spacing" textLength="187.4756" x="3235" y="92.5332">COMPONENT_NAME : String</text><rect fill="transparent" height="6" style="stroke:#C82930;stroke-width:1;" width="6" x="3223" y="102.9141"/><text fill="#000000" font-family="sans-serif" font-size="14" lengthAdjust="spacing" textLength="136.1787" x="3235" y="110.1426">IS_OPTION : boolean</text><line style="stroke:#181818;stroke-width:0.5;" x1="3216" x2="3517.7852" y1="117.2188" y2="117.2188"/><ellipse cx="3226" cy="131.5234" fill="#84BE84" rx="3" ry="3" style="stroke:#038048;stroke-width:1;"/><text fill="#000000" font-family="sans-serif" font-size="14" lengthAdjust="spacing" textLength="277.7852" x="3235" y="135.752">&lt;init&gt;(umlparser.OrderComponent, int) : void</text></g><!--class OrderComponent--><g id="elem_OrderComponent"><rect codeLine="91" fill="#F1F1F1" height="153.6563" id="OrderComponent" rx="2.5" ry="2.5" style="stroke:#181818;stroke-width:0.5;" width="213.5234" x="2921" y="522"/><ellipse cx="2969.4292" cy="538" fill="#B4A7E5" rx="11" ry="11" style="stroke:#181818;stroke-width:1;"/><path d="M2970.3823,534.6406 L2970.3823,541.2969 L2972.1011,541.2969 Q2972.7104,541.2969 2972.9761,541.5313 Q2973.2417,541.7656 2973.2417,542.1563 Q2973.2417,542.5313 2972.9761,542.7656 Q2972.7104,543 2972.1011,543 L2966.9604,543 Q2966.3511,543 2966.0854,542.7656 Q2965.8198,542.5313 2965.8198,542.1406 Q2965.8198,541.7656 2966.0854,541.5313 Q2966.3511,541.2969 2966.9604,541.2969 L2968.6792,541.2969 L2968.6792,534.6406 L2966.9604,534.6406 Q2966.3511,534.6406 2966.0854,534.4063 Q2965.8198,534.1719 2965.8198,533.7813 Q2965.8198,533.4063 2966.0854,533.1719 Q2966.3511,532.9375 2966.9604,532.9375 L2972.1011,532.9375 Q2972.7104,532.9375 2972.9761,533.1719 Q2973.2417,533.4063 2973.2417,533.7813 Q2973.2417,534.1719 2972.9761,534.4063 Q2972.7104,534.6406 2972.1011,534.6406 L2970.3823,534.6406 Z " fill="#000000"/><text fill="#000000" font-family="sans-serif" font-size="14" font-style="italic" lengthAdjust="spacing" textLength="108.165" x="2989.9292" y="543.7285">OrderComponent</text><line style="stroke:#181818;stroke-width:0.5;" x1="2922" x2="3133.5234" y1="554" y2="554"/><line style="stroke:#181818;stroke-width:0.5;" x1="2922" x2="3133.5234" y1="562" y2="562"/><polygon fill="#4177AF" points="2932,572.3047,2928,578.3047,2936,578.3047" style="stroke:#1963A0;stroke-width:1;"/><text fill="#000000" font-family="sans-serif" font-size="14" lengthAdjust="spacing" textLength="91.0342" x="2941" y="580.5332">&lt;clinit&gt;() : void</text><ellipse cx="2932" cy="593.9141" fill="#84BE84" rx="3" ry="3" style="stroke:#038048;stroke-width:1;"/><text fill="#000000" font-family="sans-serif" font-size="14" lengthAdjust="spacing" textLength="187.5234" x="2941" y="598.1426">getIngredients() : JSONObject</text><ellipse cx="2932" cy="611.5234" fill="#84BE84" rx="3" ry="3" style="stroke:#038048;stroke-width:1;"/><text fill="#000000" font-family="sans-serif" font-size="14" lengthAdjust="spacing" textLength="166.5029" x="2941" y="615.752">getOptions() : JSONObject</text><ellipse cx="2932" cy="629.1328" fill="#84BE84" rx="3" ry="3" style="stroke:#038048;stroke-width:1;"/><text fill="#000000" font-family="sans-serif" font-size="14" lengthAdjust="spacing" textLength="148.6133" x="2941" y="633.3613">getInstructions() : String</text><ellipse cx="2932" cy="646.7422" fill="#84BE84" rx="3" ry="3" style="stroke:#038048;stroke-width:1;"/><text fill="#000000" font-family="sans-serif" font-size="14" lengthAdjust="spacing" textLength="147.041" x="2941" y="650.9707">getDrinkName() : String</text><ellipse cx="2932" cy="664.3516" fill="#84BE84" rx="3" ry="3" style="stroke:#038048;stroke-width:1;"/><text fill="#000000" font-family="sans-serif" font-size="14" lengthAdjust="spacing" textLength="128.3857" x="2941" y="668.5801">getAddress() : String</text></g><!--class OrderCreator--><g id="elem_OrderCreator"><rect codeLine="100" fill="#F1F1F1" height="206.4844" id="OrderCreator" rx="2.5" ry="2.5" style="stroke:#181818;stroke-width:0.5;" width="377.6543" x="1351" y="247"/><ellipse cx="1494.3428" cy="263" fill="#ADD1B2" rx="11" ry="11" style="stroke:#181818;stroke-width:1;"/><path d="M1497.1084,258.875 Q1497.2646,258.6563 1497.4521,258.5469 Q1497.6396,258.4375 1497.8584,258.4375 Q1498.2334,258.4375 1498.4678,258.7031 Q1498.7021,258.9531 1498.7021,259.5625 L1498.7021,261.0156 Q1498.7021,261.625 1498.4678,261.8906 Q1498.2334,262.1563 1497.8584,262.1563 Q1497.5146,262.1563 1497.3115,261.9531 Q1497.1084,261.7656 1496.999,261.25 Q1496.9521,260.8906 1496.7646,260.7031 Q1496.4365,260.3281 1495.8271,260.1094 Q1495.2178,259.8906 1494.5928,259.8906 Q1493.8271,259.8906 1493.1865,260.2188 Q1492.5615,260.5469 1492.0615,261.2969 Q1491.5771,262.0469 1491.5771,263.0781 L1491.5771,264.1719 Q1491.5771,265.4063 1492.4678,266.2344 Q1493.3584,267.0469 1494.9521,267.0469 Q1495.8896,267.0469 1496.5459,266.7969 Q1496.9365,266.6406 1497.3584,266.2031 Q1497.624,265.9375 1497.7646,265.8594 Q1497.9209,265.7813 1498.124,265.7813 Q1498.4521,265.7813 1498.7021,266.0469 Q1498.9678,266.2969 1498.9678,266.6406 Q1498.9678,266.9844 1498.624,267.3906 Q1498.124,267.9688 1497.3271,268.2969 Q1496.249,268.75 1494.9521,268.75 Q1493.4365,268.75 1492.2334,268.125 Q1491.249,267.625 1490.5615,266.5625 Q1489.874,265.4844 1489.874,264.2031 L1489.874,263.0469 Q1489.874,261.7188 1490.4834,260.5781 Q1491.1084,259.4219 1492.2021,258.8125 Q1493.2959,258.1875 1494.5303,258.1875 Q1495.2646,258.1875 1495.9053,258.3594 Q1496.5615,258.5156 1497.1084,258.875 Z " fill="#000000"/><text fill="#000000" font-family="sans-serif" font-size="14" lengthAdjust="spacing" textLength="82.4688" x="1514.8428" y="268.7285">OrderCreator</text><line style="stroke:#181818;stroke-width:0.5;" x1="1352" x2="1727.6543" y1="279" y2="279"/><rect fill="transparent" height="6" style="stroke:#C82930;stroke-width:1;" width="6" x="1359" y="290.3047"/><text fill="#000000" font-family="sans-serif" font-size="14" lengthAdjust="spacing" textLength="174.6719" x="1371" y="297.5332">observers : OrderObserver&gt;</text><polygon fill="transparent" points="1362,306.9141,1358,312.9141,1366,312.9141" style="stroke:#1963A0;stroke-width:1;"/><text fill="#000000" font-family="sans-serif" font-size="14" lengthAdjust="spacing" textLength="158.7373" x="1371" y="315.1426">myDB : DatabaseHandler</text><polygon fill="transparent" points="1362,324.5234,1358,330.5234,1366,330.5234" style="stroke:#1963A0;stroke-width:1;"/><text fill="#000000" font-family="sans-serif" font-size="14" lengthAdjust="spacing" textLength="173.4893" x="1371" y="332.752">orderFactory : OrderFactory</text><line style="stroke:#181818;stroke-width:0.5;" x1="1352" x2="1727.6543" y1="339.8281" y2="339.8281"/><ellipse cx="1362" cy="354.1328" fill="#84BE84" rx="3" ry="3" style="stroke:#038048;stroke-width:1;"/><text fill="#000000" font-family="sans-serif" font-size="14" lengthAdjust="spacing" textLength="80.9238" x="1371" y="358.3613">&lt;init&gt;() : void</text><polygon fill="#4177AF" points="1362,367.7422,1358,373.7422,1366,373.7422" style="stroke:#1963A0;stroke-width:1;"/><text fill="#000000" font-family="sans-serif" font-size="14" lengthAdjust="spacing" textLength="241.2129" x="1371" y="375.9707">notifyObservers(java.lang.String) : void</text><ellipse cx="1362" cy="389.3516" fill="#84BE84" rx="3" ry="3" style="stroke:#038048;stroke-width:1;"/><text fill="#000000" font-family="sans-serif" font-size="14" lengthAdjust="spacing" textLength="310.4199" x="1371" y="393.5801">registerObserver(umlparser.OrderObserver) : void</text><ellipse cx="1362" cy="406.9609" fill="#84BE84" rx="3" ry="3" style="stroke:#038048;stroke-width:1;"/><text fill="#000000" font-family="sans-serif" font-size="14" lengthAdjust="spacing" textLength="310.4199" x="1371" y="411.1895">removeObserver(umlparser.OrderObserver) : void</text><ellipse cx="1362" cy="424.5703" fill="#84BE84" rx="3" ry="3" style="stroke:#038048;stroke-width:1;"/><text fill="#000000" font-family="sans-serif" font-size="14" lengthAdjust="spacing" textLength="209.2822" x="1371" y="428.7988">processOrder(JSONObject) : void</text><polygon fill="#4177AF" points="1362,438.1797,1358,444.1797,1366,444.1797" style="stroke:#1963A0;stroke-width:1;"/><text fill="#000000" font-family="sans-serif" font-size="14" lengthAdjust="spacing" textLength="351.6543" x="1371" y="446.4082">createOrderFromJSON(JSONObject) : OrderComponent</text></g><!--class OrderDecorator--><g id="elem_OrderDecorator"><rect codeLine="112" fill="#F1F1F1" height="224.0938" id="OrderDecorator" rx="2.5" ry="2.5" style="stroke:#181818;stroke-width:0.5;" width="465.6738" x="2795" y="238"/><ellipse cx="2974.9595" cy="254" fill="#A9DCDF" rx="11" ry="11" style="stroke:#181818;stroke-width:1;"/><path d="M2977.147,255.7656 L2973.0063,255.7656 L2972.5845,256.7969 L2973.0063,256.7969 Q2973.6157,256.7969 2973.8813,257.0313 Q2974.147,257.2656 2974.147,257.6563 Q2974.147,258.0313 2973.8813,258.2656 Q2973.6157,258.5 2973.0063,258.5 L2970.7095,258.5 Q2970.1001,258.5 2969.8501,258.2656 Q2969.5845,258.0313 2969.5845,257.6406 Q2969.5845,257.2656 2969.8657,257.0313 Q2970.1313,256.7813 2970.7563,256.7969 L2973.4282,250.1406 L2972.3188,250.1406 Q2971.7095,250.1406 2971.4438,249.9063 Q2971.1782,249.6719 2971.1782,249.2813 Q2971.1782,248.9063 2971.4438,248.6719 Q2971.7095,248.4375 2972.3188,248.4375 L2975.9907,248.4375 L2979.3813,256.7969 Q2979.9751,256.7969 2980.1626,256.9375 Q2980.5532,257.2031 2980.5532,257.6563 Q2980.5532,258.0313 2980.2876,258.2656 Q2980.0376,258.5 2979.4282,258.5 L2977.1313,258.5 Q2976.522,258.5 2976.2563,258.2656 Q2975.9907,258.0313 2975.9907,257.6406 Q2975.9907,257.2656 2976.2563,257.0313 Q2976.522,256.7969 2977.1313,256.7969 L2977.5532,256.7969 L2977.147,255.7656 Z M2976.4282,254.0625 L2975.0688,250.6875 L2973.6938,254.0625 L2976.4282,254.0625 Z " fill="#000000"/><text fill="#000000" font-family="sans-serif" font-size="14" font-style="italic" lengthAdjust="spacing" textLength="97.2549" x="2995.4595" y="259.7285">OrderDecorator</text><line style="stroke:#181818;stroke-width:0.5;" x1="2796" x2="3259.6738" y1="270" y2="270"/><ellipse cx="2806" cy="284.3047" fill="transparent" rx="3" ry="3" style="stroke:#038048;stroke-width:1;"/><text fill="#000000" font-family="sans-serif" font-size="14" lengthAdjust="spacing" textLength="112.8545" x="2815" y="288.5332">isOption : boolean</text><polygon fill="transparent" points="2806,296.9141,2810,300.9141,2806,304.9141,2802,300.9141" style="stroke:#B38D22;stroke-width:1;"/><text fill="#000000" font-family="sans-serif" font-size="14" lengthAdjust="spacing" textLength="142.4063" x="2815" y="306.1426">son : OrderComponent</text><polygon fill="transparent" points="2806,314.5234,2810,318.5234,2806,322.5234,2802,318.5234" style="stroke:#B38D22;stroke-width:1;"/><text fill="#000000" font-family="sans-serif" font-size="14" lengthAdjust="spacing" textLength="83.2617" x="2815" y="323.752">name : String</text><polygon fill="transparent" points="2806,332.1328,2810,336.1328,2806,340.1328,2802,336.1328" style="stroke:#B38D22;stroke-width:1;"/><text fill="#000000" font-family="sans-serif" font-size="14" lengthAdjust="spacing" textLength="75.4893" x="2815" y="341.3613">quantity : int</text><line style="stroke:#181818;stroke-width:0.5;" x1="2796" x2="3259.6738" y1="348.4375" y2="348.4375"/><ellipse cx="2806" cy="362.7422" fill="#84BE84" rx="3" ry="3" style="stroke:#038048;stroke-width:1;"/><text fill="#000000" font-family="sans-serif" font-size="14" lengthAdjust="spacing" textLength="439.6738" x="2815" y="366.9707">&lt;init&gt;(umlparser.OrderComponent, boolean, java.lang.String, int) : void</text><ellipse cx="2806" cy="380.3516" fill="#84BE84" rx="3" ry="3" style="stroke:#038048;stroke-width:1;"/><text fill="#000000" font-family="sans-serif" font-size="14" lengthAdjust="spacing" textLength="187.5234" x="2815" y="384.5801">getIngredients() : JSONObject</text><ellipse cx="2806" cy="397.9609" fill="#84BE84" rx="3" ry="3" style="stroke:#038048;stroke-width:1;"/><text fill="#000000" font-family="sans-serif" font-size="14" lengthAdjust="spacing" textLength="166.5029" x="2815" y="402.1895">getOptions() : JSONObject</text><ellipse cx="2806" cy="415.5703" fill="#84BE84" rx="3" ry="3" style="stroke:#038048;stroke-width:1;"/><text fill="#000000" font-family="sans-serif" font-size="14" lengthAdjust="spacing" textLength="148.6133" x="2815" y="419.7988">getInstructions() : String</text><ellipse cx="2806" cy="433.1797" fill="#84BE84" rx="3" ry="3" style="stroke:#038048;stroke-width:1;"/><text fill="#000000" font-family="sans-serif" font-size="14" lengthAdjust="spacing" textLength="147.041" x="2815" y="437.4082">getDrinkName() : String</text><ellipse cx="2806" cy="450.7891" fill="#84BE84" rx="3" ry="3" style="stroke:#038048;stroke-width:1;"/><text fill="#000000" font-family="sans-serif" font-size="14" lengthAdjust="spacing" textLength="128.3857" x="2815" y="455.0176">getAddress() : String</text></g><!--class OrderFactory--><g id="elem_OrderFactory"><rect codeLine="125" fill="#F1F1F1" height="118.4375" id="OrderFactory" rx="2.5" ry="2.5" style="stroke:#181818;stroke-width:0.5;" width="547.3633" x="1093.5" y="540"/><ellipse cx="1321.7007" cy="556" fill="#ADD1B2" rx="11" ry="11" style="stroke:#181818;stroke-width:1;"/><path d="M1324.4663,551.875 Q1324.6226,551.6563 1324.8101,551.5469 Q1324.9976,551.4375 1325.2163,551.4375 Q1325.5913,551.4375 1325.8257,551.7031 Q1326.0601,551.9531 1326.0601,552.5625 L1326.0601,554.0156 Q1326.0601,554.625 1325.8257,554.8906 Q1325.5913,555.1563 1325.2163,555.1563 Q1324.8726,555.1563 1324.6694,554.9531 Q1324.4663,554.7656 1324.3569,554.25 Q1324.3101,553.8906 1324.1226,553.7031 Q1323.7944,553.3281 1323.1851,553.1094 Q1322.5757,552.8906 1321.9507,552.8906 Q1321.1851,552.8906 1320.5444,553.2188 Q1319.9194,553.5469 1319.4194,554.2969 Q1318.9351,555.0469 1318.9351,556.0781 L1318.9351,557.1719 Q1318.9351,558.4063 1319.8257,559.2344 Q1320.7163,560.0469 1322.3101,560.0469 Q1323.2476,560.0469 1323.9038,559.7969 Q1324.2944,559.6406 1324.7163,559.2031 Q1324.9819,558.9375 1325.1226,558.8594 Q1325.2788,558.7813 1325.4819,558.7813 Q1325.8101,558.7813 1326.0601,559.0469 Q1326.3257,559.2969 1326.3257,559.6406 Q1326.3257,559.9844 1325.9819,560.3906 Q1325.4819,560.9688 1324.6851,561.2969 Q1323.6069,561.75 1322.3101,561.75 Q1320.7944,561.75 1319.5913,561.125 Q1318.6069,560.625 1317.9194,559.5625 Q1317.2319,558.4844 1317.2319,557.2031 L1317.2319,556.0469 Q1317.2319,554.7188 1317.8413,553.5781 Q1318.4663,552.4219 1319.5601,551.8125 Q1320.6538,551.1875 1321.8882,551.1875 Q1322.6226,551.1875 1323.2632,551.3594 Q1323.9194,551.5156 1324.4663,551.875 Z " fill="#000000"/><text fill="#000000" font-family="sans-serif" font-size="14" lengthAdjust="spacing" textLength="82.4619" x="1342.2007" y="561.7285">OrderFactory</text><line style="stroke:#181818;stroke-width:0.5;" x1="1094.5" x2="1639.8633" y1="572" y2="572"/><line style="stroke:#181818;stroke-width:0.5;" x1="1094.5" x2="1639.8633" y1="580" y2="580"/><ellipse cx="1104.5" cy="594.3047" fill="#84BE84" rx="3" ry="3" style="stroke:#038048;stroke-width:1;"/><text fill="#000000" font-family="sans-serif" font-size="14" lengthAdjust="spacing" textLength="80.9238" x="1113.5" y="598.5332">&lt;init&gt;() : void</text><ellipse cx="1104.5" cy="611.9141" fill="#84BE84" rx="3" ry="3" style="stroke:#038048;stroke-width:1;"/><text fill="#000000" font-family="sans-serif" font-size="14" lengthAdjust="spacing" textLength="520.5771" x="1113.5" y="616.1426">createDrink(java.lang.String, java.lang.String, java.util.HashMap) : OrderComponent</text><rect fill="#F24D5C" height="6" style="stroke:#C82930;stroke-width:1;" width="6" x="1101.5" y="626.5234"/><text fill="#000000" font-family="sans-serif" font-size="14" lengthAdjust="spacing" textLength="521.3633" x="1113.5" y="633.752">addCondiment(java.lang.String, int, umlparser.OrderComponent) : OrderComponent</text><rect fill="#F24D5C" height="6" style="stroke:#C82930;stroke-width:1;" width="6" x="1101.5" y="644.1328"/><text fill="#000000" font-family="sans-serif" font-size="14" lengthAdjust="spacing" textLength="520.5703" x="1113.5" y="651.3613">addCondiments(java.util.HashMap, umlparser.OrderComponent) : OrderComponent</text></g><!--class OrderObserver--><g id="elem_OrderObserver"><rect codeLine="132" fill="#F1F1F1" height="83.2188" id="OrderObserver" rx="2.5" ry="2.5" style="stroke:#181818;stroke-width:0.5;" width="211.999" x="1676" y="557.5"/><ellipse cx="1731.0703" cy="573.5" fill="#B4A7E5" rx="11" ry="11" style="stroke:#181818;stroke-width:1;"/><path d="M1732.0234,570.1406 L1732.0234,576.7969 L1733.7422,576.7969 Q1734.3516,576.7969 1734.6172,577.0313 Q1734.8828,577.2656 1734.8828,577.6563 Q1734.8828,578.0313 1734.6172,578.2656 Q1734.3516,578.5 1733.7422,578.5 L1728.6016,578.5 Q1727.9922,578.5 1727.7266,578.2656 Q1727.4609,578.0313 1727.4609,577.6406 Q1727.4609,577.2656 1727.7266,577.0313 Q1727.9922,576.7969 1728.6016,576.7969 L1730.3203,576.7969 L1730.3203,570.1406 L1728.6016,570.1406 Q1727.9922,570.1406 1727.7266,569.9063 Q1727.4609,569.6719 1727.4609,569.2813 Q1727.4609,568.9063 1727.7266,568.6719 Q1727.9922,568.4375 1728.6016,568.4375 L1733.7422,568.4375 Q1734.3516,568.4375 1734.6172,568.6719 Q1734.8828,568.9063 1734.8828,569.2813 Q1734.8828,569.6719 1734.6172,569.9063 Q1734.3516,570.1406 1733.7422,570.1406 L1732.0234,570.1406 Z " fill="#000000"/><text fill="#000000" font-family="sans-serif" font-size="14" font-style="italic" lengthAdjust="spacing" textLength="93.3584" x="1751.5703" y="579.2285">OrderObserver</text><line style="stroke:#181818;stroke-width:0.5;" x1="1677" x2="1886.999" y1="589.5" y2="589.5"/><line style="stroke:#181818;stroke-width:0.5;" x1="1677" x2="1886.999" y1="597.5" y2="597.5"/><polygon fill="#4177AF" points="1687,607.8047,1683,613.8047,1691,613.8047" style="stroke:#1963A0;stroke-width:1;"/><text fill="#000000" font-family="sans-serif" font-size="14" lengthAdjust="spacing" textLength="91.0342" x="1696" y="616.0332">&lt;clinit&gt;() : void</text><ellipse cx="1687" cy="629.4141" fill="#84BE84" rx="3" ry="3" style="stroke:#038048;stroke-width:1;"/><text fill="#000000" font-family="sans-serif" font-size="14" lengthAdjust="spacing" textLength="185.999" x="1696" y="633.6426">update(java.lang.String) : void</text></g><!--class ProgrammableControllerContact--><g id="elem_ProgrammableControllerContact"><rect codeLine="137" fill="#F1F1F1" height="100.8281" id="ProgrammableControllerContact" rx="2.5" ry="2.5" style="stroke:#181818;stroke-width:0.5;" width="462.4814" x="504" y="42"/><ellipse cx="630.6152" cy="58" fill="#ADD1B2" rx="11" ry="11" style="stroke:#181818;stroke-width:1;"/><path d="M633.3809,53.875 Q633.5371,53.6563 633.7246,53.5469 Q633.9121,53.4375 634.1309,53.4375 Q634.5059,53.4375 634.7402,53.7031 Q634.9746,53.9531 634.9746,54.5625 L634.9746,56.0156 Q634.9746,56.625 634.7402,56.8906 Q634.5059,57.1563 634.1309,57.1563 Q633.7871,57.1563 633.584,56.9531 Q633.3809,56.7656 633.2715,56.25 Q633.2246,55.8906 633.0371,55.7031 Q632.709,55.3281 632.0996,55.1094 Q631.4902,54.8906 630.8652,54.8906 Q630.0996,54.8906 629.459,55.2188 Q628.834,55.5469 628.334,56.2969 Q627.8496,57.0469 627.8496,58.0781 L627.8496,59.1719 Q627.8496,60.4063 628.7402,61.2344 Q629.6309,62.0469 631.2246,62.0469 Q632.1621,62.0469 632.8184,61.7969 Q633.209,61.6406 633.6309,61.2031 Q633.8965,60.9375 634.0371,60.8594 Q634.1934,60.7813 634.3965,60.7813 Q634.7246,60.7813 634.9746,61.0469 Q635.2402,61.2969 635.2402,61.6406 Q635.2402,61.9844 634.8965,62.3906 Q634.3965,62.9688 633.5996,63.2969 Q632.5215,63.75 631.2246,63.75 Q629.709,63.75 628.5059,63.125 Q627.5215,62.625 626.834,61.5625 Q626.1465,60.4844 626.1465,59.2031 L626.1465,58.0469 Q626.1465,56.7188 626.7559,55.5781 Q627.3809,54.4219 628.4746,53.8125 Q629.5684,53.1875 630.8027,53.1875 Q631.5371,53.1875 632.1777,53.3594 Q632.834,53.5156 633.3809,53.875 Z " fill="#000000"/><text fill="#000000" font-family="sans-serif" font-size="14" lengthAdjust="spacing" textLength="200.751" x="651.1152" y="63.7285">ProgrammableControllerContact</text><line style="stroke:#181818;stroke-width:0.5;" x1="505" x2="965.4814" y1="74" y2="74"/><line style="stroke:#181818;stroke-width:0.5;" x1="505" x2="965.4814" y1="82" y2="82"/><ellipse cx="515" cy="96.3047" fill="#84BE84" rx="3" ry="3" style="stroke:#038048;stroke-width:1;"/><text fill="#000000" font-family="sans-serif" font-size="14" lengthAdjust="spacing" textLength="80.9238" x="524" y="100.5332">&lt;init&gt;() : void</text><ellipse cx="515" cy="113.9141" fill="#84BE84" rx="3" ry="3" style="stroke:#038048;stroke-width:1;"/><text fill="#000000" font-family="sans-serif" font-size="14" lengthAdjust="spacing" textLength="320.5713" x="524" y="118.1426">sendOrder(umlparser.OrderComponent, int) : String</text><rect fill="#F24D5C" height="6" style="stroke:#C82930;stroke-width:1;" width="6" x="512" y="128.5234"/><text fill="#000000" font-family="sans-serif" font-size="14" lengthAdjust="spacing" textLength="436.4814" x="524" y="135.752">createCommandJSON(umlparser.OrderComponent, int) : JSONObject</text></g><!--class PumpkinSpice--><g id="elem_PumpkinSpice"><rect codeLine="143" fill="#F1F1F1" height="100.8281" id="PumpkinSpice" rx="2.5" ry="2.5" style="stroke:#181818;stroke-width:0.5;" width="303.7852" x="3554" y="42"/><ellipse cx="3656.8979" cy="58" fill="#ADD1B2" rx="11" ry="11" style="stroke:#181818;stroke-width:1;"/><path d="M3659.6636,53.875 Q3659.8198,53.6563 3660.0073,53.5469 Q3660.1948,53.4375 3660.4136,53.4375 Q3660.7886,53.4375 3661.0229,53.7031 Q3661.2573,53.9531 3661.2573,54.5625 L3661.2573,56.0156 Q3661.2573,56.625 3661.0229,56.8906 Q3660.7886,57.1563 3660.4136,57.1563 Q3660.0698,57.1563 3659.8667,56.9531 Q3659.6636,56.7656 3659.5542,56.25 Q3659.5073,55.8906 3659.3198,55.7031 Q3658.9917,55.3281 3658.3823,55.1094 Q3657.7729,54.8906 3657.1479,54.8906 Q3656.3823,54.8906 3655.7417,55.2188 Q3655.1167,55.5469 3654.6167,56.2969 Q3654.1323,57.0469 3654.1323,58.0781 L3654.1323,59.1719 Q3654.1323,60.4063 3655.0229,61.2344 Q3655.9136,62.0469 3657.5073,62.0469 Q3658.4448,62.0469 3659.1011,61.7969 Q3659.4917,61.6406 3659.9136,61.2031 Q3660.1792,60.9375 3660.3198,60.8594 Q3660.4761,60.7813 3660.6792,60.7813 Q3661.0073,60.7813 3661.2573,61.0469 Q3661.5229,61.2969 3661.5229,61.6406 Q3661.5229,61.9844 3661.1792,62.3906 Q3660.6792,62.9688 3659.8823,63.2969 Q3658.8042,63.75 3657.5073,63.75 Q3655.9917,63.75 3654.7886,63.125 Q3653.8042,62.625 3653.1167,61.5625 Q3652.4292,60.4844 3652.4292,59.2031 L3652.4292,58.0469 Q3652.4292,56.7188 3653.0386,55.5781 Q3653.6636,54.4219 3654.7573,53.8125 Q3655.8511,53.1875 3657.0854,53.1875 Q3657.8198,53.1875 3658.4604,53.3594 Q3659.1167,53.5156 3659.6636,53.875 Z " fill="#000000"/><text fill="#000000" font-family="sans-serif" font-size="14" lengthAdjust="spacing" textLength="89.4893" x="3677.3979" y="63.7285">PumpkinSpice</text><line style="stroke:#181818;stroke-width:0.5;" x1="3555" x2="3856.7852" y1="74" y2="74"/><rect fill="transparent" height="6" style="stroke:#C82930;stroke-width:1;" width="6" x="3562" y="85.3047"/><text fill="#000000" font-family="sans-serif" font-size="14" lengthAdjust="spacing" textLength="112.8545" x="3574" y="92.5332">isOption : boolean</text><rect fill="transparent" height="6" style="stroke:#C82930;stroke-width:1;" width="6" x="3562" y="102.9141"/><text fill="#000000" font-family="sans-serif" font-size="14" lengthAdjust="spacing" textLength="83.2617" x="3574" y="110.1426">name : String</text><line style="stroke:#181818;stroke-width:0.5;" x1="3555" x2="3856.7852" y1="117.2188" y2="117.2188"/><ellipse cx="3565" cy="131.5234" fill="#84BE84" rx="3" ry="3" style="stroke:#038048;stroke-width:1;"/><text fill="#000000" font-family="sans-serif" font-size="14" lengthAdjust="spacing" textLength="277.7852" x="3574" y="135.752">&lt;init&gt;(umlparser.OrderComponent, int) : void</text></g><!--class SimpleControllerContact--><g id="elem_SimpleControllerContact"><rect codeLine="149" fill="#F1F1F1" height="100.8281" id="SimpleControllerContact" rx="2.5" ry="2.5" style="stroke:#181818;stroke-width:0.5;" width="462.4814" x="1001" y="42"/><ellipse cx="1152.1255" cy="58" fill="#ADD1B2" rx="11" ry="11" style="stroke:#181818;stroke-width:1;"/><path d="M1154.8911,53.875 Q1155.0474,53.6563 1155.2349,53.5469 Q1155.4224,53.4375 1155.6411,53.4375 Q1156.0161,53.4375 1156.2505,53.7031 Q1156.4849,53.9531 1156.4849,54.5625 L1156.4849,56.0156 Q1156.4849,56.625 1156.2505,56.8906 Q1156.0161,57.1563 1155.6411,57.1563 Q1155.2974,57.1563 1155.0942,56.9531 Q1154.8911,56.7656 1154.7817,56.25 Q1154.7349,55.8906 1154.5474,55.7031 Q1154.2192,55.3281 1153.6099,55.1094 Q1153.0005,54.8906 1152.3755,54.8906 Q1151.6099,54.8906 1150.9692,55.2188 Q1150.3442,55.5469 1149.8442,56.2969 Q1149.3599,57.0469 1149.3599,58.0781 L1149.3599,59.1719 Q1149.3599,60.4063 1150.2505,61.2344 Q1151.1411,62.0469 1152.7349,62.0469 Q1153.6724,62.0469 1154.3286,61.7969 Q1154.7192,61.6406 1155.1411,61.2031 Q1155.4067,60.9375 1155.5474,60.8594 Q1155.7036,60.7813 1155.9067,60.7813 Q1156.2349,60.7813 1156.4849,61.0469 Q1156.7505,61.2969 1156.7505,61.6406 Q1156.7505,61.9844 1156.4067,62.3906 Q1155.9067,62.9688 1155.1099,63.2969 Q1154.0317,63.75 1152.7349,63.75 Q1151.2192,63.75 1150.0161,63.125 Q1149.0317,62.625 1148.3442,61.5625 Q1147.6567,60.4844 1147.6567,59.2031 L1147.6567,58.0469 Q1147.6567,56.7188 1148.2661,55.5781 Q1148.8911,54.4219 1149.9849,53.8125 Q1151.0786,53.1875 1152.313,53.1875 Q1153.0474,53.1875 1153.688,53.3594 Q1154.3442,53.5156 1154.8911,53.875 Z " fill="#000000"/><text fill="#000000" font-family="sans-serif" font-size="14" lengthAdjust="spacing" textLength="151.7305" x="1172.6255" y="63.7285">SimpleControllerContact</text><line style="stroke:#181818;stroke-width:0.5;" x1="1002" x2="1462.4814" y1="74" y2="74"/><line style="stroke:#181818;stroke-width:0.5;" x1="1002" x2="1462.4814" y1="82" y2="82"/><ellipse cx="1012" cy="96.3047" fill="#84BE84" rx="3" ry="3" style="stroke:#038048;stroke-width:1;"/><text fill="#000000" font-family="sans-serif" font-size="14" lengthAdjust="spacing" textLength="80.9238" x="1021" y="100.5332">&lt;init&gt;() : void</text><ellipse cx="1012" cy="113.9141" fill="#84BE84" rx="3" ry="3" style="stroke:#038048;stroke-width:1;"/><text fill="#000000" font-family="sans-serif" font-size="14" lengthAdjust="spacing" textLength="320.5713" x="1021" y="118.1426">sendOrder(umlparser.OrderComponent, int) : String</text><rect fill="#F24D5C" height="6" style="stroke:#C82930;stroke-width:1;" width="6" x="1009" y="128.5234"/><text fill="#000000" font-family="sans-serif" font-size="14" lengthAdjust="spacing" textLength="436.4814" x="1021" y="135.752">createCommandJSON(umlparser.OrderComponent, int) : JSONObject</text></g><!--class Sugar--><g id="elem_Sugar"><rect codeLine="155" fill="#F1F1F1" height="100.8281" id="Sugar" rx="2.5" ry="2.5" style="stroke:#181818;stroke-width:0.5;" width="303.7852" x="3893" y="42"/><ellipse cx="4021.9634" cy="58" fill="#ADD1B2" rx="11" ry="11" style="stroke:#181818;stroke-width:1;"/><path d="M4024.729,53.875 Q4024.8853,53.6563 4025.0728,53.5469 Q4025.2603,53.4375 4025.479,53.4375 Q4025.854,53.4375 4026.0884,53.7031 Q4026.3228,53.9531 4026.3228,54.5625 L4026.3228,56.0156 Q4026.3228,56.625 4026.0884,56.8906 Q4025.854,57.1563 4025.479,57.1563 Q4025.1353,57.1563 4024.9321,56.9531 Q4024.729,56.7656 4024.6196,56.25 Q4024.5728,55.8906 4024.3853,55.7031 Q4024.0571,55.3281 4023.4478,55.1094 Q4022.8384,54.8906 4022.2134,54.8906 Q4021.4478,54.8906 4020.8071,55.2188 Q4020.1821,55.5469 4019.6821,56.2969 Q4019.1978,57.0469 4019.1978,58.0781 L4019.1978,59.1719 Q4019.1978,60.4063 4020.0884,61.2344 Q4020.979,62.0469 4022.5728,62.0469 Q4023.5103,62.0469 4024.1665,61.7969 Q4024.5571,61.6406 4024.979,61.2031 Q4025.2446,60.9375 4025.3853,60.8594 Q4025.5415,60.7813 4025.7446,60.7813 Q4026.0728,60.7813 4026.3228,61.0469 Q4026.5884,61.2969 4026.5884,61.6406 Q4026.5884,61.9844 4026.2446,62.3906 Q4025.7446,62.9688 4024.9478,63.2969 Q4023.8696,63.75 4022.5728,63.75 Q4021.0571,63.75 4019.854,63.125 Q4018.8696,62.625 4018.1821,61.5625 Q4017.4946,60.4844 4017.4946,59.2031 L4017.4946,58.0469 Q4017.4946,56.7188 4018.104,55.5781 Q4018.729,54.4219 4019.8228,53.8125 Q4020.9165,53.1875 4022.1509,53.1875 Q4022.8853,53.1875 4023.5259,53.3594 Q4024.1821,53.5156 4024.729,53.875 Z " fill="#000000"/><text fill="#000000" font-family="sans-serif" font-size="14" lengthAdjust="spacing" textLength="37.3584" x="4042.4634" y="63.7285">Sugar</text><line style="stroke:#181818;stroke-width:0.5;" x1="3894" x2="4195.7852" y1="74" y2="74"/><rect fill="transparent" height="6" style="stroke:#C82930;stroke-width:1;" width="6" x="3901" y="85.3047"/><text fill="#000000" font-family="sans-serif" font-size="14" lengthAdjust="spacing" textLength="187.4756" x="3913" y="92.5332">COMPONENT_NAME : String</text><rect fill="transparent" height="6" style="stroke:#C82930;stroke-width:1;" width="6" x="3901" y="102.9141"/><text fill="#000000" font-family="sans-serif" font-size="14" lengthAdjust="spacing" textLength="136.1787" x="3913" y="110.1426">IS_OPTION : boolean</text><line style="stroke:#181818;stroke-width:0.5;" x1="3894" x2="4195.7852" y1="117.2188" y2="117.2188"/><ellipse cx="3904" cy="131.5234" fill="#84BE84" rx="3" ry="3" style="stroke:#038048;stroke-width:1;"/><text fill="#000000" font-family="sans-serif" font-size="14" lengthAdjust="spacing" textLength="277.7852" x="3913" y="135.752">&lt;init&gt;(umlparser.OrderComponent, int) : void</text></g><!--link AdvancedControllerContact to ControllerContactBehavior--><g id="link_AdvancedControllerContact_ControllerContactBehavior"><path codeLine="161" d="M334.42,143.07 C428.13,191.25 552.7416,255.3002 640.0216,300.1702 " fill="transparent" id="AdvancedControllerContact-to-ControllerContactBehavior" style="stroke:#181818;stroke-width:1;stroke-dasharray:7.0,7.0;"/><polygon fill="transparent" points="656.03,308.4,642.7648,294.834,637.2783,305.5063,656.03,308.4" style="stroke:#181818;stroke-width:1;"/></g><!--link AppCommunicator to OrderObserver--><g id="link_AppCommunicator_OrderObserver"><path codeLine="162" d="M1718.88,178.1 C1729.52,197.1 1739.36,217.66 1746,238 C1782.37,349.35 1785.2025,471.5335 1783.8725,539.4335 " fill="transparent" id="AppCommunicator-to-OrderObserver" style="stroke:#181818;stroke-width:1;stroke-dasharray:7.0,7.0;"/><polygon fill="transparent" points="1783.52,557.43,1789.8714,539.551,1777.8737,539.3159,1783.52,557.43" style="stroke:#181818;stroke-width:1;"/></g><!--link AppCommunicator to OrderCreator--><g id="link_AppCommunicator_OrderCreator"><path codeLine="163" d="M1620.88,178.22 C1610.49,200.16 1601.7572,218.5869 1590.9972,241.3169 " fill="transparent" id="AppCommunicator-to-OrderCreator" style="stroke:#181818;stroke-width:1;"/><polygon fill="#181818" points="1588.43,246.74,1595.8961,240.3169,1590.5693,242.2208,1588.6654,236.894,1588.43,246.74" style="stroke:#181818;stroke-width:1;"/><text fill="#000000" font-family="sans-serif" font-size="13" lengthAdjust="spacing" textLength="7.23" x="1584.7507" y="236.0596">1</text></g><!--link BaseOrder to OrderComponent--><g id="link_BaseOrder_OrderComponent"><path codeLine="164" d="M2749.87,453.07 C2808.36,483.55 2854.3378,507.5009 2904.8778,533.8409 " fill="transparent" id="BaseOrder-to-OrderComponent" style="stroke:#181818;stroke-width:1;stroke-dasharray:7.0,7.0;"/><polygon fill="transparent" points="2920.84,542.16,2907.6508,528.5202,2902.1047,539.1617,2920.84,542.16" style="stroke:#181818;stroke-width:1;"/></g><!--link Cream to OrderDecorator--><g id="link_Cream_OrderDecorator"><path codeLine="165" d="M2095.38,143.21 C2121.68,156.62 2151.33,169.7 2180,178 C2436.14,252.18 2519.17,169.89 2777,238 C2782.87,239.55 2771.5399,236.0451 2777.4699,237.8251 " fill="transparent" id="Cream-to-OrderDecorator" style="stroke:#181818;stroke-width:1;"/><polygon fill="transparent" points="2794.71,243,2779.1949,232.0784,2775.745,243.5718,2794.71,243" style="stroke:#181818;stroke-width:1;"/></g><!--link DarkRoast to OrderDecorator--><g id="link_DarkRoast_OrderDecorator"><path codeLine="166" d="M2439.49,143.14 C2464.68,155.75 2492.46,168.43 2519,178 C2629.75,217.93 2665.34,200.7 2777,238 C2782.87,239.96 2771.8499,235.9523 2777.8099,238.0823 " fill="transparent" id="DarkRoast-to-OrderDecorator" style="stroke:#181818;stroke-width:1;"/><polygon fill="transparent" points="2794.76,244.14,2779.8292,232.4323,2775.7907,243.7324,2794.76,244.14" style="stroke:#181818;stroke-width:1;"/></g><!--link Milk to OrderDecorator--><g id="link_Milk_OrderDecorator"><path codeLine="167" d="M2754.76,143.07 C2790.67,170.13 2822.3059,193.9655 2866.2859,227.1155 " fill="transparent" id="Milk-to-OrderDecorator" style="stroke:#181818;stroke-width:1;"/><polygon fill="transparent" points="2880.66,237.95,2869.8974,222.3242,2862.6744,231.9069,2880.66,237.95" style="stroke:#181818;stroke-width:1;"/></g><!--link Nutmeg to OrderDecorator--><g id="link_Nutmeg_OrderDecorator"><path codeLine="168" d="M3028,143.07 C3028,170.13 3028,186.8 3028,219.95 " fill="transparent" id="Nutmeg-to-OrderDecorator" style="stroke:#181818;stroke-width:1;"/><polygon fill="transparent" points="3028,237.95,3034,219.95,3022,219.95,3028,237.95" style="stroke:#181818;stroke-width:1;"/></g><!--link NutraSweet to OrderDecorator--><g id="link_NutraSweet_OrderDecorator"><path codeLine="169" d="M3301.24,143.07 C3265.33,170.13 3233.6941,193.9655 3189.7141,227.1155 " fill="transparent" id="NutraSweet-to-OrderDecorator" style="stroke:#181818;stroke-width:1;"/><polygon fill="transparent" points="3175.34,237.95,3193.3256,231.9069,3186.1026,222.3242,3175.34,237.95" style="stroke:#181818;stroke-width:1;"/></g><!--link OrderCreator to OrderObserver--><g id="link_OrderCreator_OrderObserver"><path codeLine="170" d="M1640.18,453.25 C1676.07,489.88 1710.2706,524.7945 1738.0606,553.1545 " fill="transparent" id="OrderCreator-to-OrderObserver" style="stroke:#181818;stroke-width:1;"/><polygon fill="#181818" points="1742.26,557.44,1738.818,548.2122,1738.7605,553.8688,1733.104,553.8113,1742.26,557.44" style="stroke:#181818;stroke-width:1;"/><text fill="#000000" font-family="sans-serif" font-size="13" lengthAdjust="spacing" textLength="5.0591" x="1730.269" y="546.7377">*</text></g><!--link OrderCreator to OrderFactory--><g id="link_OrderCreator_OrderFactory"><path codeLine="171" d="M1468.39,453.25 C1447.66,482.84 1429.1922,509.2056 1411.0722,535.0756 " fill="transparent" id="OrderCreator-to-OrderFactory" style="stroke:#181818;stroke-width:1;"/><polygon fill="#181818" points="1407.63,539.99,1416.0695,534.9132,1410.4985,535.8947,1409.517,530.3236,1407.63,539.99" style="stroke:#181818;stroke-width:1;"/><text fill="#000000" font-family="sans-serif" font-size="13" lengthAdjust="spacing" textLength="7.23" x="1405.1471" y="529.313">1</text></g><!--link OrderDecorator to OrderComponent--><g id="link_OrderDecorator_OrderComponent"><path codeLine="172" d="M3015.31,462.22 C3015.12,482.32 3014.6923,484.8735 3015.4223,503.6935 " fill="transparent" id="OrderDecorator-to-OrderComponent" style="stroke:#181818;stroke-width:1;stroke-dasharray:7.0,7.0;"/><polygon fill="transparent" points="3016.12,521.68,3021.4178,503.461,3009.4268,503.9261,3016.12,521.68" style="stroke:#181818;stroke-width:1;"/></g><!--link OrderDecorator to OrderComponent--><g id="link_OrderDecorator_OrderComponent"><path codeLine="173" d="M3041.44,462.22 C3041.64,482.32 3041.5953,496.865 3040.8253,515.685 " fill="transparent" id="OrderDecorator-to-OrderComponent-1" style="stroke:#181818;stroke-width:1;"/><polygon fill="#181818" points="3040.58,521.68,3044.9446,512.851,3040.7844,516.6842,3036.9513,512.524,3040.58,521.68" style="stroke:#181818;stroke-width:1;"/><text fill="#000000" font-family="sans-serif" font-size="13" lengthAdjust="spacing" textLength="7.23" x="3034.4791" y="511.0762">1</text></g><!--link ProgrammableControllerContact to ControllerContactBehavior--><g id="link_ProgrammableControllerContact_ControllerContactBehavior"><path codeLine="174" d="M735,143.07 C735,191.25 735,245.53 735,290.4 " fill="transparent" id="ProgrammableControllerContact-to-ControllerContactBehavior" style="stroke:#181818;stroke-width:1;stroke-dasharray:7.0,7.0;"/><polygon fill="transparent" points="735,308.4,741,290.4,729,290.4,735,308.4" style="stroke:#181818;stroke-width:1;"/></g><!--link PumpkinSpice to OrderDecorator--><g id="link_PumpkinSpice_OrderDecorator"><path codeLine="175" d="M3612.78,143.02 C3588.43,155.15 3561.99,167.61 3537,178 C3448.33,214.85 3365.7337,244.1512 3278.2137,272.6812 " fill="transparent" id="PumpkinSpice-to-OrderDecorator" style="stroke:#181818;stroke-width:1;"/><polygon fill="transparent" points="3261.1,278.26,3280.0732,278.3858,3276.3541,266.9767,3261.1,278.26" style="stroke:#181818;stroke-width:1;"/></g><!--link SimpleControllerContact to ControllerContactBehavior--><g id="link_SimpleControllerContact_ControllerContactBehavior"><path codeLine="176" d="M1135.58,143.07 C1041.87,191.25 917.2584,255.3002 829.9784,300.1702 " fill="transparent" id="SimpleControllerContact-to-ControllerContactBehavior" style="stroke:#181818;stroke-width:1;stroke-dasharray:7.0,7.0;"/><polygon fill="transparent" points="813.97,308.4,832.7217,305.5063,827.2352,294.834,813.97,308.4" style="stroke:#181818;stroke-width:1;"/></g><!--link Sugar to OrderDecorator--><g id="link_Sugar_OrderDecorator"><path codeLine="177" d="M3956.57,143.22 C3931.15,155.98 3902.99,168.72 3876,178 C3673.8,247.56 3452.0149,289.9202 3279.1749,316.2402 " fill="transparent" id="Sugar-to-OrderDecorator" style="stroke:#181818;stroke-width:1;"/><polygon fill="transparent" points="3261.38,318.95,3280.0781,322.1718,3278.2716,310.3086,3261.38,318.95" style="stroke:#181818;stroke-width:1;"/></g><!--SRC=[rLTBRzj64BxhLooSYznO0dpe9H04I9RJg8X4rJHoAOfWHKweZSXTTdUfH4ZhtzxXyhbysIaAfpu9cfcTnpTFqZ0KNoBsbV5Wf8wCnrJIY7WXLOfy6osfTmoaIBX_8q8XPxCLU49IBUHyJjwpuA2NOG9jCHVLXQ05Hp6NXf7W0p9aiKyKr2I5z47sIgseFDw1toE60YrctUdCNyEzFp3lo46fBYi_3mWX-xhDhbkv7lqzoZ1S-2VAFS2WkPOY35EdkAQUHdG9UKrcZ3Cz7r-ID-Gac6ze2hZlfDh7IHHYGXJ8gPF54yM20zTNX76Tld6rJ3D7o8Hu4gW658aeztzrdUtZhrCfP_yPF8t-5Wx7SQeZuSnBWp5kFf0CpjG2ajuGf_Qtul-MG0B8DR-pIlcyDz8azj7dyMTwejEGyc2QnLEJcH0kDFjqtXtGTVIjKxOMHwfLWiVW11jC2mtWhHIHUJskn2mdu2juYGOJawhyAn5PKfKn3HOJugFPuvP6OEFFkD8oyJGJNDaSwliIVQaJIpYQuLoHnocMzm7eDGya-0mpcxdVW0CbdDYurSDTrpmVNzfk8djLnDl1MsIXrJc86vONo4_K0z8g-oKSw8cLTJNpml-a0SfafKKPvOcwSJOxPtkxlV-uNMnkxPoitO_ExdxjR96y5o84okjfUTIkNI9c9Wcgz0-mhEaU2_GTDdq81Qp-7k7cO59gMtVNcztxr2FKPWYBrOV5zkPsLIFjxfnVxXQRpM9Pa-nkO2o1AiNtvzXqMr4KNNLRABCUhlsdF2jZtb361yPdXEoMaj__Q6EtOU7nsHEsJNG4mOymAwdx1U0vIxIQ0xRWOFF_7mTQXc5zw-KeYZt2SCAzKIn59oVCJOJHURL4JgD9gutv5YUYaEVYSVwtfx8VybLOc53ZmSKW8M1ALnurqrRG6uyYSOBlUX9BuI5YsRpkNB4F-MsInOYTRguJMzGka1HpkiSafeUIOPNNLTxuJ6KbO5NeAw8CfQ4iPV36ldv5_amerqoVsnEklxvpKrrBkbxwBw2CYyhh7wDPpeoHfryfYMRXz1rLXmsDBxioOQuXdFm-Yv0mxiJnYlHbu0agywweE_9T-jfZgwZwmQdrs2LReh-J8i1Fh8ZkGtWn7mMx98hnuz2D6OAIJRxE1foq-kpVxYkNHV4B0iXD0YgVSRFsVrPEft_DUw_kKVFhBfMsYhmbCPdCoSNrXVt9LtqIbGgg3ifEyCaaPvIJUrHToHrCSunrqFDxgPjJd3GTN6jPco1-kh3xkKEaYBDOn8tLqn5iGy96gvGQRlhXb5czrn5eNwSCQyqAjgtk7m00]--></g></svg>