<svg xmlns="http://www.w3.org/2000/svg" xmlns:xlink="http://www.w3.org/1999/xlink" contentStyleType="text/css" data-diagram-type="CLASS" height="718px" preserveAspectRatio="none" style="width:1482px;height:718px;background:#FFFFFF;" version="1.1" viewBox="0 0 1482 718" width="1482px" zoomAndPan="magnify"><defs/><g><!--cluster umlparser--><g id="cluster_umlparser"><path d="M388,6 L456.6963,6 A3.75,3.75 0 0 1 459.1963,8.5 L466.1963,29.6094 L655,29.6094 A2.5,2.5 0 0 1 657.5,32.1094 L657.5,75.5 A2.5,2.5 0 0 1 655,78 L388,78 A2.5,2.5 0 0 1 385.5,75.5 L385.5,8.5 A2.5,2.5 0 0 1 388,6 " fill="transparent" style="stroke:#000000;stroke-width:1.5;"/><line style="stroke:#000000;stroke-width:1.5;" x1="385.5" x2="466.1963" y1="29.6094" y2="29.6094"/><text fill="#000000" font-family="sans-serif" font-size="14" font-weight="bold" lengthAdjust="spacing" textLength="67.6963" x="389.5" y="22.5332">umlparser</text></g><!--entity CondimentDecoratorLabel--><!--entity LoggerLabel--><!--entity MilkLabel--><!--entity MochaLabel--><!--entity SoyLabel--><!--class Beverage--><g id="elem_Beverage"><rect codeLine="9" fill="#F1F1F1" height="118.4375" id="Beverage" rx="2.5" ry="2.5" style="stroke:#181818;stroke-width:0.5;" width="232.9854" x="407" y="593.5"/><ellipse cx="489.2773" cy="609.5" fill="#A9DCDF" rx="11" ry="11" style="stroke:#181818;stroke-width:1;"/><path d="M491.4648,611.2656 L487.3242,611.2656 L486.9023,612.2969 L487.3242,612.2969 Q487.9336,612.2969 488.1992,612.5313 Q488.4648,612.7656 488.4648,613.1563 Q488.4648,613.5313 488.1992,613.7656 Q487.9336,614 487.3242,614 L485.0273,614 Q484.418,614 484.168,613.7656 Q483.9023,613.5313 483.9023,613.1406 Q483.9023,612.7656 484.1836,612.5313 Q484.4492,612.2813 485.0742,612.2969 L487.7461,605.6406 L486.6367,605.6406 Q486.0273,605.6406 485.7617,605.4063 Q485.4961,605.1719 485.4961,604.7813 Q485.4961,604.4063 485.7617,604.1719 Q486.0273,603.9375 486.6367,603.9375 L490.3086,603.9375 L493.6992,612.2969 Q494.293,612.2969 494.4805,612.4375 Q494.8711,612.7031 494.8711,613.1563 Q494.8711,613.5313 494.6055,613.7656 Q494.3555,614 493.7461,614 L491.4492,614 Q490.8398,614 490.5742,613.7656 Q490.3086,613.5313 490.3086,613.1406 Q490.3086,612.7656 490.5742,612.5313 Q490.8398,612.2969 491.4492,612.2969 L491.8711,612.2969 L491.4648,611.2656 Z M490.7461,609.5625 L489.3867,606.1875 L488.0117,609.5625 L490.7461,609.5625 Z " fill="#000000"/><text fill="#000000" font-family="sans-serif" font-size="14" font-style="italic" lengthAdjust="spacing" textLength="59.9307" x="509.7773" y="615.2285">Beverage</text><line style="stroke:#181818;stroke-width:0.5;" x1="408" x2="638.9854" y1="625.5" y2="625.5"/><polygon fill="transparent" points="418,634.8047,422,638.8047,418,642.8047,414,638.8047" style="stroke:#B38D22;stroke-width:1;"/><text fill="#000000" font-family="sans-serif" font-size="14" lengthAdjust="spacing" textLength="115.9443" x="427" y="644.0332">description : String</text><line style="stroke:#181818;stroke-width:0.5;" x1="408" x2="638.9854" y1="651.1094" y2="651.1094"/><ellipse cx="418" cy="665.4141" fill="#84BE84" rx="3" ry="3" style="stroke:#038048;stroke-width:1;"/><text fill="#000000" font-family="sans-serif" font-size="14" lengthAdjust="spacing" textLength="80.9238" x="427" y="669.6426">&lt;init&gt;() : void</text><ellipse cx="418" cy="683.0234" fill="#84BE84" rx="3" ry="3" style="stroke:#038048;stroke-width:1;"/><text fill="#000000" font-family="sans-serif" font-size="14" lengthAdjust="spacing" textLength="206.9854" x="427" y="687.252">getDescription() : java.lang.String</text><ellipse cx="418" cy="700.6328" fill="#84BE84" rx="3" ry="3" style="stroke:#038048;stroke-width:1;"/><text fill="#000000" font-family="sans-serif" font-size="14" lengthAdjust="spacing" textLength="88.71" x="427" y="704.8613">cost() : double</text></g><!--class CondimentDecorator--><g id="elem_CondimentDecorator"><rect codeLine="18" fill="#FA8072" height="93.9219" id="CondimentDecorator" rx="2.5" ry="2.5" style="stroke:#181818;stroke-width:0.5;" width="232.9854" x="407" y="400"/><ellipse cx="454.6567" cy="421.3516" fill="#A9DCDF" rx="11" ry="11" style="stroke:#181818;stroke-width:1;"/><path d="M456.8442,423.1172 L452.7036,423.1172 L452.2817,424.1484 L452.7036,424.1484 Q453.313,424.1484 453.5786,424.3828 Q453.8442,424.6172 453.8442,425.0078 Q453.8442,425.3828 453.5786,425.6172 Q453.313,425.8516 452.7036,425.8516 L450.4067,425.8516 Q449.7974,425.8516 449.5474,425.6172 Q449.2817,425.3828 449.2817,424.9922 Q449.2817,424.6172 449.563,424.3828 Q449.8286,424.1328 450.4536,424.1484 L453.1255,417.4922 L452.0161,417.4922 Q451.4067,417.4922 451.1411,417.2578 Q450.8755,417.0234 450.8755,416.6328 Q450.8755,416.2578 451.1411,416.0234 Q451.4067,415.7891 452.0161,415.7891 L455.688,415.7891 L459.0786,424.1484 Q459.6724,424.1484 459.8599,424.2891 Q460.2505,424.5547 460.2505,425.0078 Q460.2505,425.3828 459.9849,425.6172 Q459.7349,425.8516 459.1255,425.8516 L456.8286,425.8516 Q456.2192,425.8516 455.9536,425.6172 Q455.688,425.3828 455.688,424.9922 Q455.688,424.6172 455.9536,424.3828 Q456.2192,424.1484 456.8286,424.1484 L457.2505,424.1484 L456.8442,423.1172 Z M456.1255,421.4141 L454.7661,418.0391 L453.3911,421.4141 L456.1255,421.4141 Z " fill="#000000"/><text fill="#000000" font-family="sans-serif" font-size="12" font-style="italic" lengthAdjust="spacing" textLength="66.0352" x="506.7251" y="417.457">&#171;Decorator&#187;</text><text fill="#000000" font-family="sans-serif" font-size="14" font-style="italic" lengthAdjust="spacing" textLength="129.1719" x="475.1567" y="434.627">CondimentDecorator</text><line style="stroke:#181818;stroke-width:0.5;" x1="408" x2="638.9854" y1="442.7031" y2="442.7031"/><line style="stroke:#181818;stroke-width:0.5;" x1="408" x2="638.9854" y1="450.7031" y2="450.7031"/><ellipse cx="418" cy="465.0078" fill="#84BE84" rx="3" ry="3" style="stroke:#038048;stroke-width:1;"/><text fill="#000000" font-family="sans-serif" font-size="14" lengthAdjust="spacing" textLength="80.9238" x="427" y="469.2363">&lt;init&gt;() : void</text><ellipse cx="418" cy="482.6172" fill="#84BE84" rx="3" ry="3" style="stroke:#038048;stroke-width:1;"/><text fill="#000000" font-family="sans-serif" font-size="14" lengthAdjust="spacing" textLength="206.9854" x="427" y="486.8457">getDescription() : java.lang.String</text></g><!--class Espresso--><g id="elem_Espresso"><rect codeLine="23" fill="#F1F1F1" height="83.2188" id="Espresso" rx="2.5" ry="2.5" style="stroke:#181818;stroke-width:0.5;" width="114.71" x="107" y="405.5"/><ellipse cx="132.9582" cy="421.5" fill="#ADD1B2" rx="11" ry="11" style="stroke:#181818;stroke-width:1;"/><path d="M135.7238,417.375 Q135.8801,417.1563 136.0676,417.0469 Q136.2551,416.9375 136.4738,416.9375 Q136.8488,416.9375 137.0832,417.2031 Q137.3176,417.4531 137.3176,418.0625 L137.3176,419.5156 Q137.3176,420.125 137.0832,420.3906 Q136.8488,420.6563 136.4738,420.6563 Q136.1301,420.6563 135.927,420.4531 Q135.7238,420.2656 135.6145,419.75 Q135.5676,419.3906 135.3801,419.2031 Q135.052,418.8281 134.4426,418.6094 Q133.8332,418.3906 133.2082,418.3906 Q132.4426,418.3906 131.802,418.7188 Q131.177,419.0469 130.677,419.7969 Q130.1926,420.5469 130.1926,421.5781 L130.1926,422.6719 Q130.1926,423.9063 131.0832,424.7344 Q131.9738,425.5469 133.5676,425.5469 Q134.5051,425.5469 135.1613,425.2969 Q135.552,425.1406 135.9738,424.7031 Q136.2395,424.4375 136.3801,424.3594 Q136.5363,424.2813 136.7395,424.2813 Q137.0676,424.2813 137.3176,424.5469 Q137.5832,424.7969 137.5832,425.1406 Q137.5832,425.4844 137.2395,425.8906 Q136.7395,426.4688 135.9426,426.7969 Q134.8645,427.25 133.5676,427.25 Q132.052,427.25 130.8488,426.625 Q129.8645,426.125 129.177,425.0625 Q128.4895,423.9844 128.4895,422.7031 L128.4895,421.5469 Q128.4895,420.2188 129.0988,419.0781 Q129.7238,417.9219 130.8176,417.3125 Q131.9113,416.6875 133.1457,416.6875 Q133.8801,416.6875 134.5207,416.8594 Q135.177,417.0156 135.7238,417.375 Z " fill="#000000"/><text fill="#000000" font-family="sans-serif" font-size="14" lengthAdjust="spacing" textLength="58.3584" x="149.3934" y="427.2285">Espresso</text><line style="stroke:#181818;stroke-width:0.5;" x1="108" x2="220.71" y1="437.5" y2="437.5"/><line style="stroke:#181818;stroke-width:0.5;" x1="108" x2="220.71" y1="445.5" y2="445.5"/><ellipse cx="118" cy="459.8047" fill="#84BE84" rx="3" ry="3" style="stroke:#038048;stroke-width:1;"/><text fill="#000000" font-family="sans-serif" font-size="14" lengthAdjust="spacing" textLength="80.9238" x="127" y="464.0332">&lt;init&gt;() : void</text><ellipse cx="118" cy="477.4141" fill="#84BE84" rx="3" ry="3" style="stroke:#038048;stroke-width:1;"/><text fill="#000000" font-family="sans-serif" font-size="14" lengthAdjust="spacing" textLength="88.71" x="127" y="481.6426">cost() : double</text></g><!--class HouseBlend--><g id="elem_HouseBlend"><rect codeLine="28" fill="#F1F1F1" height="83.2188" id="HouseBlend" rx="2.5" ry="2.5" style="stroke:#181818;stroke-width:0.5;" width="114.71" x="257" y="405.5"/><ellipse cx="274.8956" cy="421.5" fill="#ADD1B2" rx="11" ry="11" style="stroke:#181818;stroke-width:1;"/><path d="M277.6612,417.375 Q277.8174,417.1563 278.0049,417.0469 Q278.1924,416.9375 278.4112,416.9375 Q278.7862,416.9375 279.0206,417.2031 Q279.2549,417.4531 279.2549,418.0625 L279.2549,419.5156 Q279.2549,420.125 279.0206,420.3906 Q278.7862,420.6563 278.4112,420.6563 Q278.0674,420.6563 277.8643,420.4531 Q277.6612,420.2656 277.5518,419.75 Q277.5049,419.3906 277.3174,419.2031 Q276.9893,418.8281 276.3799,418.6094 Q275.7706,418.3906 275.1456,418.3906 Q274.3799,418.3906 273.7393,418.7188 Q273.1143,419.0469 272.6143,419.7969 Q272.1299,420.5469 272.1299,421.5781 L272.1299,422.6719 Q272.1299,423.9063 273.0206,424.7344 Q273.9112,425.5469 275.5049,425.5469 Q276.4424,425.5469 277.0987,425.2969 Q277.4893,425.1406 277.9112,424.7031 Q278.1768,424.4375 278.3174,424.3594 Q278.4737,424.2813 278.6768,424.2813 Q279.0049,424.2813 279.2549,424.5469 Q279.5206,424.7969 279.5206,425.1406 Q279.5206,425.4844 279.1768,425.8906 Q278.6768,426.4688 277.8799,426.7969 Q276.8018,427.25 275.5049,427.25 Q273.9893,427.25 272.7862,426.625 Q271.8018,426.125 271.1143,425.0625 Q270.4268,423.9844 270.4268,422.7031 L270.4268,421.5469 Q270.4268,420.2188 271.0362,419.0781 Q271.6612,417.9219 272.7549,417.3125 Q273.8487,416.6875 275.0831,416.6875 Q275.8174,416.6875 276.4581,416.8594 Q277.1143,417.0156 277.6612,417.375 Z " fill="#000000"/><text fill="#000000" font-family="sans-serif" font-size="14" lengthAdjust="spacing" textLength="76.2754" x="289.539" y="427.2285">HouseBlend</text><line style="stroke:#181818;stroke-width:0.5;" x1="258" x2="370.71" y1="437.5" y2="437.5"/><line style="stroke:#181818;stroke-width:0.5;" x1="258" x2="370.71" y1="445.5" y2="445.5"/><ellipse cx="268" cy="459.8047" fill="#84BE84" rx="3" ry="3" style="stroke:#038048;stroke-width:1;"/><text fill="#000000" font-family="sans-serif" font-size="14" lengthAdjust="spacing" textLength="80.9238" x="277" y="464.0332">&lt;init&gt;() : void</text><ellipse cx="268" cy="477.4141" fill="#84BE84" rx="3" ry="3" style="stroke:#038048;stroke-width:1;"/><text fill="#000000" font-family="sans-serif" font-size="14" lengthAdjust="spacing" textLength="88.71" x="277" y="481.6426">cost() : double</text></g><!--class JCUTApplication--><g id="elem_JCUTApplication"><rect codeLine="33" fill="#F1F1F1" height="83.2188" id="JCUTApplication" rx="2.5" ry="2.5" style="stroke:#181818;stroke-width:0.5;" width="207.3027" x="677" y="10.5"/><ellipse cx="724.2705" cy="26.5" fill="#ADD1B2" rx="11" ry="11" style="stroke:#181818;stroke-width:1;"/><path d="M727.0361,22.375 Q727.1924,22.1563 727.3799,22.0469 Q727.5674,21.9375 727.7861,21.9375 Q728.1611,21.9375 728.3955,22.2031 Q728.6299,22.4531 728.6299,23.0625 L728.6299,24.5156 Q728.6299,25.125 728.3955,25.3906 Q728.1611,25.6563 727.7861,25.6563 Q727.4424,25.6563 727.2393,25.4531 Q727.0361,25.2656 726.9268,24.75 Q726.8799,24.3906 726.6924,24.2031 Q726.3643,23.8281 725.7549,23.6094 Q725.1455,23.3906 724.5205,23.3906 Q723.7549,23.3906 723.1143,23.7188 Q722.4893,24.0469 721.9893,24.7969 Q721.5049,25.5469 721.5049,26.5781 L721.5049,27.6719 Q721.5049,28.9063 722.3955,29.7344 Q723.2861,30.5469 724.8799,30.5469 Q725.8174,30.5469 726.4736,30.2969 Q726.8643,30.1406 727.2861,29.7031 Q727.5518,29.4375 727.6924,29.3594 Q727.8486,29.2813 728.0518,29.2813 Q728.3799,29.2813 728.6299,29.5469 Q728.8955,29.7969 728.8955,30.1406 Q728.8955,30.4844 728.5518,30.8906 Q728.0518,31.4688 727.2549,31.7969 Q726.1768,32.25 724.8799,32.25 Q723.3643,32.25 722.1611,31.625 Q721.1768,31.125 720.4893,30.0625 Q719.8018,28.9844 719.8018,27.7031 L719.8018,26.5469 Q719.8018,25.2188 720.4111,24.0781 Q721.0361,22.9219 722.1299,22.3125 Q723.2236,21.6875 724.458,21.6875 Q725.1924,21.6875 725.833,21.8594 Q726.4893,22.0156 727.0361,22.375 Z " fill="#000000"/><text fill="#000000" font-family="sans-serif" font-size="14" lengthAdjust="spacing" textLength="104.2617" x="744.7705" y="32.2285">JCUTApplication</text><line style="stroke:#181818;stroke-width:0.5;" x1="678" x2="883.3027" y1="42.5" y2="42.5"/><line style="stroke:#181818;stroke-width:0.5;" x1="678" x2="883.3027" y1="50.5" y2="50.5"/><ellipse cx="688" cy="64.8047" fill="#84BE84" rx="3" ry="3" style="stroke:#038048;stroke-width:1;"/><text fill="#000000" font-family="sans-serif" font-size="14" lengthAdjust="spacing" textLength="80.9238" x="697" y="69.0332">&lt;init&gt;() : void</text><ellipse cx="688" cy="82.4141" fill="#84BE84" rx="3" ry="3" style="stroke:#038048;stroke-width:1;"/><text fill="#000000" font-family="sans-serif" font-size="14" lengthAdjust="spacing" textLength="181.3027" x="697" y="86.6426">main(java.lang.String[]) : void</text></g><!--class Logger--><g id="elem_Logger"><rect codeLine="40" fill="#ADD8E6" height="129.1406" id="Logger" rx="2.5" ry="2.5" style="stroke:#181818;stroke-width:0.5;" width="229.1025" x="1211" y="171.5"/><ellipse cx="1291.6079" cy="192.8516" fill="#ADD1B2" rx="11" ry="11" style="stroke:#181818;stroke-width:1;"/><path d="M1294.3735,188.7266 Q1294.5298,188.5078 1294.7173,188.3984 Q1294.9048,188.2891 1295.1235,188.2891 Q1295.4985,188.2891 1295.7329,188.5547 Q1295.9673,188.8047 1295.9673,189.4141 L1295.9673,190.8672 Q1295.9673,191.4766 1295.7329,191.7422 Q1295.4985,192.0078 1295.1235,192.0078 Q1294.7798,192.0078 1294.5767,191.8047 Q1294.3735,191.6172 1294.2642,191.1016 Q1294.2173,190.7422 1294.0298,190.5547 Q1293.7017,190.1797 1293.0923,189.9609 Q1292.4829,189.7422 1291.8579,189.7422 Q1291.0923,189.7422 1290.4517,190.0703 Q1289.8267,190.3984 1289.3267,191.1484 Q1288.8423,191.8984 1288.8423,192.9297 L1288.8423,194.0234 Q1288.8423,195.2578 1289.7329,196.0859 Q1290.6235,196.8984 1292.2173,196.8984 Q1293.1548,196.8984 1293.811,196.6484 Q1294.2017,196.4922 1294.6235,196.0547 Q1294.8892,195.7891 1295.0298,195.7109 Q1295.186,195.6328 1295.3892,195.6328 Q1295.7173,195.6328 1295.9673,195.8984 Q1296.2329,196.1484 1296.2329,196.4922 Q1296.2329,196.8359 1295.8892,197.2422 Q1295.3892,197.8203 1294.5923,198.1484 Q1293.5142,198.6016 1292.2173,198.6016 Q1290.7017,198.6016 1289.4985,197.9766 Q1288.5142,197.4766 1287.8267,196.4141 Q1287.1392,195.3359 1287.1392,194.0547 L1287.1392,192.8984 Q1287.1392,191.5703 1287.7485,190.4297 Q1288.3735,189.2734 1289.4673,188.6641 Q1290.561,188.0391 1291.7954,188.0391 Q1292.5298,188.0391 1293.1704,188.2109 Q1293.8267,188.3672 1294.3735,188.7266 Z " fill="#000000"/><text fill="#000000" font-family="sans-serif" font-size="12" font-style="italic" lengthAdjust="spacing" textLength="63.3867" x="1310.1079" y="188.957">&#171;Singleton&#187;</text><text fill="#000000" font-family="sans-serif" font-size="14" lengthAdjust="spacing" textLength="43.5928" x="1320.0049" y="206.127">Logger</text><line style="stroke:#181818;stroke-width:0.5;" x1="1212" x2="1439.1025" y1="214.2031" y2="214.2031"/><rect fill="transparent" height="6" style="stroke:#C82930;stroke-width:1;" width="6" x="1219" y="225.5078"/><text fill="#000000" font-family="sans-serif" font-size="14" lengthAdjust="spacing" textLength="107.4063" x="1231" y="232.7363">instance : Logger</text><line style="stroke:#181818;stroke-width:0.5;" x1="1212" x2="1439.1025" y1="239.8125" y2="239.8125"/><rect fill="#F24D5C" height="6" style="stroke:#C82930;stroke-width:1;" width="6" x="1219" y="251.1172"/><text fill="#000000" font-family="sans-serif" font-size="14" lengthAdjust="spacing" textLength="80.9238" x="1231" y="258.3457">&lt;init&gt;() : void</text><ellipse cx="1222" cy="271.7266" fill="#84BE84" rx="3" ry="3" style="stroke:#038048;stroke-width:1;"/><text fill="#000000" font-family="sans-serif" font-size="14" lengthAdjust="spacing" textLength="203.1025" x="1231" y="275.9551">getInstance() : umlparser.Logger</text><ellipse cx="1222" cy="289.3359" fill="#84BE84" rx="3" ry="3" style="stroke:#038048;stroke-width:1;"/><text fill="#000000" font-family="sans-serif" font-size="14" lengthAdjust="spacing" textLength="161.8613" x="1231" y="293.5645">log(java.lang.String) : void</text></g><!--class Milk--><g id="elem_Milk"><rect codeLine="49" fill="#FA8072" height="129.1406" id="Milk" rx="2.5" ry="2.5" style="stroke:#181818;stroke-width:0.5;" width="232.9854" x="7" y="171.5"/><ellipse cx="88.2251" cy="192.8516" fill="#ADD1B2" rx="11" ry="11" style="stroke:#181818;stroke-width:1;"/><path d="M90.9907,188.7266 Q91.147,188.5078 91.3345,188.3984 Q91.522,188.2891 91.7407,188.2891 Q92.1157,188.2891 92.3501,188.5547 Q92.5845,188.8047 92.5845,189.4141 L92.5845,190.8672 Q92.5845,191.4766 92.3501,191.7422 Q92.1157,192.0078 91.7407,192.0078 Q91.397,192.0078 91.1938,191.8047 Q90.9907,191.6172 90.8813,191.1016 Q90.8345,190.7422 90.647,190.5547 Q90.3188,190.1797 89.7095,189.9609 Q89.1001,189.7422 88.4751,189.7422 Q87.7095,189.7422 87.0688,190.0703 Q86.4438,190.3984 85.9438,191.1484 Q85.4595,191.8984 85.4595,192.9297 L85.4595,194.0234 Q85.4595,195.2578 86.3501,196.0859 Q87.2407,196.8984 88.8345,196.8984 Q89.772,196.8984 90.4282,196.6484 Q90.8188,196.4922 91.2407,196.0547 Q91.5063,195.7891 91.647,195.7109 Q91.8032,195.6328 92.0063,195.6328 Q92.3345,195.6328 92.5845,195.8984 Q92.8501,196.1484 92.8501,196.4922 Q92.8501,196.8359 92.5063,197.2422 Q92.0063,197.8203 91.2095,198.1484 Q90.1313,198.6016 88.8345,198.6016 Q87.3188,198.6016 86.1157,197.9766 Q85.1313,197.4766 84.4438,196.4141 Q83.7563,195.3359 83.7563,194.0547 L83.7563,192.8984 Q83.7563,191.5703 84.3657,190.4297 Q84.9907,189.2734 86.0845,188.6641 Q87.1782,188.0391 88.4126,188.0391 Q89.147,188.0391 89.7876,188.2109 Q90.4438,188.3672 90.9907,188.7266 Z " fill="#000000"/><text fill="#000000" font-family="sans-serif" font-size="12" font-style="italic" lengthAdjust="spacing" textLength="66.0352" x="106.7251" y="188.957">&#171;Decorator&#187;</text><text fill="#000000" font-family="sans-serif" font-size="14" lengthAdjust="spacing" textLength="24.8828" x="127.3013" y="206.127">Milk</text><line style="stroke:#181818;stroke-width:0.5;" x1="8" x2="238.9854" y1="214.2031" y2="214.2031"/><rect fill="transparent" height="6" style="stroke:#C82930;stroke-width:1;" width="6" x="15" y="225.5078"/><text fill="#000000" font-family="sans-serif" font-size="14" lengthAdjust="spacing" textLength="129.9785" x="27" y="232.7363">beverage : Beverage</text><line style="stroke:#181818;stroke-width:0.5;" x1="8" x2="238.9854" y1="239.8125" y2="239.8125"/><ellipse cx="18" cy="254.1172" fill="#84BE84" rx="3" ry="3" style="stroke:#038048;stroke-width:1;"/><text fill="#000000" font-family="sans-serif" font-size="14" lengthAdjust="spacing" textLength="206.9854" x="27" y="258.3457">&lt;init&gt;(umlparser.Beverage) : void</text><ellipse cx="18" cy="271.7266" fill="#84BE84" rx="3" ry="3" style="stroke:#038048;stroke-width:1;"/><text fill="#000000" font-family="sans-serif" font-size="14" lengthAdjust="spacing" textLength="206.9854" x="27" y="275.9551">getDescription() : java.lang.String</text><ellipse cx="18" cy="289.3359" fill="#84BE84" rx="3" ry="3" style="stroke:#038048;stroke-width:1;"/><text fill="#000000" font-family="sans-serif" font-size="14" lengthAdjust="spacing" textLength="88.71" x="27" y="293.5645">cost() : double</text></g><!--class Mocha--><g id="elem_Mocha"><rect codeLine="58" fill="#FA8072" height="129.1406" id="Mocha" rx="2.5" ry="2.5" style="stroke:#181818;stroke-width:0.5;" width="232.9854" x="405" y="171.5"/><ellipse cx="486.2251" cy="192.8516" fill="#ADD1B2" rx="11" ry="11" style="stroke:#181818;stroke-width:1;"/><path d="M488.9907,188.7266 Q489.147,188.5078 489.3345,188.3984 Q489.522,188.2891 489.7407,188.2891 Q490.1157,188.2891 490.3501,188.5547 Q490.5845,188.8047 490.5845,189.4141 L490.5845,190.8672 Q490.5845,191.4766 490.3501,191.7422 Q490.1157,192.0078 489.7407,192.0078 Q489.397,192.0078 489.1938,191.8047 Q488.9907,191.6172 488.8813,191.1016 Q488.8345,190.7422 488.647,190.5547 Q488.3188,190.1797 487.7095,189.9609 Q487.1001,189.7422 486.4751,189.7422 Q485.7095,189.7422 485.0688,190.0703 Q484.4438,190.3984 483.9438,191.1484 Q483.4595,191.8984 483.4595,192.9297 L483.4595,194.0234 Q483.4595,195.2578 484.3501,196.0859 Q485.2407,196.8984 486.8345,196.8984 Q487.772,196.8984 488.4282,196.6484 Q488.8188,196.4922 489.2407,196.0547 Q489.5063,195.7891 489.647,195.7109 Q489.8032,195.6328 490.0063,195.6328 Q490.3345,195.6328 490.5845,195.8984 Q490.8501,196.1484 490.8501,196.4922 Q490.8501,196.8359 490.5063,197.2422 Q490.0063,197.8203 489.2095,198.1484 Q488.1313,198.6016 486.8345,198.6016 Q485.3188,198.6016 484.1157,197.9766 Q483.1313,197.4766 482.4438,196.4141 Q481.7563,195.3359 481.7563,194.0547 L481.7563,192.8984 Q481.7563,191.5703 482.3657,190.4297 Q482.9907,189.2734 484.0845,188.6641 Q485.1782,188.0391 486.4126,188.0391 Q487.147,188.0391 487.7876,188.2109 Q488.4438,188.3672 488.9907,188.7266 Z " fill="#000000"/><text fill="#000000" font-family="sans-serif" font-size="12" font-style="italic" lengthAdjust="spacing" textLength="66.0352" x="504.7251" y="188.957">&#171;Decorator&#187;</text><text fill="#000000" font-family="sans-serif" font-size="14" lengthAdjust="spacing" textLength="42.0205" x="516.7324" y="206.127">Mocha</text><line style="stroke:#181818;stroke-width:0.5;" x1="406" x2="636.9854" y1="214.2031" y2="214.2031"/><rect fill="transparent" height="6" style="stroke:#C82930;stroke-width:1;" width="6" x="413" y="225.5078"/><text fill="#000000" font-family="sans-serif" font-size="14" lengthAdjust="spacing" textLength="129.9785" x="425" y="232.7363">beverage : Beverage</text><line style="stroke:#181818;stroke-width:0.5;" x1="406" x2="636.9854" y1="239.8125" y2="239.8125"/><ellipse cx="416" cy="254.1172" fill="#84BE84" rx="3" ry="3" style="stroke:#038048;stroke-width:1;"/><text fill="#000000" font-family="sans-serif" font-size="14" lengthAdjust="spacing" textLength="206.9854" x="425" y="258.3457">&lt;init&gt;(umlparser.Beverage) : void</text><ellipse cx="416" cy="271.7266" fill="#84BE84" rx="3" ry="3" style="stroke:#038048;stroke-width:1;"/><text fill="#000000" font-family="sans-serif" font-size="14" lengthAdjust="spacing" textLength="206.9854" x="425" y="275.9551">getDescription() : java.lang.String</text><ellipse cx="416" cy="289.3359" fill="#84BE84" rx="3" ry="3" style="stroke:#038048;stroke-width:1;"/><text fill="#000000" font-family="sans-serif" font-size="14" lengthAdjust="spacing" textLength="88.71" x="425" y="293.5645">cost() : double</text></g><!--class Order--><g id="elem_Order"><rect codeLine="65" fill="#F1F1F1" height="171.2656" id="Order" rx="2.5" ry="2.5" style="stroke:#181818;stroke-width:0.5;" width="255.5508" x="882.5" y="361.5"/><ellipse cx="988.1323" cy="377.5" fill="#ADD1B2" rx="11" ry="11" style="stroke:#181818;stroke-width:1;"/><path d="M990.8979,373.375 Q991.0542,373.1563 991.2417,373.0469 Q991.4292,372.9375 991.6479,372.9375 Q992.0229,372.9375 992.2573,373.2031 Q992.4917,373.4531 992.4917,374.0625 L992.4917,375.5156 Q992.4917,376.125 992.2573,376.3906 Q992.0229,376.6563 991.6479,376.6563 Q991.3042,376.6563 991.1011,376.4531 Q990.8979,376.2656 990.7886,375.75 Q990.7417,375.3906 990.5542,375.2031 Q990.2261,374.8281 989.6167,374.6094 Q989.0073,374.3906 988.3823,374.3906 Q987.6167,374.3906 986.9761,374.7188 Q986.3511,375.0469 985.8511,375.7969 Q985.3667,376.5469 985.3667,377.5781 L985.3667,378.6719 Q985.3667,379.9063 986.2573,380.7344 Q987.1479,381.5469 988.7417,381.5469 Q989.6792,381.5469 990.3354,381.2969 Q990.7261,381.1406 991.1479,380.7031 Q991.4136,380.4375 991.5542,380.3594 Q991.7104,380.2813 991.9136,380.2813 Q992.2417,380.2813 992.4917,380.5469 Q992.7573,380.7969 992.7573,381.1406 Q992.7573,381.4844 992.4136,381.8906 Q991.9136,382.4688 991.1167,382.7969 Q990.0386,383.25 988.7417,383.25 Q987.2261,383.25 986.0229,382.625 Q985.0386,382.125 984.3511,381.0625 Q983.6636,379.9844 983.6636,378.7031 L983.6636,377.5469 Q983.6636,376.2188 984.2729,375.0781 Q984.8979,373.9219 985.9917,373.3125 Q987.0854,372.6875 988.3198,372.6875 Q989.0542,372.6875 989.6948,372.8594 Q990.3511,373.0156 990.8979,373.375 Z " fill="#000000"/><text fill="#000000" font-family="sans-serif" font-size="14" lengthAdjust="spacing" textLength="35.7861" x="1008.6323" y="383.2285">Order</text><line style="stroke:#181818;stroke-width:0.5;" x1="883.5" x2="1137.0508" y1="393.5" y2="393.5"/><rect fill="transparent" height="6" style="stroke:#C82930;stroke-width:1;" width="6" x="890.5" y="404.8047"/><text fill="#000000" font-family="sans-serif" font-size="14" lengthAdjust="spacing" textLength="70.8135" x="902.5" y="412.0332">orderId : int</text><rect fill="transparent" height="6" style="stroke:#C82930;stroke-width:1;" width="6" x="890.5" y="422.4141"/><text fill="#000000" font-family="sans-serif" font-size="14" lengthAdjust="spacing" textLength="129.9785" x="902.5" y="429.6426">beverage : Beverage</text><line style="stroke:#181818;stroke-width:0.5;" x1="883.5" x2="1137.0508" y1="436.7188" y2="436.7188"/><ellipse cx="893.5" cy="451.0234" fill="#84BE84" rx="3" ry="3" style="stroke:#038048;stroke-width:1;"/><text fill="#000000" font-family="sans-serif" font-size="14" lengthAdjust="spacing" textLength="229.5508" x="902.5" y="455.252">&lt;init&gt;(int, umlparser.Beverage) : void</text><ellipse cx="893.5" cy="468.6328" fill="#84BE84" rx="3" ry="3" style="stroke:#038048;stroke-width:1;"/><text fill="#000000" font-family="sans-serif" font-size="14" lengthAdjust="spacing" textLength="102.7031" x="902.5" y="472.8613">getOrderId() : int</text><ellipse cx="893.5" cy="486.2422" fill="#84BE84" rx="3" ry="3" style="stroke:#038048;stroke-width:1;"/><text fill="#000000" font-family="sans-serif" font-size="14" lengthAdjust="spacing" textLength="226.4473" x="902.5" y="490.4707">getBeverage() : umlparser.Beverage</text><ellipse cx="893.5" cy="503.8516" fill="#84BE84" rx="3" ry="3" style="stroke:#038048;stroke-width:1;"/><text fill="#000000" font-family="sans-serif" font-size="14" lengthAdjust="spacing" textLength="111.2822" x="902.5" y="508.0801">getCost() : double</text><ellipse cx="893.5" cy="521.4609" fill="#84BE84" rx="3" ry="3" style="stroke:#038048;stroke-width:1;"/><text fill="#000000" font-family="sans-serif" font-size="14" lengthAdjust="spacing" textLength="206.9854" x="902.5" y="525.6895">getDescription() : java.lang.String</text></g><!--class OrderManager--><g id="elem_OrderManager"><rect codeLine="75" fill="#F1F1F1" height="118.4375" id="OrderManager" rx="2.5" ry="2.5" style="stroke:#181818;stroke-width:0.5;" width="233.7373" x="941.5" y="177"/><ellipse cx="1008.5981" cy="193" fill="#ADD1B2" rx="11" ry="11" style="stroke:#181818;stroke-width:1;"/><path d="M1011.3638,188.875 Q1011.52,188.6563 1011.7075,188.5469 Q1011.895,188.4375 1012.1138,188.4375 Q1012.4888,188.4375 1012.7231,188.7031 Q1012.9575,188.9531 1012.9575,189.5625 L1012.9575,191.0156 Q1012.9575,191.625 1012.7231,191.8906 Q1012.4888,192.1563 1012.1138,192.1563 Q1011.77,192.1563 1011.5669,191.9531 Q1011.3638,191.7656 1011.2544,191.25 Q1011.2075,190.8906 1011.02,190.7031 Q1010.6919,190.3281 1010.0825,190.1094 Q1009.4731,189.8906 1008.8481,189.8906 Q1008.0825,189.8906 1007.4419,190.2188 Q1006.8169,190.5469 1006.3169,191.2969 Q1005.8325,192.0469 1005.8325,193.0781 L1005.8325,194.1719 Q1005.8325,195.4063 1006.7231,196.2344 Q1007.6138,197.0469 1009.2075,197.0469 Q1010.145,197.0469 1010.8013,196.7969 Q1011.1919,196.6406 1011.6138,196.2031 Q1011.8794,195.9375 1012.02,195.8594 Q1012.1763,195.7813 1012.3794,195.7813 Q1012.7075,195.7813 1012.9575,196.0469 Q1013.2231,196.2969 1013.2231,196.6406 Q1013.2231,196.9844 1012.8794,197.3906 Q1012.3794,197.9688 1011.5825,198.2969 Q1010.5044,198.75 1009.2075,198.75 Q1007.6919,198.75 1006.4888,198.125 Q1005.5044,197.625 1004.8169,196.5625 Q1004.1294,195.4844 1004.1294,194.2031 L1004.1294,193.0469 Q1004.1294,191.7188 1004.7388,190.5781 Q1005.3638,189.4219 1006.4575,188.8125 Q1007.5513,188.1875 1008.7856,188.1875 Q1009.52,188.1875 1010.1606,188.3594 Q1010.8169,188.5156 1011.3638,188.875 Z " fill="#000000"/><text fill="#000000" font-family="sans-serif" font-size="14" lengthAdjust="spacing" textLength="91.041" x="1029.0981" y="198.7285">OrderManager</text><line style="stroke:#181818;stroke-width:0.5;" x1="942.5" x2="1174.2373" y1="209" y2="209"/><rect fill="transparent" height="6" style="stroke:#C82930;stroke-width:1;" width="6" x="949.5" y="220.3047"/><text fill="#000000" font-family="sans-serif" font-size="14" lengthAdjust="spacing" textLength="95.3135" x="961.5" y="227.5332">orders : Order&gt;</text><line style="stroke:#181818;stroke-width:0.5;" x1="942.5" x2="1174.2373" y1="234.6094" y2="234.6094"/><ellipse cx="952.5" cy="248.9141" fill="#84BE84" rx="3" ry="3" style="stroke:#038048;stroke-width:1;"/><text fill="#000000" font-family="sans-serif" font-size="14" lengthAdjust="spacing" textLength="80.9238" x="961.5" y="253.1426">&lt;init&gt;() : void</text><ellipse cx="952.5" cy="266.5234" fill="#84BE84" rx="3" ry="3" style="stroke:#038048;stroke-width:1;"/><text fill="#000000" font-family="sans-serif" font-size="14" lengthAdjust="spacing" textLength="207.7373" x="961.5" y="270.752">addOrder(umlparser.Order) : void</text><ellipse cx="952.5" cy="284.1328" fill="#84BE84" rx="3" ry="3" style="stroke:#038048;stroke-width:1;"/><text fill="#000000" font-family="sans-serif" font-size="14" lengthAdjust="spacing" textLength="138.4824" x="961.5" y="288.3613">processOrders() : void</text></g><!--class Soy--><g id="elem_Soy"><rect codeLine="84" fill="#FA8072" height="129.1406" id="Soy" rx="2.5" ry="2.5" style="stroke:#181818;stroke-width:0.5;" width="232.9854" x="673" y="171.5"/><ellipse cx="754.2251" cy="192.8516" fill="#ADD1B2" rx="11" ry="11" style="stroke:#181818;stroke-width:1;"/><path d="M756.9907,188.7266 Q757.147,188.5078 757.3345,188.3984 Q757.522,188.2891 757.7407,188.2891 Q758.1157,188.2891 758.3501,188.5547 Q758.5845,188.8047 758.5845,189.4141 L758.5845,190.8672 Q758.5845,191.4766 758.3501,191.7422 Q758.1157,192.0078 757.7407,192.0078 Q757.397,192.0078 757.1938,191.8047 Q756.9907,191.6172 756.8813,191.1016 Q756.8345,190.7422 756.647,190.5547 Q756.3188,190.1797 755.7095,189.9609 Q755.1001,189.7422 754.4751,189.7422 Q753.7095,189.7422 753.0688,190.0703 Q752.4438,190.3984 751.9438,191.1484 Q751.4595,191.8984 751.4595,192.9297 L751.4595,194.0234 Q751.4595,195.2578 752.3501,196.0859 Q753.2407,196.8984 754.8345,196.8984 Q755.772,196.8984 756.4282,196.6484 Q756.8188,196.4922 757.2407,196.0547 Q757.5063,195.7891 757.647,195.7109 Q757.8032,195.6328 758.0063,195.6328 Q758.3345,195.6328 758.5845,195.8984 Q758.8501,196.1484 758.8501,196.4922 Q758.8501,196.8359 758.5063,197.2422 Q758.0063,197.8203 757.2095,198.1484 Q756.1313,198.6016 754.8345,198.6016 Q753.3188,198.6016 752.1157,197.9766 Q751.1313,197.4766 750.4438,196.4141 Q749.7563,195.3359 749.7563,194.0547 L749.7563,192.8984 Q749.7563,191.5703 750.3657,190.4297 Q750.9907,189.2734 752.0845,188.6641 Q753.1782,188.0391 754.4126,188.0391 Q755.147,188.0391 755.7876,188.2109 Q756.4438,188.3672 756.9907,188.7266 Z " fill="#000000"/><text fill="#000000" font-family="sans-serif" font-size="12" font-style="italic" lengthAdjust="spacing" textLength="66.0352" x="772.7251" y="188.957">&#171;Decorator&#187;</text><text fill="#000000" font-family="sans-serif" font-size="14" lengthAdjust="spacing" textLength="24.124" x="793.6807" y="206.127">Soy</text><line style="stroke:#181818;stroke-width:0.5;" x1="674" x2="904.9854" y1="214.2031" y2="214.2031"/><rect fill="transparent" height="6" style="stroke:#C82930;stroke-width:1;" width="6" x="681" y="225.5078"/><text fill="#000000" font-family="sans-serif" font-size="14" lengthAdjust="spacing" textLength="129.9785" x="693" y="232.7363">beverage : Beverage</text><line style="stroke:#181818;stroke-width:0.5;" x1="674" x2="904.9854" y1="239.8125" y2="239.8125"/><ellipse cx="684" cy="254.1172" fill="#84BE84" rx="3" ry="3" style="stroke:#038048;stroke-width:1;"/><text fill="#000000" font-family="sans-serif" font-size="14" lengthAdjust="spacing" textLength="206.9854" x="693" y="258.3457">&lt;init&gt;(umlparser.Beverage) : void</text><ellipse cx="684" cy="271.7266" fill="#84BE84" rx="3" ry="3" style="stroke:#038048;stroke-width:1;"/><text fill="#000000" font-family="sans-serif" font-size="14" lengthAdjust="spacing" textLength="206.9854" x="693" y="275.9551">getDescription() : java.lang.String</text><ellipse cx="684" cy="289.3359" fill="#84BE84" rx="3" ry="3" style="stroke:#038048;stroke-width:1;"/><text fill="#000000" font-family="sans-serif" font-size="14" lengthAdjust="spacing" textLength="88.71" x="693" y="293.5645">cost() : double</text></g><!--link CondimentDecoratorLabel to CondimentDecorator--><g id="link_CondimentDecoratorLabel_CondimentDecorator"><path codeLine="17" d="M461.51,62.04 C456.43,70.72 447.99,83.89 438.5,93.5 C396.37,136.13 356.02,118.26 328.5,171.5 C302.18,222.43 302.8,249.25 328.5,300.5 C341.78,326.98 394.0047,364.8472 443.0647,396.6372 " fill="transparent" id="CondimentDecoratorLabel-to-CondimentDecorator" style="stroke:#FF0000;stroke-width:1;"/><polygon fill="#FF0000" points="448.1,399.9,442.7222,391.649,443.9039,397.181,438.3719,398.3627,448.1,399.9" style="stroke:#FF0000;stroke-width:1;"/><text fill="#000000" font-family="sans-serif" font-size="13" lengthAdjust="spacing" textLength="57.0781" x="329.5" y="241.4951">Decorator</text></g><!--link LoggerLabel to Logger--><g id="link_LoggerLabel_Logger"><path codeLine="39" d="M635.13,62.07 C639.45,71.57 647.59,86.11 659.5,93.5 C761.4,156.74 1078.81,136.44 1193.5,171.5 C1199.22,173.25 1199.357,173.1439 1205.137,175.2639 " fill="transparent" id="LoggerLabel-to-Logger" style="stroke:#0000FF;stroke-width:1;"/><polygon fill="#0000FF" points="1210.77,177.33,1203.6978,170.4755,1206.0758,175.6082,1200.943,177.9862,1210.77,177.33" style="stroke:#0000FF;stroke-width:1;"/><text fill="#000000" font-family="sans-serif" font-size="13" lengthAdjust="spacing" textLength="54.209" x="896.5" y="137.9951">Singleton</text></g><!--link MilkLabel to Milk--><g id="link_MilkLabel_Milk"><path codeLine="48" d="M401.45,55.07 C372.23,61.43 285.51,82.79 225.5,123.5 C206.18,136.61 191.9811,149.6268 176.4411,166.8368 " fill="transparent" id="MilkLabel-to-Milk" style="stroke:#FF0000;stroke-width:1;"/><polygon fill="#FF0000" points="172.42,171.29,181.4204,167.2909,175.7709,167.579,175.4828,161.9295,172.42,171.29" style="stroke:#FF0000;stroke-width:1;"/><text fill="#000000" font-family="sans-serif" font-size="13" lengthAdjust="spacing" textLength="57.0781" x="226.5" y="137.9951">Decorator</text></g><!--link MochaLabel to Mocha--><g id="link_MochaLabel_Mocha"><path codeLine="57" d="M521.5,62.28 C521.5,82.27 521.5,124.9 521.5,165.48 " fill="transparent" id="MochaLabel-to-Mocha" style="stroke:#FF0000;stroke-width:1;"/><polygon fill="#FF0000" points="521.5,171.48,525.5,162.48,521.5,166.48,517.5,162.48,521.5,171.48" style="stroke:#FF0000;stroke-width:1;"/><text fill="#000000" font-family="sans-serif" font-size="13" lengthAdjust="spacing" textLength="57.0781" x="522.5" y="137.9951">Decorator</text></g><!--link SoyLabel to Soy--><g id="link_SoyLabel_Soy"><path codeLine="83" d="M581.51,62.31 C586.42,70.95 594.47,83.89 603.5,93.5 C630.03,121.74 657.8288,145.0284 688.3088,167.6084 " fill="transparent" id="SoyLabel-to-Soy" style="stroke:#FF0000;stroke-width:1;"/><polygon fill="#FF0000" points="693.13,171.18,688.2793,162.6085,689.1124,168.2037,683.5172,169.0367,693.13,171.18" style="stroke:#FF0000;stroke-width:1;"/><text fill="#000000" font-family="sans-serif" font-size="13" lengthAdjust="spacing" textLength="57.0781" x="656.5" y="137.9951">Decorator</text></g><!--link CondimentDecorator to Beverage--><g id="link_CondimentDecorator_Beverage"><path codeLine="91" d="M523.5,494.18 C523.5,523.61 523.5,544 523.5,575.48 " fill="transparent" id="CondimentDecorator-to-Beverage" style="stroke:#181818;stroke-width:1;"/><polygon fill="transparent" points="523.5,593.48,529.5,575.48,517.5,575.48,523.5,593.48" style="stroke:#181818;stroke-width:1;"/></g><!--link Espresso to Beverage--><g id="link_Espresso_Beverage"><path codeLine="92" d="M194.15,488.58 C206.82,503.84 222.59,520.4 239.5,532.5 C289.94,568.57 336.0678,590.2273 389.9378,609.8573 " fill="transparent" id="Espresso-to-Beverage" style="stroke:#181818;stroke-width:1;"/><polygon fill="transparent" points="406.85,616.02,391.9921,604.2199,387.8836,615.4947,406.85,616.02" style="stroke:#181818;stroke-width:1;"/></g><!--link HouseBlend to Beverage--><g id="link_HouseBlend_Beverage"><path codeLine="93" d="M349.03,488.87 C361.44,503.02 375.77,518.77 389.5,532.5 C410.07,553.07 419.9905,562.5835 441.4305,581.4935 " fill="transparent" id="HouseBlend-to-Beverage" style="stroke:#181818;stroke-width:1;"/><polygon fill="transparent" points="454.93,593.4,445.3994,576.9937,437.4617,585.9933,454.93,593.4" style="stroke:#181818;stroke-width:1;"/></g><!--link Logger to Logger--><g id="link_Logger_Logger"><path codeLine="94" d="M1440.21,219.41 C1460.69,221.57 1475,227.1 1475,236 C1475,244.9 1466.6569,249.8007 1446.1769,251.9607 " fill="transparent" id="Logger-to-Logger" style="stroke:#181818;stroke-width:1;"/><polygon fill="#181818" points="1440.21,252.59,1449.5799,255.624,1445.1824,252.0656,1448.7408,247.6681,1440.21,252.59" style="stroke:#181818;stroke-width:1;"/><text fill="#000000" font-family="sans-serif" font-size="13" lengthAdjust="spacing" textLength="7.23" x="1448.1565" y="250.6693">1</text></g><!--link Milk to CondimentDecorator--><g id="link_Milk_CondimentDecorator"><path codeLine="95" d="M222.81,300.52 C242.77,311.78 263.94,322.7 284.5,331.5 C329.12,350.6 345.19,341.69 389.5,361.5 C413.1,372.05 422.3036,376.5088 443.6536,390.2488 " fill="transparent" id="Milk-to-CondimentDecorator" style="stroke:#181818;stroke-width:1;"/><polygon fill="transparent" points="458.79,399.99,446.9007,385.2034,440.4066,395.2943,458.79,399.99" style="stroke:#181818;stroke-width:1;"/></g><!--link Milk to Beverage--><g id="link_Milk_Beverage"><path codeLine="96" d="M92.47,300.66 C65.77,365.63 38.84,466.08 89.5,532.5 C127.94,582.9 286.0652,616.263 401.0552,634.643 " fill="transparent" id="Milk-to-Beverage" style="stroke:#181818;stroke-width:1;"/><polygon fill="#181818" points="406.98,635.59,398.7242,630.2196,402.0427,634.8008,397.4615,638.1193,406.98,635.59" style="stroke:#181818;stroke-width:1;"/><text fill="#000000" font-family="sans-serif" font-size="13" lengthAdjust="spacing" textLength="7.23" x="391.9244" y="631.4086">1</text></g><!--link Mocha to CondimentDecorator--><g id="link_Mocha_CondimentDecorator"><path codeLine="97" d="M522.11,300.56 C522.42,332.62 522.6073,352.8008 522.8873,381.9908 " fill="transparent" id="Mocha-to-CondimentDecorator" style="stroke:#181818;stroke-width:1;"/><polygon fill="transparent" points="523.06,399.99,528.8871,381.9333,516.8876,382.0484,523.06,399.99" style="stroke:#181818;stroke-width:1;"/></g><!--link Mocha to Beverage--><g id="link_Mocha_Beverage"><path codeLine="98" d="M612.72,300.73 C630.88,318.16 647.44,338.65 657.5,361.5 C688.13,431.06 688.65,463.18 657.5,532.5 C647.11,555.63 634.1859,572.0499 615.3559,589.1999 " fill="transparent" id="Mocha-to-Beverage" style="stroke:#181818;stroke-width:1;"/><polygon fill="#181818" points="610.92,593.24,620.2673,590.1371,614.6166,589.8732,614.8804,584.2225,610.92,593.24" style="stroke:#181818;stroke-width:1;"/><text fill="#000000" font-family="sans-serif" font-size="13" lengthAdjust="spacing" textLength="7.23" x="614.1627" y="582.5326">1</text></g><!--link Order to Beverage--><g id="link_Order_Beverage"><path codeLine="99" d="M882.42,526.39 C858.02,539.74 832.33,552.74 807.5,563.5 C753.98,586.69 698.1371,604.8947 646.0171,619.8547 " fill="transparent" id="Order-to-Beverage" style="stroke:#181818;stroke-width:1;"/><polygon fill="#181818" points="640.25,621.51,650.0043,622.8717,645.0559,620.1305,647.7971,615.1822,640.25,621.51" style="stroke:#181818;stroke-width:1;"/><text fill="#000000" font-family="sans-serif" font-size="13" lengthAdjust="spacing" textLength="7.23" x="647.9614" y="616.5046">1</text></g><!--link OrderManager to Order--><g id="link_OrderManager_Order"><path codeLine="100" d="M1045.13,295.22 C1040.44,315.63 1036.4243,333.1525 1031.3343,355.2925 " fill="transparent" id="OrderManager-to-Order" style="stroke:#181818;stroke-width:1;"/><polygon fill="#181818" points="1029.99,361.14,1035.9048,353.265,1031.1103,356.2671,1028.1082,351.4726,1029.99,361.14" style="stroke:#181818;stroke-width:1;"/><text fill="#000000" font-family="sans-serif" font-size="13" lengthAdjust="spacing" textLength="5.0591" x="1026.4719" y="350.5727">*</text></g><!--link Soy to CondimentDecorator--><g id="link_Soy_CondimentDecorator"><path codeLine="101" d="M708.61,300.56 C667.8,332.62 633.3636,359.679 596.2136,388.869 " fill="transparent" id="Soy-to-CondimentDecorator" style="stroke:#181818;stroke-width:1;"/><polygon fill="transparent" points="582.06,399.99,599.9206,393.5869,592.5066,384.1512,582.06,399.99" style="stroke:#181818;stroke-width:1;"/></g><!--link Soy to Beverage--><g id="link_Soy_Beverage"><path codeLine="102" d="M778.09,300.77 C764.95,363.12 739.33,459.13 695.5,532.5 C681.25,556.35 664.9904,573.0109 642.4204,589.6409 " fill="transparent" id="Soy-to-Beverage" style="stroke:#181818;stroke-width:1;"/><polygon fill="#181818" points="637.59,593.2,647.2083,591.0816,641.6153,590.2341,642.4628,584.6411,637.59,593.2" style="stroke:#181818;stroke-width:1;"/><text fill="#000000" font-family="sans-serif" font-size="13" lengthAdjust="spacing" textLength="7.23" x="644.0831" y="582.4877">1</text></g><!--SRC=[pLN9Rjim4BthAmZbuZQLWQAt810GEmMQmeOFJaz13YEIa5bJf43IRekq_rukagmrSLiK27pIcpVBuom6pkMtWdrd8e_qdeaI51G8Sz0QFKKBmFjSoOCWIycbkhw-fLWgC5AbATe2BwGOShOs5gT62ijPiNnd5ln0dw6Xc-oWQPSi5Q5gahXH8FAQTRzZU2-ercFC3z6l239j56235lH85UJK2aFe0X6giMAbOPP_XRP6kJT0w19TCy5CEdjZqQDan6CvDRSdlhTzXIFCkQratlB5KXjl9VAGSMhJHnmoob5iVw3HeU3sYJLLywKKX1LKcEPDLuuOlSX0oSE5ekGnIT6GOJF7pKTyqZx2x7RpwP-aMvbXPZxgKjbUo6VYZJnHyFqaRTCMd0hoDzwVbr_kRygICmo-fTCX2c1YrfVmyDXmfdksadbE1trgeQutcPrWrvm0kuOqSnbNjLQcxgwuWXF4X3OWCBL-WUNHYRxSLMHlw1VaILpc0wbd25qplk_BRB3M03giDt91eJSC9on1MRs4Lyq-jXjrIbTR__CQhYNUmK1g0xQrEd1ShBUyAhMXi8qxa5Kf_bZU4SjYmfnJdAMzGozNk0bnVVuGsSCrlJUQdKIMjkoL_iS7nwTVWu2ygrHRBszB9-y04E8PhJRuxmwfL1BRW-ODUdR6wcpbZ_uurL1hc2mqEaeEVrM3DFB7aIG_qwQ8vk1tqDOfx-3LuKli2yJlu_h2-MFXUCDajItmcpXXuwPSAcFF9op3E5mFaBU-ZSFaHAuP4pc2gHlgDm00]--></g></svg>