<svg xmlns="http://www.w3.org/2000/svg" xmlns:xlink="http://www.w3.org/1999/xlink" contentStyleType="text/css" data-diagram-type="CLASS" height="732px" preserveAspectRatio="none" style="width:1538px;height:732px;background:#FFFFFF;" version="1.1" viewBox="0 0 1538 732" width="1538px" zoomAndPan="magnify"><defs/><g><!--class Beverage--><g id="elem_Beverage"><rect codeLine="13" fill="#F1F1F1" height="118.4375" id="Beverage" rx="2.5" ry="2.5" style="stroke:#181818;stroke-width:0.5;" width="173.0547" x="588" y="607"/><ellipse cx="640.312" cy="623" fill="#A9DCDF" rx="11" ry="11" style="stroke:#181818;stroke-width:1;"/><path d="M642.4995,624.7656 L638.3589,624.7656 L637.937,625.7969 L638.3589,625.7969 Q638.9683,625.7969 639.2339,626.0313 Q639.4995,626.2656 639.4995,626.6563 Q639.4995,627.0313 639.2339,627.2656 Q638.9683,627.5 638.3589,627.5 L636.062,627.5 Q635.4526,627.5 635.2026,627.2656 Q634.937,627.0313 634.937,626.6406 Q634.937,626.2656 635.2183,626.0313 Q635.4839,625.7813 636.1089,625.7969 L638.7808,619.1406 L637.6714,619.1406 Q637.062,619.1406 636.7964,618.9063 Q636.5308,618.6719 636.5308,618.2813 Q636.5308,617.9063 636.7964,617.6719 Q637.062,617.4375 637.6714,617.4375 L641.3433,617.4375 L644.7339,625.7969 Q645.3276,625.7969 645.5151,625.9375 Q645.9058,626.2031 645.9058,626.6563 Q645.9058,627.0313 645.6401,627.2656 Q645.3901,627.5 644.7808,627.5 L642.4839,627.5 Q641.8745,627.5 641.6089,627.2656 Q641.3433,627.0313 641.3433,626.6406 Q641.3433,626.2656 641.6089,626.0313 Q641.8745,625.7969 642.4839,625.7969 L642.9058,625.7969 L642.4995,624.7656 Z M641.7808,623.0625 L640.4214,619.6875 L639.0464,623.0625 L641.7808,623.0625 Z " fill="#000000"/><text fill="#000000" font-family="sans-serif" font-size="14" font-style="italic" lengthAdjust="spacing" textLength="59.9307" x="660.812" y="628.7285">Beverage</text><line style="stroke:#181818;stroke-width:0.5;" x1="589" x2="760.0547" y1="639" y2="639"/><polygon fill="transparent" points="599,648.3047,603,652.3047,599,656.3047,595,652.3047" style="stroke:#B38D22;stroke-width:1;"/><text fill="#000000" font-family="sans-serif" font-size="14" lengthAdjust="spacing" textLength="115.9443" x="608" y="657.5332">description : String</text><line style="stroke:#181818;stroke-width:0.5;" x1="589" x2="760.0547" y1="664.6094" y2="664.6094"/><ellipse cx="599" cy="678.9141" fill="#84BE84" rx="3" ry="3" style="stroke:#038048;stroke-width:1;"/><text fill="#000000" font-family="sans-serif" font-size="14" lengthAdjust="spacing" textLength="80.9238" x="608" y="683.1426">&lt;init&gt;() : void</text><ellipse cx="599" cy="696.5234" fill="#84BE84" rx="3" ry="3" style="stroke:#038048;stroke-width:1;"/><text fill="#000000" font-family="sans-serif" font-size="14" lengthAdjust="spacing" textLength="147.0547" x="608" y="700.752">getDescription() : String</text><ellipse cx="599" cy="714.1328" fill="#84BE84" rx="3" ry="3" style="stroke:#038048;stroke-width:1;"/><text fill="#000000" font-family="sans-serif" font-size="14" lengthAdjust="spacing" textLength="88.71" x="608" y="718.3613">cost() : double</text></g><!--entity CondimentDecoratorLabel--><!--class CondimentDecorator--><g id="elem_CondimentDecorator"><rect codeLine="22" fill="#ADD8E6" height="93.9219" id="CondimentDecorator" rx="2.5" ry="2.5" style="stroke:#0000FF;stroke-width:1;" width="173.0547" x="448" y="413.5"/><ellipse cx="468.3473" cy="434.8516" fill="#A9DCDF" rx="11" ry="11" style="stroke:#181818;stroke-width:1;"/><path d="M470.5348,436.6172 L466.3941,436.6172 L465.9723,437.6484 L466.3941,437.6484 Q467.0035,437.6484 467.2691,437.8828 Q467.5348,438.1172 467.5348,438.5078 Q467.5348,438.8828 467.2691,439.1172 Q467.0035,439.3516 466.3941,439.3516 L464.0973,439.3516 Q463.4879,439.3516 463.2379,439.1172 Q462.9723,438.8828 462.9723,438.4922 Q462.9723,438.1172 463.2535,437.8828 Q463.5191,437.6328 464.1441,437.6484 L466.816,430.9922 L465.7066,430.9922 Q465.0973,430.9922 464.8316,430.7578 Q464.566,430.5234 464.566,430.1328 Q464.566,429.7578 464.8316,429.5234 Q465.0973,429.2891 465.7066,429.2891 L469.3785,429.2891 L472.7691,437.6484 Q473.3629,437.6484 473.5504,437.7891 Q473.941,438.0547 473.941,438.5078 Q473.941,438.8828 473.6754,439.1172 Q473.4254,439.3516 472.816,439.3516 L470.5191,439.3516 Q469.9098,439.3516 469.6441,439.1172 Q469.3785,438.8828 469.3785,438.4922 Q469.3785,438.1172 469.6441,437.8828 Q469.9098,437.6484 470.5191,437.6484 L470.941,437.6484 L470.5348,436.6172 Z M469.816,434.9141 L468.4566,431.5391 L467.0816,434.9141 L469.816,434.9141 Z " fill="#000000"/><text fill="#000000" font-family="sans-serif" font-size="12" font-style="italic" lengthAdjust="spacing" textLength="66.0352" x="515.1039" y="430.957">&#171;Decorator&#187;</text><text fill="#000000" font-family="sans-serif" font-size="14" font-style="italic" lengthAdjust="spacing" textLength="129.1719" x="483.5355" y="448.127">CondimentDecorator</text><line style="stroke:#0000FF;stroke-width:1;" x1="449" x2="620.0547" y1="456.2031" y2="456.2031"/><line style="stroke:#0000FF;stroke-width:1;" x1="449" x2="620.0547" y1="464.2031" y2="464.2031"/><ellipse cx="459" cy="478.5078" fill="#84BE84" rx="3" ry="3" style="stroke:#038048;stroke-width:1;"/><text fill="#000000" font-family="sans-serif" font-size="14" lengthAdjust="spacing" textLength="80.9238" x="468" y="482.7363">&lt;init&gt;() : void</text><ellipse cx="459" cy="496.1172" fill="#84BE84" rx="3" ry="3" style="stroke:#038048;stroke-width:1;"/><text fill="#000000" font-family="sans-serif" font-size="14" lengthAdjust="spacing" textLength="147.0547" x="468" y="500.3457">getDescription() : String</text></g><!--class Espresso--><g id="elem_Espresso"><rect codeLine="27" fill="#F1F1F1" height="83.2188" id="Espresso" rx="2.5" ry="2.5" style="stroke:#181818;stroke-width:0.5;" width="114.71" x="728" y="419"/><ellipse cx="753.9582" cy="435" fill="#ADD1B2" rx="11" ry="11" style="stroke:#181818;stroke-width:1;"/><path d="M756.7238,430.875 Q756.8801,430.6563 757.0676,430.5469 Q757.2551,430.4375 757.4738,430.4375 Q757.8488,430.4375 758.0832,430.7031 Q758.3176,430.9531 758.3176,431.5625 L758.3176,433.0156 Q758.3176,433.625 758.0832,433.8906 Q757.8488,434.1563 757.4738,434.1563 Q757.1301,434.1563 756.927,433.9531 Q756.7238,433.7656 756.6145,433.25 Q756.5676,432.8906 756.3801,432.7031 Q756.052,432.3281 755.4426,432.1094 Q754.8332,431.8906 754.2082,431.8906 Q753.4426,431.8906 752.802,432.2188 Q752.177,432.5469 751.677,433.2969 Q751.1926,434.0469 751.1926,435.0781 L751.1926,436.1719 Q751.1926,437.4063 752.0832,438.2344 Q752.9738,439.0469 754.5676,439.0469 Q755.5051,439.0469 756.1613,438.7969 Q756.552,438.6406 756.9738,438.2031 Q757.2395,437.9375 757.3801,437.8594 Q757.5363,437.7813 757.7395,437.7813 Q758.0676,437.7813 758.3176,438.0469 Q758.5832,438.2969 758.5832,438.6406 Q758.5832,438.9844 758.2395,439.3906 Q757.7395,439.9688 756.9426,440.2969 Q755.8645,440.75 754.5676,440.75 Q753.052,440.75 751.8488,440.125 Q750.8645,439.625 750.177,438.5625 Q749.4895,437.4844 749.4895,436.2031 L749.4895,435.0469 Q749.4895,433.7188 750.0988,432.5781 Q750.7238,431.4219 751.8176,430.8125 Q752.9113,430.1875 754.1457,430.1875 Q754.8801,430.1875 755.5207,430.3594 Q756.177,430.5156 756.7238,430.875 Z " fill="#000000"/><text fill="#000000" font-family="sans-serif" font-size="14" lengthAdjust="spacing" textLength="58.3584" x="770.3934" y="440.7285">Espresso</text><line style="stroke:#181818;stroke-width:0.5;" x1="729" x2="841.71" y1="451" y2="451"/><line style="stroke:#181818;stroke-width:0.5;" x1="729" x2="841.71" y1="459" y2="459"/><ellipse cx="739" cy="473.3047" fill="#84BE84" rx="3" ry="3" style="stroke:#038048;stroke-width:1;"/><text fill="#000000" font-family="sans-serif" font-size="14" lengthAdjust="spacing" textLength="80.9238" x="748" y="477.5332">&lt;init&gt;() : void</text><ellipse cx="739" cy="490.9141" fill="#84BE84" rx="3" ry="3" style="stroke:#038048;stroke-width:1;"/><text fill="#000000" font-family="sans-serif" font-size="14" lengthAdjust="spacing" textLength="88.71" x="748" y="495.1426">cost() : double</text></g><!--class HouseBlend--><g id="elem_HouseBlend"><rect codeLine="32" fill="#F1F1F1" height="83.2188" id="HouseBlend" rx="2.5" ry="2.5" style="stroke:#181818;stroke-width:0.5;" width="114.71" x="878" y="419"/><ellipse cx="895.8956" cy="435" fill="#ADD1B2" rx="11" ry="11" style="stroke:#181818;stroke-width:1;"/><path d="M898.6612,430.875 Q898.8174,430.6563 899.0049,430.5469 Q899.1924,430.4375 899.4112,430.4375 Q899.7862,430.4375 900.0206,430.7031 Q900.2549,430.9531 900.2549,431.5625 L900.2549,433.0156 Q900.2549,433.625 900.0206,433.8906 Q899.7862,434.1563 899.4112,434.1563 Q899.0674,434.1563 898.8643,433.9531 Q898.6612,433.7656 898.5518,433.25 Q898.5049,432.8906 898.3174,432.7031 Q897.9893,432.3281 897.3799,432.1094 Q896.7706,431.8906 896.1456,431.8906 Q895.3799,431.8906 894.7393,432.2188 Q894.1143,432.5469 893.6143,433.2969 Q893.1299,434.0469 893.1299,435.0781 L893.1299,436.1719 Q893.1299,437.4063 894.0206,438.2344 Q894.9112,439.0469 896.5049,439.0469 Q897.4424,439.0469 898.0987,438.7969 Q898.4893,438.6406 898.9112,438.2031 Q899.1768,437.9375 899.3174,437.8594 Q899.4737,437.7813 899.6768,437.7813 Q900.0049,437.7813 900.2549,438.0469 Q900.5206,438.2969 900.5206,438.6406 Q900.5206,438.9844 900.1768,439.3906 Q899.6768,439.9688 898.8799,440.2969 Q897.8018,440.75 896.5049,440.75 Q894.9893,440.75 893.7862,440.125 Q892.8018,439.625 892.1143,438.5625 Q891.4268,437.4844 891.4268,436.2031 L891.4268,435.0469 Q891.4268,433.7188 892.0362,432.5781 Q892.6612,431.4219 893.7549,430.8125 Q894.8487,430.1875 896.0831,430.1875 Q896.8174,430.1875 897.4581,430.3594 Q898.1143,430.5156 898.6612,430.875 Z " fill="#000000"/><text fill="#000000" font-family="sans-serif" font-size="14" lengthAdjust="spacing" textLength="76.2754" x="910.539" y="440.7285">HouseBlend</text><line style="stroke:#181818;stroke-width:0.5;" x1="879" x2="991.71" y1="451" y2="451"/><line style="stroke:#181818;stroke-width:0.5;" x1="879" x2="991.71" y1="459" y2="459"/><ellipse cx="889" cy="473.3047" fill="#84BE84" rx="3" ry="3" style="stroke:#038048;stroke-width:1;"/><text fill="#000000" font-family="sans-serif" font-size="14" lengthAdjust="spacing" textLength="80.9238" x="898" y="477.5332">&lt;init&gt;() : void</text><ellipse cx="889" cy="490.9141" fill="#84BE84" rx="3" ry="3" style="stroke:#038048;stroke-width:1;"/><text fill="#000000" font-family="sans-serif" font-size="14" lengthAdjust="spacing" textLength="88.71" x="898" y="495.1426">cost() : double</text></g><!--class JCUTApplication--><g id="elem_JCUTApplication"><rect codeLine="37" fill="#F1F1F1" height="83.2188" id="JCUTApplication" rx="2.5" ry="2.5" style="stroke:#181818;stroke-width:0.5;" width="207.3027" x="957" y="7"/><ellipse cx="1004.2705" cy="23" fill="#ADD1B2" rx="11" ry="11" style="stroke:#181818;stroke-width:1;"/><path d="M1007.0361,18.875 Q1007.1924,18.6563 1007.3799,18.5469 Q1007.5674,18.4375 1007.7861,18.4375 Q1008.1611,18.4375 1008.3955,18.7031 Q1008.6299,18.9531 1008.6299,19.5625 L1008.6299,21.0156 Q1008.6299,21.625 1008.3955,21.8906 Q1008.1611,22.1563 1007.7861,22.1563 Q1007.4424,22.1563 1007.2393,21.9531 Q1007.0361,21.7656 1006.9268,21.25 Q1006.8799,20.8906 1006.6924,20.7031 Q1006.3643,20.3281 1005.7549,20.1094 Q1005.1455,19.8906 1004.5205,19.8906 Q1003.7549,19.8906 1003.1143,20.2188 Q1002.4893,20.5469 1001.9893,21.2969 Q1001.5049,22.0469 1001.5049,23.0781 L1001.5049,24.1719 Q1001.5049,25.4063 1002.3955,26.2344 Q1003.2861,27.0469 1004.8799,27.0469 Q1005.8174,27.0469 1006.4736,26.7969 Q1006.8643,26.6406 1007.2861,26.2031 Q1007.5518,25.9375 1007.6924,25.8594 Q1007.8486,25.7813 1008.0518,25.7813 Q1008.3799,25.7813 1008.6299,26.0469 Q1008.8955,26.2969 1008.8955,26.6406 Q1008.8955,26.9844 1008.5518,27.3906 Q1008.0518,27.9688 1007.2549,28.2969 Q1006.1768,28.75 1004.8799,28.75 Q1003.3643,28.75 1002.1611,28.125 Q1001.1768,27.625 1000.4893,26.5625 Q999.8018,25.4844 999.8018,24.2031 L999.8018,23.0469 Q999.8018,21.7188 1000.4111,20.5781 Q1001.0361,19.4219 1002.1299,18.8125 Q1003.2236,18.1875 1004.458,18.1875 Q1005.1924,18.1875 1005.833,18.3594 Q1006.4893,18.5156 1007.0361,18.875 Z " fill="#000000"/><text fill="#000000" font-family="sans-serif" font-size="14" lengthAdjust="spacing" textLength="104.2617" x="1024.7705" y="28.7285">JCUTApplication</text><line style="stroke:#181818;stroke-width:0.5;" x1="958" x2="1163.3027" y1="39" y2="39"/><line style="stroke:#181818;stroke-width:0.5;" x1="958" x2="1163.3027" y1="47" y2="47"/><ellipse cx="968" cy="61.3047" fill="#84BE84" rx="3" ry="3" style="stroke:#038048;stroke-width:1;"/><text fill="#000000" font-family="sans-serif" font-size="14" lengthAdjust="spacing" textLength="80.9238" x="977" y="65.5332">&lt;init&gt;() : void</text><ellipse cx="968" cy="78.9141" fill="#84BE84" rx="3" ry="3" style="stroke:#038048;stroke-width:1;"/><text fill="#000000" font-family="sans-serif" font-size="14" lengthAdjust="spacing" textLength="181.3027" x="977" y="83.1426">main(java.lang.String[]) : void</text></g><!--entity LoggerLabel--><!--class Logger--><g id="elem_Logger"><rect codeLine="44" fill="#FA8072" height="129.1406" id="Logger" rx="2.5" ry="2.5" style="stroke:#FF0000;stroke-width:1;" width="187.8613" x="1308.5" y="168"/><ellipse cx="1368.4873" cy="189.3516" fill="#ADD1B2" rx="11" ry="11" style="stroke:#181818;stroke-width:1;"/><path d="M1371.2529,185.2266 Q1371.4092,185.0078 1371.5967,184.8984 Q1371.7842,184.7891 1372.0029,184.7891 Q1372.3779,184.7891 1372.6123,185.0547 Q1372.8467,185.3047 1372.8467,185.9141 L1372.8467,187.3672 Q1372.8467,187.9766 1372.6123,188.2422 Q1372.3779,188.5078 1372.0029,188.5078 Q1371.6592,188.5078 1371.4561,188.3047 Q1371.2529,188.1172 1371.1436,187.6016 Q1371.0967,187.2422 1370.9092,187.0547 Q1370.5811,186.6797 1369.9717,186.4609 Q1369.3623,186.2422 1368.7373,186.2422 Q1367.9717,186.2422 1367.3311,186.5703 Q1366.7061,186.8984 1366.2061,187.6484 Q1365.7217,188.3984 1365.7217,189.4297 L1365.7217,190.5234 Q1365.7217,191.7578 1366.6123,192.5859 Q1367.5029,193.3984 1369.0967,193.3984 Q1370.0342,193.3984 1370.6904,193.1484 Q1371.0811,192.9922 1371.5029,192.5547 Q1371.7686,192.2891 1371.9092,192.2109 Q1372.0654,192.1328 1372.2686,192.1328 Q1372.5967,192.1328 1372.8467,192.3984 Q1373.1123,192.6484 1373.1123,192.9922 Q1373.1123,193.3359 1372.7686,193.7422 Q1372.2686,194.3203 1371.4717,194.6484 Q1370.3936,195.1016 1369.0967,195.1016 Q1367.5811,195.1016 1366.3779,194.4766 Q1365.3936,193.9766 1364.7061,192.9141 Q1364.0186,191.8359 1364.0186,190.5547 L1364.0186,189.3984 Q1364.0186,188.0703 1364.6279,186.9297 Q1365.2529,185.7734 1366.3467,185.1641 Q1367.4404,184.5391 1368.6748,184.5391 Q1369.4092,184.5391 1370.0498,184.7109 Q1370.7061,184.8672 1371.2529,185.2266 Z " fill="#000000"/><text fill="#000000" font-family="sans-serif" font-size="12" font-style="italic" lengthAdjust="spacing" textLength="63.3867" x="1386.9873" y="185.457">&#171;Singleton&#187;</text><text fill="#000000" font-family="sans-serif" font-size="14" lengthAdjust="spacing" textLength="43.5928" x="1396.8843" y="202.627">Logger</text><line style="stroke:#FF0000;stroke-width:1;" x1="1309.5" x2="1495.3613" y1="210.7031" y2="210.7031"/><rect fill="transparent" height="6" style="stroke:#C82930;stroke-width:1;" width="6" x="1316.5" y="222.0078"/><text fill="#000000" font-family="sans-serif" font-size="14" lengthAdjust="spacing" textLength="107.4063" x="1328.5" y="229.2363">instance : Logger</text><line style="stroke:#FF0000;stroke-width:1;" x1="1309.5" x2="1495.3613" y1="236.3125" y2="236.3125"/><rect fill="#F24D5C" height="6" style="stroke:#C82930;stroke-width:1;" width="6" x="1316.5" y="247.6172"/><text fill="#000000" font-family="sans-serif" font-size="14" lengthAdjust="spacing" textLength="80.9238" x="1328.5" y="254.8457">&lt;init&gt;() : void</text><ellipse cx="1319.5" cy="268.2266" fill="#84BE84" rx="3" ry="3" style="stroke:#038048;stroke-width:1;"/><text fill="#000000" font-family="sans-serif" font-size="14" lengthAdjust="spacing" textLength="136.9717" x="1328.5" y="272.4551">getInstance() : Logger</text><ellipse cx="1319.5" cy="285.8359" fill="#84BE84" rx="3" ry="3" style="stroke:#038048;stroke-width:1;"/><text fill="#000000" font-family="sans-serif" font-size="14" lengthAdjust="spacing" textLength="161.8613" x="1328.5" y="290.0645">log(java.lang.String) : void</text></g><!--entity MilkLabel--><!--class Milk--><g id="elem_Milk"><rect codeLine="53" fill="#ADD8E6" height="129.1406" id="Milk" rx="2.5" ry="2.5" style="stroke:#0000FF;stroke-width:1;" width="232.9854" x="7" y="168"/><ellipse cx="88.2251" cy="189.3516" fill="#ADD1B2" rx="11" ry="11" style="stroke:#181818;stroke-width:1;"/><path d="M90.9907,185.2266 Q91.147,185.0078 91.3345,184.8984 Q91.522,184.7891 91.7407,184.7891 Q92.1157,184.7891 92.3501,185.0547 Q92.5845,185.3047 92.5845,185.9141 L92.5845,187.3672 Q92.5845,187.9766 92.3501,188.2422 Q92.1157,188.5078 91.7407,188.5078 Q91.397,188.5078 91.1938,188.3047 Q90.9907,188.1172 90.8813,187.6016 Q90.8345,187.2422 90.647,187.0547 Q90.3188,186.6797 89.7095,186.4609 Q89.1001,186.2422 88.4751,186.2422 Q87.7095,186.2422 87.0688,186.5703 Q86.4438,186.8984 85.9438,187.6484 Q85.4595,188.3984 85.4595,189.4297 L85.4595,190.5234 Q85.4595,191.7578 86.3501,192.5859 Q87.2407,193.3984 88.8345,193.3984 Q89.772,193.3984 90.4282,193.1484 Q90.8188,192.9922 91.2407,192.5547 Q91.5063,192.2891 91.647,192.2109 Q91.8032,192.1328 92.0063,192.1328 Q92.3345,192.1328 92.5845,192.3984 Q92.8501,192.6484 92.8501,192.9922 Q92.8501,193.3359 92.5063,193.7422 Q92.0063,194.3203 91.2095,194.6484 Q90.1313,195.1016 88.8345,195.1016 Q87.3188,195.1016 86.1157,194.4766 Q85.1313,193.9766 84.4438,192.9141 Q83.7563,191.8359 83.7563,190.5547 L83.7563,189.3984 Q83.7563,188.0703 84.3657,186.9297 Q84.9907,185.7734 86.0845,185.1641 Q87.1782,184.5391 88.4126,184.5391 Q89.147,184.5391 89.7876,184.7109 Q90.4438,184.8672 90.9907,185.2266 Z " fill="#000000"/><text fill="#000000" font-family="sans-serif" font-size="12" font-style="italic" lengthAdjust="spacing" textLength="66.0352" x="106.7251" y="185.457">&#171;Decorator&#187;</text><text fill="#000000" font-family="sans-serif" font-size="14" lengthAdjust="spacing" textLength="24.8828" x="127.3013" y="202.627">Milk</text><line style="stroke:#0000FF;stroke-width:1;" x1="8" x2="238.9854" y1="210.7031" y2="210.7031"/><rect fill="transparent" height="6" style="stroke:#C82930;stroke-width:1;" width="6" x="15" y="222.0078"/><text fill="#000000" font-family="sans-serif" font-size="14" lengthAdjust="spacing" textLength="129.9785" x="27" y="229.2363">beverage : Beverage</text><line style="stroke:#0000FF;stroke-width:1;" x1="8" x2="238.9854" y1="236.3125" y2="236.3125"/><ellipse cx="18" cy="250.6172" fill="#84BE84" rx="3" ry="3" style="stroke:#038048;stroke-width:1;"/><text fill="#000000" font-family="sans-serif" font-size="14" lengthAdjust="spacing" textLength="206.9854" x="27" y="254.8457">&lt;init&gt;(umlparser.Beverage) : void</text><ellipse cx="18" cy="268.2266" fill="#84BE84" rx="3" ry="3" style="stroke:#038048;stroke-width:1;"/><text fill="#000000" font-family="sans-serif" font-size="14" lengthAdjust="spacing" textLength="147.0547" x="27" y="272.4551">getDescription() : String</text><ellipse cx="18" cy="285.8359" fill="#84BE84" rx="3" ry="3" style="stroke:#038048;stroke-width:1;"/><text fill="#000000" font-family="sans-serif" font-size="14" lengthAdjust="spacing" textLength="88.71" x="27" y="290.0645">cost() : double</text></g><!--entity MochaLabel--><!--class Mocha--><g id="elem_Mocha"><rect codeLine="62" fill="#ADD8E6" height="129.1406" id="Mocha" rx="2.5" ry="2.5" style="stroke:#0000FF;stroke-width:1;" width="232.9854" x="275" y="168"/><ellipse cx="356.2251" cy="189.3516" fill="#ADD1B2" rx="11" ry="11" style="stroke:#181818;stroke-width:1;"/><path d="M358.9907,185.2266 Q359.147,185.0078 359.3345,184.8984 Q359.522,184.7891 359.7407,184.7891 Q360.1157,184.7891 360.3501,185.0547 Q360.5845,185.3047 360.5845,185.9141 L360.5845,187.3672 Q360.5845,187.9766 360.3501,188.2422 Q360.1157,188.5078 359.7407,188.5078 Q359.397,188.5078 359.1938,188.3047 Q358.9907,188.1172 358.8813,187.6016 Q358.8345,187.2422 358.647,187.0547 Q358.3188,186.6797 357.7095,186.4609 Q357.1001,186.2422 356.4751,186.2422 Q355.7095,186.2422 355.0688,186.5703 Q354.4438,186.8984 353.9438,187.6484 Q353.4595,188.3984 353.4595,189.4297 L353.4595,190.5234 Q353.4595,191.7578 354.3501,192.5859 Q355.2407,193.3984 356.8345,193.3984 Q357.772,193.3984 358.4282,193.1484 Q358.8188,192.9922 359.2407,192.5547 Q359.5063,192.2891 359.647,192.2109 Q359.8032,192.1328 360.0063,192.1328 Q360.3345,192.1328 360.5845,192.3984 Q360.8501,192.6484 360.8501,192.9922 Q360.8501,193.3359 360.5063,193.7422 Q360.0063,194.3203 359.2095,194.6484 Q358.1313,195.1016 356.8345,195.1016 Q355.3188,195.1016 354.1157,194.4766 Q353.1313,193.9766 352.4438,192.9141 Q351.7563,191.8359 351.7563,190.5547 L351.7563,189.3984 Q351.7563,188.0703 352.3657,186.9297 Q352.9907,185.7734 354.0845,185.1641 Q355.1782,184.5391 356.4126,184.5391 Q357.147,184.5391 357.7876,184.7109 Q358.4438,184.8672 358.9907,185.2266 Z " fill="#000000"/><text fill="#000000" font-family="sans-serif" font-size="12" font-style="italic" lengthAdjust="spacing" textLength="66.0352" x="374.7251" y="185.457">&#171;Decorator&#187;</text><text fill="#000000" font-family="sans-serif" font-size="14" lengthAdjust="spacing" textLength="42.0205" x="386.7324" y="202.627">Mocha</text><line style="stroke:#0000FF;stroke-width:1;" x1="276" x2="506.9854" y1="210.7031" y2="210.7031"/><rect fill="transparent" height="6" style="stroke:#C82930;stroke-width:1;" width="6" x="283" y="222.0078"/><text fill="#000000" font-family="sans-serif" font-size="14" lengthAdjust="spacing" textLength="129.9785" x="295" y="229.2363">beverage : Beverage</text><line style="stroke:#0000FF;stroke-width:1;" x1="276" x2="506.9854" y1="236.3125" y2="236.3125"/><ellipse cx="286" cy="250.6172" fill="#84BE84" rx="3" ry="3" style="stroke:#038048;stroke-width:1;"/><text fill="#000000" font-family="sans-serif" font-size="14" lengthAdjust="spacing" textLength="206.9854" x="295" y="254.8457">&lt;init&gt;(umlparser.Beverage) : void</text><ellipse cx="286" cy="268.2266" fill="#84BE84" rx="3" ry="3" style="stroke:#038048;stroke-width:1;"/><text fill="#000000" font-family="sans-serif" font-size="14" lengthAdjust="spacing" textLength="147.0547" x="295" y="272.4551">getDescription() : String</text><ellipse cx="286" cy="285.8359" fill="#84BE84" rx="3" ry="3" style="stroke:#038048;stroke-width:1;"/><text fill="#000000" font-family="sans-serif" font-size="14" lengthAdjust="spacing" textLength="88.71" x="295" y="290.0645">cost() : double</text></g><!--class Order--><g id="elem_Order"><rect codeLine="69" fill="#F1F1F1" height="171.2656" id="Order" rx="2.5" ry="2.5" style="stroke:#181818;stroke-width:0.5;" width="255.5508" x="1028.5" y="375"/><ellipse cx="1134.1323" cy="391" fill="#ADD1B2" rx="11" ry="11" style="stroke:#181818;stroke-width:1;"/><path d="M1136.8979,386.875 Q1137.0542,386.6563 1137.2417,386.5469 Q1137.4292,386.4375 1137.6479,386.4375 Q1138.0229,386.4375 1138.2573,386.7031 Q1138.4917,386.9531 1138.4917,387.5625 L1138.4917,389.0156 Q1138.4917,389.625 1138.2573,389.8906 Q1138.0229,390.1563 1137.6479,390.1563 Q1137.3042,390.1563 1137.1011,389.9531 Q1136.8979,389.7656 1136.7886,389.25 Q1136.7417,388.8906 1136.5542,388.7031 Q1136.2261,388.3281 1135.6167,388.1094 Q1135.0073,387.8906 1134.3823,387.8906 Q1133.6167,387.8906 1132.9761,388.2188 Q1132.3511,388.5469 1131.8511,389.2969 Q1131.3667,390.0469 1131.3667,391.0781 L1131.3667,392.1719 Q1131.3667,393.4063 1132.2573,394.2344 Q1133.1479,395.0469 1134.7417,395.0469 Q1135.6792,395.0469 1136.3354,394.7969 Q1136.7261,394.6406 1137.1479,394.2031 Q1137.4136,393.9375 1137.5542,393.8594 Q1137.7104,393.7813 1137.9136,393.7813 Q1138.2417,393.7813 1138.4917,394.0469 Q1138.7573,394.2969 1138.7573,394.6406 Q1138.7573,394.9844 1138.4136,395.3906 Q1137.9136,395.9688 1137.1167,396.2969 Q1136.0386,396.75 1134.7417,396.75 Q1133.2261,396.75 1132.0229,396.125 Q1131.0386,395.625 1130.3511,394.5625 Q1129.6636,393.4844 1129.6636,392.2031 L1129.6636,391.0469 Q1129.6636,389.7188 1130.2729,388.5781 Q1130.8979,387.4219 1131.9917,386.8125 Q1133.0854,386.1875 1134.3198,386.1875 Q1135.0542,386.1875 1135.6948,386.3594 Q1136.3511,386.5156 1136.8979,386.875 Z " fill="#000000"/><text fill="#000000" font-family="sans-serif" font-size="14" lengthAdjust="spacing" textLength="35.7861" x="1154.6323" y="396.7285">Order</text><line style="stroke:#181818;stroke-width:0.5;" x1="1029.5" x2="1283.0508" y1="407" y2="407"/><rect fill="transparent" height="6" style="stroke:#C82930;stroke-width:1;" width="6" x="1036.5" y="418.3047"/><text fill="#000000" font-family="sans-serif" font-size="14" lengthAdjust="spacing" textLength="70.8135" x="1048.5" y="425.5332">orderId : int</text><rect fill="transparent" height="6" style="stroke:#C82930;stroke-width:1;" width="6" x="1036.5" y="435.9141"/><text fill="#000000" font-family="sans-serif" font-size="14" lengthAdjust="spacing" textLength="129.9785" x="1048.5" y="443.1426">beverage : Beverage</text><line style="stroke:#181818;stroke-width:0.5;" x1="1029.5" x2="1283.0508" y1="450.2188" y2="450.2188"/><ellipse cx="1039.5" cy="464.5234" fill="#84BE84" rx="3" ry="3" style="stroke:#038048;stroke-width:1;"/><text fill="#000000" font-family="sans-serif" font-size="14" lengthAdjust="spacing" textLength="229.5508" x="1048.5" y="468.752">&lt;init&gt;(int, umlparser.Beverage) : void</text><ellipse cx="1039.5" cy="482.1328" fill="#84BE84" rx="3" ry="3" style="stroke:#038048;stroke-width:1;"/><text fill="#000000" font-family="sans-serif" font-size="14" lengthAdjust="spacing" textLength="102.7031" x="1048.5" y="486.3613">getOrderId() : int</text><ellipse cx="1039.5" cy="499.7422" fill="#84BE84" rx="3" ry="3" style="stroke:#038048;stroke-width:1;"/><text fill="#000000" font-family="sans-serif" font-size="14" lengthAdjust="spacing" textLength="160.3164" x="1048.5" y="503.9707">getBeverage() : Beverage</text><ellipse cx="1039.5" cy="517.3516" fill="#84BE84" rx="3" ry="3" style="stroke:#038048;stroke-width:1;"/><text fill="#000000" font-family="sans-serif" font-size="14" lengthAdjust="spacing" textLength="111.2822" x="1048.5" y="521.5801">getCost() : double</text><ellipse cx="1039.5" cy="534.9609" fill="#84BE84" rx="3" ry="3" style="stroke:#038048;stroke-width:1;"/><text fill="#000000" font-family="sans-serif" font-size="14" lengthAdjust="spacing" textLength="147.0547" x="1048.5" y="539.1895">getDescription() : String</text></g><!--class OrderManager--><g id="elem_OrderManager"><rect codeLine="79" fill="#F1F1F1" height="118.4375" id="OrderManager" rx="2.5" ry="2.5" style="stroke:#181818;stroke-width:0.5;" width="233.7373" x="1039.5" y="173.5"/><ellipse cx="1106.5981" cy="189.5" fill="#ADD1B2" rx="11" ry="11" style="stroke:#181818;stroke-width:1;"/><path d="M1109.3638,185.375 Q1109.52,185.1563 1109.7075,185.0469 Q1109.895,184.9375 1110.1138,184.9375 Q1110.4888,184.9375 1110.7231,185.2031 Q1110.9575,185.4531 1110.9575,186.0625 L1110.9575,187.5156 Q1110.9575,188.125 1110.7231,188.3906 Q1110.4888,188.6563 1110.1138,188.6563 Q1109.77,188.6563 1109.5669,188.4531 Q1109.3638,188.2656 1109.2544,187.75 Q1109.2075,187.3906 1109.02,187.2031 Q1108.6919,186.8281 1108.0825,186.6094 Q1107.4731,186.3906 1106.8481,186.3906 Q1106.0825,186.3906 1105.4419,186.7188 Q1104.8169,187.0469 1104.3169,187.7969 Q1103.8325,188.5469 1103.8325,189.5781 L1103.8325,190.6719 Q1103.8325,191.9063 1104.7231,192.7344 Q1105.6138,193.5469 1107.2075,193.5469 Q1108.145,193.5469 1108.8013,193.2969 Q1109.1919,193.1406 1109.6138,192.7031 Q1109.8794,192.4375 1110.02,192.3594 Q1110.1763,192.2813 1110.3794,192.2813 Q1110.7075,192.2813 1110.9575,192.5469 Q1111.2231,192.7969 1111.2231,193.1406 Q1111.2231,193.4844 1110.8794,193.8906 Q1110.3794,194.4688 1109.5825,194.7969 Q1108.5044,195.25 1107.2075,195.25 Q1105.6919,195.25 1104.4888,194.625 Q1103.5044,194.125 1102.8169,193.0625 Q1102.1294,191.9844 1102.1294,190.7031 L1102.1294,189.5469 Q1102.1294,188.2188 1102.7388,187.0781 Q1103.3638,185.9219 1104.4575,185.3125 Q1105.5513,184.6875 1106.7856,184.6875 Q1107.52,184.6875 1108.1606,184.8594 Q1108.8169,185.0156 1109.3638,185.375 Z " fill="#000000"/><text fill="#000000" font-family="sans-serif" font-size="14" lengthAdjust="spacing" textLength="91.041" x="1127.0981" y="195.2285">OrderManager</text><line style="stroke:#181818;stroke-width:0.5;" x1="1040.5" x2="1272.2373" y1="205.5" y2="205.5"/><rect fill="transparent" height="6" style="stroke:#C82930;stroke-width:1;" width="6" x="1047.5" y="216.8047"/><text fill="#000000" font-family="sans-serif" font-size="14" lengthAdjust="spacing" textLength="95.3135" x="1059.5" y="224.0332">orders : Order&gt;</text><line style="stroke:#181818;stroke-width:0.5;" x1="1040.5" x2="1272.2373" y1="231.1094" y2="231.1094"/><ellipse cx="1050.5" cy="245.4141" fill="#84BE84" rx="3" ry="3" style="stroke:#038048;stroke-width:1;"/><text fill="#000000" font-family="sans-serif" font-size="14" lengthAdjust="spacing" textLength="80.9238" x="1059.5" y="249.6426">&lt;init&gt;() : void</text><ellipse cx="1050.5" cy="263.0234" fill="#84BE84" rx="3" ry="3" style="stroke:#038048;stroke-width:1;"/><text fill="#000000" font-family="sans-serif" font-size="14" lengthAdjust="spacing" textLength="207.7373" x="1059.5" y="267.252">addOrder(umlparser.Order) : void</text><ellipse cx="1050.5" cy="280.6328" fill="#84BE84" rx="3" ry="3" style="stroke:#038048;stroke-width:1;"/><text fill="#000000" font-family="sans-serif" font-size="14" lengthAdjust="spacing" textLength="138.4824" x="1059.5" y="284.8613">processOrders() : void</text></g><!--entity SoyLabel--><!--class Soy--><g id="elem_Soy"><rect codeLine="88" fill="#ADD8E6" height="129.1406" id="Soy" rx="2.5" ry="2.5" style="stroke:#0000FF;stroke-width:1;" width="232.9854" x="599" y="168"/><ellipse cx="680.2251" cy="189.3516" fill="#ADD1B2" rx="11" ry="11" style="stroke:#181818;stroke-width:1;"/><path d="M682.9907,185.2266 Q683.147,185.0078 683.3345,184.8984 Q683.522,184.7891 683.7407,184.7891 Q684.1157,184.7891 684.3501,185.0547 Q684.5845,185.3047 684.5845,185.9141 L684.5845,187.3672 Q684.5845,187.9766 684.3501,188.2422 Q684.1157,188.5078 683.7407,188.5078 Q683.397,188.5078 683.1938,188.3047 Q682.9907,188.1172 682.8813,187.6016 Q682.8345,187.2422 682.647,187.0547 Q682.3188,186.6797 681.7095,186.4609 Q681.1001,186.2422 680.4751,186.2422 Q679.7095,186.2422 679.0688,186.5703 Q678.4438,186.8984 677.9438,187.6484 Q677.4595,188.3984 677.4595,189.4297 L677.4595,190.5234 Q677.4595,191.7578 678.3501,192.5859 Q679.2407,193.3984 680.8345,193.3984 Q681.772,193.3984 682.4282,193.1484 Q682.8188,192.9922 683.2407,192.5547 Q683.5063,192.2891 683.647,192.2109 Q683.8032,192.1328 684.0063,192.1328 Q684.3345,192.1328 684.5845,192.3984 Q684.8501,192.6484 684.8501,192.9922 Q684.8501,193.3359 684.5063,193.7422 Q684.0063,194.3203 683.2095,194.6484 Q682.1313,195.1016 680.8345,195.1016 Q679.3188,195.1016 678.1157,194.4766 Q677.1313,193.9766 676.4438,192.9141 Q675.7563,191.8359 675.7563,190.5547 L675.7563,189.3984 Q675.7563,188.0703 676.3657,186.9297 Q676.9907,185.7734 678.0845,185.1641 Q679.1782,184.5391 680.4126,184.5391 Q681.147,184.5391 681.7876,184.7109 Q682.4438,184.8672 682.9907,185.2266 Z " fill="#000000"/><text fill="#000000" font-family="sans-serif" font-size="12" font-style="italic" lengthAdjust="spacing" textLength="66.0352" x="698.7251" y="185.457">&#171;Decorator&#187;</text><text fill="#000000" font-family="sans-serif" font-size="14" lengthAdjust="spacing" textLength="24.124" x="719.6807" y="202.627">Soy</text><line style="stroke:#0000FF;stroke-width:1;" x1="600" x2="830.9854" y1="210.7031" y2="210.7031"/><rect fill="transparent" height="6" style="stroke:#C82930;stroke-width:1;" width="6" x="607" y="222.0078"/><text fill="#000000" font-family="sans-serif" font-size="14" lengthAdjust="spacing" textLength="129.9785" x="619" y="229.2363">beverage : Beverage</text><line style="stroke:#0000FF;stroke-width:1;" x1="600" x2="830.9854" y1="236.3125" y2="236.3125"/><ellipse cx="610" cy="250.6172" fill="#84BE84" rx="3" ry="3" style="stroke:#038048;stroke-width:1;"/><text fill="#000000" font-family="sans-serif" font-size="14" lengthAdjust="spacing" textLength="206.9854" x="619" y="254.8457">&lt;init&gt;(umlparser.Beverage) : void</text><ellipse cx="610" cy="268.2266" fill="#84BE84" rx="3" ry="3" style="stroke:#038048;stroke-width:1;"/><text fill="#000000" font-family="sans-serif" font-size="14" lengthAdjust="spacing" textLength="147.0547" x="619" y="272.4551">getDescription() : String</text><ellipse cx="610" cy="285.8359" fill="#84BE84" rx="3" ry="3" style="stroke:#038048;stroke-width:1;"/><text fill="#000000" font-family="sans-serif" font-size="14" lengthAdjust="spacing" textLength="88.71" x="619" y="290.0645">cost() : double</text></g><!--link CondimentDecoratorLabel to CondimentDecorator--><g id="link_CondimentDecoratorLabel_CondimentDecorator"><path codeLine="21" d="M552.73,242.64 C550.35,270.96 543.4829,352.6811 538.8729,407.4911 " fill="transparent" id="CondimentDecoratorLabel-to-CondimentDecorator" style="stroke:#0000FF;stroke-width:1;"/><polygon fill="#0000FF" points="538.37,413.47,543.1102,404.8369,538.7891,408.4876,535.1384,404.1664,538.37,413.47" style="stroke:#0000FF;stroke-width:1;"/><text fill="#000000" font-family="sans-serif" font-size="13" lengthAdjust="spacing" textLength="57.0781" x="546.5" y="341.4951">Decorator</text></g><!--link LoggerLabel to Logger--><g id="link_LoggerLabel_Logger"><path codeLine="43" d="M1402.5,58.78 C1402.5,78.77 1402.5,121.4 1402.5,161.98 " fill="transparent" id="LoggerLabel-to-Logger" style="stroke:#FF0000;stroke-width:1;"/><polygon fill="#FF0000" points="1402.5,167.98,1406.5,158.98,1402.5,162.98,1398.5,158.98,1402.5,167.98" style="stroke:#FF0000;stroke-width:1;"/><text fill="#000000" font-family="sans-serif" font-size="13" lengthAdjust="spacing" textLength="54.209" x="1403.5" y="134.4951">Singleton</text></g><!--link MilkLabel to Milk--><g id="link_MilkLabel_Milk"><path codeLine="52" d="M123.5,58.78 C123.5,78.77 123.5,121.4 123.5,161.98 " fill="transparent" id="MilkLabel-to-Milk" style="stroke:#0000FF;stroke-width:1;"/><polygon fill="#0000FF" points="123.5,167.98,127.5,158.98,123.5,162.98,119.5,158.98,123.5,167.98" style="stroke:#0000FF;stroke-width:1;"/><text fill="#000000" font-family="sans-serif" font-size="13" lengthAdjust="spacing" textLength="57.0781" x="124.5" y="134.4951">Decorator</text></g><!--link MochaLabel to Mocha--><g id="link_MochaLabel_Mocha"><path codeLine="61" d="M391.5,58.78 C391.5,78.77 391.5,121.4 391.5,161.98 " fill="transparent" id="MochaLabel-to-Mocha" style="stroke:#0000FF;stroke-width:1;"/><polygon fill="#0000FF" points="391.5,167.98,395.5,158.98,391.5,162.98,387.5,158.98,391.5,167.98" style="stroke:#0000FF;stroke-width:1;"/><text fill="#000000" font-family="sans-serif" font-size="13" lengthAdjust="spacing" textLength="57.0781" x="392.5" y="134.4951">Decorator</text></g><!--link SoyLabel to Soy--><g id="link_SoyLabel_Soy"><path codeLine="87" d="M715.5,58.78 C715.5,78.77 715.5,121.4 715.5,161.98 " fill="transparent" id="SoyLabel-to-Soy" style="stroke:#0000FF;stroke-width:1;"/><polygon fill="#0000FF" points="715.5,167.98,719.5,158.98,715.5,162.98,711.5,158.98,715.5,167.98" style="stroke:#0000FF;stroke-width:1;"/><text fill="#000000" font-family="sans-serif" font-size="13" lengthAdjust="spacing" textLength="57.0781" x="716.5" y="134.4951">Decorator</text></g><!--link CondimentDecorator to Beverage--><g id="link_CondimentDecorator_Beverage"><path codeLine="95" d="M566.27,507.68 C586.52,537.11 602.7137,560.6733 624.3837,592.1533 " fill="transparent" id="CondimentDecorator-to-Beverage" style="stroke:#181818;stroke-width:1;"/><polygon fill="transparent" points="634.59,606.98,629.3259,588.7512,619.4415,595.5554,634.59,606.98" style="stroke:#181818;stroke-width:1;"/></g><!--link Espresso to Beverage--><g id="link_Espresso_Beverage"><path codeLine="96" d="M763.3,502.19 C746.98,532.12 733.1797,557.4181 714.9497,590.8381 " fill="transparent" id="Espresso-to-Beverage" style="stroke:#181818;stroke-width:1;"/><polygon fill="transparent" points="706.33,606.64,720.217,593.7113,709.6824,587.9648,706.33,606.64" style="stroke:#181818;stroke-width:1;"/></g><!--link HouseBlend to Beverage--><g id="link_HouseBlend_Beverage"><path codeLine="97" d="M903.25,502.34 C890.71,516.95 875.71,533 860.5,546 C830.19,571.9 809.1509,586.9742 776.6309,606.9342 " fill="transparent" id="HouseBlend-to-Beverage" style="stroke:#181818;stroke-width:1;"/><polygon fill="transparent" points="761.29,616.35,779.7695,612.0478,773.4922,601.8205,761.29,616.35" style="stroke:#181818;stroke-width:1;"/></g><!--link Logger to Logger--><g id="link_Logger_Logger"><path codeLine="98" d="M1496.71,213.97 C1516.89,215.81 1531.5,221.99 1531.5,232.5 C1531.5,243.01 1522.8652,248.6452 1502.6852,250.4852 " fill="transparent" id="Logger-to-Logger" style="stroke:#181818;stroke-width:1;"/><polygon fill="#181818" points="1496.71,251.03,1506.036,254.1963,1501.6893,250.576,1505.3096,246.2293,1496.71,251.03" style="stroke:#181818;stroke-width:1;"/><text fill="#000000" font-family="sans-serif" font-size="13" lengthAdjust="spacing" textLength="7.23" x="1504.511" y="249.3726">1</text></g><!--link Milk to CondimentDecorator--><g id="link_Milk_CondimentDecorator"><path codeLine="99" d="M239.08,297.06 C306.39,334.07 373.9671,371.2272 434.9471,404.7572 " fill="transparent" id="Milk-to-CondimentDecorator" style="stroke:#181818;stroke-width:1;"/><polygon fill="transparent" points="450.72,413.43,437.838,399.4996,432.0562,410.0149,450.72,413.43" style="stroke:#181818;stroke-width:1;"/></g><!--link Milk to Beverage--><g id="link_Milk_Beverage"><path codeLine="100" d="M160.35,297.01 C203.54,366.55 281.09,477.28 373.5,546 C437.87,593.87 518.2782,623.6762 581.9282,642.1662 " fill="transparent" id="Milk-to-Beverage" style="stroke:#181818;stroke-width:1;"/><polygon fill="#181818" points="587.69,643.84,580.1631,637.4881,582.8885,642.4452,577.9314,645.1705,587.69,643.84" style="stroke:#181818;stroke-width:1;"/><text fill="#000000" font-family="sans-serif" font-size="13" lengthAdjust="spacing" textLength="7.23" x="572.6546" y="638.6452">1</text></g><!--link Mocha to CondimentDecorator--><g id="link_Mocha_CondimentDecorator"><path codeLine="101" d="M431.71,297.06 C455.09,334 474.4033,364.5306 495.6133,398.0406 " fill="transparent" id="Mocha-to-CondimentDecorator" style="stroke:#181818;stroke-width:1;"/><polygon fill="transparent" points="505.24,413.25,500.6831,394.8317,490.5435,401.2495,505.24,413.25" style="stroke:#181818;stroke-width:1;"/></g><!--link Mocha to Beverage--><g id="link_Mocha_Beverage"><path codeLine="102" d="M382.79,297.31 C377.02,365.32 378.36,473.05 430.5,546 C467.64,597.95 528.0965,626.4494 582.1665,643.4594 " fill="transparent" id="Mocha-to-Beverage" style="stroke:#181818;stroke-width:1;"/><polygon fill="#181818" points="587.89,645.26,580.5052,638.7435,583.1204,643.7595,578.1044,646.3748,587.89,645.26" style="stroke:#181818;stroke-width:1;"/><text fill="#000000" font-family="sans-serif" font-size="13" lengthAdjust="spacing" textLength="7.23" x="572.8724" y="657.6166">1</text></g><!--link Order to Beverage--><g id="link_Order_Beverage"><path codeLine="103" d="M1028.21,537.47 C1022.27,540.44 1016.35,543.3 1010.5,546 C928.19,584 835.7731,615.6783 766.8731,637.3683 " fill="transparent" id="Order-to-Beverage" style="stroke:#181818;stroke-width:1;"/><polygon fill="#181818" points="761.15,639.17,770.9358,640.2829,765.9193,637.6686,768.5336,632.6521,761.15,639.17" style="stroke:#181818;stroke-width:1;"/><text fill="#000000" font-family="sans-serif" font-size="13" lengthAdjust="spacing" textLength="7.23" x="769.1868" y="633.5592">1</text></g><!--link OrderManager to Order--><g id="link_OrderManager_Order"><path codeLine="104" d="M1156.5,291.7 C1156.5,316.94 1156.5,341 1156.5,368.65 " fill="transparent" id="OrderManager-to-Order" style="stroke:#181818;stroke-width:1;"/><polygon fill="#181818" points="1156.5,374.65,1160.5,365.65,1156.5,369.65,1152.5,365.65,1156.5,374.65" style="stroke:#181818;stroke-width:1;"/><text fill="#000000" font-family="sans-serif" font-size="13" lengthAdjust="spacing" textLength="5.0591" x="1151.307" y="364.0836">*</text></g><!--link Soy to CondimentDecorator--><g id="link_Soy_CondimentDecorator"><path codeLine="105" d="M664.6,297.06 C635.01,334 609.6327,365.6909 582.7927,399.2009 " fill="transparent" id="Soy-to-CondimentDecorator" style="stroke:#181818;stroke-width:1;"/><polygon fill="transparent" points="571.54,413.25,587.4757,402.9518,578.1097,395.45,571.54,413.25" style="stroke:#181818;stroke-width:1;"/></g><!--link Soy to Beverage--><g id="link_Soy_Beverage"><path codeLine="106" d="M709.45,297.17 C701.51,380.74 688.2471,520.2969 680.5871,600.9769 " fill="transparent" id="Soy-to-Beverage" style="stroke:#181818;stroke-width:1;"/><polygon fill="#181818" points="680.02,606.95,684.8528,598.3684,680.4926,601.9724,676.8886,597.6122,680.02,606.95" style="stroke:#181818;stroke-width:1;"/><text fill="#000000" font-family="sans-serif" font-size="13" lengthAdjust="spacing" textLength="7.23" x="673.2769" y="596.2682">1</text></g><!--SRC=[pLJFQzim5Bxdhn3k9LldG0wxb69eai4w4WfBToezF5l2qI9BHbAoZMx_-vuasxLZEojbX-AB_7tV-wcd1qAe7mN_oMK-CNikIz1Ga4o0CUHfie1idsjra7IfXDBNrokMAGrMwIGXQvxlx48SM5-sHNU2MILHjWLHA7b6GsxIWs4jfTAKwL7L2lJ-AwCZCXJqo7RI8L_FtkzujfVCcA4e7y-8a9xtwNQK-UJF159ZDMIMBDYHQSWPzfEG2qAPoJGlBSTeLsHhjMiz8PVacajka-axH8-AKu_bpAwUzPvhMMJAM8zHTKW5mw0J0IaJ9C8F35agINd1f6roMpjwCeAJ-E4YnVuynic0AOQ9cf_ekRm1PRSPJw-e3Yi9C_Z9b1hRgyvu6UX2iFsiy2uNWadw6kilos_tDsKfU0R-hiPT5C3bz3iSOIP0vhDGmiDZepczbhNASrPTHUlisgyPTTqFgEjuCtHHbLP5TSVHvHOJBeq5cJ6q2ogFZZJ-jX9xef5V4g7oNYsZbMous8SwcbDxY1nuCZQX24_qfoGcQVrMhffdqsxxeH2ue0pJivhzZwzbex8TLDKqnquv3XsknpDleA2GpfrRJLK2VatTKbHnQL-I4ie-a7_dTHVy-lZ1iuThkSSxxf5SdYJymXtWGsr0Gjwjog3MSydeqmHAlQBLQF_V4PLQPRXZF66ceyE-LR_2TDI7zcmWDZWP3dy3Sp6mfEFuTzA4RjPi1sqjq0vUxQ0OwuxcKRqz_ADskdwmcWlwnazuDcCc5NbY4sPx6AvdnBFlep0Sxhh6OWIgw-el]--></g></svg>