<svg xmlns="http://www.w3.org/2000/svg" xmlns:xlink="http://www.w3.org/1999/xlink" contentStyleType="text/css" data-diagram-type="CLASS" height="697px" preserveAspectRatio="none" style="width:1589px;height:697px;background:#FFFFFF;" version="1.1" viewBox="0 0 1589 697" width="1589px" zoomAndPan="magnify"><defs/><g><!--cluster umlparser--><g id="cluster_umlparser"><path d="M489.22,6 L563.8977,6 A3.75,3.75 0 0 1 566.3977,8.5 L573.3977,28.4883 L756.22,28.4883 A2.5,2.5 0 0 1 758.72,30.9883 L758.72,74.5 A2.5,2.5 0 0 1 756.22,77 L489.22,77 A2.5,2.5 0 0 1 486.72,74.5 L486.72,8.5 A2.5,2.5 0 0 1 489.22,6 " fill="transparent" style="stroke:#000000;stroke-width:1.5;"/><line style="stroke:#000000;stroke-width:1.5;" x1="486.72" x2="573.3977" y1="28.4883" y2="28.4883"/><text fill="#000000" font-family="sans-serif" font-size="14" font-weight="bold" lengthAdjust="spacing" textLength="73.6777" x="490.72" y="21.5352">umlparser</text></g><!--entity SoyLabel--><!--entity CondimentDecoratorLabel--><!--entity LoggerLabel--><!--entity MilkLabel--><!--entity MochaLabel--><!--class Beverage--><g id="elem_Beverage"><rect codeLine="6" fill="#F1F1F1" height="113.9531" id="Beverage" rx="2.5" ry="2.5" style="stroke:#181818;stroke-width:0.5;" width="252.9053" x="666.26" y="576.48"/><ellipse cx="758.0188" cy="592.48" fill="#A9DCDF" rx="11" ry="11" style="stroke:#181818;stroke-width:1;"/><path d="M757.8821,587.8281 L756.7283,592.8999 L759.0442,592.8999 Z M756.3879,585.5869 L759.3845,585.5869 L762.7297,597.98 L760.281,597.98 L759.5173,594.917 L756.2385,594.917 L755.4914,597.98 L753.0427,597.98 Z " fill="#000000"/><text fill="#000000" font-family="sans-serif" font-size="14" font-style="italic" lengthAdjust="spacing" textLength="60.8877" x="778.5188" y="597.771">Beverage</text><line style="stroke:#181818;stroke-width:0.5;" x1="667.26" x2="918.1653" y1="608.48" y2="608.48"/><polygon fill="transparent" points="677.26,617.2241,681.26,621.2241,677.26,625.2241,673.26,621.2241" style="stroke:#B38D22;stroke-width:1;"/><text fill="#000000" font-family="sans-serif" font-size="14" lengthAdjust="spacing" textLength="129.3359" x="686.26" y="626.0152">description : String</text><line style="stroke:#181818;stroke-width:0.5;" x1="667.26" x2="918.1653" y1="632.9683" y2="632.9683"/><ellipse cx="677.26" cy="646.7124" fill="#84BE84" rx="3" ry="3" style="stroke:#038048;stroke-width:1;"/><text fill="#000000" font-family="sans-serif" font-size="14" lengthAdjust="spacing" textLength="95.375" x="686.26" y="650.5034">&lt;init&gt;() : void</text><ellipse cx="677.26" cy="663.2007" fill="#84BE84" rx="3" ry="3" style="stroke:#038048;stroke-width:1;"/><text fill="#000000" font-family="sans-serif" font-size="14" lengthAdjust="spacing" textLength="226.9053" x="686.26" y="666.9917">getDescription() : java.lang.String</text><ellipse cx="677.26" cy="679.689" fill="#84BE84" rx="3" ry="3" style="stroke:#038048;stroke-width:1;"/><text fill="#000000" font-family="sans-serif" font-size="14" lengthAdjust="spacing" textLength="97.2959" x="686.26" y="683.48">cost() : double</text></g><!--class Soy--><g id="elem_Soy"><rect codeLine="15" fill="#FA8072" height="122.5742" id="Soy" rx="2.5" ry="2.5" style="stroke:#181818;stroke-width:0.5;" width="255.4346" x="297" y="168.48"/><ellipse cx="387.4312" cy="188.7905" fill="#ADD1B2" rx="11" ry="11" style="stroke:#181818;stroke-width:1;"/><path d="M389.9043,194.9336 Q389.3232,195.2324 388.6841,195.3819 Q388.0449,195.5313 387.3394,195.5313 Q384.8325,195.5313 383.5127,193.8794 Q382.1929,192.2276 382.1929,189.1065 Q382.1929,185.9771 383.5127,184.3252 Q384.8325,182.6734 387.3394,182.6734 Q388.0449,182.6734 388.6924,182.8228 Q389.3398,182.9722 389.9043,183.271 L389.9043,185.9937 Q389.2734,185.4126 388.6799,185.1428 Q388.0864,184.8731 387.4556,184.8731 Q386.1108,184.8731 385.426,185.9397 Q384.7412,187.0064 384.7412,189.1065 Q384.7412,191.1983 385.426,192.2649 Q386.1108,193.3316 387.4556,193.3316 Q388.0864,193.3316 388.6799,193.0618 Q389.2734,192.792 389.9043,192.211 Z " fill="#000000"/><text fill="#000000" font-family="sans-serif" font-size="12" font-style="italic" lengthAdjust="spacing" textLength="70.0723" x="405.9312" y="185.0816">&#171;Decorator&#187;</text><text fill="#000000" font-family="sans-serif" font-size="14" lengthAdjust="spacing" textLength="23.4541" x="429.2402" y="201.148">Soy</text><line style="stroke:#181818;stroke-width:0.5;" x1="298" x2="551.4346" y1="209.1011" y2="209.1011"/><rect fill="transparent" height="6" style="stroke:#C82930;stroke-width:1;" width="6" x="305" y="219.8452"/><text fill="#000000" font-family="sans-serif" font-size="14" lengthAdjust="spacing" textLength="135.8232" x="317" y="226.6362">beverage : Beverage</text><line style="stroke:#181818;stroke-width:0.5;" x1="298" x2="551.4346" y1="233.5894" y2="233.5894"/><ellipse cx="308" cy="247.3335" fill="#84BE84" rx="3" ry="3" style="stroke:#038048;stroke-width:1;"/><text fill="#000000" font-family="sans-serif" font-size="14" lengthAdjust="spacing" textLength="229.4346" x="317" y="251.1245">&lt;init&gt;(umlparser.Beverage) : void</text><ellipse cx="308" cy="263.8218" fill="#84BE84" rx="3" ry="3" style="stroke:#038048;stroke-width:1;"/><text fill="#000000" font-family="sans-serif" font-size="14" lengthAdjust="spacing" textLength="226.9053" x="317" y="267.6128">getDescription() : java.lang.String</text><ellipse cx="308" cy="280.3101" fill="#84BE84" rx="3" ry="3" style="stroke:#038048;stroke-width:1;"/><text fill="#000000" font-family="sans-serif" font-size="14" lengthAdjust="spacing" textLength="97.2959" x="317" y="284.1011">cost() : double</text></g><!--class CondimentDecorator--><g id="elem_CondimentDecorator"><rect codeLine="24" fill="#FA8072" height="89.5977" id="CondimentDecorator" rx="2.5" ry="2.5" style="stroke:#181818;stroke-width:0.5;" width="252.9053" x="487.26" y="388.97"/><ellipse cx="538.6081" cy="409.2805" fill="#A9DCDF" rx="11" ry="11" style="stroke:#181818;stroke-width:1;"/><path d="M538.4714,404.6287 L537.3176,409.7005 L539.6335,409.7005 Z M536.9773,402.3875 L539.9739,402.3875 L543.3191,414.7805 L540.8704,414.7805 L540.1067,411.7176 L536.8279,411.7176 L536.0808,414.7805 L533.6321,414.7805 Z " fill="#000000"/><text fill="#000000" font-family="sans-serif" font-size="12" font-style="italic" lengthAdjust="spacing" textLength="70.0723" x="594.9265" y="405.5716">&#171;Decorator&#187;</text><text fill="#000000" font-family="sans-serif" font-size="14" font-style="italic" lengthAdjust="spacing" textLength="141.709" x="559.1081" y="421.638">CondimentDecorator</text><line style="stroke:#181818;stroke-width:0.5;" x1="488.26" x2="739.1653" y1="429.5911" y2="429.5911"/><line style="stroke:#181818;stroke-width:0.5;" x1="488.26" x2="739.1653" y1="437.5911" y2="437.5911"/><ellipse cx="498.26" cy="451.3352" fill="#84BE84" rx="3" ry="3" style="stroke:#038048;stroke-width:1;"/><text fill="#000000" font-family="sans-serif" font-size="14" lengthAdjust="spacing" textLength="95.375" x="507.26" y="455.1262">&lt;init&gt;() : void</text><ellipse cx="498.26" cy="467.8235" fill="#84BE84" rx="3" ry="3" style="stroke:#038048;stroke-width:1;"/><text fill="#000000" font-family="sans-serif" font-size="14" lengthAdjust="spacing" textLength="226.9053" x="507.26" y="471.6145">getDescription() : java.lang.String</text></g><!--class OrderManager--><g id="elem_OrderManager"><rect codeLine="29" fill="#F1F1F1" height="113.9531" id="OrderManager" rx="2.5" ry="2.5" style="stroke:#181818;stroke-width:0.5;" width="253.5137" x="1011.96" y="172.8"/><ellipse cx="1085.7608" cy="188.8" fill="#ADD1B2" rx="11" ry="11" style="stroke:#181818;stroke-width:1;"/><path d="M1088.2339,194.9431 Q1087.6529,195.2419 1087.0137,195.3913 Q1086.3746,195.5407 1085.669,195.5407 Q1083.1621,195.5407 1081.8423,193.8889 Q1080.5225,192.237 1080.5225,189.1159 Q1080.5225,185.9865 1081.8423,184.3347 Q1083.1621,182.6828 1085.669,182.6828 Q1086.3746,182.6828 1087.022,182.8322 Q1087.6695,182.9816 1088.2339,183.2805 L1088.2339,186.0031 Q1087.6031,185.4221 1087.0096,185.1523 Q1086.4161,184.8825 1085.7852,184.8825 Q1084.4405,184.8825 1083.7557,185.9492 Q1083.0708,187.0158 1083.0708,189.1159 Q1083.0708,191.2077 1083.7557,192.2744 Q1084.4405,193.341 1085.7852,193.341 Q1086.4161,193.341 1087.0096,193.0712 Q1087.6031,192.8015 1088.2339,192.2204 Z " fill="#000000"/><text fill="#000000" font-family="sans-serif" font-size="14" lengthAdjust="spacing" textLength="97.4121" x="1106.2608" y="194.091">OrderManager</text><line style="stroke:#181818;stroke-width:0.5;" x1="1012.96" x2="1264.4737" y1="204.8" y2="204.8"/><rect fill="transparent" height="6" style="stroke:#C82930;stroke-width:1;" width="6" x="1019.96" y="215.5441"/><text fill="#000000" font-family="sans-serif" font-size="14" lengthAdjust="spacing" textLength="107.167" x="1031.96" y="222.3352">orders : Order&gt;</text><line style="stroke:#181818;stroke-width:0.5;" x1="1012.96" x2="1264.4737" y1="229.2883" y2="229.2883"/><ellipse cx="1022.96" cy="243.0324" fill="#84BE84" rx="3" ry="3" style="stroke:#038048;stroke-width:1;"/><text fill="#000000" font-family="sans-serif" font-size="14" lengthAdjust="spacing" textLength="95.375" x="1031.96" y="246.8234">&lt;init&gt;() : void</text><ellipse cx="1022.96" cy="259.5207" fill="#84BE84" rx="3" ry="3" style="stroke:#038048;stroke-width:1;"/><text fill="#000000" font-family="sans-serif" font-size="14" lengthAdjust="spacing" textLength="227.5137" x="1031.96" y="263.3117">addOrder(umlparser.Order) : void</text><ellipse cx="1022.96" cy="276.009" fill="#84BE84" rx="3" ry="3" style="stroke:#038048;stroke-width:1;"/><text fill="#000000" font-family="sans-serif" font-size="14" lengthAdjust="spacing" textLength="149.5635" x="1031.96" y="279.8">processOrders() : void</text></g><!--class JCUTApplication--><g id="elem_JCUTApplication"><rect codeLine="36" fill="#F1F1F1" height="80.9766" id="JCUTApplication" rx="2.5" ry="2.5" style="stroke:#181818;stroke-width:0.5;" width="224.7344" x="777.35" y="10.51"/><ellipse cx="830.7455" cy="26.51" fill="#ADD1B2" rx="11" ry="11" style="stroke:#181818;stroke-width:1;"/><path d="M833.2187,32.6531 Q832.6376,32.9519 831.9984,33.1013 Q831.3593,33.2507 830.6537,33.2507 Q828.1469,33.2507 826.8271,31.5989 Q825.5072,29.947 825.5072,26.8259 Q825.5072,23.6965 826.8271,22.0447 Q828.1469,20.3928 830.6537,20.3928 Q831.3593,20.3928 832.0067,20.5422 Q832.6542,20.6916 833.2187,20.9905 L833.2187,23.7131 Q832.5878,23.1321 831.9943,22.8623 Q831.4008,22.5925 830.7699,22.5925 Q829.4252,22.5925 828.7404,23.6592 Q828.0556,24.7258 828.0556,26.8259 Q828.0556,28.9177 828.7404,29.9844 Q829.4252,31.051 830.7699,31.051 Q831.4008,31.051 831.9943,30.7812 Q832.5878,30.5115 833.2187,29.9304 Z " fill="#000000"/><text fill="#000000" font-family="sans-serif" font-size="14" lengthAdjust="spacing" textLength="109.4434" x="851.2455" y="31.801">JCUTApplication</text><line style="stroke:#181818;stroke-width:0.5;" x1="778.35" x2="1001.0844" y1="42.51" y2="42.51"/><line style="stroke:#181818;stroke-width:0.5;" x1="778.35" x2="1001.0844" y1="50.51" y2="50.51"/><ellipse cx="788.35" cy="64.2541" fill="#84BE84" rx="3" ry="3" style="stroke:#038048;stroke-width:1;"/><text fill="#000000" font-family="sans-serif" font-size="14" lengthAdjust="spacing" textLength="95.375" x="797.35" y="68.0452">&lt;init&gt;() : void</text><ellipse cx="788.35" cy="80.7424" fill="#84BE84" rx="3" ry="3" style="stroke:#038048;stroke-width:1;"/><text fill="#000000" font-family="sans-serif" font-size="14" lengthAdjust="spacing" textLength="198.7344" x="797.35" y="84.5334">main(java.lang.String[]) : void</text></g><!--class Logger--><g id="elem_Logger"><rect codeLine="43" fill="#ADD8E6" height="122.5742" id="Logger" rx="2.5" ry="2.5" style="stroke:#181818;stroke-width:0.5;" width="246.8691" x="1300.28" y="168.48"/><ellipse cx="1388.0163" cy="188.7905" fill="#ADD1B2" rx="11" ry="11" style="stroke:#181818;stroke-width:1;"/><path d="M1390.4895,194.9336 Q1389.9084,195.2324 1389.2693,195.3819 Q1388.6301,195.5313 1387.9245,195.5313 Q1385.4177,195.5313 1384.0979,193.8794 Q1382.778,192.2276 1382.778,189.1065 Q1382.778,185.9771 1384.0979,184.3252 Q1385.4177,182.6734 1387.9245,182.6734 Q1388.6301,182.6734 1389.2776,182.8228 Q1389.925,182.9722 1390.4895,183.271 L1390.4895,185.9937 Q1389.8586,185.4126 1389.2651,185.1428 Q1388.6716,184.8731 1388.0407,184.8731 Q1386.696,184.8731 1386.0112,185.9397 Q1385.3264,187.0064 1385.3264,189.1065 Q1385.3264,191.1983 1386.0112,192.2649 Q1386.696,193.3316 1388.0407,193.3316 Q1388.6716,193.3316 1389.2651,193.0618 Q1389.8586,192.792 1390.4895,192.211 Z " fill="#000000"/><text fill="#000000" font-family="sans-serif" font-size="12" font-style="italic" lengthAdjust="spacing" textLength="66.8965" x="1406.5163" y="185.0816">&#171;Singleton&#187;</text><text fill="#000000" font-family="sans-serif" font-size="14" lengthAdjust="spacing" textLength="47.0518" x="1416.4387" y="201.148">Logger</text><line style="stroke:#181818;stroke-width:0.5;" x1="1301.28" x2="1546.1491" y1="209.1011" y2="209.1011"/><rect fill="transparent" height="6" style="stroke:#C82930;stroke-width:1;" width="6" x="1308.28" y="219.8452"/><text fill="#000000" font-family="sans-serif" font-size="14" lengthAdjust="spacing" textLength="116.8398" x="1320.28" y="226.6362">instance : Logger</text><line style="stroke:#181818;stroke-width:0.5;" x1="1301.28" x2="1546.1491" y1="233.5894" y2="233.5894"/><rect fill="#F24D5C" height="6" style="stroke:#C82930;stroke-width:1;" width="6" x="1308.28" y="244.3335"/><text fill="#000000" font-family="sans-serif" font-size="14" lengthAdjust="spacing" textLength="95.375" x="1320.28" y="251.1245">&lt;init&gt;() : void</text><ellipse cx="1311.28" cy="263.8218" fill="#84BE84" rx="3" ry="3" style="stroke:#038048;stroke-width:1;"/><text fill="#000000" font-family="sans-serif" font-size="14" lengthAdjust="spacing" textLength="220.8691" x="1320.28" y="267.6128">getInstance() : umlparser.Logger</text><ellipse cx="1311.28" cy="280.3101" fill="#84BE84" rx="3" ry="3" style="stroke:#038048;stroke-width:1;"/><text fill="#000000" font-family="sans-serif" font-size="14" lengthAdjust="spacing" textLength="177.4678" x="1320.28" y="284.1011">log(java.lang.String) : void</text></g><!--class Order--><g id="elem_Order"><rect codeLine="50" fill="#F1F1F1" height="163.418" id="Order" rx="2.5" ry="2.5" style="stroke:#181818;stroke-width:0.5;" width="282.2656" x="845.58" y="352.06"/><ellipse cx="962.9906" cy="368.06" fill="#ADD1B2" rx="11" ry="11" style="stroke:#181818;stroke-width:1;"/><path d="M965.4638,374.2031 Q964.8827,374.5019 964.2436,374.6513 Q963.6044,374.8007 962.8988,374.8007 Q960.392,374.8007 959.0722,373.1489 Q957.7524,371.497 957.7524,368.3759 Q957.7524,365.2465 959.0722,363.5947 Q960.392,361.9428 962.8988,361.9428 Q963.6044,361.9428 964.2519,362.0922 Q964.8993,362.2416 965.4638,362.5405 L965.4638,365.2631 Q964.8329,364.6821 964.2394,364.4123 Q963.6459,364.1425 963.0151,364.1425 Q961.6703,364.1425 960.9855,365.2092 Q960.3007,366.2758 960.3007,368.3759 Q960.3007,370.4677 960.9855,371.5344 Q961.6703,372.601 963.0151,372.601 Q963.6459,372.601 964.2394,372.3312 Q964.8329,372.0615 965.4638,371.4804 Z " fill="#000000"/><text fill="#000000" font-family="sans-serif" font-size="14" lengthAdjust="spacing" textLength="38.9443" x="983.4906" y="373.351">Order</text><line style="stroke:#181818;stroke-width:0.5;" x1="846.58" x2="1126.8456" y1="384.06" y2="384.06"/><rect fill="transparent" height="6" style="stroke:#C82930;stroke-width:1;" width="6" x="853.58" y="394.8041"/><text fill="#000000" font-family="sans-serif" font-size="14" lengthAdjust="spacing" textLength="80.7734" x="865.58" y="401.5952">orderId : int</text><rect fill="transparent" height="6" style="stroke:#C82930;stroke-width:1;" width="6" x="853.58" y="411.2924"/><text fill="#000000" font-family="sans-serif" font-size="14" lengthAdjust="spacing" textLength="135.8232" x="865.58" y="418.0834">beverage : Beverage</text><line style="stroke:#181818;stroke-width:0.5;" x1="846.58" x2="1126.8456" y1="425.0366" y2="425.0366"/><ellipse cx="856.58" cy="438.7807" fill="#84BE84" rx="3" ry="3" style="stroke:#038048;stroke-width:1;"/><text fill="#000000" font-family="sans-serif" font-size="14" lengthAdjust="spacing" textLength="256.2656" x="865.58" y="442.5717">&lt;init&gt;(int, umlparser.Beverage) : void</text><ellipse cx="856.58" cy="455.269" fill="#84BE84" rx="3" ry="3" style="stroke:#038048;stroke-width:1;"/><text fill="#000000" font-family="sans-serif" font-size="14" lengthAdjust="spacing" textLength="113.9209" x="865.58" y="459.06">getOrderId() : int</text><ellipse cx="856.58" cy="471.7573" fill="#84BE84" rx="3" ry="3" style="stroke:#038048;stroke-width:1;"/><text fill="#000000" font-family="sans-serif" font-size="14" lengthAdjust="spacing" textLength="239.1074" x="865.58" y="475.5483">getBeverage() : umlparser.Beverage</text><ellipse cx="856.58" cy="488.2455" fill="#84BE84" rx="3" ry="3" style="stroke:#038048;stroke-width:1;"/><text fill="#000000" font-family="sans-serif" font-size="14" lengthAdjust="spacing" textLength="121.5771" x="865.58" y="492.0366">getCost() : double</text><ellipse cx="856.58" cy="504.7338" fill="#84BE84" rx="3" ry="3" style="stroke:#038048;stroke-width:1;"/><text fill="#000000" font-family="sans-serif" font-size="14" lengthAdjust="spacing" textLength="226.9053" x="865.58" y="508.5248">getDescription() : java.lang.String</text></g><!--class Milk--><g id="elem_Milk"><rect codeLine="62" fill="#FA8072" height="122.5742" id="Milk" rx="2.5" ry="2.5" style="stroke:#181818;stroke-width:0.5;" width="255.4346" x="7" y="168.48"/><ellipse cx="97.4312" cy="188.7905" fill="#ADD1B2" rx="11" ry="11" style="stroke:#181818;stroke-width:1;"/><path d="M99.9043,194.9336 Q99.3232,195.2324 98.6841,195.3819 Q98.0449,195.5313 97.3394,195.5313 Q94.8325,195.5313 93.5127,193.8794 Q92.1929,192.2276 92.1929,189.1065 Q92.1929,185.9771 93.5127,184.3252 Q94.8325,182.6734 97.3394,182.6734 Q98.0449,182.6734 98.6924,182.8228 Q99.3398,182.9722 99.9043,183.271 L99.9043,185.9937 Q99.2734,185.4126 98.6799,185.1428 Q98.0864,184.8731 97.4556,184.8731 Q96.1108,184.8731 95.426,185.9397 Q94.7412,187.0064 94.7412,189.1065 Q94.7412,191.1983 95.426,192.2649 Q96.1108,193.3316 97.4556,193.3316 Q98.0864,193.3316 98.6799,193.0618 Q99.2734,192.792 99.9043,192.211 Z " fill="#000000"/><text fill="#000000" font-family="sans-serif" font-size="12" font-style="italic" lengthAdjust="spacing" textLength="70.0723" x="115.9312" y="185.0816">&#171;Decorator&#187;</text><text fill="#000000" font-family="sans-serif" font-size="14" lengthAdjust="spacing" textLength="28.335" x="136.7998" y="201.148">Milk</text><line style="stroke:#181818;stroke-width:0.5;" x1="8" x2="261.4346" y1="209.1011" y2="209.1011"/><rect fill="transparent" height="6" style="stroke:#C82930;stroke-width:1;" width="6" x="15" y="219.8452"/><text fill="#000000" font-family="sans-serif" font-size="14" lengthAdjust="spacing" textLength="135.8232" x="27" y="226.6362">beverage : Beverage</text><line style="stroke:#181818;stroke-width:0.5;" x1="8" x2="261.4346" y1="233.5894" y2="233.5894"/><ellipse cx="18" cy="247.3335" fill="#84BE84" rx="3" ry="3" style="stroke:#038048;stroke-width:1;"/><text fill="#000000" font-family="sans-serif" font-size="14" lengthAdjust="spacing" textLength="229.4346" x="27" y="251.1245">&lt;init&gt;(umlparser.Beverage) : void</text><ellipse cx="18" cy="263.8218" fill="#84BE84" rx="3" ry="3" style="stroke:#038048;stroke-width:1;"/><text fill="#000000" font-family="sans-serif" font-size="14" lengthAdjust="spacing" textLength="226.9053" x="27" y="267.6128">getDescription() : java.lang.String</text><ellipse cx="18" cy="280.3101" fill="#84BE84" rx="3" ry="3" style="stroke:#038048;stroke-width:1;"/><text fill="#000000" font-family="sans-serif" font-size="14" lengthAdjust="spacing" textLength="97.2959" x="27" y="284.1011">cost() : double</text></g><!--class Mocha--><g id="elem_Mocha"><rect codeLine="71" fill="#FA8072" height="122.5742" id="Mocha" rx="2.5" ry="2.5" style="stroke:#181818;stroke-width:0.5;" width="255.4346" x="722" y="168.48"/><ellipse cx="812.4312" cy="188.7905" fill="#ADD1B2" rx="11" ry="11" style="stroke:#181818;stroke-width:1;"/><path d="M814.9043,194.9336 Q814.3232,195.2324 813.6841,195.3819 Q813.0449,195.5313 812.3394,195.5313 Q809.8325,195.5313 808.5127,193.8794 Q807.1929,192.2276 807.1929,189.1065 Q807.1929,185.9771 808.5127,184.3252 Q809.8325,182.6734 812.3394,182.6734 Q813.0449,182.6734 813.6924,182.8228 Q814.3398,182.9722 814.9043,183.271 L814.9043,185.9937 Q814.2734,185.4126 813.6799,185.1428 Q813.0864,184.8731 812.4556,184.8731 Q811.1108,184.8731 810.426,185.9397 Q809.7412,187.0064 809.7412,189.1065 Q809.7412,191.1983 810.426,192.2649 Q811.1108,193.3316 812.4556,193.3316 Q813.0864,193.3316 813.6799,193.0618 Q814.2734,192.792 814.9043,192.211 Z " fill="#000000"/><text fill="#000000" font-family="sans-serif" font-size="12" font-style="italic" lengthAdjust="spacing" textLength="70.0723" x="830.9312" y="185.0816">&#171;Decorator&#187;</text><text fill="#000000" font-family="sans-serif" font-size="14" lengthAdjust="spacing" textLength="44.249" x="843.8428" y="201.148">Mocha</text><line style="stroke:#181818;stroke-width:0.5;" x1="723" x2="976.4346" y1="209.1011" y2="209.1011"/><rect fill="transparent" height="6" style="stroke:#C82930;stroke-width:1;" width="6" x="730" y="219.8452"/><text fill="#000000" font-family="sans-serif" font-size="14" lengthAdjust="spacing" textLength="135.8232" x="742" y="226.6362">beverage : Beverage</text><line style="stroke:#181818;stroke-width:0.5;" x1="723" x2="976.4346" y1="233.5894" y2="233.5894"/><ellipse cx="733" cy="247.3335" fill="#84BE84" rx="3" ry="3" style="stroke:#038048;stroke-width:1;"/><text fill="#000000" font-family="sans-serif" font-size="14" lengthAdjust="spacing" textLength="229.4346" x="742" y="251.1245">&lt;init&gt;(umlparser.Beverage) : void</text><ellipse cx="733" cy="263.8218" fill="#84BE84" rx="3" ry="3" style="stroke:#038048;stroke-width:1;"/><text fill="#000000" font-family="sans-serif" font-size="14" lengthAdjust="spacing" textLength="226.9053" x="742" y="267.6128">getDescription() : java.lang.String</text><ellipse cx="733" cy="280.3101" fill="#84BE84" rx="3" ry="3" style="stroke:#038048;stroke-width:1;"/><text fill="#000000" font-family="sans-serif" font-size="14" lengthAdjust="spacing" textLength="97.2959" x="742" y="284.1011">cost() : double</text></g><!--class Espresso--><g id="elem_Espresso"><rect codeLine="78" fill="#F1F1F1" height="80.9766" id="Espresso" rx="2.5" ry="2.5" style="stroke:#181818;stroke-width:0.5;" width="123.2959" x="1163.07" y="393.28"/><ellipse cx="1192.1813" cy="409.28" fill="#ADD1B2" rx="11" ry="11" style="stroke:#181818;stroke-width:1;"/><path d="M1194.6544,415.4231 Q1194.0734,415.7219 1193.4342,415.8713 Q1192.795,416.0207 1192.0895,416.0207 Q1189.5826,416.0207 1188.2628,414.3689 Q1186.943,412.717 1186.943,409.5959 Q1186.943,406.4665 1188.2628,404.8147 Q1189.5826,403.1628 1192.0895,403.1628 Q1192.795,403.1628 1193.4425,403.3122 Q1194.09,403.4616 1194.6544,403.7605 L1194.6544,406.4831 Q1194.0236,405.9021 1193.4301,405.6323 Q1192.8366,405.3625 1192.2057,405.3625 Q1190.861,405.3625 1190.1762,406.4292 Q1189.4913,407.4958 1189.4913,409.5959 Q1189.4913,411.6877 1190.1762,412.7544 Q1190.861,413.821 1192.2057,413.821 Q1192.8366,413.821 1193.4301,413.5512 Q1194.0236,413.2815 1194.6544,412.7004 Z " fill="#000000"/><text fill="#000000" font-family="sans-serif" font-size="14" lengthAdjust="spacing" textLength="59.9375" x="1209.3171" y="414.571">Espresso</text><line style="stroke:#181818;stroke-width:0.5;" x1="1164.07" x2="1285.3659" y1="425.28" y2="425.28"/><line style="stroke:#181818;stroke-width:0.5;" x1="1164.07" x2="1285.3659" y1="433.28" y2="433.28"/><ellipse cx="1174.07" cy="447.0241" fill="#84BE84" rx="3" ry="3" style="stroke:#038048;stroke-width:1;"/><text fill="#000000" font-family="sans-serif" font-size="14" lengthAdjust="spacing" textLength="95.375" x="1183.07" y="450.8152">&lt;init&gt;() : void</text><ellipse cx="1174.07" cy="463.5124" fill="#84BE84" rx="3" ry="3" style="stroke:#038048;stroke-width:1;"/><text fill="#000000" font-family="sans-serif" font-size="14" lengthAdjust="spacing" textLength="97.2959" x="1183.07" y="467.3034">cost() : double</text></g><!--class HouseBlend--><g id="elem_HouseBlend"><rect codeLine="83" fill="#F1F1F1" height="80.9766" id="HouseBlend" rx="2.5" ry="2.5" style="stroke:#181818;stroke-width:0.5;" width="123.2959" x="1321.07" y="393.28"/><ellipse cx="1341.1927" cy="409.28" fill="#ADD1B2" rx="11" ry="11" style="stroke:#181818;stroke-width:1;"/><path d="M1343.6658,415.4231 Q1343.0848,415.7219 1342.4456,415.8713 Q1341.8065,416.0207 1341.1009,416.0207 Q1338.5941,416.0207 1337.2742,414.3689 Q1335.9544,412.717 1335.9544,409.5959 Q1335.9544,406.4665 1337.2742,404.8147 Q1338.5941,403.1628 1341.1009,403.1628 Q1341.8065,403.1628 1342.4539,403.3122 Q1343.1014,403.4616 1343.6658,403.7605 L1343.6658,406.4831 Q1343.035,405.9021 1342.4415,405.6323 Q1341.848,405.3625 1341.2171,405.3625 Q1339.8724,405.3625 1339.1876,406.4292 Q1338.5028,407.4958 1338.5028,409.5959 Q1338.5028,411.6877 1339.1876,412.7544 Q1339.8724,413.821 1341.2171,413.821 Q1341.848,413.821 1342.4415,413.5512 Q1343.035,413.2815 1343.6658,412.7004 Z " fill="#000000"/><text fill="#000000" font-family="sans-serif" font-size="14" lengthAdjust="spacing" textLength="79.9121" x="1356.3311" y="414.571">HouseBlend</text><line style="stroke:#181818;stroke-width:0.5;" x1="1322.07" x2="1443.3659" y1="425.28" y2="425.28"/><line style="stroke:#181818;stroke-width:0.5;" x1="1322.07" x2="1443.3659" y1="433.28" y2="433.28"/><ellipse cx="1332.07" cy="447.0241" fill="#84BE84" rx="3" ry="3" style="stroke:#038048;stroke-width:1;"/><text fill="#000000" font-family="sans-serif" font-size="14" lengthAdjust="spacing" textLength="95.375" x="1341.07" y="450.8152">&lt;init&gt;() : void</text><ellipse cx="1332.07" cy="463.5124" fill="#84BE84" rx="3" ry="3" style="stroke:#038048;stroke-width:1;"/><text fill="#000000" font-family="sans-serif" font-size="14" lengthAdjust="spacing" textLength="97.2959" x="1341.07" y="467.3034">cost() : double</text></g><!--link SoyLabel to Soy--><g id="link_SoyLabel_Soy"><path codeLine="14" d="M561.76,61.28 C556.45,69.4 548.36,81.44 540.72,91.48 C521.16,117.18 502.353,139.983 482.243,163.463 " fill="transparent" id="SoyLabel-to-Soy" style="stroke:#FF0000;stroke-width:1;"/><polygon fill="#FF0000" points="478.34,168.02,487.2325,163.7864,481.5925,164.2225,481.1565,158.5824,478.34,168.02" style="stroke:#FF0000;stroke-width:1;"/><text fill="#000000" font-family="sans-serif" font-size="13" lengthAdjust="spacing" textLength="62.2896" x="517.37" y="135.0484">Decorator</text></g><!--link CondimentDecoratorLabel to CondimentDecorator--><g id="link_CondimentDecoratorLabel_CondimentDecorator"><path codeLine="23" d="M622.49,61.41 C621.43,106.3 616.9918,294.1417 614.9018,382.5317 " fill="transparent" id="CondimentDecoratorLabel-to-CondimentDecorator" style="stroke:#FF0000;stroke-width:1;"/><polygon fill="#FF0000" points="614.76,388.53,618.9716,379.6271,614.8782,383.5314,610.9739,379.438,614.76,388.53" style="stroke:#FF0000;stroke-width:1;"/><text fill="#000000" font-family="sans-serif" font-size="13" lengthAdjust="spacing" textLength="62.2896" x="620.94" y="234.8384">Decorator</text></g><!--link LoggerLabel to Logger--><g id="link_LoggerLabel_Logger"><path codeLine="42" d="M736.35,61.17 C740.53,70.43 748.31,84.35 759.72,91.48 C859.33,153.75 1169.66,136.57 1282.72,168.48 C1288.35,170.08 1288.362,169.9605 1294.092,171.8505 " fill="transparent" id="LoggerLabel-to-Logger" style="stroke:#0000FF;stroke-width:1;"/><polygon fill="#0000FF" points="1299.79,173.73,1292.4959,167.1121,1295.0416,172.1638,1289.99,174.7095,1299.79,173.73" style="stroke:#0000FF;stroke-width:1;"/><text fill="#000000" font-family="sans-serif" font-size="13" lengthAdjust="spacing" textLength="58.8491" x="979.84" y="135.0484">Singleton</text></g><!--link MilkLabel to Milk--><g id="link_MilkLabel_Milk"><path codeLine="61" d="M502.61,56.72 C468.5,72.68 360.0949,123.3681 267.9849,166.4481 " fill="transparent" id="MilkLabel-to-Milk" style="stroke:#FF0000;stroke-width:1;"/><polygon fill="#FF0000" points="262.55,168.99,272.397,168.8004,267.0791,166.8717,269.0078,161.5538,262.55,168.99" style="stroke:#FF0000;stroke-width:1;"/><text fill="#000000" font-family="sans-serif" font-size="13" lengthAdjust="spacing" textLength="62.2896" x="358.57" y="135.0484">Decorator</text></g><!--link MochaLabel to Mocha--><g id="link_MochaLabel_Mocha"><path codeLine="70" d="M683.21,61.17 C688.33,69.44 696.42,81.75 704.72,91.48 C727.44,118.12 750.3928,141.0385 775.2028,163.9585 " fill="transparent" id="MochaLabel-to-Mocha" style="stroke:#FF0000;stroke-width:1;"/><polygon fill="#FF0000" points="779.61,168.03,775.7135,158.9847,775.9373,164.6371,770.2849,164.8609,779.61,168.03" style="stroke:#FF0000;stroke-width:1;"/><text fill="#000000" font-family="sans-serif" font-size="13" lengthAdjust="spacing" textLength="62.2896" x="746.81" y="135.0484">Decorator</text></g><!--link Soy to CondimentDecorator--><g id="link_Soy_CondimentDecorator"><path codeLine="88" d="M481.42,291.38 C510.67,322.64 533.4135,346.9348 560.0735,375.4348 " fill="transparent" id="Soy-to-CondimentDecorator" style="stroke:#181818;stroke-width:1;"/><polygon fill="transparent" points="572.37,388.58,564.4552,371.336,555.6918,379.5337,572.37,388.58" style="stroke:#181818;stroke-width:1;"/></g><!--link Soy to Beverage--><g id="link_Soy_Beverage"><path codeLine="89" d="M417.66,291.29 C413.75,354.35 417.79,452.57 469.72,515.48 C517.93,573.89 591.9334,601.8816 660.1834,616.5216 " fill="transparent" id="Soy-to-Beverage" style="stroke:#181818;stroke-width:1;"/><polygon fill="#181818" points="666.05,617.78,658.0891,611.9814,661.1612,616.7313,656.4112,619.8034,666.05,617.78" style="stroke:#181818;stroke-width:1;"/><text fill="#000000" font-family="sans-serif" font-size="13" lengthAdjust="spacing" textLength="8.2202" x="650.0945" y="629.8596">1</text></g><!--link CondimentDecorator to Beverage--><g id="link_CondimentDecorator_Beverage"><path codeLine="90" d="M653.44,478.64 C679.5,507.42 701.7287,531.9667 729.7787,562.9467 " fill="transparent" id="CondimentDecorator-to-Beverage" style="stroke:#181818;stroke-width:1;"/><polygon fill="transparent" points="741.86,576.29,734.2265,558.9196,725.331,566.9738,741.86,576.29" style="stroke:#181818;stroke-width:1;"/></g><!--link OrderManager to Order--><g id="link_OrderManager_Order"><path codeLine="91" d="M1096.38,287.04 C1081.27,307.12 1067.5363,325.3548 1051.1863,347.0948 " fill="transparent" id="OrderManager-to-Order" style="stroke:#181818;stroke-width:1;"/><polygon fill="#181818" points="1047.58,351.89,1056.1863,347.1014,1050.5853,347.894,1049.7927,342.2929,1047.58,351.89" style="stroke:#181818;stroke-width:1;"/><text fill="#000000" font-family="sans-serif" font-size="13" lengthAdjust="spacing" textLength="6.2651" x="1046.9269" y="341.233">*</text></g><!--link Logger to Logger--><g id="link_Logger_Logger"><path codeLine="92" d="M1547.6,213.81 C1568.06,216.07 1582.15,221.39 1582.15,229.77 C1582.15,238.15 1574.0237,242.8113 1553.5637,245.0713 " fill="transparent" id="Logger-to-Logger" style="stroke:#181818;stroke-width:1;"/><polygon fill="#181818" points="1547.6,245.73,1556.9848,248.7177,1552.5698,245.181,1556.1064,240.7661,1547.6,245.73" style="stroke:#181818;stroke-width:1;"/><text fill="#000000" font-family="sans-serif" font-size="13" lengthAdjust="spacing" textLength="8.2202" x="1554.9997" y="243.7966">1</text></g><!--link Order to Beverage--><g id="link_Order_Beverage"><path codeLine="93" d="M907.25,515.74 C887.37,536 870.6725,553.0176 852.2525,571.7876 " fill="transparent" id="Order-to-Beverage" style="stroke:#181818;stroke-width:1;"/><polygon fill="#181818" points="848.05,576.07,857.2087,572.4481,851.5521,572.5014,851.4989,566.8447,848.05,576.07" style="stroke:#181818;stroke-width:1;"/><text fill="#000000" font-family="sans-serif" font-size="13" lengthAdjust="spacing" textLength="8.2202" x="846.3202" y="565.7492">1</text></g><!--link Milk to CondimentDecorator--><g id="link_Milk_CondimentDecorator"><path codeLine="94" d="M262.77,284.77 C339.67,317.2 419.7147,350.9552 492.1047,381.4852 " fill="transparent" id="Milk-to-CondimentDecorator" style="stroke:#181818;stroke-width:1;"/><polygon fill="transparent" points="508.69,388.48,494.4362,375.9568,489.7731,387.0137,508.69,388.48" style="stroke:#181818;stroke-width:1;"/></g><!--link Milk to Beverage--><g id="link_Milk_Beverage"><path codeLine="95" d="M179.67,291.3 C229.63,354.84 315.74,453.89 409.72,515.48 C487.06,566.16 581.5416,594.5 660.1316,611.24 " fill="transparent" id="Milk-to-Beverage" style="stroke:#181818;stroke-width:1;"/><polygon fill="#181818" points="666,612.49,658.0308,606.7028,661.1097,611.4483,656.3642,614.5273,666,612.49" style="stroke:#181818;stroke-width:1;"/><text fill="#000000" font-family="sans-serif" font-size="13" lengthAdjust="spacing" textLength="8.2202" x="650.0414" y="608.3331">1</text></g><!--link Mocha to CondimentDecorator--><g id="link_Mocha_CondimentDecorator"><path codeLine="96" d="M778.91,291.38 C742.39,322.64 712.3136,348.3739 679.0236,376.8739 " fill="transparent" id="Mocha-to-CondimentDecorator" style="stroke:#181818;stroke-width:1;"/><polygon fill="transparent" points="665.35,388.58,682.9256,381.4317,675.1215,372.316,665.35,388.58" style="stroke:#181818;stroke-width:1;"/></g><!--link Mocha to Beverage--><g id="link_Mocha_Beverage"><path codeLine="97" d="M838.04,291.43 C834.49,310.77 830.74,332.28 827.72,352.06 C815.87,429.53 805.8499,513.5375 799.4799,570.2375 " fill="transparent" id="Mocha-to-Beverage" style="stroke:#181818;stroke-width:1;"/><polygon fill="#181818" points="798.81,576.2,803.7898,567.7028,799.3682,571.2313,795.8398,566.8097,798.81,576.2" style="stroke:#181818;stroke-width:1;"/><text fill="#000000" font-family="sans-serif" font-size="13" lengthAdjust="spacing" textLength="8.2202" x="791.079" y="565.8951">1</text></g><!--link Espresso to Beverage--><g id="link_Espresso_Beverage"><path codeLine="98" d="M1192.91,474.5 C1179.61,489.04 1163.18,504.58 1145.72,515.48 C1076.57,558.64 1007.1852,583.129 936.9652,601.479 " fill="transparent" id="Espresso-to-Beverage" style="stroke:#181818;stroke-width:1;"/><polygon fill="transparent" points="919.55,606.03,938.4822,607.2841,935.4482,595.674,919.55,606.03" style="stroke:#181818;stroke-width:1;"/></g><!--link HouseBlend to Beverage--><g id="link_HouseBlend_Beverage"><path codeLine="99" d="M1352.19,474.55 C1338.83,489.44 1322.02,505.22 1303.72,515.48 C1183.82,582.63 1045.4664,609.2412 937.4664,621.4312 " fill="transparent" id="HouseBlend-to-Beverage" style="stroke:#181818;stroke-width:1;"/><polygon fill="transparent" points="919.58,623.45,938.1394,627.3933,936.7935,615.469,919.58,623.45" style="stroke:#181818;stroke-width:1;"/></g><!--SRC=[rLLDZzCm4BtdLrZPo_AHIbnNLQHj5ub5hVPGEAtsC8cjhAdZYMoti0B-E_v8KYTfW4L20lNKzzvu_6Oy4n02FzVy2vTLelTSDg2W9gK0hSdNP0Nblb9ua7ID0jLoUSDAL61GvJdPWQXHJZKxUvPW1gNLR7ZrQ5RYm9Bl2HJQA2WDMR4ZKr0ncu2G2qAPBXLl34T9hiZEA7SNGbwH9PVSv9SlB7f4JZrMCNDpqdlk4nnX8K1MYoYsH6qyI_5G29S-4L0mGLBx0qqEjR1MDLEB7Jvj79DC8PBTNoX67p9h5f_iOMdlFqr2ZHm-B8ipbP6YytZLsuqzdN9rx5zskKP9USsawQywDZsZY6emLOnAqdVuZ79Qf3zliBKPgd-dA5DRaBP-gYqyEaZRAC_bitc0Kg-8Mk7_3qIDmf9fxGbzYk_plrz__73TD8ANu9_llAqQkBmS6xb_Y8-SwTm6A-jktAq8THqgx8Yv5WNOjQMVmkwbjjHmFaFDkDG6PEaUQr1vTAOxjwtO4-CBUP70Qc9rMZjVrBXfjzHgk3I_CpzMzfhyUeZkmhd-gk5a3tVoaOL18YjRZwRh6SzpffTRBlRZJlPOD6aEExjkFF4_x9ijbeymiTg3iLS7dZVhcN_ARRZOMzqeknRm9_C-6_iE3vgj19FqUT7kGvDbt_BfQcsfdAHlqbCvpgnW5zxpWzNfer-cOIQJTbDqHxQJ7UPraiU_o9cBjTmumhTrBgGbHp5znGSUebh6-0y0]--></g></svg>