<svg xmlns="http://www.w3.org/2000/svg" xmlns:xlink="http://www.w3.org/1999/xlink" contentStyleType="text/css" data-diagram-type="CLASS" height="852px" preserveAspectRatio="none" style="width:1576px;height:852px;background:#FFFFFF;" version="1.1" viewBox="0 0 1576 852" width="1576px" zoomAndPan="magnify"><defs/><g><!--class Beverage--><g id="elem_Beverage"><rect codeLine="9" fill="#F1F1F1" height="118.4375" id="Beverage" rx="2.5" ry="2.5" style="stroke:#181818;stroke-width:0.5;" width="232.9854" x="392.58" y="618"/><ellipse cx="474.8573" cy="634" fill="#A9DCDF" rx="11" ry="11" style="stroke:#181818;stroke-width:1;"/><path d="M477.0448,635.7656 L472.9042,635.7656 L472.4823,636.7969 L472.9042,636.7969 Q473.5136,636.7969 473.7792,637.0313 Q474.0448,637.2656 474.0448,637.6563 Q474.0448,638.0313 473.7792,638.2656 Q473.5136,638.5 472.9042,638.5 L470.6073,638.5 Q469.998,638.5 469.748,638.2656 Q469.4823,638.0313 469.4823,637.6406 Q469.4823,637.2656 469.7636,637.0313 Q470.0292,636.7813 470.6542,636.7969 L473.3261,630.1406 L472.2167,630.1406 Q471.6073,630.1406 471.3417,629.9063 Q471.0761,629.6719 471.0761,629.2813 Q471.0761,628.9063 471.3417,628.6719 Q471.6073,628.4375 472.2167,628.4375 L475.8886,628.4375 L479.2792,636.7969 Q479.873,636.7969 480.0605,636.9375 Q480.4511,637.2031 480.4511,637.6563 Q480.4511,638.0313 480.1855,638.2656 Q479.9355,638.5 479.3261,638.5 L477.0292,638.5 Q476.4198,638.5 476.1542,638.2656 Q475.8886,638.0313 475.8886,637.6406 Q475.8886,637.2656 476.1542,637.0313 Q476.4198,636.7969 477.0292,636.7969 L477.4511,636.7969 L477.0448,635.7656 Z M476.3261,634.0625 L474.9667,630.6875 L473.5917,634.0625 L476.3261,634.0625 Z " fill="#000000"/><text fill="#000000" font-family="sans-serif" font-size="14" font-style="italic" lengthAdjust="spacing" textLength="59.9307" x="495.3573" y="639.7285">Beverage</text><line style="stroke:#181818;stroke-width:0.5;" x1="393.58" x2="624.5654" y1="650" y2="650"/><polygon fill="transparent" points="403.58,659.3047,407.58,663.3047,403.58,667.3047,399.58,663.3047" style="stroke:#B38D22;stroke-width:1;"/><text fill="#000000" font-family="sans-serif" font-size="14" lengthAdjust="spacing" textLength="175.875" x="412.58" y="668.5332">description : java.lang.String</text><line style="stroke:#181818;stroke-width:0.5;" x1="393.58" x2="624.5654" y1="675.6094" y2="675.6094"/><ellipse cx="403.58" cy="689.9141" fill="#84BE84" rx="3" ry="3" style="stroke:#038048;stroke-width:1;"/><text fill="#000000" font-family="sans-serif" font-size="14" lengthAdjust="spacing" textLength="80.9238" x="412.58" y="694.1426">&lt;init&gt;() : void</text><ellipse cx="403.58" cy="707.5234" fill="#84BE84" rx="3" ry="3" style="stroke:#038048;stroke-width:1;"/><text fill="#000000" font-family="sans-serif" font-size="14" lengthAdjust="spacing" textLength="206.9854" x="412.58" y="711.752">getDescription() : java.lang.String</text><ellipse cx="403.58" cy="725.1328" fill="#84BE84" rx="3" ry="3" style="stroke:#038048;stroke-width:1;"/><text fill="#000000" font-family="sans-serif" font-size="14" lengthAdjust="spacing" textLength="88.71" x="412.58" y="729.3613">cost() : double</text></g><!--entity CondimentDecoratorLabel--><!--class CondimentDecorator--><g id="elem_CondimentDecorator"><rect codeLine="18" fill="#FA8072" height="93.9219" id="CondimentDecorator" rx="2.5" ry="2.5" style="stroke:#181818;stroke-width:0.5;" width="232.9854" x="183.58" y="463"/><ellipse cx="231.2367" cy="484.3516" fill="#A9DCDF" rx="11" ry="11" style="stroke:#181818;stroke-width:1;"/><path d="M233.4242,486.1172 L229.2836,486.1172 L228.8617,487.1484 L229.2836,487.1484 Q229.893,487.1484 230.1586,487.3828 Q230.4242,487.6172 230.4242,488.0078 Q230.4242,488.3828 230.1586,488.6172 Q229.893,488.8516 229.2836,488.8516 L226.9867,488.8516 Q226.3774,488.8516 226.1274,488.6172 Q225.8617,488.3828 225.8617,487.9922 Q225.8617,487.6172 226.143,487.3828 Q226.4086,487.1328 227.0336,487.1484 L229.7055,480.4922 L228.5961,480.4922 Q227.9867,480.4922 227.7211,480.2578 Q227.4555,480.0234 227.4555,479.6328 Q227.4555,479.2578 227.7211,479.0234 Q227.9867,478.7891 228.5961,478.7891 L232.268,478.7891 L235.6586,487.1484 Q236.2524,487.1484 236.4399,487.2891 Q236.8305,487.5547 236.8305,488.0078 Q236.8305,488.3828 236.5649,488.6172 Q236.3149,488.8516 235.7055,488.8516 L233.4086,488.8516 Q232.7992,488.8516 232.5336,488.6172 Q232.268,488.3828 232.268,487.9922 Q232.268,487.6172 232.5336,487.3828 Q232.7992,487.1484 233.4086,487.1484 L233.8305,487.1484 L233.4242,486.1172 Z M232.7055,484.4141 L231.3461,481.0391 L229.9711,484.4141 L232.7055,484.4141 Z " fill="#000000"/><text fill="#000000" font-family="sans-serif" font-size="12" font-style="italic" lengthAdjust="spacing" textLength="66.0352" x="283.3051" y="480.457">&#171;Decorator&#187;</text><text fill="#000000" font-family="sans-serif" font-size="14" font-style="italic" lengthAdjust="spacing" textLength="129.1719" x="251.7367" y="497.627">CondimentDecorator</text><line style="stroke:#181818;stroke-width:0.5;" x1="184.58" x2="415.5654" y1="505.7031" y2="505.7031"/><line style="stroke:#181818;stroke-width:0.5;" x1="184.58" x2="415.5654" y1="513.7031" y2="513.7031"/><ellipse cx="194.58" cy="528.0078" fill="#84BE84" rx="3" ry="3" style="stroke:#038048;stroke-width:1;"/><text fill="#000000" font-family="sans-serif" font-size="14" lengthAdjust="spacing" textLength="80.9238" x="203.58" y="532.2363">&lt;init&gt;() : void</text><ellipse cx="194.58" cy="545.6172" fill="#84BE84" rx="3" ry="3" style="stroke:#038048;stroke-width:1;"/><text fill="#000000" font-family="sans-serif" font-size="14" lengthAdjust="spacing" textLength="206.9854" x="203.58" y="549.8457">getDescription() : java.lang.String</text></g><!--class Espresso--><g id="elem_Espresso"><rect codeLine="23" fill="#F1F1F1" height="83.2188" id="Espresso" rx="2.5" ry="2.5" style="stroke:#181818;stroke-width:0.5;" width="114.71" x="451.58" y="468.5"/><ellipse cx="477.5382" cy="484.5" fill="#ADD1B2" rx="11" ry="11" style="stroke:#181818;stroke-width:1;"/><path d="M480.3038,480.375 Q480.4601,480.1563 480.6476,480.0469 Q480.8351,479.9375 481.0538,479.9375 Q481.4288,479.9375 481.6632,480.2031 Q481.8976,480.4531 481.8976,481.0625 L481.8976,482.5156 Q481.8976,483.125 481.6632,483.3906 Q481.4288,483.6563 481.0538,483.6563 Q480.7101,483.6563 480.507,483.4531 Q480.3038,483.2656 480.1945,482.75 Q480.1476,482.3906 479.9601,482.2031 Q479.632,481.8281 479.0226,481.6094 Q478.4132,481.3906 477.7882,481.3906 Q477.0226,481.3906 476.382,481.7188 Q475.757,482.0469 475.257,482.7969 Q474.7726,483.5469 474.7726,484.5781 L474.7726,485.6719 Q474.7726,486.9063 475.6632,487.7344 Q476.5538,488.5469 478.1476,488.5469 Q479.0851,488.5469 479.7413,488.2969 Q480.132,488.1406 480.5538,487.7031 Q480.8195,487.4375 480.9601,487.3594 Q481.1163,487.2813 481.3195,487.2813 Q481.6476,487.2813 481.8976,487.5469 Q482.1632,487.7969 482.1632,488.1406 Q482.1632,488.4844 481.8195,488.8906 Q481.3195,489.4688 480.5226,489.7969 Q479.4445,490.25 478.1476,490.25 Q476.632,490.25 475.4288,489.625 Q474.4445,489.125 473.757,488.0625 Q473.0695,486.9844 473.0695,485.7031 L473.0695,484.5469 Q473.0695,483.2188 473.6788,482.0781 Q474.3038,480.9219 475.3976,480.3125 Q476.4913,479.6875 477.7257,479.6875 Q478.4601,479.6875 479.1007,479.8594 Q479.757,480.0156 480.3038,480.375 Z " fill="#000000"/><text fill="#000000" font-family="sans-serif" font-size="14" lengthAdjust="spacing" textLength="58.3584" x="493.9734" y="490.2285">Espresso</text><line style="stroke:#181818;stroke-width:0.5;" x1="452.58" x2="565.29" y1="500.5" y2="500.5"/><line style="stroke:#181818;stroke-width:0.5;" x1="452.58" x2="565.29" y1="508.5" y2="508.5"/><ellipse cx="462.58" cy="522.8047" fill="#84BE84" rx="3" ry="3" style="stroke:#038048;stroke-width:1;"/><text fill="#000000" font-family="sans-serif" font-size="14" lengthAdjust="spacing" textLength="80.9238" x="471.58" y="527.0332">&lt;init&gt;() : void</text><ellipse cx="462.58" cy="540.4141" fill="#84BE84" rx="3" ry="3" style="stroke:#038048;stroke-width:1;"/><text fill="#000000" font-family="sans-serif" font-size="14" lengthAdjust="spacing" textLength="88.71" x="471.58" y="544.6426">cost() : double</text></g><!--class HouseBlend--><g id="elem_HouseBlend"><rect codeLine="28" fill="#F1F1F1" height="83.2188" id="HouseBlend" rx="2.5" ry="2.5" style="stroke:#181818;stroke-width:0.5;" width="114.71" x="601.58" y="468.5"/><ellipse cx="619.4756" cy="484.5" fill="#ADD1B2" rx="11" ry="11" style="stroke:#181818;stroke-width:1;"/><path d="M622.2412,480.375 Q622.3974,480.1563 622.5849,480.0469 Q622.7724,479.9375 622.9912,479.9375 Q623.3662,479.9375 623.6006,480.2031 Q623.8349,480.4531 623.8349,481.0625 L623.8349,482.5156 Q623.8349,483.125 623.6006,483.3906 Q623.3662,483.6563 622.9912,483.6563 Q622.6474,483.6563 622.4443,483.4531 Q622.2412,483.2656 622.1318,482.75 Q622.0849,482.3906 621.8974,482.2031 Q621.5693,481.8281 620.9599,481.6094 Q620.3506,481.3906 619.7256,481.3906 Q618.9599,481.3906 618.3193,481.7188 Q617.6943,482.0469 617.1943,482.7969 Q616.7099,483.5469 616.7099,484.5781 L616.7099,485.6719 Q616.7099,486.9063 617.6006,487.7344 Q618.4912,488.5469 620.0849,488.5469 Q621.0224,488.5469 621.6787,488.2969 Q622.0693,488.1406 622.4912,487.7031 Q622.7568,487.4375 622.8974,487.3594 Q623.0537,487.2813 623.2568,487.2813 Q623.5849,487.2813 623.8349,487.5469 Q624.1006,487.7969 624.1006,488.1406 Q624.1006,488.4844 623.7568,488.8906 Q623.2568,489.4688 622.4599,489.7969 Q621.3818,490.25 620.0849,490.25 Q618.5693,490.25 617.3662,489.625 Q616.3818,489.125 615.6943,488.0625 Q615.0068,486.9844 615.0068,485.7031 L615.0068,484.5469 Q615.0068,483.2188 615.6162,482.0781 Q616.2412,480.9219 617.3349,480.3125 Q618.4287,479.6875 619.6631,479.6875 Q620.3974,479.6875 621.0381,479.8594 Q621.6943,480.0156 622.2412,480.375 Z " fill="#000000"/><text fill="#000000" font-family="sans-serif" font-size="14" lengthAdjust="spacing" textLength="76.2754" x="634.119" y="490.2285">HouseBlend</text><line style="stroke:#181818;stroke-width:0.5;" x1="602.58" x2="715.29" y1="500.5" y2="500.5"/><line style="stroke:#181818;stroke-width:0.5;" x1="602.58" x2="715.29" y1="508.5" y2="508.5"/><ellipse cx="612.58" cy="522.8047" fill="#84BE84" rx="3" ry="3" style="stroke:#038048;stroke-width:1;"/><text fill="#000000" font-family="sans-serif" font-size="14" lengthAdjust="spacing" textLength="80.9238" x="621.58" y="527.0332">&lt;init&gt;() : void</text><ellipse cx="612.58" cy="540.4141" fill="#84BE84" rx="3" ry="3" style="stroke:#038048;stroke-width:1;"/><text fill="#000000" font-family="sans-serif" font-size="14" lengthAdjust="spacing" textLength="88.71" x="621.58" y="544.6426">cost() : double</text></g><!--class JCUTApplication--><g id="elem_JCUTApplication"><rect codeLine="33" fill="#F1F1F1" height="83.2188" id="JCUTApplication" rx="2.5" ry="2.5" style="stroke:#181818;stroke-width:0.5;" width="207.3027" x="747.58" y="51"/><ellipse cx="794.8505" cy="67" fill="#ADD1B2" rx="11" ry="11" style="stroke:#181818;stroke-width:1;"/><path d="M797.6161,62.875 Q797.7724,62.6563 797.9599,62.5469 Q798.1474,62.4375 798.3661,62.4375 Q798.7411,62.4375 798.9755,62.7031 Q799.2099,62.9531 799.2099,63.5625 L799.2099,65.0156 Q799.2099,65.625 798.9755,65.8906 Q798.7411,66.1563 798.3661,66.1563 Q798.0224,66.1563 797.8193,65.9531 Q797.6161,65.7656 797.5068,65.25 Q797.4599,64.8906 797.2724,64.7031 Q796.9443,64.3281 796.3349,64.1094 Q795.7255,63.8906 795.1005,63.8906 Q794.3349,63.8906 793.6943,64.2188 Q793.0693,64.5469 792.5693,65.2969 Q792.0849,66.0469 792.0849,67.0781 L792.0849,68.1719 Q792.0849,69.4063 792.9755,70.2344 Q793.8661,71.0469 795.4599,71.0469 Q796.3974,71.0469 797.0536,70.7969 Q797.4443,70.6406 797.8661,70.2031 Q798.1318,69.9375 798.2724,69.8594 Q798.4286,69.7813 798.6318,69.7813 Q798.9599,69.7813 799.2099,70.0469 Q799.4755,70.2969 799.4755,70.6406 Q799.4755,70.9844 799.1318,71.3906 Q798.6318,71.9688 797.8349,72.2969 Q796.7568,72.75 795.4599,72.75 Q793.9443,72.75 792.7411,72.125 Q791.7568,71.625 791.0693,70.5625 Q790.3818,69.4844 790.3818,68.2031 L790.3818,67.0469 Q790.3818,65.7188 790.9911,64.5781 Q791.6161,63.4219 792.7099,62.8125 Q793.8036,62.1875 795.038,62.1875 Q795.7724,62.1875 796.413,62.3594 Q797.0693,62.5156 797.6161,62.875 Z " fill="#000000"/><text fill="#000000" font-family="sans-serif" font-size="14" lengthAdjust="spacing" textLength="104.2617" x="815.3505" y="72.7285">JCUTApplication</text><line style="stroke:#181818;stroke-width:0.5;" x1="748.58" x2="953.8827" y1="83" y2="83"/><line style="stroke:#181818;stroke-width:0.5;" x1="748.58" x2="953.8827" y1="91" y2="91"/><ellipse cx="758.58" cy="105.3047" fill="#84BE84" rx="3" ry="3" style="stroke:#038048;stroke-width:1;"/><text fill="#000000" font-family="sans-serif" font-size="14" lengthAdjust="spacing" textLength="80.9238" x="767.58" y="109.5332">&lt;init&gt;() : void</text><ellipse cx="758.58" cy="122.9141" fill="#84BE84" rx="3" ry="3" style="stroke:#038048;stroke-width:1;"/><text fill="#000000" font-family="sans-serif" font-size="14" lengthAdjust="spacing" textLength="181.3027" x="767.58" y="127.1426">main(java.lang.String[]) : void</text></g><!--entity LoggerLabel--><!--class Logger--><g id="elem_Logger"><rect codeLine="40" fill="#ADD8E6" height="129.1406" id="Logger" rx="2.5" ry="2.5" style="stroke:#181818;stroke-width:0.5;" width="229.1025" x="885.58" y="256"/><ellipse cx="966.1879" cy="277.3516" fill="#ADD1B2" rx="11" ry="11" style="stroke:#181818;stroke-width:1;"/><path d="M968.9535,273.2266 Q969.1098,273.0078 969.2973,272.8984 Q969.4848,272.7891 969.7035,272.7891 Q970.0785,272.7891 970.3129,273.0547 Q970.5473,273.3047 970.5473,273.9141 L970.5473,275.3672 Q970.5473,275.9766 970.3129,276.2422 Q970.0785,276.5078 969.7035,276.5078 Q969.3598,276.5078 969.1567,276.3047 Q968.9535,276.1172 968.8442,275.6016 Q968.7973,275.2422 968.6098,275.0547 Q968.2817,274.6797 967.6723,274.4609 Q967.0629,274.2422 966.4379,274.2422 Q965.6723,274.2422 965.0317,274.5703 Q964.4067,274.8984 963.9067,275.6484 Q963.4223,276.3984 963.4223,277.4297 L963.4223,278.5234 Q963.4223,279.7578 964.3129,280.5859 Q965.2035,281.3984 966.7973,281.3984 Q967.7348,281.3984 968.391,281.1484 Q968.7817,280.9922 969.2035,280.5547 Q969.4692,280.2891 969.6098,280.2109 Q969.766,280.1328 969.9692,280.1328 Q970.2973,280.1328 970.5473,280.3984 Q970.8129,280.6484 970.8129,280.9922 Q970.8129,281.3359 970.4692,281.7422 Q969.9692,282.3203 969.1723,282.6484 Q968.0942,283.1016 966.7973,283.1016 Q965.2817,283.1016 964.0785,282.4766 Q963.0942,281.9766 962.4067,280.9141 Q961.7192,279.8359 961.7192,278.5547 L961.7192,277.3984 Q961.7192,276.0703 962.3285,274.9297 Q962.9535,273.7734 964.0473,273.1641 Q965.141,272.5391 966.3754,272.5391 Q967.1098,272.5391 967.7504,272.7109 Q968.4067,272.8672 968.9535,273.2266 Z " fill="#000000"/><text fill="#000000" font-family="sans-serif" font-size="12" font-style="italic" lengthAdjust="spacing" textLength="63.3867" x="984.6879" y="273.457">&#171;Singleton&#187;</text><text fill="#000000" font-family="sans-serif" font-size="14" lengthAdjust="spacing" textLength="43.5928" x="994.5849" y="290.627">Logger</text><line style="stroke:#181818;stroke-width:0.5;" x1="886.58" x2="1113.6825" y1="298.7031" y2="298.7031"/><rect fill="transparent" height="6" style="stroke:#C82930;stroke-width:1;" width="6" x="893.58" y="310.0078"/><text fill="#000000" font-family="sans-serif" font-size="14" lengthAdjust="spacing" textLength="107.4063" x="905.58" y="317.2363">instance : Logger</text><line style="stroke:#181818;stroke-width:0.5;" x1="886.58" x2="1113.6825" y1="324.3125" y2="324.3125"/><rect fill="#F24D5C" height="6" style="stroke:#C82930;stroke-width:1;" width="6" x="893.58" y="335.6172"/><text fill="#000000" font-family="sans-serif" font-size="14" lengthAdjust="spacing" textLength="80.9238" x="905.58" y="342.8457">&lt;init&gt;() : void</text><ellipse cx="896.58" cy="356.2266" fill="#84BE84" rx="3" ry="3" style="stroke:#038048;stroke-width:1;"/><text fill="#000000" font-family="sans-serif" font-size="14" lengthAdjust="spacing" textLength="203.1025" x="905.58" y="360.4551">getInstance() : umlparser.Logger</text><ellipse cx="896.58" cy="373.8359" fill="#84BE84" rx="3" ry="3" style="stroke:#038048;stroke-width:1;"/><text fill="#000000" font-family="sans-serif" font-size="14" lengthAdjust="spacing" textLength="161.8613" x="905.58" y="378.0645">log(java.lang.String) : void</text></g><!--entity MilkLabel--><!--class Milk--><g id="elem_Milk"><rect codeLine="49" fill="#FA8072" height="129.1406" id="Milk" rx="2.5" ry="2.5" style="stroke:#181818;stroke-width:0.5;" width="232.9854" x="49.58" y="256"/><ellipse cx="130.8051" cy="277.3516" fill="#ADD1B2" rx="11" ry="11" style="stroke:#181818;stroke-width:1;"/><path d="M133.5707,273.2266 Q133.727,273.0078 133.9145,272.8984 Q134.102,272.7891 134.3207,272.7891 Q134.6957,272.7891 134.9301,273.0547 Q135.1645,273.3047 135.1645,273.9141 L135.1645,275.3672 Q135.1645,275.9766 134.9301,276.2422 Q134.6957,276.5078 134.3207,276.5078 Q133.977,276.5078 133.7738,276.3047 Q133.5707,276.1172 133.4613,275.6016 Q133.4145,275.2422 133.227,275.0547 Q132.8988,274.6797 132.2895,274.4609 Q131.6801,274.2422 131.0551,274.2422 Q130.2895,274.2422 129.6488,274.5703 Q129.0238,274.8984 128.5238,275.6484 Q128.0395,276.3984 128.0395,277.4297 L128.0395,278.5234 Q128.0395,279.7578 128.9301,280.5859 Q129.8207,281.3984 131.4145,281.3984 Q132.352,281.3984 133.0082,281.1484 Q133.3988,280.9922 133.8207,280.5547 Q134.0863,280.2891 134.227,280.2109 Q134.3832,280.1328 134.5863,280.1328 Q134.9145,280.1328 135.1645,280.3984 Q135.4301,280.6484 135.4301,280.9922 Q135.4301,281.3359 135.0863,281.7422 Q134.5863,282.3203 133.7895,282.6484 Q132.7113,283.1016 131.4145,283.1016 Q129.8988,283.1016 128.6957,282.4766 Q127.7113,281.9766 127.0238,280.9141 Q126.3363,279.8359 126.3363,278.5547 L126.3363,277.3984 Q126.3363,276.0703 126.9457,274.9297 Q127.5707,273.7734 128.6645,273.1641 Q129.7582,272.5391 130.9926,272.5391 Q131.727,272.5391 132.3676,272.7109 Q133.0238,272.8672 133.5707,273.2266 Z " fill="#000000"/><text fill="#000000" font-family="sans-serif" font-size="12" font-style="italic" lengthAdjust="spacing" textLength="66.0352" x="149.3051" y="273.457">&#171;Decorator&#187;</text><text fill="#000000" font-family="sans-serif" font-size="14" lengthAdjust="spacing" textLength="24.8828" x="169.8813" y="290.627">Milk</text><line style="stroke:#181818;stroke-width:0.5;" x1="50.58" x2="281.5654" y1="298.7031" y2="298.7031"/><rect fill="transparent" height="6" style="stroke:#C82930;stroke-width:1;" width="6" x="57.58" y="310.0078"/><text fill="#000000" font-family="sans-serif" font-size="14" lengthAdjust="spacing" textLength="129.9785" x="69.58" y="317.2363">beverage : Beverage</text><line style="stroke:#181818;stroke-width:0.5;" x1="50.58" x2="281.5654" y1="324.3125" y2="324.3125"/><ellipse cx="60.58" cy="338.6172" fill="#84BE84" rx="3" ry="3" style="stroke:#038048;stroke-width:1;"/><text fill="#000000" font-family="sans-serif" font-size="14" lengthAdjust="spacing" textLength="206.9854" x="69.58" y="342.8457">&lt;init&gt;(umlparser.Beverage) : void</text><ellipse cx="60.58" cy="356.2266" fill="#84BE84" rx="3" ry="3" style="stroke:#038048;stroke-width:1;"/><text fill="#000000" font-family="sans-serif" font-size="14" lengthAdjust="spacing" textLength="206.9854" x="69.58" y="360.4551">getDescription() : java.lang.String</text><ellipse cx="60.58" cy="373.8359" fill="#84BE84" rx="3" ry="3" style="stroke:#038048;stroke-width:1;"/><text fill="#000000" font-family="sans-serif" font-size="14" lengthAdjust="spacing" textLength="88.71" x="69.58" y="378.0645">cost() : double</text></g><!--entity MochaLabel--><!--class Mocha--><g id="elem_Mocha"><rect codeLine="58" fill="#FA8072" height="129.1406" id="Mocha" rx="2.5" ry="2.5" style="stroke:#181818;stroke-width:0.5;" width="232.9854" x="317.58" y="256"/><ellipse cx="398.8051" cy="277.3516" fill="#ADD1B2" rx="11" ry="11" style="stroke:#181818;stroke-width:1;"/><path d="M401.5707,273.2266 Q401.727,273.0078 401.9145,272.8984 Q402.102,272.7891 402.3207,272.7891 Q402.6957,272.7891 402.9301,273.0547 Q403.1645,273.3047 403.1645,273.9141 L403.1645,275.3672 Q403.1645,275.9766 402.9301,276.2422 Q402.6957,276.5078 402.3207,276.5078 Q401.977,276.5078 401.7738,276.3047 Q401.5707,276.1172 401.4613,275.6016 Q401.4145,275.2422 401.227,275.0547 Q400.8988,274.6797 400.2895,274.4609 Q399.6801,274.2422 399.0551,274.2422 Q398.2895,274.2422 397.6488,274.5703 Q397.0238,274.8984 396.5238,275.6484 Q396.0395,276.3984 396.0395,277.4297 L396.0395,278.5234 Q396.0395,279.7578 396.9301,280.5859 Q397.8207,281.3984 399.4145,281.3984 Q400.352,281.3984 401.0082,281.1484 Q401.3988,280.9922 401.8207,280.5547 Q402.0863,280.2891 402.227,280.2109 Q402.3832,280.1328 402.5863,280.1328 Q402.9145,280.1328 403.1645,280.3984 Q403.4301,280.6484 403.4301,280.9922 Q403.4301,281.3359 403.0863,281.7422 Q402.5863,282.3203 401.7895,282.6484 Q400.7113,283.1016 399.4145,283.1016 Q397.8988,283.1016 396.6957,282.4766 Q395.7113,281.9766 395.0238,280.9141 Q394.3363,279.8359 394.3363,278.5547 L394.3363,277.3984 Q394.3363,276.0703 394.9457,274.9297 Q395.5707,273.7734 396.6645,273.1641 Q397.7582,272.5391 398.9926,272.5391 Q399.727,272.5391 400.3676,272.7109 Q401.0238,272.8672 401.5707,273.2266 Z " fill="#000000"/><text fill="#000000" font-family="sans-serif" font-size="12" font-style="italic" lengthAdjust="spacing" textLength="66.0352" x="417.3051" y="273.457">&#171;Decorator&#187;</text><text fill="#000000" font-family="sans-serif" font-size="14" lengthAdjust="spacing" textLength="42.0205" x="429.3124" y="290.627">Mocha</text><line style="stroke:#181818;stroke-width:0.5;" x1="318.58" x2="549.5654" y1="298.7031" y2="298.7031"/><rect fill="transparent" height="6" style="stroke:#C82930;stroke-width:1;" width="6" x="325.58" y="310.0078"/><text fill="#000000" font-family="sans-serif" font-size="14" lengthAdjust="spacing" textLength="129.9785" x="337.58" y="317.2363">beverage : Beverage</text><line style="stroke:#181818;stroke-width:0.5;" x1="318.58" x2="549.5654" y1="324.3125" y2="324.3125"/><ellipse cx="328.58" cy="338.6172" fill="#84BE84" rx="3" ry="3" style="stroke:#038048;stroke-width:1;"/><text fill="#000000" font-family="sans-serif" font-size="14" lengthAdjust="spacing" textLength="206.9854" x="337.58" y="342.8457">&lt;init&gt;(umlparser.Beverage) : void</text><ellipse cx="328.58" cy="356.2266" fill="#84BE84" rx="3" ry="3" style="stroke:#038048;stroke-width:1;"/><text fill="#000000" font-family="sans-serif" font-size="14" lengthAdjust="spacing" textLength="206.9854" x="337.58" y="360.4551">getDescription() : java.lang.String</text><ellipse cx="328.58" cy="373.8359" fill="#84BE84" rx="3" ry="3" style="stroke:#038048;stroke-width:1;"/><text fill="#000000" font-family="sans-serif" font-size="14" lengthAdjust="spacing" textLength="88.71" x="337.58" y="378.0645">cost() : double</text></g><!--class Order--><g id="elem_Order"><rect codeLine="65" fill="#F1F1F1" height="171.2656" id="Order" rx="2.5" ry="2.5" style="stroke:#181818;stroke-width:0.5;" width="255.5508" x="1045.08" y="7"/><ellipse cx="1150.7123" cy="23" fill="#ADD1B2" rx="11" ry="11" style="stroke:#181818;stroke-width:1;"/><path d="M1153.4779,18.875 Q1153.6342,18.6563 1153.8217,18.5469 Q1154.0092,18.4375 1154.2279,18.4375 Q1154.6029,18.4375 1154.8373,18.7031 Q1155.0717,18.9531 1155.0717,19.5625 L1155.0717,21.0156 Q1155.0717,21.625 1154.8373,21.8906 Q1154.6029,22.1563 1154.2279,22.1563 Q1153.8842,22.1563 1153.6811,21.9531 Q1153.4779,21.7656 1153.3686,21.25 Q1153.3217,20.8906 1153.1342,20.7031 Q1152.8061,20.3281 1152.1967,20.1094 Q1151.5873,19.8906 1150.9623,19.8906 Q1150.1967,19.8906 1149.5561,20.2188 Q1148.9311,20.5469 1148.4311,21.2969 Q1147.9467,22.0469 1147.9467,23.0781 L1147.9467,24.1719 Q1147.9467,25.4063 1148.8373,26.2344 Q1149.7279,27.0469 1151.3217,27.0469 Q1152.2592,27.0469 1152.9154,26.7969 Q1153.3061,26.6406 1153.7279,26.2031 Q1153.9936,25.9375 1154.1342,25.8594 Q1154.2904,25.7813 1154.4936,25.7813 Q1154.8217,25.7813 1155.0717,26.0469 Q1155.3373,26.2969 1155.3373,26.6406 Q1155.3373,26.9844 1154.9936,27.3906 Q1154.4936,27.9688 1153.6967,28.2969 Q1152.6186,28.75 1151.3217,28.75 Q1149.8061,28.75 1148.6029,28.125 Q1147.6186,27.625 1146.9311,26.5625 Q1146.2436,25.4844 1146.2436,24.2031 L1146.2436,23.0469 Q1146.2436,21.7188 1146.8529,20.5781 Q1147.4779,19.4219 1148.5717,18.8125 Q1149.6654,18.1875 1150.8998,18.1875 Q1151.6342,18.1875 1152.2748,18.3594 Q1152.9311,18.5156 1153.4779,18.875 Z " fill="#000000"/><text fill="#000000" font-family="sans-serif" font-size="14" lengthAdjust="spacing" textLength="35.7861" x="1171.2123" y="28.7285">Order</text><line style="stroke:#181818;stroke-width:0.5;" x1="1046.08" x2="1299.6308" y1="39" y2="39"/><rect fill="transparent" height="6" style="stroke:#C82930;stroke-width:1;" width="6" x="1053.08" y="50.3047"/><text fill="#000000" font-family="sans-serif" font-size="14" lengthAdjust="spacing" textLength="70.8135" x="1065.08" y="57.5332">orderId : int</text><rect fill="transparent" height="6" style="stroke:#C82930;stroke-width:1;" width="6" x="1053.08" y="67.9141"/><text fill="#000000" font-family="sans-serif" font-size="14" lengthAdjust="spacing" textLength="129.9785" x="1065.08" y="75.1426">beverage : Beverage</text><line style="stroke:#181818;stroke-width:0.5;" x1="1046.08" x2="1299.6308" y1="82.2188" y2="82.2188"/><ellipse cx="1056.08" cy="96.5234" fill="#84BE84" rx="3" ry="3" style="stroke:#038048;stroke-width:1;"/><text fill="#000000" font-family="sans-serif" font-size="14" lengthAdjust="spacing" textLength="229.5508" x="1065.08" y="100.752">&lt;init&gt;(int, umlparser.Beverage) : void</text><ellipse cx="1056.08" cy="114.1328" fill="#84BE84" rx="3" ry="3" style="stroke:#038048;stroke-width:1;"/><text fill="#000000" font-family="sans-serif" font-size="14" lengthAdjust="spacing" textLength="102.7031" x="1065.08" y="118.3613">getOrderId() : int</text><ellipse cx="1056.08" cy="131.7422" fill="#84BE84" rx="3" ry="3" style="stroke:#038048;stroke-width:1;"/><text fill="#000000" font-family="sans-serif" font-size="14" lengthAdjust="spacing" textLength="226.4473" x="1065.08" y="135.9707">getBeverage() : umlparser.Beverage</text><ellipse cx="1056.08" cy="149.3516" fill="#84BE84" rx="3" ry="3" style="stroke:#038048;stroke-width:1;"/><text fill="#000000" font-family="sans-serif" font-size="14" lengthAdjust="spacing" textLength="111.2822" x="1065.08" y="153.5801">getCost() : double</text><ellipse cx="1056.08" cy="166.9609" fill="#84BE84" rx="3" ry="3" style="stroke:#038048;stroke-width:1;"/><text fill="#000000" font-family="sans-serif" font-size="14" lengthAdjust="spacing" textLength="206.9854" x="1065.08" y="171.1895">getDescription() : java.lang.String</text></g><!--class OrderManager--><g id="elem_OrderManager"><rect codeLine="75" fill="#F1F1F1" height="118.4375" id="OrderManager" rx="2.5" ry="2.5" style="stroke:#181818;stroke-width:0.5;" width="233.7373" x="1336.08" y="33.5"/><ellipse cx="1403.1781" cy="49.5" fill="#ADD1B2" rx="11" ry="11" style="stroke:#181818;stroke-width:1;"/><path d="M1405.9438,45.375 Q1406.1,45.1563 1406.2875,45.0469 Q1406.475,44.9375 1406.6938,44.9375 Q1407.0688,44.9375 1407.3031,45.2031 Q1407.5375,45.4531 1407.5375,46.0625 L1407.5375,47.5156 Q1407.5375,48.125 1407.3031,48.3906 Q1407.0688,48.6563 1406.6938,48.6563 Q1406.35,48.6563 1406.1469,48.4531 Q1405.9438,48.2656 1405.8344,47.75 Q1405.7875,47.3906 1405.6,47.2031 Q1405.2719,46.8281 1404.6625,46.6094 Q1404.0531,46.3906 1403.4281,46.3906 Q1402.6625,46.3906 1402.0219,46.7188 Q1401.3969,47.0469 1400.8969,47.7969 Q1400.4125,48.5469 1400.4125,49.5781 L1400.4125,50.6719 Q1400.4125,51.9063 1401.3031,52.7344 Q1402.1938,53.5469 1403.7875,53.5469 Q1404.725,53.5469 1405.3813,53.2969 Q1405.7719,53.1406 1406.1938,52.7031 Q1406.4594,52.4375 1406.6,52.3594 Q1406.7563,52.2813 1406.9594,52.2813 Q1407.2875,52.2813 1407.5375,52.5469 Q1407.8031,52.7969 1407.8031,53.1406 Q1407.8031,53.4844 1407.4594,53.8906 Q1406.9594,54.4688 1406.1625,54.7969 Q1405.0844,55.25 1403.7875,55.25 Q1402.2719,55.25 1401.0688,54.625 Q1400.0844,54.125 1399.3969,53.0625 Q1398.7094,51.9844 1398.7094,50.7031 L1398.7094,49.5469 Q1398.7094,48.2188 1399.3188,47.0781 Q1399.9438,45.9219 1401.0375,45.3125 Q1402.1313,44.6875 1403.3656,44.6875 Q1404.1,44.6875 1404.7406,44.8594 Q1405.3969,45.0156 1405.9438,45.375 Z " fill="#000000"/><text fill="#000000" font-family="sans-serif" font-size="14" lengthAdjust="spacing" textLength="91.041" x="1423.6781" y="55.2285">OrderManager</text><line style="stroke:#181818;stroke-width:0.5;" x1="1337.08" x2="1568.8173" y1="65.5" y2="65.5"/><rect fill="transparent" height="6" style="stroke:#C82930;stroke-width:1;" width="6" x="1344.08" y="76.8047"/><text fill="#000000" font-family="sans-serif" font-size="14" lengthAdjust="spacing" textLength="125.2754" x="1356.08" y="84.0332">orders : List&lt;Order&gt;</text><line style="stroke:#181818;stroke-width:0.5;" x1="1337.08" x2="1568.8173" y1="91.1094" y2="91.1094"/><ellipse cx="1347.08" cy="105.4141" fill="#84BE84" rx="3" ry="3" style="stroke:#038048;stroke-width:1;"/><text fill="#000000" font-family="sans-serif" font-size="14" lengthAdjust="spacing" textLength="80.9238" x="1356.08" y="109.6426">&lt;init&gt;() : void</text><ellipse cx="1347.08" cy="123.0234" fill="#84BE84" rx="3" ry="3" style="stroke:#038048;stroke-width:1;"/><text fill="#000000" font-family="sans-serif" font-size="14" lengthAdjust="spacing" textLength="207.7373" x="1356.08" y="127.252">addOrder(umlparser.Order) : void</text><ellipse cx="1347.08" cy="140.6328" fill="#84BE84" rx="3" ry="3" style="stroke:#038048;stroke-width:1;"/><text fill="#000000" font-family="sans-serif" font-size="14" lengthAdjust="spacing" textLength="138.4824" x="1356.08" y="144.8613">processOrders() : void</text></g><!--entity SoyLabel--><!--class Soy--><g id="elem_Soy"><rect codeLine="84" fill="#FA8072" height="129.1406" id="Soy" rx="2.5" ry="2.5" style="stroke:#181818;stroke-width:0.5;" width="232.9854" x="585.58" y="256"/><ellipse cx="666.8051" cy="277.3516" fill="#ADD1B2" rx="11" ry="11" style="stroke:#181818;stroke-width:1;"/><path d="M669.5707,273.2266 Q669.727,273.0078 669.9145,272.8984 Q670.102,272.7891 670.3207,272.7891 Q670.6957,272.7891 670.9301,273.0547 Q671.1645,273.3047 671.1645,273.9141 L671.1645,275.3672 Q671.1645,275.9766 670.9301,276.2422 Q670.6957,276.5078 670.3207,276.5078 Q669.977,276.5078 669.7738,276.3047 Q669.5707,276.1172 669.4613,275.6016 Q669.4145,275.2422 669.227,275.0547 Q668.8988,274.6797 668.2895,274.4609 Q667.6801,274.2422 667.0551,274.2422 Q666.2895,274.2422 665.6488,274.5703 Q665.0238,274.8984 664.5238,275.6484 Q664.0395,276.3984 664.0395,277.4297 L664.0395,278.5234 Q664.0395,279.7578 664.9301,280.5859 Q665.8207,281.3984 667.4145,281.3984 Q668.352,281.3984 669.0082,281.1484 Q669.3988,280.9922 669.8207,280.5547 Q670.0863,280.2891 670.227,280.2109 Q670.3832,280.1328 670.5863,280.1328 Q670.9145,280.1328 671.1645,280.3984 Q671.4301,280.6484 671.4301,280.9922 Q671.4301,281.3359 671.0863,281.7422 Q670.5863,282.3203 669.7895,282.6484 Q668.7113,283.1016 667.4145,283.1016 Q665.8988,283.1016 664.6957,282.4766 Q663.7113,281.9766 663.0238,280.9141 Q662.3363,279.8359 662.3363,278.5547 L662.3363,277.3984 Q662.3363,276.0703 662.9457,274.9297 Q663.5707,273.7734 664.6645,273.1641 Q665.7582,272.5391 666.9926,272.5391 Q667.727,272.5391 668.3676,272.7109 Q669.0238,272.8672 669.5707,273.2266 Z " fill="#000000"/><text fill="#000000" font-family="sans-serif" font-size="12" font-style="italic" lengthAdjust="spacing" textLength="66.0352" x="685.3051" y="273.457">&#171;Decorator&#187;</text><text fill="#000000" font-family="sans-serif" font-size="14" lengthAdjust="spacing" textLength="24.124" x="706.2607" y="290.627">Soy</text><line style="stroke:#181818;stroke-width:0.5;" x1="586.58" x2="817.5654" y1="298.7031" y2="298.7031"/><rect fill="transparent" height="6" style="stroke:#C82930;stroke-width:1;" width="6" x="593.58" y="310.0078"/><text fill="#000000" font-family="sans-serif" font-size="14" lengthAdjust="spacing" textLength="129.9785" x="605.58" y="317.2363">beverage : Beverage</text><line style="stroke:#181818;stroke-width:0.5;" x1="586.58" x2="817.5654" y1="324.3125" y2="324.3125"/><ellipse cx="596.58" cy="338.6172" fill="#84BE84" rx="3" ry="3" style="stroke:#038048;stroke-width:1;"/><text fill="#000000" font-family="sans-serif" font-size="14" lengthAdjust="spacing" textLength="206.9854" x="605.58" y="342.8457">&lt;init&gt;(umlparser.Beverage) : void</text><ellipse cx="596.58" cy="356.2266" fill="#84BE84" rx="3" ry="3" style="stroke:#038048;stroke-width:1;"/><text fill="#000000" font-family="sans-serif" font-size="14" lengthAdjust="spacing" textLength="206.9854" x="605.58" y="360.4551">getDescription() : java.lang.String</text><ellipse cx="596.58" cy="373.8359" fill="#84BE84" rx="3" ry="3" style="stroke:#038048;stroke-width:1;"/><text fill="#000000" font-family="sans-serif" font-size="14" lengthAdjust="spacing" textLength="88.71" x="605.58" y="378.0645">cost() : double</text></g><!--class String--><g id="elem_String"><rect fill="#F1F1F1" height="48" id="String" rx="2.5" ry="2.5" style="stroke:#181818;stroke-width:0.5;" width="68.5723" x="474.58" y="797"/><ellipse cx="489.58" cy="813" fill="#ADD1B2" rx="11" ry="11" style="stroke:#181818;stroke-width:1;"/><path d="M492.3456,808.875 Q492.5019,808.6563 492.6894,808.5469 Q492.8769,808.4375 493.0956,808.4375 Q493.4706,808.4375 493.705,808.7031 Q493.9394,808.9531 493.9394,809.5625 L493.9394,811.0156 Q493.9394,811.625 493.705,811.8906 Q493.4706,812.1563 493.0956,812.1563 Q492.7519,812.1563 492.5488,811.9531 Q492.3456,811.7656 492.2363,811.25 Q492.1894,810.8906 492.0019,810.7031 Q491.6738,810.3281 491.0644,810.1094 Q490.455,809.8906 489.83,809.8906 Q489.0644,809.8906 488.4238,810.2188 Q487.7988,810.5469 487.2988,811.2969 Q486.8144,812.0469 486.8144,813.0781 L486.8144,814.1719 Q486.8144,815.4063 487.705,816.2344 Q488.5956,817.0469 490.1894,817.0469 Q491.1269,817.0469 491.7831,816.7969 Q492.1738,816.6406 492.5956,816.2031 Q492.8613,815.9375 493.0019,815.8594 Q493.1581,815.7813 493.3613,815.7813 Q493.6894,815.7813 493.9394,816.0469 Q494.205,816.2969 494.205,816.6406 Q494.205,816.9844 493.8613,817.3906 Q493.3613,817.9688 492.5644,818.2969 Q491.4863,818.75 490.1894,818.75 Q488.6738,818.75 487.4706,818.125 Q486.4863,817.625 485.7988,816.5625 Q485.1113,815.4844 485.1113,814.2031 L485.1113,813.0469 Q485.1113,811.7188 485.7206,810.5781 Q486.3456,809.4219 487.4394,808.8125 Q488.5331,808.1875 489.7675,808.1875 Q490.5019,808.1875 491.1425,808.3594 Q491.7988,808.5156 492.3456,808.875 Z " fill="#000000"/><text fill="#000000" font-family="sans-serif" font-size="14" lengthAdjust="spacing" textLength="36.5723" x="503.58" y="818.7285">String</text><line style="stroke:#181818;stroke-width:0.5;" x1="475.58" x2="542.1523" y1="829" y2="829"/><line style="stroke:#181818;stroke-width:0.5;" x1="475.58" x2="542.1523" y1="837" y2="837"/></g><!--class *--><g id="elem_*"><rect fill="#F1F1F1" height="48" id="*" rx="2.5" ry="2.5" style="stroke:#181818;stroke-width:0.5;" width="37.4482" x="1434.58" y="296.5"/><ellipse cx="1449.58" cy="312.5" fill="#ADD1B2" rx="11" ry="11" style="stroke:#181818;stroke-width:1;"/><path d="M1452.3456,308.375 Q1452.5019,308.1563 1452.6894,308.0469 Q1452.8769,307.9375 1453.0956,307.9375 Q1453.4706,307.9375 1453.705,308.2031 Q1453.9394,308.4531 1453.9394,309.0625 L1453.9394,310.5156 Q1453.9394,311.125 1453.705,311.3906 Q1453.4706,311.6563 1453.0956,311.6563 Q1452.7519,311.6563 1452.5488,311.4531 Q1452.3456,311.2656 1452.2363,310.75 Q1452.1894,310.3906 1452.0019,310.2031 Q1451.6738,309.8281 1451.0644,309.6094 Q1450.455,309.3906 1449.83,309.3906 Q1449.0644,309.3906 1448.4238,309.7188 Q1447.7988,310.0469 1447.2988,310.7969 Q1446.8144,311.5469 1446.8144,312.5781 L1446.8144,313.6719 Q1446.8144,314.9063 1447.705,315.7344 Q1448.5956,316.5469 1450.1894,316.5469 Q1451.1269,316.5469 1451.7831,316.2969 Q1452.1738,316.1406 1452.5956,315.7031 Q1452.8613,315.4375 1453.0019,315.3594 Q1453.1581,315.2813 1453.3613,315.2813 Q1453.6894,315.2813 1453.9394,315.5469 Q1454.205,315.7969 1454.205,316.1406 Q1454.205,316.4844 1453.8613,316.8906 Q1453.3613,317.4688 1452.5644,317.7969 Q1451.4863,318.25 1450.1894,318.25 Q1448.6738,318.25 1447.4706,317.625 Q1446.4863,317.125 1445.7988,316.0625 Q1445.1113,314.9844 1445.1113,313.7031 L1445.1113,312.5469 Q1445.1113,311.2188 1445.7206,310.0781 Q1446.3456,308.9219 1447.4394,308.3125 Q1448.5331,307.6875 1449.7675,307.6875 Q1450.5019,307.6875 1451.1425,307.8594 Q1451.7988,308.0156 1452.3456,308.375 Z " fill="#000000"/><text fill="#000000" font-family="sans-serif" font-size="14" lengthAdjust="spacing" textLength="5.4482" x="1463.58" y="318.2285">*</text><line style="stroke:#181818;stroke-width:0.5;" x1="1435.58" x2="1471.0282" y1="328.5" y2="328.5"/><line style="stroke:#181818;stroke-width:0.5;" x1="1435.58" x2="1471.0282" y1="336.5" y2="336.5"/></g><!--link CondimentDecoratorLabel to CondimentDecorator--><g id="link_CondimentDecoratorLabel_CondimentDecorator"><path codeLine="17" d="M6,330.88 C9.21,344.42 16.88,369.53 32.08,385 C73.39,427.06 126.057,454.2402 177.717,473.7502 " fill="transparent" id="CondimentDecoratorLabel-to-CondimentDecorator" style="stroke:#FF0000;stroke-width:1;"/><polygon fill="#FF0000" points="183.33,475.87,176.3236,468.9482,178.6525,474.1035,173.4972,476.4323,183.33,475.87" style="stroke:#FF0000;stroke-width:1;"/><text fill="#000000" font-family="sans-serif" font-size="13" lengthAdjust="spacing" textLength="57.0781" x="90.08" y="429.4951">Decorator</text></g><!--link LoggerLabel to Logger--><g id="link_LoggerLabel_Logger"><path codeLine="39" d="M1000.08,102.64 C1000.08,128.07 1000.08,195.38 1000.08,249.77 " fill="transparent" id="LoggerLabel-to-Logger" style="stroke:#0000FF;stroke-width:1;"/><polygon fill="#0000FF" points="1000.08,255.77,1004.08,246.77,1000.08,250.77,996.08,246.77,1000.08,255.77" style="stroke:#0000FF;stroke-width:1;"/><text fill="#000000" font-family="sans-serif" font-size="13" lengthAdjust="spacing" textLength="54.209" x="1001.08" y="222.4951">Singleton</text></g><!--link MilkLabel to Milk--><g id="link_MilkLabel_Milk"><path codeLine="48" d="M166.08,102.64 C166.08,128.07 166.08,195.38 166.08,249.77 " fill="transparent" id="MilkLabel-to-Milk" style="stroke:#FF0000;stroke-width:1;"/><polygon fill="#FF0000" points="166.08,255.77,170.08,246.77,166.08,250.77,162.08,246.77,166.08,255.77" style="stroke:#FF0000;stroke-width:1;"/><text fill="#000000" font-family="sans-serif" font-size="13" lengthAdjust="spacing" textLength="57.0781" x="167.08" y="222.4951">Decorator</text></g><!--link MochaLabel to Mocha--><g id="link_MochaLabel_Mocha"><path codeLine="57" d="M434.08,102.64 C434.08,128.07 434.08,195.38 434.08,249.77 " fill="transparent" id="MochaLabel-to-Mocha" style="stroke:#FF0000;stroke-width:1;"/><polygon fill="#FF0000" points="434.08,255.77,438.08,246.77,434.08,250.77,430.08,246.77,434.08,255.77" style="stroke:#FF0000;stroke-width:1;"/><text fill="#000000" font-family="sans-serif" font-size="13" lengthAdjust="spacing" textLength="57.0781" x="435.08" y="222.4951">Decorator</text></g><!--link SoyLabel to Soy--><g id="link_SoyLabel_Soy"><path codeLine="83" d="M702.08,102.64 C702.08,128.07 702.08,195.38 702.08,249.77 " fill="transparent" id="SoyLabel-to-Soy" style="stroke:#FF0000;stroke-width:1;"/><polygon fill="#FF0000" points="702.08,255.77,706.08,246.77,702.08,250.77,698.08,246.77,702.08,255.77" style="stroke:#FF0000;stroke-width:1;"/><text fill="#000000" font-family="sans-serif" font-size="13" lengthAdjust="spacing" textLength="57.0781" x="703.08" y="222.4951">Decorator</text></g><!--link Beverage to String--><g id="link_Beverage_String"><path codeLine="91" d="M509.08,736.17 C509.08,757.46 509.08,774.34 509.08,790.82 " fill="transparent" id="Beverage-to-String" style="stroke:#181818;stroke-width:1;"/><polygon fill="#181818" points="509.08,796.82,513.08,787.82,509.08,791.82,505.08,787.82,509.08,796.82" style="stroke:#181818;stroke-width:1;"/><text fill="#000000" font-family="sans-serif" font-size="13" lengthAdjust="spacing" textLength="7.23" x="501.2674" y="786.114">1</text></g><!--link CondimentDecorator to Beverage--><g id="link_CondimentDecorator_Beverage"><path codeLine="92" d="M358.58,557.18 C382.37,575.96 396.0012,586.7275 421.1612,606.5875 " fill="transparent" id="CondimentDecorator-to-Beverage" style="stroke:#181818;stroke-width:1;"/><polygon fill="transparent" points="435.29,617.74,424.8787,601.8779,417.4437,611.2971,435.29,617.74" style="stroke:#181818;stroke-width:1;"/></g><!--link Espresso to Beverage--><g id="link_Espresso_Beverage"><path codeLine="93" d="M509.08,551.79 C509.08,571.73 509.08,578.09 509.08,599.94 " fill="transparent" id="Espresso-to-Beverage" style="stroke:#181818;stroke-width:1;"/><polygon fill="transparent" points="509.08,617.94,515.08,599.94,503.08,599.94,509.08,617.94" style="stroke:#181818;stroke-width:1;"/></g><!--link HouseBlend to Beverage--><g id="link_HouseBlend_Beverage"><path codeLine="94" d="M622,551.79 C603.87,571.73 593.8269,582.77 573.9669,604.62 " fill="transparent" id="HouseBlend-to-Beverage" style="stroke:#181818;stroke-width:1;"/><polygon fill="transparent" points="561.86,617.94,578.4069,608.6556,569.5269,600.5843,561.86,617.94" style="stroke:#181818;stroke-width:1;"/></g><!--link Milk to CondimentDecorator--><g id="link_Milk_CondimentDecorator"><path codeLine="95" d="M211.63,385.24 C229.84,410.72 239.9424,424.8666 256.6624,448.2566 " fill="transparent" id="Milk-to-CondimentDecorator" style="stroke:#181818;stroke-width:1;"/><polygon fill="transparent" points="267.13,462.9,261.5435,444.7674,251.7813,451.7458,267.13,462.9" style="stroke:#181818;stroke-width:1;"/></g><!--link Mocha to CondimentDecorator--><g id="link_Mocha_CondimentDecorator"><path codeLine="96" d="M388.53,385.24 C370.32,410.72 360.2176,424.8666 343.4976,448.2566 " fill="transparent" id="Mocha-to-CondimentDecorator" style="stroke:#181818;stroke-width:1;"/><polygon fill="transparent" points="333.03,462.9,348.3787,451.7458,338.6165,444.7674,333.03,462.9" style="stroke:#181818;stroke-width:1;"/></g><!--link OrderManager to *--><g id="link_OrderManager_*"><path codeLine="97" d="M1453.08,151.7 C1453.08,198.78 1453.08,256.61 1453.08,290.36 " fill="transparent" id="OrderManager-to-*" style="stroke:#181818;stroke-width:1;"/><polygon fill="#181818" points="1453.08,296.36,1457.08,287.36,1453.08,291.36,1449.08,287.36,1453.08,296.36" style="stroke:#181818;stroke-width:1;"/></g><!--link Soy to CondimentDecorator--><g id="link_Soy_CondimentDecorator"><path codeLine="98" d="M585.54,376.8 C579.64,379.58 573.79,382.33 568.08,385 C512.6,410.98 466.8652,432.1911 416.4352,455.4511 " fill="transparent" id="Soy-to-CondimentDecorator" style="stroke:#181818;stroke-width:1;"/><polygon fill="transparent" points="400.09,462.99,418.9481,460.8995,413.9222,450.0027,400.09,462.99" style="stroke:#181818;stroke-width:1;"/></g><!--SRC=[pLLDRzim3BtxLmZk9Llh0CDkHM2WIGUiGu8SqfsA7cX9SBJ8aY4fsOPk_ttwi1KxiRil52XoKSX7Ya-Ff85p-RLYtvWe4xrZeWO55S8Sj4PFoHpmhbHoByX2SgbcirkAfG8ZLPwZ3V1AYdFCnkRYr4XXCKjMRisSx-apC7HJx3NjWwKYL8q2rmf4sQBkjmpl1DLw2Fa- -Pb0eOq2RD2S7gY2abfY25qWGZLMh3RCug_H5pZ0bDkyqurHxZKGkaGp9fZ99s-i_o0PyRQIcjjZfFSDncAfZVSIkIyujOKa70hAKMf_eD522i8gAanyqwLp9oDsb3rSA4eUitmWqjwInZ_faV40ig_Xqt_Hj9H2ftpGjR8Ao6Vo3Jn7YFqehLHpJWNvb-XFYy_tDtND6GOlv7YA2fYOd59uU8oOKtsMiYnfeqddx7GeR8yw8OBPFNxilBIfgt7rfy4Lbo4cj061gOqBA6yTqU2k0Nl7lk9sFZLLqnXuYRWipsYDabenlWkKugdJMCvsqag1ZNUSTqw6YdQahkDqTGKu5jnwNsIKLX9leQ4LZrrUpZXCp7jU5RDGsDgjjgOKl-RkY4KnOVwaE0kxGh-lS1to-lj3PczkuISjrxl8mXOdfV_rql3Nhq10sMUgtM0mRMOUa8yED13Y4Hqj_FyUg5OIsyta7NeoEXSR-JtqJtleT8yr3VQEix-gpedVjynMdRvBKGCV-0fasOyy5XUtTy_QsSizkzy5pdAUDapVcBEdjo_nROhSWuy4_080]--></g></svg>