<svg xmlns="http://www.w3.org/2000/svg" xmlns:xlink="http://www.w3.org/1999/xlink" contentStyleType="text/css" data-diagram-type="CLASS" height="227px" preserveAspectRatio="none" style="width:299px;height:227px;background:#FFFFFF;" version="1.1" viewBox="0 0 299 227" width="299px" zoomAndPan="magnify"><defs/><g><!--cluster umlparser--><g id="cluster_umlparser"><path d="M8.5,6 L83.1777,6 A3.75,3.75 0 0 1 85.6777,8.5 L92.6777,28.4883 L289.5,28.4883 A2.5,2.5 0 0 1 292,30.9883 L292,217.92 A2.5,2.5 0 0 1 289.5,220.42 L8.5,220.42 A2.5,2.5 0 0 1 6,217.92 L6,8.5 A2.5,2.5 0 0 1 8.5,6 " fill="transparent" style="stroke:#000000;stroke-width:1.5;"/><line style="stroke:#000000;stroke-width:1.5;" x1="6" x2="92.6777" y1="28.4883" y2="28.4883"/><text fill="#000000" font-family="sans-serif" font-size="14" font-weight="bold" lengthAdjust="spacing" textLength="73.6777" x="10" y="21.5352">umlparser</text></g><!--class ExampleClass--><g id="elem_ExampleClass"><rect codeLine="1" fill="#F1F1F1" height="163.418" id="ExampleClass" rx="2.5" ry="2.5" style="stroke:#181818;stroke-width:0.5;" width="253.1992" x="22.4" y="41"/><ellipse cx="98.0636" cy="57" fill="#ADD1B2" rx="11" ry="11" style="stroke:#181818;stroke-width:1;"/><path d="M100.5367,63.1431 Q99.9557,63.4419 99.3165,63.5913 Q98.6773,63.7407 97.9718,63.7407 Q95.4649,63.7407 94.1451,62.0889 Q92.8253,60.437 92.8253,57.3159 Q92.8253,54.1865 94.1451,52.5347 Q95.4649,50.8828 97.9718,50.8828 Q98.6773,50.8828 99.3248,51.0322 Q99.9723,51.1816 100.5367,51.4805 L100.5367,54.2031 Q99.9059,53.6221 99.3124,53.3523 Q98.7188,53.0825 98.088,53.0825 Q96.7433,53.0825 96.0584,54.1492 Q95.3736,55.2158 95.3736,57.3159 Q95.3736,59.4077 96.0584,60.4744 Q96.7433,61.541 98.088,61.541 Q98.7188,61.541 99.3124,61.2712 Q99.9059,61.0015 100.5367,60.4204 Z " fill="#000000"/><text fill="#000000" font-family="sans-serif" font-size="14" lengthAdjust="spacing" textLength="93.3721" x="118.5636" y="62.291">ExampleClass</text><line style="stroke:#181818;stroke-width:0.5;" x1="23.4" x2="274.5992" y1="73" y2="73"/><rect fill="transparent" height="6" style="stroke:#C82930;stroke-width:1;" width="6" x="30.4" y="83.7441"/><text fill="#000000" font-family="sans-serif" font-size="14" lengthAdjust="spacing" textLength="53.6074" x="42.4" y="90.5352">foo : int</text><rect fill="transparent" height="6" style="stroke:#C82930;stroke-width:1;" width="6" x="30.4" y="100.2324"/><text fill="#000000" font-family="sans-serif" font-size="14" lengthAdjust="spacing" textLength="140.5537" x="42.4" y="107.0234">bar : java.lang.String</text><line style="stroke:#181818;stroke-width:0.5;" x1="23.4" x2="274.5992" y1="113.9766" y2="113.9766"/><ellipse cx="33.4" cy="127.7207" fill="#84BE84" rx="3" ry="3" style="stroke:#038048;stroke-width:1;"/><text fill="#000000" font-family="sans-serif" font-size="14" lengthAdjust="spacing" textLength="227.1992" x="42.4" y="131.5117">&lt;init&gt;(int, java.lang.String) : void</text><ellipse cx="33.4" cy="144.209" fill="#84BE84" rx="3" ry="3" style="stroke:#038048;stroke-width:1;"/><text fill="#000000" font-family="sans-serif" font-size="14" lengthAdjust="spacing" textLength="86.8369" x="42.4" y="148">getFoo() : int</text><ellipse cx="33.4" cy="160.6973" fill="#84BE84" rx="3" ry="3" style="stroke:#038048;stroke-width:1;"/><text fill="#000000" font-family="sans-serif" font-size="14" lengthAdjust="spacing" textLength="113.9482" x="42.4" y="164.4883">setFoo(int) : void</text><ellipse cx="33.4" cy="177.1855" fill="#84BE84" rx="3" ry="3" style="stroke:#038048;stroke-width:1;"/><text fill="#000000" font-family="sans-serif" font-size="14" lengthAdjust="spacing" textLength="170.666" x="42.4" y="180.9766">getBar() : java.lang.String</text><ellipse cx="33.4" cy="193.6738" fill="#84BE84" rx="3" ry="3" style="stroke:#038048;stroke-width:1;"/><text fill="#000000" font-family="sans-serif" font-size="14" lengthAdjust="spacing" textLength="197.7773" x="42.4" y="197.4648">setBar(java.lang.String) : void</text></g><!--SRC=[Iyv9B2vMACtDAKWiAaujqdEjICmjo4br1WjNSoaew2gavUShM2bavfM0UKc9HK1ULc9PebvEObwwNd19KMPUEb1AMy4cCo-pn4u3g587Gu4cK5DPVcOAM65wQebRVhw69jnOROLYY12GYwxIAR48h1AhbSKGUPosrG80]--></g></svg>